<svg width="1023" height="541" viewBox="0 0 1023 541" fill="none"
    xmlns="http://www.w3.org/2000/svg">
    <path d="M768 -3454.5V-2697.5C768 -2678.72 752.778 -2663.5 734 -2663.5H517.799M100 -2688.5L100 -1640V-846.676C100 -828.025 115.025 -812.856 133.674 -812.678L484.486 -809.319C502.993 -809.142 517.959 -794.194 518.158 -775.687L521.625 -453.8V-23.5V1061.5" stroke="url(#paint0_linear)" stroke-width="3"/>
    <path d="M768 -3454.5V-2697.5C768 -2678.72 752.778 -2663.5 734 -2663.5H517.799M100 -2688.5L100 -1640V-846.676C100 -828.025 115.025 -812.856 133.674 -812.678L484.486 -809.319C502.993 -809.142 517.959 -794.194 518.158 -775.687L521.625 -453.8V-23.5V1061.5" stroke="url(#paint0_linear)" stroke-width="3"/>
    <path d="M865 -478.5L865 182" stroke="#94E3C1" stroke-width="3"/>
    <path d="M174 -513.5L174 183" stroke="#94E3C1" stroke-width="3"/>
    <defs>
        <linearGradient id="paint0_linear" x1="226.479" y1="-2056.86" x2="266.746" y2="733.412" gradientUnits="userSpaceOnUse">
            <stop stop-color="#CBF5E5"/>
            <stop offset="0.268825" stop-color="#00643B"/>
            <stop offset="0.339653" stop-color="#8BDEBB"/>
            <stop offset="0.929892" stop-color="#97E6C4"/>
            <stop offset="1" stop-color="#B035C9"/>
        </linearGradient>
    </defs>
</svg>
