<svg width="1023" height="541" viewBox="0 0 1023 541" fill="none" xmlns="http://www.w3.org/2000/svg">
<rect y="-5090" width="1024" height="6213" fill="white"/>
<path d="M248 -3780V-3549.75C248 -3531.07 263.069 -3515.89 281.748 -3515.75L484.051 -3514.25C502.73 -3514.11 517.799 -3498.93 517.799 -3480.25V-3120C517.799 -3101.22 533.022 -3086 551.799 -3086H734C752.778 -3086 768 -3070.78 768 -3052V-2697.5C768 -2678.72 752.778 -2663.5 734 -2663.5H551.799C533.022 -2663.5 517.799 -2648.28 517.799 -2629.5V-2238C517.799 -2219.22 502.577 -2204 483.799 -2204H134C115.222 -2204 100 -2188.78 100 -2170V-1640V-846.676C100 -828.025 115.025 -812.856 133.674 -812.678L484.486 -809.319C502.993 -809.142 517.959 -794.194 518.158 -775.687L521.625 -453.8V-23.5V365.5V541.5V908" stroke="url(#paint0_linear)" stroke-width="5"/>
<path d="M520 -141H819C844.405 -141 865 -120.405 865 -95V182" stroke="#94E3C1" stroke-width="5"/>
<path d="M519 -72H215C192.356 -72 174 -53.6437 174 -31V183" stroke="#94E3C1" stroke-width="5"/>
<defs>
<linearGradient id="paint0_linear" x1="226.479" y1="-2056.86" x2="266.746" y2="733.414" gradientUnits="userSpaceOnUse">
<stop stop-color="#CBF5E5"/>
<stop offset="0.268825" stop-color="#00643B"/>
<stop offset="0.339653" stop-color="#8BDEBB"/>
<stop offset="0.929892" stop-color="#97E6C4"/>
<stop offset="1" stop-color="#B035C9"/>
</linearGradient>
</defs>
</svg>
