<?xml version="1.0" encoding="UTF-8" standalone="no"?>
<svg width="100%" height="100%" viewBox="0 0 1023 541" version="1.1" xmlns="http://www.w3.org/2000/svg" xmlns:xlink="http://www.w3.org/1999/xlink" xml:space="preserve" xmlns:serif="http://www.serif.com/" style="fill-rule:evenodd;clip-rule:evenodd;">
    <g transform="matrix(1,0,0,1,-271.454,-396.356)">
        <path d="M485,7L485,237.251C485,255.93 500.069,271.112 518.748,271.25L721.051,272.75C739.73,272.888 754.799,288.07 754.799,306.749L754.799,991.5M754.799,1123.5L754.799,1549C754.799,1567.78 739.577,1583 720.799,1583L371,1583C352.222,1583 337,1598.22 337,1617L337,2940.32C337,2958.97 352.025,2974.14 370.674,2974.32L721.486,2977.68C739.993,2977.86 754.959,2992.81 755.158,3011.31L758.625,3333.2L758.625,4695" style="fill:none;fill-rule:nonzero;stroke:url(#_Linear1);stroke-width:3px;"/>
    </g>
    <defs>
        <linearGradient id="_Linear1" x1="0" y1="0" x2="1" y2="0" gradientUnits="userSpaceOnUse" gradientTransform="matrix(40.267,2790.27,-2790.27,40.267,463.479,1730.14)"><stop offset="0" style="stop-color:rgb(203,245,229);stop-opacity:1"/><stop offset="0.27" style="stop-color:rgb(0,100,59);stop-opacity:1"/><stop offset="0.34" style="stop-color:rgb(139,222,187);stop-opacity:1"/><stop offset="0.93" style="stop-color:rgb(151,230,196);stop-opacity:1"/><stop offset="1" style="stop-color:rgb(176,53,201);stop-opacity:1"/></linearGradient>
    </defs>
</svg>
