<?xml version="1.0" encoding="UTF-8" standalone="no"?>
<!DOCTYPE svg PUBLIC "-//W3C//DTD SVG 1.1//EN" "http://www.w3.org/Graphics/SVG/1.1/DTD/svg11.dtd">
<svg width="100%" height="100%" viewBox="0 0 1023 541" version="1.1" xmlns="http://www.w3.org/2000/svg" xmlns:xlink="http://www.w3.org/1999/xlink" xml:space="preserve" xmlns:serif="http://www.serif.com/" style="fill-rule:evenodd;clip-rule:evenodd;">
    <g transform="matrix(1,0,0,-1,0,685.167)">
        <path d="M768,-749.5L768,7.5C768,26.278 752.778,41.5 734,41.5L551.799,41.5C533.022,41.5 517.799,56.722 517.799,75.5L517.799,467C517.799,485.778 502.577,501 483.799,501L134,501C115.222,501 100,516.222 100,535L100,1858.32C100,1876.97 115.025,1892.14 133.674,1892.32L484.486,1895.68C502.993,1895.86 517.959,1910.81 518.158,1929.31L521.625,2251.2L521.625,3613" style="fill:none;fill-rule:nonzero;stroke:url(#_Linear1);stroke-width:3px;"/>
    </g>
    <defs>
        <linearGradient id="_Linear1" x1="0" y1="0" x2="1" y2="0" gradientUnits="userSpaceOnUse" gradientTransform="matrix(40.267,2790.27,-2790.27,40.267,226.479,648.137)"><stop offset="0" style="stop-color:rgb(203,245,229);stop-opacity:1"/><stop offset="0.27" style="stop-color:rgb(0,100,59);stop-opacity:1"/><stop offset="0.34" style="stop-color:rgb(139,222,187);stop-opacity:1"/><stop offset="0.93" style="stop-color:rgb(151,230,196);stop-opacity:1"/><stop offset="1" style="stop-color:rgb(176,53,201);stop-opacity:1"/></linearGradient>
    </defs>
</svg>
