<svg width="1023" height="541" viewBox="0 0 1023 541" fill="none" xmlns="http://www.w3.org/2000/svg">
<rect y="-5631" width="1024" height="6213" fill="white"/>
<path d="M248 -4321V-4090.75C248 -4072.07 263.069 -4056.89 281.748 -4056.75L484.051 -4055.25C502.73 -4055.11 517.799 -4039.93 517.799 -4021.25V-3661C517.799 -3642.22 533.022 -3627 551.799 -3627H734C752.778 -3627 768 -3611.78 768 -3593V-3238.5C768 -3219.72 752.778 -3204.5 734 -3204.5H551.799C533.022 -3204.5 517.799 -3189.28 517.799 -3170.5V-2779C517.799 -2760.22 502.577 -2745 483.799 -2745H134C115.222 -2745 100 -2729.78 100 -2711V-2181V-1387.68C100 -1369.03 115.025 -1353.86 133.674 -1353.68L484.486 -1350.32C502.993 -1350.14 517.959 -1335.19 518.158 -1316.69L521.625 -994.8V-564.5V-175.5V0.5V367" stroke="url(#paint0_linear)" stroke-width="5"/>
<defs>
<linearGradient id="paint0_linear" x1="226.479" y1="-2597.86" x2="266.746" y2="192.414" gradientUnits="userSpaceOnUse">
<stop stop-color="#CBF5E5"/>
<stop offset="0.268825" stop-color="#00643B"/>
<stop offset="0.339653" stop-color="#8BDEBB"/>
<stop offset="0.929892" stop-color="#97E6C4"/>
<stop offset="1" stop-color="#B035C9"/>
</linearGradient>
</defs>
</svg>
