<svg width="1023" height="541" viewBox="0 0 1023 541" fill="none" xmlns="http://www.w3.org/2000/svg">
<rect y="-4008" width="1024" height="6213" fill="white"/>
<path d="M248 -2698V-2467.75C248 -2449.07 263.069 -2433.89 281.748 -2433.75L484.051 -2432.25C502.73 -2432.11 517.799 -2416.93 517.799 -2398.25V-2038C517.799 -2019.22 533.022 -2004 551.799 -2004H734C752.778 -2004 768 -1988.78 768 -1970V-1615.5C768 -1596.72 752.778 -1581.5 734 -1581.5H551.799C533.022 -1581.5 517.799 -1566.28 517.799 -1547.5V-1156C517.799 -1137.22 502.577 -1122 483.799 -1122H134C115.222 -1122 100 -1106.78 100 -1088V-558V235.324C100 253.975 115.025 269.144 133.674 269.322L484.486 272.681C502.993 272.858 517.959 287.806 518.158 306.313L521.625 628.2V1058.5V1447.5V1623.5V1990" stroke="url(#paint0_linear)" stroke-width="5"/>
<defs>
<linearGradient id="paint0_linear" x1="226.479" y1="-974.863" x2="266.746" y2="1815.41" gradientUnits="userSpaceOnUse">
<stop stop-color="#CBF5E5"/>
<stop offset="0.268825" stop-color="#00643B"/>
<stop offset="0.339653" stop-color="#8BDEBB"/>
<stop offset="0.929892" stop-color="#97E6C4"/>
<stop offset="1" stop-color="#B035C9"/>
</linearGradient>
</defs>
</svg>
