<svg width="1023" height="541" viewBox="0 0 1023 541" fill="none" xmlns="http://www.w3.org/2000/svg">
<rect y="-4549" width="1024" height="6213" fill="white"/>
<path d="M248 -3239V-3008.75C248 -2990.07 263.069 -2974.89 281.748 -2974.75L484.051 -2973.25C502.73 -2973.11 517.799 -2957.93 517.799 -2939.25V-2579C517.799 -2560.22 533.022 -2545 551.799 -2545H734C752.778 -2545 768 -2529.78 768 -2511V-2156.5C768 -2137.72 752.778 -2122.5 734 -2122.5H551.799C533.022 -2122.5 517.799 -2107.28 517.799 -2088.5V-1697C517.799 -1678.22 502.577 -1663 483.799 -1663H134C115.222 -1663 100 -1647.78 100 -1629V-1099V-305.676C100 -287.025 115.025 -271.856 133.674 -271.678L484.486 -268.319C502.993 -268.142 517.959 -253.194 518.158 -234.687L521.625 87.2002V517.5V906.5V1082.5V1449" stroke="url(#paint0_linear)" stroke-width="5"/>
<path d="M520 400H819C844.405 400 865 420.595 865 446V723" stroke="#94E3C1" stroke-width="5"/>
<path d="M519 469H215C192.356 469 174 487.356 174 510V724" stroke="#94E3C1" stroke-width="5"/>
<defs>
<linearGradient id="paint0_linear" x1="226.479" y1="-1515.86" x2="266.746" y2="1274.41" gradientUnits="userSpaceOnUse">
<stop stop-color="#CBF5E5"/>
<stop offset="0.268825" stop-color="#00643B"/>
<stop offset="0.339653" stop-color="#8BDEBB"/>
<stop offset="0.929892" stop-color="#97E6C4"/>
<stop offset="1" stop-color="#B035C9"/>
</linearGradient>
</defs>
</svg>
