<svg width="1023" height="541" viewBox="0 0 1023 541" fill="none" xmlns="http://www.w3.org/2000/svg">
<rect y="-3467" width="1024" height="6213" fill="white"/>
<path d="M248 -2157V-1926.75C248 -1908.07 263.069 -1892.89 281.748 -1892.75L484.051 -1891.25C502.73 -1891.11 517.799 -1875.93 517.799 -1857.25V-1497C517.799 -1478.22 533.022 -1463 551.799 -1463H734C752.778 -1463 768 -1447.78 768 -1429V-1074.5C768 -1055.72 752.778 -1040.5 734 -1040.5H551.799C533.022 -1040.5 517.799 -1025.28 517.799 -1006.5V-615C517.799 -596.222 502.577 -581 483.799 -581H134C115.222 -581 100 -565.778 100 -547V-17V776.324C100 794.975 115.025 810.144 133.674 810.322L484.486 813.681C502.993 813.858 517.959 828.806 518.158 847.313L521.625 1169.2V1599.5V1988.5V2164.5V2531" stroke="url(#paint0_linear)" stroke-width="5"/>
<path d="M100 -55H504C531.614 -55 554 -32.6142 554 -5V249" stroke="#409170" stroke-width="5"/>
<defs>
<linearGradient id="paint0_linear" x1="226.479" y1="-433.863" x2="266.746" y2="2356.41" gradientUnits="userSpaceOnUse">
<stop stop-color="#CBF5E5"/>
<stop offset="0.268825" stop-color="#00643B"/>
<stop offset="0.339653" stop-color="#8BDEBB"/>
<stop offset="0.929892" stop-color="#97E6C4"/>
<stop offset="1" stop-color="#B035C9"/>
</linearGradient>
</defs>
</svg>
