<?xml version="1.0" encoding="UTF-8" standalone="no"?>
<svg width="559px" height="444px" viewBox="0 0 559 444" version="1.1" xmlns="http://www.w3.org/2000/svg" xmlns:xlink="http://www.w3.org/1999/xlink">
    <!-- Generator: Sketch 50.2 (55047) - http://www.bohemiancoding.com/sketch -->
    <title>stocktake2</title>
    <desc>Created with Sketch.</desc>
    <defs></defs>
    <g id="Re-Desing_V04" stroke="none" stroke-width="1" fill="none" fill-rule="evenodd">
        <g id="Policy-Portal-Stocktake-unroll" transform="translate(-134.000000, -1336.000000)">
            <g id="stocktake2" transform="translate(134.000000, 1336.000000)">
                <circle id="Oval-13-Copy-8" fill="#E6FFFE" cx="180" cy="235" r="162"></circle>
                <g id="Group-24" transform="translate(0.000000, 33.000000)">
                    <rect id="Rectangle-11-Copy" stroke="#9BE8C7" stroke-width="2" x="37" y="141" width="12" height="191"></rect>
                    <rect id="Rectangle-11-Copy-2" stroke="#40BB86" stroke-width="2" x="72" y="79" width="12" height="210"></rect>
                    <rect id="Rectangle-11-Copy-3" stroke="#6DB697" stroke-width="2" x="108" y="228" width="12" height="84"></rect>
                    <rect id="Rectangle-11-Copy-4" stroke="#368161" stroke-width="2" x="143" y="259" width="12" height="116"></rect>
                    <rect id="Rectangle-11-Copy-5" stroke="#9BE8C7" stroke-width="2" x="179" y="291" width="12" height="53"></rect>
                    <rect id="Rectangle-11-Copy-6" stroke="#31D28D" stroke-width="2" x="214" y="104" width="12" height="213"></rect>
                    <rect id="Rectangle-11-Copy-7" stroke="#427660" stroke-width="2" x="250" y="211" width="12" height="164"></rect>
                    <rect id="Rectangle-11-Copy-9" stroke="#7FA897" stroke-width="2" x="320" y="138" width="12" height="210"></rect>
                    <rect id="Rectangle-11-Copy-10" stroke="#63B290" stroke-width="2" x="355" y="86" width="12" height="219"></rect>
                    <rect id="Rectangle-11-Copy-8" stroke="#427660" stroke-width="2" x="285" y="105" width="12" height="164"></rect>
                    <rect id="Rectangle-11" stroke="#00BF6D" stroke-width="2" x="1" y="5" width="12" height="280"></rect>
                    <polyline id="Path-4" stroke="#0BBFB0" points="7 4 42.9411765 141.169118 78 78 113.882353 227.636029 147 201 186 291 221 104 256 212"></polyline>
                    <circle id="Oval-3" stroke="#FFFFFF" fill="#00BF6D" cx="7" cy="4" r="4"></circle>
                    <circle id="Oval-3-Copy-2" stroke="#E7FFFE" fill="#00BF6D" cx="146" cy="202" r="4"></circle>
                    <circle id="Oval-3-Copy" stroke="#E7FFFE" fill="#00BF6D" cx="43" cy="141" r="4"></circle>
                    <circle id="Oval-3" stroke="#E7FFFE" fill="#6DB697" cx="114" cy="227" r="4"></circle>
                    <circle id="Oval-3" stroke="#E7FFFE" fill="#9BE8C7" cx="185" cy="290" r="4"></circle>
                </g>
                <circle id="Oval-13-Copy-8" fill="#0BBFB0" style="mix-blend-mode: screen;" cx="180" cy="235" r="162"></circle>
                <text id="02." font-family="IBMPlexMono-Bold, IBM Plex Mono" font-size="14" font-weight="bold" letter-spacing="0.8303558" fill="#0BBFB0">
                    <tspan x="314" y="114">02.</tspan>
                </text>
                <text id="Global-Stocktake-II" font-family="IBMPlexMono-BoldItalic, IBM Plex Mono" font-size="48" font-style="italic" font-weight="bold" line-spacing="48" letter-spacing="0.5558033" fill="#1A1A1A">
                    <tspan x="166" y="244">Global </tspan>
                    <tspan x="166" y="292">Stocktake II</tspan>
                </text>
                <text id="This-module-explores" font-family="IBMPlexSans, IBM Plex Sans" font-size="14" font-weight="normal" letter-spacing="0.5558033" fill="#1A1A1A">
                    <tspan x="166" y="332">This module explores how current decarbonization </tspan>
                    <tspan x="166" y="350">plans until 2030 relate to the long-term targets of </tspan>
                    <tspan x="166" y="368">the Paris Agreement.</tspan>
                </text>
                <text id="Current-Co2-budget" font-family="IBMPlexMono, IBM Plex Mono" font-size="10" font-weight="normal" letter-spacing="0.5558032" fill="#524DFF">
                    <tspan x="55.4977712" y="48">Current Co2 budget</tspan>
                </text>
                <path d="M23,100 L81.5,59.5" id="Path-40-Copy-8" stroke="#524DFF" stroke-width="0.5"></path>
                <text id="Current-Co2-budget" font-family="IBMPlexMono, IBM Plex Mono" font-size="10" font-weight="normal" letter-spacing="0.5558032" fill="#524DFF">
                    <tspan x="302.497771" y="441">Current Co2 budget</tspan>
                </text>
                <path d="M295,438 L263,406" id="Path-40-Copy-8" stroke="#524DFF" stroke-width="0.5"></path>
                <rect id="Rectangle-2" fill="#9BE8C7" x="398" y="0" width="161" height="13"></rect>
                <rect id="Rectangle-2" stroke="#0BBFB0" x="398.5" y="0.5" width="12" height="12"></rect>
                <rect id="Rectangle-2-Copy" fill="#9BE8C7" x="398" y="20" width="81" height="13"></rect>
                <rect id="Rectangle-2-Copy-2" fill="#9BE8C7" x="398" y="41" width="45" height="13"></rect>
                <g id="Group-7" transform="translate(398.000000, 20.000000)">
                    <rect id="Rectangle-2-Copy-3" stroke="#0BBFB0" x="0.5" y="0.5" width="12" height="12"></rect>
                    <rect id="Rectangle-2-Copy-4" stroke="#0BBFB0" x="0.5" y="21.5" width="12" height="12"></rect>
                    <text id="15-MINS." font-family="IBMPlexSans, IBM Plex Sans" font-size="10" font-weight="normal" letter-spacing="0.3970024" fill="#1A1A1A">
                        <tspan x="25" y="10">15 MINS.</tspan>
                    </text>
                </g>
                <text id="Parnow-J.,-Berthram" font-family="IBMPlexSans, IBM Plex Sans" font-size="10" font-weight="normal" letter-spacing="0.3970024" fill="#1A1A1A">
                    <tspan x="422" y="10">PARNOW J., BERTHRAM C.</tspan>
                </text>
                <g id="Group-7" transform="translate(427.000000, 42.000000)" fill="#60D6CC" stroke="#0BBFB0" stroke-width="0.5">
                    <path d="M9.36143488,2.19508837 L9.36117907,2.19508837 C9.20692326,2.11322791 9.04550465,2.04313488 8.88203953,1.98736744 C8.71499302,1.93006512 8.54103953,1.88555349 8.36529535,1.85511163 C8.18750465,1.82441395 8.00306279,1.8070186 7.81734186,1.80446047 C7.62676047,1.80087907 7.43515581,1.81341395 7.24278372,1.8400186 L7.20773721,1.58676279 C7.4129,1.55836744 7.61883023,1.5466 7.82117907,1.54864651 C7.94396977,1.55043721 8.06624884,1.55811163 8.18622558,1.57141395 L6.44234186,0.64587907 C6.28936512,0.56504186 6.12871395,0.495204651 5.96499302,0.439181395 C5.79845814,0.382134884 5.62552791,0.337623256 5.45106279,0.307181395 C5.27327209,0.276227907 5.08985349,0.259088372 4.90617907,0.256274419 C4.71738837,0.253204651 4.52603953,0.264716279 4.33443488,0.291065116 L4.2999,0.0375534884 C4.50403953,0.00966976744 4.70562093,-0.00260930233 4.91052791,0.000460465116 C5.10699302,0.00353023256 5.30396977,0.0219488372 5.49506279,0.0554604651 C5.68283023,0.0882046512 5.86880698,0.135786047 6.04787674,0.197181395 C6.22438837,0.257809302 6.3973186,0.332762791 6.5623186,0.420251163 L9.48141163,1.96920465 L9.36143488,2.19508837 Z" id="Fill-1"></path>
                    <path d="M7.76385116,1.80364186 C7.5922,1.80364186 7.41824651,1.81592093 7.24275814,1.84022326 C6.69275814,1.91594419 6.15785116,2.10703721 5.65287442,2.40710698 C5.16375814,2.69822326 4.72401395,3.07913023 4.34592093,3.53959535 C3.96680465,4.00082791 3.66929302,4.51731628 3.46131628,5.07550233 C3.24617674,5.65313023 3.13668837,6.24917674 3.13617674,6.84726977 C3.13566512,7.44254884 3.24336279,8.00457209 3.4562,8.51747907 C3.66110698,9.01043256 3.95375814,9.4366186 4.32622326,9.78426977 C4.69715349,10.1311535 5.12922326,10.3831302 5.61066512,10.533293 C6.10873488,10.6888279 6.63852558,10.7277116 7.18494419,10.6486651 C7.73289767,10.5701302 8.26473488,10.3775023 8.76638605,10.0766651 C9.25166512,9.78529302 9.68808372,9.40566512 10.0636186,8.94775814 C10.4394093,8.48933953 10.7351302,7.97592093 10.9420837,7.42233953 C11.1567116,6.84957209 11.2662,6.25736279 11.2687581,5.66233953 C11.2713163,5.06808372 11.1664326,4.50733953 10.9571767,3.99622326 C10.756107,3.50352558 10.4667814,3.07580465 10.097386,2.72559535 C9.72875814,2.37538605 9.29847907,2.12008372 8.81857209,1.96659535 C8.48038605,1.85813023 8.12710698,1.80364186 7.76385116,1.80364186 M6.64108372,10.9441302 C6.26094419,10.9441302 5.89052558,10.8886186 5.53443256,10.7775953 C5.01615349,10.6156651 4.55082791,10.3445023 4.15124651,9.97126977 C3.75217674,9.59854884 3.43906047,9.14217674 3.21982791,8.61571163 C2.99394419,8.07133953 2.87985116,7.47631628 2.88036279,6.84726977 C2.88087442,6.21847907 2.99547907,5.59250233 3.22136279,4.98596744 C3.43957209,4.40143256 3.75115349,3.86038605 4.14792093,3.37715349 C4.5452,2.89417674 5.00745581,2.49357209 5.52189767,2.18736279 C6.05654884,1.86964186 6.62368837,1.66754884 7.20771163,1.58671163 C7.79352558,1.50587442 8.36168837,1.55166512 8.89659535,1.72280465 C9.41333953,1.88831628 9.8766186,2.16306047 10.273386,2.53987442 C10.669386,2.9154093 10.9791767,3.37280465 11.1940605,3.89952558 C11.4158512,4.44185116 11.5271302,5.03533953 11.5245721,5.66336279 C11.522014,6.28857209 11.4066419,6.91071163 11.1817814,7.5116186 C10.9648512,8.09180465 10.6553163,8.6297814 10.2616186,9.1102 C9.8674093,9.5906186 9.40873488,9.98968837 8.89787442,10.2958977 C8.36706047,10.6141302 7.8029907,10.8182698 7.22152558,10.9019209 C7.02582791,10.9303163 6.83217674,10.9441302 6.64108372,10.9441302" id="Fill-3"></path>
                    <path d="M4.85846977,10.4873233 L1.97212093,8.87825349 C1.67588837,8.71299767 1.40344651,8.50578837 1.16272558,8.26225349 C0.920981395,8.01846279 0.711725581,7.73834651 0.540330233,7.43034651 C0.365865116,7.11774186 0.231818605,6.77699767 0.141260465,6.41757907 C0.0476325581,6.04895116 0.000306976744,5.65934651 5.11627907e-05,5.25925349 C-0.000204651163,4.63506744 0.11312093,4.01292791 0.337213953,3.41074186 C0.553632558,2.82978837 0.863423256,2.29232326 1.25763256,1.81343953 C1.65184186,1.33378837 2.11128372,0.936509302 2.62342326,0.63285814 C3.15346977,0.317695349 3.71753953,0.117393023 4.29951628,0.0375790698 L4.33456279,0.291090698 C3.7866093,0.3663 3.25451628,0.555346512 2.75363256,0.852602326 C2.26758605,1.14141628 1.8304,1.51925349 1.45486512,1.9758814 C1.07907442,2.43302093 0.783353488,2.94592791 0.577167442,3.50027674 C0.363818605,4.07355581 0.255609302,4.6655093 0.255865116,5.25925349 C0.25612093,5.63811395 0.300888372,6.00648605 0.388888372,6.35490465 C0.474330233,6.69283488 0.600190698,7.01260233 0.763655814,7.30576512 C0.923795349,7.59355581 1.11923721,7.85474186 1.3446093,8.08241628 C1.56844651,8.30881163 1.82144651,8.50143953 2.09644651,8.65492791 L3.81577209,9.61320698 C3.66842326,9.4338814 3.53616744,9.23920698 3.42105116,9.03199767 C3.24633023,8.71683488 3.11177209,8.37404419 3.02070233,8.01283488 C2.92733023,7.64113721 2.88026047,7.24897442 2.88051628,6.84734651 C2.88102791,6.21855581 2.99563256,5.59232326 3.22151628,4.98604419 C3.43946977,4.4015093 3.75130698,3.86046279 4.14807442,3.37723023 C4.54509767,2.89399767 5.00735349,2.49364884 5.52205116,2.18743953 C6.05670233,1.86946279 6.62358605,1.66736977 7.20786512,1.58678837 L7.24265581,1.84004419 C6.69265581,1.91602093 6.15774884,2.10685814 5.65277209,2.40718372 C5.16365581,2.6983 4.72416744,3.07920698 4.3458186,3.53967209 C3.96695814,4.00090465 3.66944651,4.51739302 3.46121395,5.07557907 C3.24607442,5.65320698 3.13684186,6.24925349 3.13633023,6.84734651 C3.13607442,7.22825349 3.18058605,7.59918372 3.26909767,7.95041628 C3.35453953,8.29013721 3.48091163,8.61246279 3.64463256,8.90767209 C3.80553953,9.19725349 4.00174884,9.45997442 4.22737674,9.68841628 C4.45223721,9.9160907 4.70574884,10.1089744 4.98126047,10.2629744 L4.98279535,10.2639977 L4.85846977,10.4873233 Z" id="Fill-5"></path>
                </g>
            </g>
        </g>
    </g>
</svg>