<?xml version="1.0" encoding="UTF-8" standalone="no"?>
<svg width="763px" height="349px" viewBox="0 0 763 349" version="1.1" xmlns="http://www.w3.org/2000/svg" xmlns:xlink="http://www.w3.org/1999/xlink">
    <!-- Generator: Sketch 50.2 (55047) - http://www.bohemiancoding.com/sketch -->
    <title>Group 4</title>
    <desc>Created with Sketch.</desc>
    <defs>
        <linearGradient x1="1.06476664%" y1="100%" x2="14.4284751%" y2="100%" id="linearGradient-1">
            <stop stop-color="#5263FF" offset="0%"></stop>
            <stop stop-color="#0BBFB0" offset="100%"></stop>
        </linearGradient>
        <linearGradient x1="50%" y1="0%" x2="50%" y2="100%" id="linearGradient-2">
            <stop stop-color="#0BBFB0" offset="0%"></stop>
            <stop stop-color="#FFFFFF" offset="100%"></stop>
        </linearGradient>
        <linearGradient x1="50%" y1="62.503104%" x2="50%" y2="3.061617e-15%" id="linearGradient-3">
            <stop stop-color="#FFFFFF" offset="0%"></stop>
            <stop stop-color="#0BBFB0" offset="100%"></stop>
        </linearGradient>
        <linearGradient x1="52.5183741%" y1="50%" x2="0%" y2="50%" id="linearGradient-4">
            <stop stop-color="#FFFFFF" offset="0%"></stop>
            <stop stop-color="#0BBFB0" offset="100%"></stop>
        </linearGradient>
    </defs>
    <g id="Re-Desing_V04" stroke="none" stroke-width="1" fill="none" fill-rule="evenodd">
        <g id="Policy-Portal-Stocktake-unroll" transform="translate(-105.000000, -373.000000)">
            <g id="cover" transform="translate(12.000000, 17.000000)">
                <g id="Group-4" transform="translate(95.000000, 321.000000)">
                    <path d="M10,205 L75.8356808,205 C86.329091,205 94.8356808,196.49341 94.8356808,186 L94.8356808,142 C94.8356808,131.50659 103.342271,123 113.835681,123 L144.659811,123 L705,123" id="Path-17" stroke="url(#linearGradient-1)"></path>
                    <path d="M157,123 L235.412809,123 L235.512842,123 C247.110821,123 256.512842,132.40202 256.512842,144 L256.512842,144 C256.512842,155.59798 265.914862,165 277.512842,165 L315.547448,165 C327.145428,165 336.547448,155.59798 336.547448,144 L336.547448,144 C336.547448,132.40202 345.949469,123 357.547448,123 L386.12342,123 C397.721399,123 407.12342,132.40202 407.12342,144 L407.12342,144 C407.12342,155.59798 416.52544,165 428.12342,165 L565.109904,165 C576.707883,165 586.109904,155.59798 586.109904,144 L586.109904,144 C586.109904,132.40202 595.511924,123 607.109904,123 L682,123" id="Path-18" stroke="#0BBFB0"></path>
                    <circle id="Oval-12" stroke="#FFFFFF" stroke-width="2" fill="#5263FF" cx="9" cy="205" r="10"></circle>
                    <circle id="Oval-12-Copy" stroke="#FFFFFF" stroke-width="2" fill="#0BBFB0" cx="234" cy="123" r="10"></circle>
                    <circle id="Oval-12-Copy-2" stroke="#FFFFFF" stroke-width="2" fill="#0BBFB0" cx="291" cy="165" r="10"></circle>
                    <circle id="Oval-12-Copy-3" stroke="#FFFFFF" stroke-width="2" fill="#0BBFB0" cx="365" cy="123" r="10"></circle>
                    <circle id="Oval-12-Copy-4" stroke="#FFFFFF" stroke-width="2" fill="#0BBFB0" cx="455" cy="165" r="10"></circle>
                    <circle id="Oval-12-Copy-5" stroke="#FFFFFF" stroke-width="2" fill="#0BBFB0" cx="528" cy="165" r="10"></circle>
                    <circle id="Oval-12-Copy-7" stroke="#FFFFFF" stroke-width="2" fill="#0BBFB0" cx="484" cy="200" r="7"></circle>
                    <circle id="Oval-12-Copy-6" stroke="#FFFFFF" stroke-width="2" fill="#0BBFB0" cx="698" cy="123" r="10"></circle>
                    <text id="PRIMER" transform="translate(40.909903, 156.989592) rotate(-45.000000) translate(-40.909903, -156.989592) " font-family="IBMPlexSans, IBM Plex Sans" font-size="14" font-weight="normal" letter-spacing="0.7781246" fill="#5263FF">
                        <tspan x="6.40990258" y="161.989592">PRIMER</tspan>
                    </text>
                    <text id="BUDGET" transform="translate(268.403806, 78.474874) rotate(-45.000000) translate(-268.403806, -78.474874) " font-family="IBMPlexSans, IBM Plex Sans" font-size="14" font-weight="normal" letter-spacing="0.7781246" fill="#0BBFB0">
                        <tspan x="229.903806" y="83.4748737">BUDGET</tspan>
                    </text>
                    <text id="TRANSITIONS" transform="translate(411.403806, 54.474874) rotate(-45.000000) translate(-411.403806, -54.474874) " font-family="Consolas" font-size="14" font-weight="normal" letter-spacing="0.7781246" fill="#0BBFB0">
                        <tspan x="341.903806" y="57.4748737">TRANSITIONS</tspan>
                    </text>
                    <text id="EXTREME-EVENTS" transform="translate(757.217514, 60.282486) rotate(-45.000000) translate(-757.217514, -60.282486) " font-family="IBMPlexSans, IBM Plex Sans" font-size="14" font-weight="normal" letter-spacing="0.7781246" fill="#0BBFB0">
                        <tspan x="696.217514" y="56.2824856">EXTREME </tspan>
                        <tspan x="696.217514" y="74.2824856">EVENTS</tspan>
                    </text>
                    <path d="M455,164 L455,187 C455,194.179702 460.820298,200 468,200 L484,200" id="Path-19" stroke="#0BBFB0" stroke-dasharray="2"></path>
                    <path d="M698.666667,163.815789 L698.666667,287" id="Path-36" stroke="url(#linearGradient-2)" stroke-dasharray="2"></path>
                    <path d="M699,123 L699,146 C699,153.179702 704.820298,159 712,159 L743,159" id="Path-19-Copy" stroke="#0BBFB0" stroke-dasharray="2"></path>
                    <path d="M699,146 L699,167 C699,174.179702 704.820298,180 712,180 L743,180" id="Path-19-Copy-2" stroke="#0BBFB0" stroke-dasharray="2"></path>
                    <circle id="Oval-12-Copy-7" stroke="#FFFFFF" stroke-width="2" fill="#0BBFB0" cx="741.5" cy="159.5" r="6.5"></circle>
                    <circle id="Oval-12-Copy-8" stroke="#FFFFFF" stroke-width="2" fill="#0BBFB0" cx="741.5" cy="182.5" r="6.5"></circle>
                    <path d="M365,124 L365,219.366197 C365,229.859607 356.49341,238.366197 346,238.366197 L169,238.366197 C158.50659,238.366197 150,246.872787 150,257.366197 L150,356" id="Path-34" stroke="url(#linearGradient-3)" stroke-dasharray="2"></path>
                    <path d="M529,165 L529,248.407407 C529,257.243963 536.163444,264.407407 545,264.407407 L683,264.407407 C691.836556,264.407407 699,271.570851 699,280.407407 L699,385" id="Path-35" stroke="url(#linearGradient-4)" stroke-dasharray="2"></path>
                </g>
            </g>
        </g>
    </g>
</svg>