<?xml version="1.0" encoding="UTF-8"?>
<svg width="320px" height="350px" viewBox="0 0 320 350" version="1.1" xmlns="http://www.w3.org/2000/svg" xmlns:xlink="http://www.w3.org/1999/xlink">
    <!-- Generator: Sketch 61 (89581) - https://sketch.com -->
    <title>earth-2-MOB</title>
    <desc>Created with Sketch.</desc>
    <g id="earth-2-MOB" stroke="none" stroke-width="1" fill="none" fill-rule="evenodd">
        <g id="Group" transform="translate(86.000000, 100.000000)">
            <g id="globe">
                <circle id="Oval-4" stroke="#0BBFB0" stroke-width="0.5" fill="#9BE8C7" cx="74.5" cy="74.5" r="74.5"></circle>
                <g id="Group-17" transform="translate(6.000000, 0.000000)" fill-rule="nonzero" stroke="#00413C" stroke-width="0.25">
                    <polygon id="Shape" points="54.2181818 2.76219512 54.9558442 2.57804878 55.1402597 2.2097561 54.7714286 2.39390244 54.4025974 2.39390244 54.0337662 2.39390244 53.8493506 2.57804878 53.2961039 2.76219512 53.1116883 2.94634146 53.6649351 2.94634146"></polygon>
                    <polygon id="Shape" points="21.0233766 30.9365854 21.2077922 30.2 20.838961 30.3841463 20.6545455 30.9365854 20.6545455 31.6731707 20.838961 31.8573171 21.3922078 31.4890244 21.0233766 31.304878"></polygon>
                    <polygon id="Shape" points="53.4805195 3.31463415 54.0337662 3.1304878 54.2181818 2.94634146 53.6649351 3.1304878 53.2961039 3.1304878 52.9272727 3.31463415 53.1116883 3.49878049"></polygon>
                    <polygon id="Shape" points="52.7428571 3.68292683 52.7428571 3.31463415 52.374026 3.49878049 52.374026 3.68292683"></polygon>
                    <polygon id="Shape" points="56.4311688 3.49878049 56.0623377 3.86707317 56.0623377 4.05121951 55.8779221 4.23536585 55.5090909 4.23536585 55.6935065 3.86707317 54.9558442 4.05121951 54.4025974 4.23536585 54.0337662 4.4195122 53.6649351 4.23536585 53.2961039 4.23536585 52.9272727 4.4195122 52.1896104 4.78780488 52.7428571 4.4195122 52.7428571 4.23536585 51.8207792 4.60365854 51.4519481 4.4195122 50.8987013 4.60365854 50.7142857 4.78780488 50.7142857 4.97195122 50.8987013 5.3402439 50.5298701 5.70853659 51.4519481 5.89268293 51.6363636 5.70853659 51.6363636 5.52439024 51.8207792 5.52439024 52.374026 5.52439024 52.7428571 5.52439024 53.2961039 5.52439024 53.6649351 5.52439024 54.2181818 5.3402439 54.587013 5.3402439 54.587013 5.15609756 54.9558442 5.3402439 55.1402597 5.3402439 55.5090909 5.52439024 56.6155844 5.3402439 56.9844156 5.3402439 57.9064935 5.3402439 57.7220779 5.15609756 58.0909091 5.15609756 58.4597403 5.3402439 59.1974026 5.3402439 59.5662338 5.15609756 59.7506494 4.97195122 59.7506494 4.78780488 59.7506494 4.60365854 59.7506494 4.4195122 59.7506494 4.23536585 59.3818182 4.05121951 59.5662338 4.05121951 59.3818182 3.86707317 59.1974026 3.86707317 59.012987 3.68292683 58.2753247 3.86707317 58.6441558 3.68292683 58.6441558 3.49878049 58.2753247 3.49878049 58.0909091 3.49878049 58.0909091 3.31463415 57.7220779 3.31463415 57.3532468 3.31463415 56.9844156 3.49878049"></polygon>
                    <polygon id="Shape" points="27.6623377 28.3585366 26.9246753 28.7268293 25.0805195 30.0158537 24.3428571 30.3841463 24.1584416 30.752439 23.6051948 30.9365854 23.4207792 31.304878 24.1584416 31.8573171 24.7116883 32.2256098 24.8961039 32.7780488 24.3428571 32.9621951 24.5272727 33.3304878 25.8181818 32.7780488 25.8181818 32.9621951 25.0805195 33.6987805 25.0805195 34.0670732 25.4493506 34.2512195 26.3714286 33.3304878 26.7402597 32.5939024 27.1090909 32.0414634 26.5558442 32.0414634 27.2935065 31.304878 27.1090909 30.752439 26.7402597 30.752439 26.5558442 30.2 26.9246753 30.0158537 26.9246753 29.647561 26.3714286 29.8317073 27.4779221 29.095122 28.2155844 28.5426829 28.4 28.3585366 28.4 28.1743902"></polygon>
                    <polygon id="Shape" points="23.7896104 28.9109756 23.974026 28.7268293 23.974026 27.9902439 23.7896104 27.2536585 23.6051948 27.2536585 23.4207792 27.9902439 23.6051948 28.7268293"></polygon>
                    <polygon id="Shape" points="50.3454545 3.68292683 50.8987013 3.49878049 51.6363636 3.31463415 51.4519481 3.31463415 51.6363636 3.1304878 51.2675325 3.1304878 51.4519481 2.94634146 50.5298701 3.1304878 50.3454545 3.31463415 49.7922078 3.31463415 49.4233766 3.49878049 49.4233766 3.68292683"></polygon>
                    <polygon id="Shape" points="54.7714286 3.31463415 54.587013 3.49878049 54.4025974 3.49878049 53.8493506 3.49878049 53.2961039 3.68292683 53.1116883 3.86707317 53.1116883 4.05121951 54.0337662 4.05121951 54.4025974 4.23536585 54.9558442 4.05121951 55.6935065 3.86707317 56.0623377 3.68292683 56.2467532 3.49878049 56.9844156 3.31463415 56.9844156 3.1304878 56.6155844 3.1304878 56.2467532 3.1304878 55.6935065 2.94634146 55.1402597 3.1304878"></polygon>
                    <polygon id="Shape" points="47.025974 6.81341463 46.4727273 7.18170732 46.2883117 7.18170732 46.4727273 7.36585366 46.6571429 7.55 46.6571429 7.73414634 46.8415584 7.55 47.5792208 6.99756098 47.5792208 6.62926829 47.3948052 6.62926829"></polygon>
                    <polygon id="Shape" points="35.038961 11.7853659 35.4077922 11.7853659 35.7766234 11.4170732 36.3298701 11.0487805 36.5142857 10.6804878 36.8831169 10.1280488 37.2519481 9.94390244 37.0675325 9.94390244 37.6207792 9.57560976 37.6207792 9.39146341 36.6987013 9.7597561 35.7766234 10.1280488 35.038961 10.3121951 35.2233766 10.4963415 34.4857143 10.8646341 35.2233766 11.0487805 35.7766234 10.8646341 35.2233766 11.2329268"></polygon>
                    <polygon id="Shape" points="49.6077922 4.23536585 49.9766234 4.05121951 49.7922078 3.86707317 49.238961 3.86707317 48.8701299 4.23536585 48.6857143 4.4195122 49.0545455 4.4195122"></polygon>
                    <polygon id="Shape" points="33.9324675 11.6012195 33.5636364 11.9695122 33.5636364 12.1536585 34.3012987 11.9695122 34.4857143 11.9695122 34.4857143 11.6012195"></polygon>
                    <polygon id="Shape" points="41.4935065 13.8109756 41.3090909 13.4426829 42.0467532 12.5219512 42.0467532 11.9695122 42.4155844 11.2329268 43.3376623 11.2329268 44.2597403 10.4963415 44.6285714 10.1280488 44.812987 9.57560976 45.3662338 9.02317073 44.9974026 8.83902439 45.5506494 8.47073171 45.9194805 8.10243902 46.4727273 7.55 45.9194805 7.55 45.3662338 7.36585366 46.2883117 6.99756098 47.3948052 6.44512195 46.8415584 6.07682927 45.9194805 6.26097561 46.6571429 5.89268293 47.5792208 5.89268293 47.2103896 5.52439024 46.6571429 5.52439024 45.5506494 5.70853659 44.4441558 6.07682927 44.2597403 6.44512195 43.7064935 6.44512195 43.3376623 6.62926829 43.1532468 6.99756098 42.7844156 7.55 42.6 8.28658537 42.7844156 8.65487805 43.1532468 8.47073171 42.7844156 8.83902439 42.7844156 9.02317073 42.2311688 9.57560976 41.8623377 9.57560976 41.4935065 10.1280488 41.1246753 10.6804878 40.7558442 11.0487805 40.387013 11.2329268 39.0961039 11.6012195 38.3584416 11.7853659 37.9896104 12.1536585 37.6207792 11.7853659 37.4363636 11.4170732 36.5142857 11.6012195 36.3298701 12.1536585 36.6987013 12.7060976 37.0675325 12.5219512 36.6987013 13.0743902 36.3298701 13.8109756 35.961039 13.8109756 35.5922078 14.547561 35.2233766 15.4682927 35.4077922 16.3890244 35.5922078 16.0207317 36.1454545 15.4682927 36.8831169 14.547561 36.3298701 15.652439 36.3298701 16.0207317 37.2519481 15.652439 38.174026 14.7317073 38.3584416 14.547561 38.5428571 13.8109756 39.0961039 13.2585366 39.8337662 12.8902439 40.2025974 13.0743902 39.2805195 13.995122 39.0961039 14.547561 40.7558442 14.1792683"></polygon>
                    <polygon id="Shape" points="48.5012987 5.89268293 48.3168831 6.26097561 48.6857143 6.26097561 49.0545455 6.26097561 49.4233766 6.07682927 49.9766234 5.89268293 49.9766234 5.52439024 49.7922078 5.3402439 49.6077922 5.15609756 49.7922078 4.97195122 49.7922078 4.78780488 50.161039 4.60365854 50.3454545 4.4195122 50.8987013 4.4195122 51.2675325 4.23536585 51.4519481 3.86707317 51.8207792 3.68292683 52.0051948 3.49878049 51.4519481 3.49878049 51.0831169 3.68292683 50.8987013 4.05121951 50.161039 4.23536585 49.6077922 4.4195122 48.8701299 4.60365854 48.5012987 4.97195122 48.3168831 5.3402439 48.3168831 5.52439024"></polygon>
                    <polygon id="Shape" points="33.5636364 12.8902439 33.1948052 13.0743902 33.1948052 13.2585366 33.7480519 13.0743902 33.9324675 12.8902439 33.9324675 12.7060976"></polygon>
                    <polygon id="Shape" points="40.2025974 10.6804878 40.387013 10.6804878 40.9402597 10.3121951 41.1246753 10.1280488 40.9402597 9.94390244 40.2025974 10.1280488 39.6493506 10.4963415 39.8337662 10.6804878"></polygon>
                    <polygon id="Shape" points="46.6571429 5.15609756 47.5792208 5.15609756 47.9480519 4.78780488 48.1324675 4.4195122 47.7636364 4.4195122 47.3948052 4.4195122 46.8415584 4.60365854 45.7350649 4.97195122 45.5506494 5.15609756 46.4727273 4.97195122"></polygon>
                    <polygon id="Shape" points="97.9246753 56.5329268 98.6623377 55.7963415 98.6623377 55.6121951 98.4779221 55.4280488 99.0311688 54.6914634 98.2935065 55.2439024 97.5558442 55.4280488 97.5558442 55.7963415 97.3714286 55.7963415 97.0025974 55.9804878 97.3714286 56.5329268"></polygon>
                    <polygon id="Shape" points="74.3194805 33.6987805 74.5038961 32.7780488 74.3194805 32.2256098 73.212987 32.7780488 73.3974026 33.1463415"></polygon>
                    <polygon id="Shape" points="73.3974026 50.6402439 73.5818182 49.5353659 73.3974026 48.4304878 72.8441558 48.9829268 72.6597403 49.3512195 72.8441558 50.2719512"></polygon>
                    <polygon id="Shape" points="64.361039 34.0670732 63.8077922 32.7780488 63.8077922 32.5939024 63.0701299 32.4097561 63.8077922 31.4890244 64.1766234 30.5682927 63.438961 30.5682927 62.7012987 30.5682927 63.438961 29.4634146 62.7012987 29.4634146 62.1480519 29.4634146 61.5948052 30.2 61.0415584 31.4890244 61.225974 32.0414634 61.225974 33.1463415 61.5948052 32.5939024 61.7792208 32.9621951 61.5948052 33.5146341 61.5948052 33.6987805 62.5168831 34.0670732 62.8857143 34.8036585 62.7012987 35.5402439 61.5948052 35.3560976 61.4103896 36.0926829 61.7792208 36.645122 60.8571429 37.0134146 61.0415584 37.5658537 62.3324675 37.75 61.4103896 38.1182927 60.1194805 39.2231707 60.4883117 39.5914634 61.225974 39.0390244 61.9636364 39.2231707 62.5168831 38.6707317 62.8857143 39.0390244 64.361039 38.6707317 65.4675325 38.6707317 66.2051948 38.1182927 65.8363636 37.5658537 66.2051948 37.197561 66.3896104 36.4609756 65.4675325 36.0926829 65.2831169 35.7243902 64.9142857 34.2512195"></polygon>
                    <polygon id="Shape" points="89.8103896 57.6378049 91.2857143 57.2695122 91.2857143 56.9012195 90.7324675 57.0853659 90.7324675 56.9012195 89.9948052 56.9012195 89.2571429 57.0853659 88.5194805 56.7170732 88.5194805 57.2695122 89.8103896 57.4536585"></polygon>
                    <polygon id="Shape" points="42.7844156 21.545122 43.3376623 20.6243902 44.6285714 20.2560976 45.3662338 19.7036585 46.1038961 19.1512195 46.8415584 18.7829268 47.5792208 18.7829268 48.3168831 18.7829268 48.6857143 18.7829268 49.9766234 18.4146341 51.2675325 17.6780488 52.0051948 17.4939024 52.5584416 17.6780488 53.8493506 17.6780488 55.5090909 17.1256098 56.9844156 16.5731707 56.4311688 16.3890244 55.5090909 16.204878 56.2467532 15.8365854 56.6155844 15.2841463 56.6155844 15.8365854 56.8 16.204878 57.5376623 16.204878 57.9064935 15.4682927 57.7220779 14.9158537 57.3532468 14.547561 57.7220779 14.3634146 58.0909091 14.9158537 58.4597403 14.547561 58.2753247 13.8109756 58.8285714 13.995122 59.3818182 13.8109756 59.7506494 13.6268293 59.5662338 13.2585366 60.3038961 13.2585366 60.3038961 12.5219512 60.6727273 12.5219512 61.0415584 11.7853659 60.8571429 11.4170732 61.4103896 11.2329268 61.7792208 11.2329268 61.7792208 10.6804878 62.3324675 9.7597561 62.8857143 9.39146341 63.438961 8.83902439 63.0701299 8.83902439 63.8077922 8.83902439 63.9922078 8.65487805 65.0987013 8.28658537 65.0987013 7.91829268 64.7298701 7.73414634 63.6233766 7.91829268 63.0701299 8.10243902 63.6233766 7.73414634 63.6233766 7.36585366 63.0701299 7.55 62.8857143 7.18170732 62.3324675 7.18170732 62.3324675 6.99756098 63.2545455 7.18170732 63.8077922 7.18170732 64.361039 6.99756098 63.9922078 6.44512195 63.0701299 6.07682927 62.5168831 5.89268293 62.1480519 6.07682927 61.7792208 5.89268293 60.8571429 6.07682927 60.4883117 6.26097561 60.1194805 6.62926829 60.3038961 6.44512195 60.1194805 6.26097561 60.3038961 5.89268293 59.3818182 6.07682927 59.7506494 5.89268293 59.3818182 5.70853659 59.012987 5.52439024 58.4597403 5.52439024 57.9064935 5.70853659 57.7220779 5.52439024 56.6155844 5.52439024 56.0623377 5.70853659 55.8779221 6.07682927 55.3246753 6.07682927 54.587013 6.07682927 53.6649351 5.70853659 53.2961039 5.89268293 52.9272727 6.26097561 52.9272727 6.99756098 52.5584416 6.62926829 52.0051948 6.62926829 51.4519481 6.99756098 51.0831169 7.36585366 51.4519481 7.55 51.8207792 7.91829268 52.0051948 8.10243902 51.8207792 8.83902439 51.2675325 9.02317073 51.0831169 9.39146341 50.161039 10.1280488 49.4233766 10.6804878 49.238961 11.0487805 47.9480519 11.4170732 47.9480519 11.7853659 48.3168831 11.7853659 48.1324675 12.1536585 47.9480519 12.8902439 47.5792208 12.3378049 47.3948052 12.3378049 46.8415584 12.5219512 46.1038961 13.0743902 46.1038961 13.4426829 46.4727273 13.4426829 46.6571429 13.4426829 47.3948052 13.4426829 46.4727273 13.995122 46.1038961 14.1792683 45.1818182 14.1792683 43.7064935 14.9158537 43.7064935 15.2841463 42.7844156 15.8365854 42.2311688 16.7573171 41.4935065 17.4939024 40.9402597 18.2304878 40.387013 19.7036585 39.6493506 20.6243902 39.6493506 21.3609756 40.387013 21.7292683 40.387013 22.8341463 40.9402597 23.0182927 42.0467532 22.097561"></polygon>
                    <polygon id="Shape" points="60.4883117 34.8036585 61.0415584 34.0670732 60.3038961 33.1463415 59.7506494 33.1463415 59.012987 33.6987805 57.9064935 34.4353659 58.0909091 35.7243902 57.1688312 37.0134146 58.2753247 37.197561 59.7506494 36.645122 60.4883117 35.5402439"></polygon>
                    <polygon id="Shape" points="58.8285714 22.097561 58.4597403 21.1768293 58.8285714 20.6243902 58.0909091 20.4402439 56.9844156 20.8085366 56.4311688 20.4402439 55.5090909 20.8085366 55.1402597 20.0719512 54.4025974 20.0719512 53.6649351 20.6243902 54.587013 20.9926829 54.4025974 21.3609756 53.4805195 21.3609756 54.2181818 22.097561 53.4805195 22.4658537 54.7714286 23.0182927 55.5090909 23.202439 56.0623377 23.202439 57.7220779 22.65"></polygon>
                    <polygon id="Shape" points="78.9298701 55.9804878 79.6675325 56.5329268 79.8519481 55.7963415 79.6675325 55.4280488 79.8519481 54.3231707 79.1142857 54.5073171 78.1922078 54.6914634 76.9012987 54.6914634 76.9012987 55.4280488 78.3766234 55.9804878"></polygon>
                    <polygon id="Shape" points="72.6597403 53.402439 73.0285714 53.7707317 73.3974026 53.402439 73.9506494 53.402439 73.9506494 51.745122 73.3974026 50.8243902 72.8441558 51.1926829 72.2909091 51.1926829 72.6597403 51.9292683"></polygon>
                    <polygon id="Shape" points="120.238961 112.697561 120.054545 112.145122 119.87013 111.776829 119.501299 112.513415 119.316883 113.25 118.579221 114.170732 118.21039 114.170732 118.394805 114.723171 118.025974 115.27561 117.103896 116.380488 116.366234 117.117073 115.997403 117.30122 115.628571 117.669512 115.075325 118.037805 114.522078 118.221951 114.337662 118.958537 113.784416 119.695122 113.6 120.615854 113.6 121.352439 113.784416 121.720732 113.415584 122.457317 112.862338 123.378049 112.677922 123.746341 112.309091 124.114634 111.755844 124.85122 111.755844 125.587805 111.755844 126.32439 111.571429 127.060976 111.571429 127.613415 112.124675 127.613415 112.493506 127.613415 113.415584 127.060976 114.337662 126.508537 115.075325 125.219512 115.997403 123.562195 117.103896 121.536585 118.025974 119.879268 118.579221 118.406098 118.948052 117.485366 119.132468 117.117073 119.316883 116.564634 119.501299 115.828049 119.685714 115.459756 119.87013 116.012195 120.054545 115.643902 120.238961 115.091463 120.054545 114.539024 120.238961 113.25"></polygon>
                    <polygon id="Shape" points="73.0285714 10.3121951 72.6597403 10.4963415 72.8441558 10.6804878 72.8441558 10.8646341 73.3974026 11.0487805 73.7662338 10.6804878 73.212987 10.4963415"></polygon>
                    <polygon id="Shape" points="71.7376623 9.39146341 71.9220779 9.57560976 72.6597403 9.57560976 73.212987 9.39146341 73.3974026 8.83902439 72.8441558 8.65487805 72.1064935 8.65487805 72.1064935 8.83902439 71.7376623 8.65487805 71.1844156 9.02317073 71.5532468 9.39146341"></polygon>
                    <polygon id="Shape" points="70.6311688 10.8646341 71.1844156 11.0487805 71 11.2329268 71.7376623 11.7853659 72.1064935 11.7853659 71.9220779 11.0487805 72.1064935 10.8646341 72.1064935 10.3121951 72.4753247 9.94390244 71.5532468 9.39146341 71.1844156 9.20731707 70.8155844 9.20731707 70.8155844 9.57560976 70.4467532 9.57560976 70.2623377 9.39146341 69.7090909 9.57560976 70.0779221 10.1280488"></polygon>
                    <polygon id="Shape" points="2.02857143 62.9780488 2.02857143 62.6097561 1.84415584 62.2414634 1.47532468 61.8731707 1.47532468 62.0573171 1.29090909 62.6097561 1.47532468 62.7939024 1.84415584 63.1621951"></polygon>
                    <polygon id="Shape" points="76.7168831 7.91829268 77.0857143 7.91829268 77.0857143 7.73414634 77.0857143 7.55 77.2701299 7.36585366 77.0857143 7.18170732 76.7168831 7.18170732 76.7168831 7.36585366 76.9012987 7.55 76.5324675 7.36585366 76.3480519 7.55 76.1636364 7.73414634 76.5324675 7.55"></polygon>
                    <polygon id="Shape" points="80.774026 4.23536585 80.9584416 4.23536585 81.8805195 4.23536585 82.4337662 4.23536585 82.6181818 3.86707317 82.4337662 3.68292683 81.3272727 3.49878049 80.2207792 3.49878049 79.4831169 3.68292683 79.8519481 3.86707317"></polygon>
                    <polygon id="Shape" points="83.7246753 3.86707317 82.987013 3.31463415 82.4337662 3.1304878 81.8805195 3.31463415 82.0649351 3.49878049"></polygon>
                    <polygon id="Shape" points="83.1714286 8.10243902 83.3558442 8.47073171 83.1714286 9.02317073 83.1714286 9.7597561 83.1714286 10.3121951 83.7246753 10.4963415 84.0935065 11.4170732 84.4623377 11.4170732 84.6467532 12.1536585 85.2 12.7060976 85.2 12.8902439 85.7532468 13.2585366 86.4909091 13.2585366 86.8597403 13.6268293 87.9662338 13.2585366 87.9662338 13.0743902 86.6753247 12.7060976 85.7532468 12.1536585 85.2 11.2329268 84.6467532 10.4963415 84.2779221 9.57560976 84.2779221 8.83902439 84.0935065 8.28658537 83.9090909 7.91829268 83.3558442 7.91829268"></polygon>
                    <path d="M115.628571,47.3256098 L114.706494,48.2463415 L113.6,48.4304878 L112.862338,48.0621951 L112.124675,48.0621951 L111.571429,47.3256098 L111.202597,46.7731707 L111.387013,46.404878 L111.387013,45.852439 L110.833766,44.747561 L111.387013,44.3792683 L111.018182,44.195122 L110.649351,44.195122 L109.911688,43.4585366 L109.174026,42.9060976 L107.698701,41.9853659 L107.32987,41.2487805 L106.038961,40.3280488 L106.038961,38.854878 L106.592208,38.4865854 L106.407792,37.75 L106.776623,37.197561 L107.145455,36.4609756 L107.883117,36.4609756 L108.436364,36.0926829 L108.98961,36.8292683 L109.542857,37.9341463 L108.98961,37.9341463 L108.805195,38.302439 L109.358442,39.2231707 L108.620779,39.4073171 L108.805195,39.7756098 L109.358442,39.9597561 L110.280519,40.8804878 L111.202597,40.8804878 L111.571429,41.2487805 L111.755844,41.8012195 L111.94026,41.9853659 L112.493506,42.7219512 L112.124675,41.8012195 L112.493506,41.2487805 L113.046753,41.8012195 L113.968831,42.3536585 L113.6,43.0902439 L112.862338,43.0902439 L113.231169,44.195122 L113.784416,44.0109756 L113.968831,44.9317073 L114.706494,45.1158537 L115.25974,46.404878 L115.812987,47.1414634 L115.628571,47.3256098 Z M89.8103896,2.94634146 L89.8103896,2.94634146 L89.4415584,2.76219512 L89.2571429,2.76219512 L89.8103896,2.94634146 Z M139.787013,62.2414634 L139.971429,63.7146341 L139.971429,63.5304878 L139.787013,62.2414634 L139.787013,62.2414634 Z M48.8701299,3.49878049 L49.0545455,3.49878049 L48.8701299,3.49878049 L48.8701299,3.49878049 Z M140.524675,83.05 L139.418182,90.7841463 L137.574026,98.3341463 L134.992208,105.7 L131.672727,112.697561 L127.431169,119.326829 L122.820779,125.403659 L117.657143,130.928049 L111.755844,135.9 L105.485714,140.135366 L98.8467532,143.634146 L92.0233766,146.396341 L84.8311688,148.421951 L77.638961,149.895122 L70.2623377,150.263415 L62.8857143,149.895122 L55.6935065,148.606098 L48.5012987,146.580488 L41.6779221,143.818293 L35.038961,140.319512 L28.7688312,135.9 L23.0519481,130.928049 L18.0727273,125.771951 L17.7038961,124.85122 L17.3350649,124.29878 L17.1506494,123.562195 L17.3350649,122.82561 L17.8883117,122.457317 L18.625974,122.641463 L20.1012987,122.641463 L21.0233766,123.009756 L21.0233766,122.457317 L21.5766234,122.273171 L21.3922078,121.168293 L21.9454545,120.063415 L21.761039,118.77439 L21.9454545,117.669512 L21.761039,116.012195 L21.2077922,113.802439 L21.3922078,113.065854 L22.1298701,112.329268 L22.4987013,111.22439 L23.6051948,110.119512 L23.974026,109.567073 L24.1584416,107.72561 L23.974026,106.989024 L23.6051948,105.331707 L23.2363636,104.779268 L22.3142857,104.410976 L21.5766234,103.858537 L20.2857143,102.017073 L18.625974,100.912195 L17.3350649,100.359756 L15.4909091,98.8865854 L14.5688312,98.8865854 L14.7532468,98.3341463 L14.3844156,97.4134146 L12.9090909,95.9402439 L11.8025974,95.0195122 L11.2493506,95.3878049 L11.2493506,94.0987805 L9.95844156,93.1780488 L9.77402597,92.6256098 L10.3272727,91.8890244 L10.3272727,90.9682927 L9.95844156,90.6 L9.40519481,88.0219512 L9.22077922,87.2853659 L9.03636364,86.7329268 L8.2987013,85.2597561 L7.74545455,84.3390244 L6.82337662,83.2341463 L6.27012987,82.8658537 L5.53246753,82.3134146 L5.34805195,81.7609756 L5.16363636,80.8402439 L4.79480519,79.9195122 L4.61038961,78.8146341 L4.24155844,78.0780488 L4.05714286,77.5256098 L3.87272727,76.2365854 L3.5038961,75.3158537 L3.13506494,74.7634146 L3.13506494,74.0268293 L3.68831169,74.0268293 L3.13506494,73.4743902 L2.58181818,72.9219512 L2.02857143,73.2902439 L1.65974026,72.7378049 L1.47532468,71.8170732 L0.922077922,71.4487805 L0.553246753,70.8963415 L0.553246753,69.6073171 L0.368831169,68.1341463 L0.184415584,69.054878 L0,67.7658537 L0,67.2134146 L1.10649351,59.4792683 L1.29090909,58.7426829 L1.65974026,59.295122 L1.84415584,59.847561 L1.65974026,60.5841463 L2.02857143,59.847561 L2.3974026,60.4 L2.95064935,60.5841463 L2.95064935,61.1365854 L3.31948052,60.7682927 L3.31948052,60.0317073 L3.31948052,59.4792683 L3.13506494,58.7426829 L2.95064935,58.0060976 L2.3974026,57.2695122 L2.02857143,56.9012195 L2.02857143,57.6378049 L1.84415584,58.1902439 L1.84415584,58.9268293 L1.47532468,58.5585366 L3.13506494,52.1134146 L5.71688312,44.747561 L8.85194805,38.4865854 L9.77402597,38.1182927 L10.8805195,37.75 L11.6181818,36.645122 L11.8025974,36.0926829 L12.5402597,34.9878049 L12.7246753,34.4353659 L13.2779221,34.0670732 L13.6467532,33.6987805 L13.0935065,34.6195122 L12.9090909,35.1719512 L12.3558442,35.7243902 L13.0935065,35.1719512 L13.0935065,34.6195122 L13.4623377,34.2512195 L14.0155844,33.1463415 L13.8311688,33.6987805 L14.3844156,33.5146341 L14.9376623,32.7780488 L15.3064935,32.4097561 L15.3064935,32.9621951 L15.8597403,33.1463415 L15.3064935,32.4097561 L15.8597403,32.5939024 L16.412987,32.9621951 L16.9662338,33.3304878 L17.3350649,32.7780488 L16.9662338,33.1463415 L17.3350649,32.2256098 L17.7038961,31.6731707 L18.4415584,31.1207317 L18.9948052,31.1207317 L19.5480519,31.1207317 L20.2857143,30.9365854 L20.838961,30.752439 L21.3922078,31.304878 L20.1012987,31.4890244 L19.3636364,32.4097561 L20.4701299,32.4097561 L21.2077922,32.4097561 L22.4987013,32.5939024 L23.6051948,32.4097561 L23.6051948,31.8573171 L24.1584416,31.1207317 L22.8675325,32.0414634 L22.1298701,31.6731707 L22.1298701,30.752439 L22.6831169,29.8317073 L23.6051948,28.7268293 L24.5272727,28.3585366 L24.7116883,27.6219512 L24.1584416,27.2536585 L22.8675325,27.4378049 L21.2077922,28.1743902 L21.9454545,27.4378049 L23.6051948,26.7012195 L24.3428571,26.7012195 L25.2649351,26.3329268 L26.0025974,27.0695122 L26.5558442,27.9902439 L27.2935065,28.3585366 L28.5844156,27.9902439 L29.5064935,28.1743902 L30.0597403,27.9902439 L30.612987,27.8060976 L31.5350649,26.7012195 L31.7194805,26.1487805 L31.9038961,25.4121951 L32.4571429,24.4914634 L32.4571429,23.9390244 L32.0883117,23.202439 L32.2727273,22.4658537 L32.4571429,21.545122 L33.1948052,21.1768293 L34.1168831,19.8878049 L35.038961,18.4146341 L35.7766234,17.4939024 L35.2233766,17.6780488 L33.9324675,18.2304878 L33.0103896,18.2304878 L33.5636364,17.4939024 L34.8545455,16.0207317 L35.7766234,15.4682927 L35.5922078,14.9158537 L35.961039,14.547561 L36.5142857,13.8109756 L36.6987013,13.2585366 L36.3298701,12.8902439 L36.5142857,12.3378049 L34.4857143,13.4426829 L33.3792208,14.7317073 L32.0883117,15.1 L31.3506494,16.0207317 L30.4285714,16.9414634 L29.6909091,17.4939024 L28.9532468,17.8621951 L28.2155844,18.0463415 L27.6623377,17.8621951 L27.1090909,18.4146341 L25.4493506,19.8878049 L24.3428571,20.6243902 L24.8961039,19.3353659 L26.0025974,18.2304878 L27.1090909,17.3097561 L28.0311688,16.7573171 L28.0311688,15.8365854 L28.4,15.2841463 L28.7688312,14.7317073 L29.3220779,14.1792683 L35.038961,10.3121951 L36.5142857,9.57560976 L37.2519481,9.39146341 L37.6207792,9.7597561 L38.3584416,9.7597561 L38.9116883,9.57560976 L39.8337662,9.39146341 L40.387013,9.20731707 L40.0181818,9.57560976 L41.1246753,9.7597561 L41.6779221,9.57560976 L42.2311688,9.20731707 L42.9688312,9.02317073 L43.5220779,8.83902439 L44.0753247,8.28658537 L44.2597403,7.55 L42.9688312,8.10243902 L41.8623377,8.28658537 L40.9402597,8.47073171 L41.6779221,7.91829268 L42.6,7.73414634 L43.3376623,7.18170732 L42.4155844,7.18170732 L43.7064935,6.81341463 L44.0753247,6.44512195 L44.6285714,6.44512195 L46.1038961,5.70853659 L46.6571429,5.3402439 L46.1038961,5.15609756 L44.812987,5.52439024 L44.2597403,5.89268293 L43.5220779,6.26097561 L42.4155844,6.62926829 L43.5220779,6.07682927 L44.2597403,5.89268293 L46.4727273,4.78780488 L47.9480519,4.78780488 L48.5012987,4.4195122 L49.0545455,4.4195122 L49.4233766,4.05121951 L55.1402597,2.2097561 L55.6935065,2.2097561 L56.4311688,2.2097561 L56.9844156,2.2097561 L62.8857143,0.368292683 L70.2623377,0 L77.638961,0.368292683 L84.8311688,1.65731707 L86.8597403,2.2097561 L86.6753247,2.76219512 L86.1220779,2.94634146 L86.3064935,3.49878049 L86.8597403,3.68292683 L87.412987,3.86707317 L88.1506494,4.4195122 L88.5194805,4.97195122 L89.2571429,5.70853659 L89.9948052,6.26097561 L90.7324675,6.44512195 L90.5480519,7.18170732 L92.0233766,8.10243902 L93.1298701,8.28658537 L92.2077922,8.28658537 L92.2077922,9.20731707 L93.1298701,9.57560976 L91.6545455,9.02317073 L90.9168831,8.83902439 L91.838961,9.20731707 L92.3922078,9.94390244 L93.4987013,10.1280488 L94.6051948,10.8646341 L95.3428571,11.2329268 L96.2649351,11.6012195 L97.0025974,11.7853659 L97.3714286,12.3378049 L97.9246753,12.7060976 L98.2935065,13.4426829 L96.6337662,12.3378049 L95.8961039,11.7853659 L94.974026,11.6012195 L93.4987013,10.6804878 L92.5766234,10.3121951 L91.4701299,9.7597561 L90.7324675,9.39146341 L89.9948052,9.57560976 L91.1012987,10.3121951 L91.838961,11.2329268 L93.1298701,11.7853659 L93.4987013,12.1536585 L94.0519481,12.1536585 L94.7896104,12.3378049 L95.1584416,12.8902439 L93.3142857,12.5219512 L92.761039,12.5219512 L91.6545455,12.7060976 L92.761039,13.2585366 L93.1298701,13.995122 L92.2077922,13.8109756 L92.2077922,14.3634146 L91.6545455,14.7317073 L91.2857143,15.2841463 L91.1012987,14.7317073 L90.5480519,16.0207317 L90.1792208,16.7573171 L90.5480519,17.3097561 L90.1792208,17.6780488 L89.625974,17.4939024 L89.2571429,16.9414634 L89.625974,16.5731707 L88.7038961,16.204878 L87.412987,16.204878 L88.1506494,16.5731707 L88.3350649,17.1256098 L89.0727273,17.4939024 L89.4415584,18.2304878 L88.8883117,18.0463415 L88.1506494,19.1512195 L88.8883117,19.7036585 L87.2285714,19.8878049 L87.7818182,20.6243902 L87.9662338,21.1768293 L87.412987,20.9926829 L86.8597403,21.1768293 L86.1220779,20.2560976 L85.7532468,19.8878049 L84.6467532,19.3353659 L87.2285714,19.3353659 L87.7818182,18.9670732 L87.7818182,18.4146341 L87.2285714,17.8621951 L86.8597403,17.1256098 L84.6467532,16.5731707 L83.3558442,16.5731707 L82.4337662,16.204878 L81.3272727,16.204878 L81.6961039,15.8365854 L80.0363636,15.4682927 L79.4831169,15.8365854 L78.7454545,15.8365854 L78.561039,16.7573171 L77.8233766,16.7573171 L77.0857143,17.3097561 L76.1636364,18.5987805 L75.6103896,19.3353659 L74.8727273,21.3609756 L73.9506494,22.8341463 L73.0285714,23.9390244 L71.5532468,24.8597561 L71,25.5963415 L71.1844156,28.1743902 L71.3688312,29.2792683 L72.2909091,29.8317073 L73.212987,29.4634146 L74.3194805,28.1743902 L74.8727273,28.9109756 L75.6103896,30.3841463 L76.3480519,31.6731707 L76.7168831,32.7780488 L77.638961,32.5939024 L77.8233766,31.6731707 L78.7454545,31.6731707 L78.9298701,30.5682927 L78.7454545,28.7268293 L79.2987013,28.3585366 L79.4831169,27.0695122 L78.7454545,26.5170732 L78.1922078,25.7804878 L78.1922078,24.3073171 L79.1142857,23.3865854 L79.6675325,22.4658537 L79.4831169,21.7292683 L79.6675325,20.9926829 L80.4051948,20.6243902 L81.3272727,20.9926829 L81.5116883,21.7292683 L80.774026,23.0182927 L80.4051948,23.5707317 L80.4051948,24.1231707 L80.9584416,25.0439024 L81.1428571,26.1487805 L81.8805195,26.3329268 L82.4337662,26.8853659 L83.3558442,26.5170732 L84.2779221,25.9646341 L85.3844156,25.7804878 L86.3064935,26.1487805 L85.9376623,26.8853659 L85.0155844,27.0695122 L84.2779221,27.0695122 L83.5402597,27.2536585 L82.8025974,27.6219512 L82.987013,28.1743902 L83.5402597,28.5426829 L83.9090909,29.095122 L84.0935065,30.0158537 L83.5402597,30.2 L82.8025974,29.4634146 L82.2493506,30.0158537 L82.0649351,30.752439 L82.2493506,31.6731707 L82.6181818,32.5939024 L82.0649351,32.7780488 L82.0649351,33.3304878 L81.3272727,33.3304878 L80.4051948,32.9621951 L79.4831169,33.5146341 L78.3766234,34.0670732 L78.0077922,34.6195122 L77.638961,34.2512195 L76.7168831,33.8829268 L76.3480519,34.2512195 L75.6103896,34.4353659 L74.8727273,33.8829268 L74.3194805,32.7780488 L74.6883117,31.8573171 L74.5038961,31.1207317 L74.6883117,30.2 L74.1350649,30.5682927 L73.3974026,30.9365854 L73.0285714,31.6731707 L73.212987,32.7780488 L73.5818182,33.3304878 L73.5818182,34.0670732 L73.212987,34.9878049 L72.4753247,34.8036585 L71.7376623,34.9878049 L70.6311688,35.5402439 L69.8935065,37.3817073 L69.5246753,37.75 L68.787013,37.9341463 L68.0493506,39.0390244 L66.0207792,40.1439024 L65.2831169,39.5914634 L65.4675325,41.0646341 L63.9922078,40.6963415 L62.8857143,40.6963415 L62.8857143,41.6170732 L64.1766234,42.1695122 L64.7298701,42.9060976 L65.4675325,44.195122 L65.0987013,46.7731707 L64.7298701,47.5097561 L63.2545455,47.3256098 L62.5168831,47.3256098 L61.5948052,46.9573171 L60.3038961,46.9573171 L59.1974026,46.7731707 L57.7220779,47.5097561 L58.0909091,48.0621951 L57.9064935,48.9829268 L58.0909091,49.9036585 L58.0909091,50.4560976 L57.5376623,51.1926829 L57.3532468,51.745122 L56.9844156,52.1134146 L56.6155844,53.0341463 L56.8,53.5865854 L57.1688312,54.5073171 L56.8,55.6121951 L57.3532468,55.4280488 L57.9064935,55.6121951 L58.2753247,55.2439024 L59.1974026,55.6121951 L59.3818182,56.3487805 L59.7506494,56.9012195 L60.3038961,57.0853659 L60.6727273,56.5329268 L61.4103896,56.1646341 L62.3324675,56.1646341 L63.6233766,56.1646341 L64.361039,55.2439024 L65.0987013,55.0597561 L65.2831169,54.1390244 L65.8363636,53.5865854 L65.4675325,52.85 L65.8363636,51.745122 L66.3896104,51.0085366 L67.8649351,50.4560976 L68.787013,49.5353659 L68.787013,48.7987805 L68.9714286,48.0621951 L70.2623377,47.6939024 L72.1064935,48.0621951 L72.8441558,47.3256098 L73.7662338,46.5890244 L74.8727273,46.7731707 L75.425974,46.9573171 L75.7948052,48.2463415 L76.5324675,48.9829268 L77.4545455,49.7195122 L78.1922078,50.2719512 L78.9298701,50.2719512 L79.4831169,50.8243902 L80.2207792,51.0085366 L80.5896104,51.5609756 L81.3272727,52.297561 L81.8805195,53.0341463 L81.5116883,54.1390244 L82.2493506,53.2182927 L82.6181818,52.297561 L81.8805195,51.9292683 L82.2493506,51.0085366 L83.1714286,51.1926829 L83.7246753,51.745122 L83.9090909,51.1926829 L82.8025974,50.4560976 L82.0649351,50.0878049 L81.1428571,49.7195122 L81.1428571,49.1670732 L80.4051948,49.1670732 L79.2987013,48.2463415 L78.7454545,47.1414634 L77.8233766,46.5890244 L77.4545455,46.0365854 L77.2701299,45.1158537 L78.0077922,44.5634146 L78.7454545,44.747561 L78.561039,45.3 L78.9298701,45.6682927 L79.1142857,45.1158537 L79.6675325,45.3 L80.2207792,46.2207317 L80.9584416,47.3256098 L81.8805195,47.6939024 L82.4337662,48.0621951 L83.3558442,48.4304878 L84.0935065,48.9829268 L84.4623377,49.5353659 L84.4623377,50.4560976 L84.6467532,51.0085366 L85.2,51.3768293 L85.5688312,52.1134146 L86.1220779,52.85 L86.6753247,53.402439 L87.0441558,54.3231707 L87.5974026,55.2439024 L88.5194805,55.7963415 L89.2571429,55.6121951 L88.7038961,54.5073171 L89.2571429,54.3231707 L88.8883117,53.7707317 L89.8103896,53.954878 L90.1792208,53.0341463 L89.625974,52.6658537 L88.8883117,52.1134146 L89.2571429,51.745122 L88.7038961,51.1926829 L88.3350649,50.4560976 L89.0727273,50.6402439 L89.625974,50.6402439 L89.9948052,50.2719512 L89.2571429,49.7195122 L90.3636364,49.1670732 L90.9168831,49.1670732 L91.4701299,49.1670732 L91.838961,49.9036585 L92.3922078,49.3512195 L92.761039,48.7987805 L93.8675325,48.6146341 L92.9454545,48.0621951 L92.761039,47.5097561 L92.2077922,46.7731707 L92.2077922,45.852439 L92.5766234,45.3 L92.3922078,43.6426829 L93.1298701,43.2743902 L93.3142857,41.8012195 L93.3142857,41.0646341 L94.0519481,40.6963415 L95.5272727,41.0646341 L95.3428571,41.8012195 L96.2649351,42.1695122 L96.2649351,42.7219512 L96.8181818,42.9060976 L97.5558442,41.9853659 L98.2935065,41.6170732 L98.2935065,41.0646341 L97.5558442,41.4329268 L97.0025974,41.2487805 L96.6337662,40.5121951 L97.187013,39.9597561 L97.9246753,40.1439024 L98.2935065,39.5914634 L98.8467532,39.4073171 L99.4,39.0390244 L98.6623377,39.9597561 L99.2155844,40.3280488 L99.0311688,41.4329268 L98.4779221,41.8012195 L99.4,42.3536585 L100.506494,42.5378049 L101.981818,43.2743902 L102.350649,43.6426829 L102.903896,43.6426829 L103.457143,44.0109756 L104.01039,44.747561 L104.194805,45.3 L103.457143,46.2207317 L102.719481,46.404878 L101.797403,46.9573171 L100.506494,46.7731707 L98.6623377,46.2207317 L97.3714286,46.5890244 L96.4493506,47.1414634 L95.7116883,48.2463415 L94.0519481,48.4304878 L94.0519481,49.3512195 L92.761039,49.7195122 L92.0233766,51.1926829 L92.761039,51.745122 L92.3922078,52.6658537 L93.3142857,53.2182927 L94.2363636,54.5073171 L95.3428571,54.3231707 L96.4493506,54.8756098 L97.0025974,54.5073171 L97.0025974,53.954878 L97.9246753,53.7707317 L98.8467532,54.3231707 L100.137662,53.7707317 L100.506494,52.85 L101.428571,53.0341463 L101.981818,52.85 L101.797403,53.402439 L102.350649,53.954878 L102.350649,54.5073171 L102.719481,55.4280488 L102.535065,56.5329268 L102.535065,57.6378049 L102.535065,59.1109756 L102.535065,59.847561 L102.350649,60.4 L101.981818,60.7682927 L101.244156,60.952439 L100.322078,60.7682927 L100.137662,61.3207317 L99.7688312,60.5841463 L99.0311688,60.5841463 L98.1090909,60.952439 L97.7402597,61.504878 L97.0025974,62.0573171 L96.4493506,61.8731707 L95.3428571,61.6890244 L94.2363636,61.504878 L92.9454545,61.6890244 L92.5766234,61.3207317 L91.4701299,61.3207317 L90.7324675,61.1365854 L90.5480519,60.5841463 L89.0727273,60.5841463 L88.3350649,60.7682927 L87.5974026,61.504878 L87.412987,62.2414634 L87.7818182,63.1621951 L87.412987,63.8987805 L86.8597403,64.2670732 L85.5688312,63.7146341 L83.9090909,63.3463415 L83.1714286,63.1621951 L82.6181818,62.0573171 L81.1428571,61.504878 L80.2207792,61.3207317 L78.561039,61.1365854 L77.638961,60.2158537 L77.0857143,60.2158537 L76.9012987,59.4792683 L77.638961,58.7426829 L77.638961,57.6378049 L77.2701299,57.2695122 L77.2701299,56.7170732 L77.8233766,55.9804878 L76.7168831,56.3487805 L76.7168831,55.6121951 L75.9792208,55.4280488 L74.8727273,55.9804878 L74.1350649,56.1646341 L73.7662338,55.7963415 L72.6597403,55.7963415 L71.7376623,56.3487805 L71.1844156,56.1646341 L69.5246753,56.3487805 L67.6805195,56.5329268 L66.574026,56.9012195 L65.8363636,57.4536585 L64.7298701,57.6378049 L63.6233766,58.3743902 L62.1480519,58.0060976 L61.225974,58.0060976 L60.6727273,57.4536585 L59.9350649,57.4536585 L59.5662338,58.1902439 L58.6441558,59.4792683 L57.7220779,60.0317073 L56.6155844,60.4 L55.8779221,61.3207317 L55.6935065,62.0573171 L55.1402597,63.1621951 L55.1402597,64.8195122 L54.0337662,65.9243902 L53.4805195,66.2926829 L52.5584416,67.2134146 L51.4519481,67.2134146 L50.8987013,67.5817073 L49.9766234,68.8707317 L49.238961,69.2390244 L48.6857143,69.9756098 L48.5012987,70.7121951 L48.1324675,71.4487805 L47.025974,72.3695122 L46.4727273,73.2902439 L46.4727273,73.8426829 L46.1038961,74.5792683 L45.5506494,74.947561 L45.3662338,75.5 L45.1818182,76.052439 L45.7350649,76.7890244 L45.9194805,77.5256098 L45.7350649,78.2621951 L45.7350649,78.9987805 L45.7350649,80.2878049 L45.5506494,81.5768293 L45.1818182,82.1292683 L45.1818182,82.8658537 L44.812987,83.602439 L44.0753247,84.5231707 L44.6285714,85.9963415 L44.4441558,86.7329268 L44.6285714,87.8378049 L44.9974026,88.5743902 L45.1818182,89.1268293 L45.7350649,89.3109756 L46.2883117,89.8634146 L46.8415584,90.4158537 L47.025974,90.9682927 L47.3948052,91.3365854 L48.1324675,92.0731707 L48.6857143,92.9939024 L48.8701299,93.9146341 L49.0545455,94.4670732 L49.6077922,95.2036585 L50.5298701,95.7560976 L51.6363636,96.8609756 L52.7428571,97.7817073 L53.8493506,98.8865854 L55.1402597,99.6231707 L55.6935065,99.6231707 L56.9844156,99.254878 L57.9064935,98.8865854 L59.3818182,98.702439 L60.1194805,98.702439 L61.0415584,99.0707317 L61.5948052,99.0707317 L62.7012987,99.4390244 L63.8077922,99.0707317 L64.5454545,98.702439 L66.574026,97.9658537 L67.6805195,97.7817073 L68.787013,97.597561 L69.8935065,97.597561 L70.8155844,97.597561 L71.7376623,98.5182927 L72.1064935,99.4390244 L72.8441558,100.17561 L73.9506494,100.17561 L74.5038961,99.8073171 L75.0571429,99.8073171 L76.3480519,99.254878 L76.7168831,99.8073171 L76.9012987,100.359756 L77.4545455,100.543902 L78.0077922,101.464634 L77.638961,102.937805 L77.2701299,104.410976 L77.2701299,105.515854 L76.7168831,106.436585 L76.3480519,106.804878 L77.0857143,108.462195 L78.0077922,109.382927 L79.2987013,110.487805 L80.4051948,111.776829 L80.774026,112.697561 L80.774026,113.25 L81.3272727,113.986585 L81.5116883,114.723171 L81.8805195,115.828049 L81.5116883,116.380488 L81.8805195,117.30122 L82.2493506,118.037805 L82.6181818,118.406098 L82.6181818,118.958537 L82.4337662,119.879268 L82.0649351,120.431707 L81.3272727,121.352439 L80.9584416,121.904878 L80.5896104,123.009756 L80.5896104,123.562195 L80.0363636,124.667073 L79.8519481,125.587805 L79.8519481,126.32439 L79.8519481,127.060976 L80.774026,127.981707 L80.9584416,128.534146 L81.5116883,129.639024 L82.0649351,130.37561 L82.4337662,130.743902 L82.6181818,131.296341 L82.6181818,132.40122 L82.8025974,133.87439 L82.987013,134.426829 L83.1714286,135.347561 L83.5402597,135.9 L84.2779221,136.452439 L84.8311688,137.557317 L85.2,138.293902 L85.7532468,139.030488 L85.5688312,139.582927 L85.3844156,140.319512 L85.2,140.871951 L85.9376623,141.056098 L86.8597403,141.240244 L87.5974026,140.871951 L88.5194805,140.687805 L89.625974,140.319512 L90.5480519,140.135366 L91.6545455,140.135366 L92.2077922,139.95122 L92.761039,139.95122 L93.4987013,139.582927 L94.6051948,139.030488 L95.5272727,138.478049 L96.4493506,137.92561 L97.9246753,136.820732 L98.6623377,136.084146 L99.0311688,135.531707 L99.5844156,134.979268 L100.690909,134.242683 L101.05974,133.87439 L101.428571,133.137805 L101.981818,132.40122 L102.166234,131.84878 L102.535065,131.112195 L103.825974,130.37561 L104.748052,129.823171 L105.301299,129.454878 L105.301299,128.902439 L105.67013,128.35 L106.038961,127.429268 L105.854545,126.692683 L105.485714,125.956098 L105.67013,125.219512 L106.223377,124.85122 L107.145455,123.930488 L107.514286,123.562195 L108.98961,122.089024 L110.280519,121.168293 L111.202597,120.431707 L111.94026,119.510976 L112.493506,118.590244 L112.862338,117.669512 L112.862338,117.117073 L113.046753,115.27561 L113.046753,114.354878 L113.231169,113.25 L113.046753,112.697561 L112.309091,111.408537 L112.677922,110.671951 L112.677922,110.119512 L113.046753,109.014634 L112.493506,108.462195 L112.493506,107.72561 L113.046753,106.068293 L113.415584,105.515854 L113.6,104.595122 L113.968831,104.042683 L114.153247,103.121951 L114.706494,102.385366 L115.444156,101.64878 L115.812987,100.543902 L116.919481,98.702439 L117.841558,97.4134146 L119.316883,95.5719512 L120.238961,94.0987805 L121.345455,91.8890244 L122.083117,90.047561 L122.636364,87.8378049 L123.005195,85.9963415 L123.18961,84.3390244 L123.18961,82.8658537 L123.374026,82.3134146 L123.18961,81.5768293 L123.18961,80.8402439 L122.820779,81.2085366 L122.451948,81.5768293 L122.083117,81.945122 L121.161039,82.3134146 L120.792208,82.6817073 L119.685714,83.602439 L118.763636,84.3390244 L117.841558,85.0756098 L117.288312,85.2597561 L116.735065,84.8914634 L116.550649,84.3390244 L115.628571,83.9707317 L116.181818,83.4182927 L116.181818,82.8658537 L115.444156,82.3134146 L115.075325,81.945122 L114.337662,81.3926829 L113.784416,80.6560976 L112.309091,79.7353659 L111.571429,79.1829268 L111.018182,78.0780488 L110.096104,76.604878 L109.542857,76.2365854 L108.436364,74.5792683 L108.067532,73.2902439 L107.698701,71.6329268 L106.038961,70.5280488 L105.854545,69.6073171 L104.748052,67.95 L104.194805,67.7658537 L103.641558,67.2134146 L102.350649,65.3719512 L101.612987,63.8987805 L100.875325,62.6097561 L101.981818,64.2670732 L102.535065,64.8195122 L102.903896,65.1878049 L103.457143,64.0829268 L103.457143,62.9780488 L103.641558,62.4256098 L103.641558,63.1621951 L103.641558,63.7146341 L103.641558,64.4512195 L104.194805,64.2670732 L104.932468,65.0036585 L105.854545,65.9243902 L106.407792,66.845122 L107.145455,67.7658537 L107.698701,68.8707317 L108.251948,69.054878 L108.805195,69.4231707 L109.727273,70.7121951 L109.911688,71.4487805 L110.280519,72.3695122 L111.202597,73.4743902 L111.755844,73.4743902 L112.677922,74.2109756 L113.231169,75.1317073 L113.968831,76.052439 L114.522078,76.4207317 L114.706494,76.9731707 L115.075325,77.3414634 L115.25974,77.8939024 L115.444156,78.4463415 L115.628571,79.3670732 L115.812987,79.9195122 L116.181818,80.8402439 L116.366234,81.945122 L116.366234,82.497561 L117.103896,82.3134146 L117.472727,81.945122 L118.025974,81.7609756 L118.394805,81.2085366 L118.763636,80.6560976 L119.501299,80.2878049 L120.054545,79.7353659 L120.423377,78.9987805 L121.161039,78.8146341 L121.714286,77.5256098 L123.005195,76.2365854 L123.742857,75.3158537 L123.742857,74.2109756 L124.296104,73.6585366 L125.033766,72.7378049 L125.587013,72.5536585 L125.955844,72.0012195 L125.587013,71.4487805 L125.771429,70.8963415 L126.324675,70.7121951 L126.509091,69.6073171 L126.877922,68.8707317 L127.246753,68.502439 L126.693506,67.7658537 L126.693506,67.0292683 L127.062338,66.4768293 L127.062338,65.3719512 L127.246753,64.8195122 L127.246753,63.5304878 L126.877922,63.1621951 L126.509091,62.7939024 L125.955844,62.2414634 L125.402597,62.2414634 L124.849351,62.4256098 L124.296104,62.2414634 L123.742857,61.504878 L123.374026,60.5841463 L123.18961,59.6634146 L123.005195,60.2158537 L122.820779,61.3207317 L122.636364,62.4256098 L122.451948,63.5304878 L121.898701,63.7146341 L121.161039,64.0829268 L120.607792,64.6353659 L120.423377,64.0829268 L120.054545,62.9780488 L119.685714,62.2414634 L119.316883,61.8731707 L119.132468,62.9780488 L119.501299,63.8987805 L119.132468,63.3463415 L118.579221,62.7939024 L118.579221,62.2414634 L118.21039,61.6890244 L117.472727,61.3207317 L117.103896,60.952439 L116.550649,60.7682927 L115.812987,59.847561 L115.25974,58.9268293 L114.890909,58.0060976 L115.444156,57.8219512 L115.628571,57.2695122 L116.366234,57.4536585 L116.735065,57.0853659 L117.841558,58.5585366 L118.763636,59.4792683 L119.685714,59.4792683 L120.792208,60.0317073 L121.898701,60.0317073 L122.451948,59.1109756 L123.005195,58.5585366 L124.296104,60.0317073 L125.218182,59.6634146 L126.14026,59.4792683 L127.431169,59.1109756 L128.168831,58.3743902 L129.090909,57.6378049 L130.012987,56.5329268 L130.750649,57.0853659 L131.303896,57.8219512 L131.857143,57.8219512 L132.779221,58.3743902 L133.148052,58.7426829 L133.148052,59.4792683 L134.254545,60.4 L134.992208,58.7426829 L135.545455,59.847561 L136.098701,61.3207317 L136.651948,62.7939024 L137.574026,65.0036585 L138.496104,66.2926829 L138.680519,67.0292683 L139.049351,68.502439 L139.602597,69.4231707 L140.155844,70.8963415 L140.709091,72.3695122 L141.262338,73.1060976 L141.262338,74.5792683 L140.524675,83.05 Z" id="Shape"></path>
                </g>
            </g>
            <g id="areas" transform="translate(65.000000, 27.627986)" fill="#FF6161">
                <path d="M9.23705556e-14,24.3720139 C0.666666667,23.0386806 2,21.3720139 4,19.3720139 C7,16.3720139 8,15.3720139 10,12.3720139 C12,9.3720139 17,7.3720139 23,7.3720139 C29,7.3720139 35,7.3720139 38,4.3720139 C41,1.3720139 51,-2.6279861 52,2.3720139 C53,7.3720139 43,6.3720139 37,9.3720139 C31,12.3720139 30,17.3720139 26,18.3720139 C22,19.3720139 19,16.3720139 16,19.3720139 C13,22.3720139 6,20.3720139 4,23.3720139 C2.66666667,25.3720139 1.33333333,25.7053472 9.23705556e-14,24.3720139 Z" id="Path-6" style="mix-blend-mode: hard-light;"></path>
                <path d="M64,6.3720139 C57.3333333,9.03868057 53.6666667,13.0386806 53,18.3720139 C52,26.3720139 47,24.3720139 46,27.3720139 C45,30.3720139 40,28.3720139 38,35.3720139 C36,42.3720139 37,44.3720139 40,43.3720139 C43,42.3720139 44,36.3720139 47,35.3720139 C50,34.3720139 57,42.3720139 61,39.3720139 C65,36.3720139 61,27.3720139 65,22.3720139 C69,17.3720139 77,18.3720139 76,16.3720139 C75.3333333,15.0386806 73,11.0386806 69,4.3720139 L64,6.3720139 Z" id="Path-7" style="mix-blend-mode: hard-light;"></path>
                <path d="M22,11.3720139 C19.3333333,10.7053472 17,11.3720139 15,13.3720139 C12,16.3720139 10,14.3720139 10,17.3720139 C10,20.3720139 17,17.3720139 20,17.3720139 C23,17.3720139 26,13.3720139 25,12.3720139 C24.3333333,11.7053472 23.3333333,11.3720139 22,11.3720139 Z" id="Path-8" style="mix-blend-mode: hard-light;"></path>
                <path d="M60.1406692,15.3121772 C60.2128462,19.6858751 58.4992898,23.0391541 55,25.3720139 C49,29.3720139 47,28.3720139 47,30.3720139 C47,32.3720139 56,34.3720139 57,32.3720139 C58,30.3720139 60,21.3720139 64,17.3720139 C68,13.3720139 66,10.3720139 65,10.3720139 C65,10.3720139 65,10.3720139 65,10.3720139 C62.3159115,10.3720139 60.1400279,12.5478975 60.1400279,15.231986 C60.1400279,15.2587177 60.1402484,15.2854488 60.1406895,15.3121768 Z" id="Path-11" style="mix-blend-mode: hard-light;"></path>
                <path d="M33.9194399,94.3931592 C33.7839259,95.415808 33.4774459,96.5239398 33,97.7175545 C31,102.717555 32,108.717555 36,108.717555 C40,108.717555 47,96.7175545 54,95.7175545 C61,94.7175545 61,88.7175545 61,86.7175545 C61,84.7175545 53,78.7175545 43,82.7175545 C43,82.7175545 43,82.7175545 43,82.7175545 C38.086102,84.6831137 34.6146894,89.1465942 33.9194524,94.3931609 Z" id="Path-12" style="mix-blend-mode: hard-light;"></path>
            </g>
        </g>
    </g>
</svg>