<?xml version="1.0" encoding="UTF-8"?>
<svg width="320px" height="350px" viewBox="0 0 320 350" version="1.1" xmlns="http://www.w3.org/2000/svg" xmlns:xlink="http://www.w3.org/1999/xlink">
    <!-- Generator: Sketch 61 (89581) - https://sketch.com -->
    <title>land-affected-MOB</title>
    <desc>Created with Sketch.</desc>
    <g id="land-affected-MOB" stroke="none" stroke-width="1" fill="none" fill-rule="evenodd">
        <g id="Group-5" transform="translate(32.000000, 42.000000)" fill-rule="nonzero">
            <g id="slices" transform="translate(0.100000, 84.000000)">
                <g id="slices1" transform="translate(0.900000, 14.999273)">
                    <g id="Group" transform="translate(0.000000, 31.602564)">
                        <polygon id="Path-2" fill="#0BBFB0" points="1 0 1 26.3974359 0 26.3974359 0 0"></polygon>
                        <polygon id="Path-2" fill="#006F65" points="1 12.6410256 1 13.7564103 0 13.7564103 0 12.6410256"></polygon>
                    </g>
                    <g id="Group-3" transform="translate(6.153846, 13.012821)">
                        <polygon id="Path-2-Copy-2" fill="#0BBFB0" points="1 0 1 26.3974359 0 26.3974359 0 0"></polygon>
                        <polygon id="Path-2-Copy-2" fill="#0BBFB0" points="1 0 1 26.3974359 0 26.3974359 0 0"></polygon>
                        <polygon id="Path-2-Copy-2" fill="#006F65" points="1 13.0128205 1 14.0128205 0 14.0128205 0 13.0128205"></polygon>
                    </g>
                    <g id="Group-2" transform="translate(3.076923, 10.410256)">
                        <polygon id="Path-2-Copy" fill="#0BBFB0" points="1 0 1 26.3974359 0 26.3974359 0 0"></polygon>
                        <polygon id="Path-2-Copy" fill="#006F65" points="1 13.0128205 1 14.0128205 0 14.0128205 0 13.0128205"></polygon>
                    </g>
                    <g id="Group-4" transform="translate(9.230769, 0.000000)">
                        <polygon id="Path-2-Copy-3" fill="#0BBFB0" points="1 0 1 26.3974359 0 26.3974359 0 0"></polygon>
                        <polygon id="Path-2-Copy-3" fill="#006F65" points="1 13.0128205 1 14.0128205 0 14.0128205 0 13.0128205"></polygon>
                    </g>
                </g>
                <g id="slices2" transform="translate(49.900000, -0.000727)">
                    <g id="Group-6" transform="translate(0.000000, 17.046119)">
                        <polygon id="Path-2-Copy-4" fill="#0BBFB0" points="0.799999111 -3.68616587e-14 1 55.5837563 0.200000889 55.5862267 0 0.00247037545"></polygon>
                        <polygon id="Path-2-Copy-4" fill="#006F65" points="1.11110905 27.422555 1.11110905 28.5342301 0.111109054 28.5342301 0.111109054 27.422555"></polygon>
                    </g>
                    <g id="Group-8" transform="translate(5.925926, 3.705891)">
                        <polygon id="Path-2-Copy-5" fill="#0BBFB0" points="0.799998919 -2.1063805e-14 1 50.3959391 0.200001081 50.3986638 0 0.00272467552"></polygon>
                        <polygon id="Path-2-Copy-5" fill="#006F65" points="1.11110861 24.8287735 1.11110861 25.9404486 0.111108608 25.9404486 0.111108608 24.8287735"></polygon>
                    </g>
                    <g id="Group-7" transform="translate(2.962964, 25.198145)">
                        <polygon id="Path-2-Copy-6" fill="#0BBFB0" points="0.200001301 -2.63297562e-14 1 0.0029883497 0.799998699 45.9522269 0 45.9492386"></polygon>
                        <polygon id="Path-2-Copy-6" fill="#006F65" points="1.1111081 22.6055551 1.1111081 23.7172302 0.1111081 23.7172302 0.1111081 22.6055551"></polygon>
                    </g>
                    <g id="Group-9" transform="translate(8.888891, 0.000000)">
                        <polygon id="Path-2-Copy-7" fill="#0BBFB0" points="0.799998377 0 1 41.1319797 0.200001623 41.135318 0 0.00333832988"></polygon>
                        <polygon id="Path-2-Copy-7" fill="#006F65" points="1.11110735 20.0118214 1.11110735 21.1234966 0.111107354 21.1234966 0.111107354 20.0118214"></polygon>
                    </g>
                </g>
                <g id="slices3" transform="translate(98.900000, 50.999273)">
                    <polygon id="Path-2-Copy-8" fill="#0BBFB0" points="0.800008641 -0.00327827189 1.0000148 21.299752 0.200020952 21.3063086 1.47965986e-05 0.00327827189"></polygon>
                    <polygon id="Path-2-Copy-9" fill="#0BBFB0" points="6.95385654 10.0873156 7.15386393 29.5216591 6.35387133 29.528846 6.15386393 10.0945026"></polygon>
                    <polygon id="Path-2-Copy-10" fill="#0BBFB0" points="3.27695389 2.98592329 4.07694484 2.99387469 3.87693579 20.5595313 3.07694484 20.5515799"></polygon>
                    <polygon id="Path-2-Copy-11" fill="#0BBFB0" points="10.0307851 21.2985814 10.2307965 36.9955511 9.43080782 37.0044489 9.23079648 21.3074792"></polygon>
                    <polygon id="Path-2-Copy-8" fill="#006F65" points="1.11538462 10.0909091 1.11538462 11.2121212 0.115384615 11.2121212 0.115384615 10.0909091"></polygon>
                    <polygon id="Path-2-Copy-9" fill="#006F65" points="7.26923077 19.0606061 7.26923077 20.5555556 6.26923077 20.5555556 6.26923077 19.0606061"></polygon>
                    <polygon id="Path-2-Copy-10" fill="#006F65" points="4.19230769 11.2121212 4.19230769 12.7070707 3.19230769 12.7070707 3.19230769 11.2121212"></polygon>
                    <polygon id="Path-2-Copy-11" fill="#006F65" points="10.3461538 28.7777778 10.3461538 29.8989899 9.34615385 29.8989899 9.34615385 28.7777778"></polygon>
                </g>
                <g id="slices4" transform="translate(147.900000, 3.999273)">
                    <polygon id="Path-2-Copy-12" fill="#0BBFB0" points="0.799999062 -4.19080892e-14 1 53.8196078 0.200000938 53.8221327 0 0.00252483075"></polygon>
                    <polygon id="Path-2-Copy-13" fill="#0BBFB0" points="6.72592522 25.4351811 6.92592633 74.8312595 6.12592745 74.8340104 5.92592633 25.437932"></polygon>
                    <polygon id="Path-2-Copy-14" fill="#0BBFB0" points="3.16296539 7.74090295 3.96296401 7.74397482 3.76296262 51.9792689 2.96296401 51.9761971"></polygon>
                    <polygon id="Path-2-Copy-15" fill="#0BBFB0" points="9.68888897 53.8191637 9.88889069 93.6309284 9.0888924 93.6343416 8.88889069 53.8225768"></polygon>
                    <polygon id="Path-2-Copy-12" fill="#006F65" points="1.11110894 26.1738114 1.11110894 27.6483212 0.111108939 27.6483212 0.111108939 26.1738114"></polygon>
                    <polygon id="Path-2-Copy-13" fill="#006F65" points="7.03703487 49.3973408 7.03703487 50.8718507 6.03703487 50.8718507 6.03703487 49.3973408"></polygon>
                    <polygon id="Path-2-Copy-14" fill="#006F65" points="4.0740719 29.122831 4.0740719 30.5973408 3.0740719 30.5973408 3.0740719 29.122831"></polygon>
                    <polygon id="Path-2-Copy-15" fill="#006F65" points="9.99999783 72.9894977 9.99999783 74.832635 8.99999783 74.832635 8.99999783 72.9894977"></polygon>
                </g>
                <g id="slices5" transform="translate(196.900000, 24.999273)">
                    <g id="Group-12">
                        <polygon id="Path-2-Copy-16" fill="#0BBFB0" points="0.799998078 -5.26919332e-15 1 37.8202247 0.200001922 37.8238598 0 0.00363511826"></polygon>
                        <polygon id="Path-2-Copy-16" fill="#006F65" points="1.11110666 18.1703569 1.11110666 20.0242895 0.111106661 20.0242895 0.111106661 18.1703569"></polygon>
                    </g>
                    <g id="Group-14" transform="translate(5.925927, 17.797577)">
                        <polygon id="Path-2-Copy-17" fill="#0BBFB0" points="0.799997688 -2.10767733e-14 1 34.4831461 0.200002312 34.487133 0 0.00398689417"></polygon>
                        <polygon id="Path-2-Copy-17" fill="#006F65" points="1.11110576 16.3166002 1.11110576 18.1705328 0.111105758 18.1705328 0.111105758 16.3166002"></polygon>
                    </g>
                    <g id="Group-13" transform="translate(2.962965, 5.561382)">
                        <polygon id="Path-2-Copy-18" fill="#0BBFB0" points="0.200002903 -2.10767733e-14 1 0.00446722638 0.799997097 30.7797481 0 30.7752809"></polygon>
                        <polygon id="Path-2-Copy-18" fill="#006F65" points="1.11110439 14.8336943 1.11110439 16.3168404 0.111104391 16.3168404 0.111104391 14.8336943"></polygon>
                    </g>
                    <g id="Group-15" transform="translate(8.888893, 37.819570)">
                        <polygon id="Path-2-Copy-19" fill="#0BBFB0" points="0.799996444 -2.10767733e-14 1 27.8089888 0.200003556 27.8139325 0 0.00494371037"></polygon>
                        <polygon id="Path-2-Copy-19" fill="#006F65" points="1.11110288 13.3507865 1.11110288 14.8339325 0.111102881 14.8339325 0.111102881 13.3507865"></polygon>
                    </g>
                </g>
                <g id="slices6" transform="translate(245.900000, 14.999273)">
                    <g id="Group-17">
                        <polygon id="Path-2-Copy-20" fill="#0BBFB0" points="1 0 1 15.0724638 0 15.0724638 0 0"></polygon>
                        <polygon id="Path-2-Copy-20" fill="#006F65" points="1 6.7826087 1 8.28985507 0 8.28985507 0 6.7826087"></polygon>
                    </g>
                    <g id="Group-19" transform="translate(5.925926, 7.159420)">
                        <polygon id="Path-2-Copy-21" fill="#979797" points="1 0 1 13.5652174 0 13.5652174 0 0"></polygon>
                        <polygon id="Path-2-Copy-21" fill="#0BBFB0" points="1 0 1 13.5652174 0 13.5652174 0 0"></polygon>
                        <polygon id="Path-2-Copy-21" fill="#006F65" points="1 6.02898551 1 7.53623188 0 7.53623188 0 6.02898551"></polygon>
                    </g>
                    <g id="Group-20" transform="translate(9.074074, 15.072464)">
                        <polygon id="Path-2-Copy-23" fill="#0BBFB0" points="1 0 1 10.9275362 0 10.9275362 0 0"></polygon>
                        <polygon id="Path-2-Copy-23" fill="#006F65" points="1 4.89855072 1 6.4057971 0 6.4057971 0 4.89855072"></polygon>
                    </g>
                    <g id="Group-18" transform="translate(3.148148, 2.260870)">
                        <polygon id="Path-2-Copy-22" fill="#0BBFB0" points="1 0 1 13.1884058 0 13.1884058 0 0"></polygon>
                        <polygon id="Path-2-Copy-22" fill="#006F65" points="1 6.02898551 1 7.15942029 0 7.15942029 0 6.02898551"></polygon>
                    </g>
                </g>
            </g>
            <g id="axis" transform="translate(128.545523, 3.500000) scale(1, -1) translate(-128.545523, -3.500000) translate(0.045523, 0.000000)" fill="#0BBFB0">
                <polygon id="baseline-copy" points="-2.03524239 2.97163551 4.95676644 3.22980975 4.94417404 4.02841217 -2.04783479 3.77023793"></polygon>
                <polygon id="baseline-copy-2" points="48.9647576 2.97163551 55.9567664 3.22980975 55.944174 4.02841217 48.9521652 3.77023793"></polygon>
                <polygon id="baseline-copy-3" points="99.9647576 2.97163551 106.956766 3.22980975 106.944174 4.02841217 99.9521652 3.77023793"></polygon>
                <polygon id="baseline-copy-4" points="149.964758 2.97163551 156.956766 3.22980975 156.944174 4.02841217 149.952165 3.77023793"></polygon>
                <polygon id="baseline-copy-5" points="201.964758 2.97163551 208.956766 3.22980975 208.944174 4.02841217 201.952165 3.77023793"></polygon>
                <polygon id="baseline-copy-6" points="252.964758 2.97163551 259.956766 3.22980975 259.944174 4.02841217 252.952165 3.77023793"></polygon>
            </g>
        </g>
    </g>
</svg>