<?xml version="1.0" encoding="UTF-8"?>
<svg width="320px" height="350px" viewBox="0 0 320 350" version="1.1" xmlns="http://www.w3.org/2000/svg" xmlns:xlink="http://www.w3.org/1999/xlink">
    <g id="land-affected-MOB" stroke="none" stroke-width="1" fill="none" fill-rule="evenodd">
        <g id="slice1" transform="translate(48.000000, 33.000000)" stroke-width="1">
            <line x1="1" y1="48" x2="1.5" y2="105" id="Path-2-Copy-12" stroke="#9BE8C7"></line>
            <line x1="17" y1="0" x2="17.5" y2="88" id="Path-2-Copy-13" stroke="#9BE8C7"></line>
            <line x1="9.5" y1="76" x2="9" y2="123" id="Path-2-Copy-14" stroke="#9BE8C7"></line>
            <line x1="25" y1="66" x2="25" y2="215" id="Path-2-Copy-15" stroke="#9BE8C7"></line>
            <line x1="17.3" y1="60" x2="17.3" y2="64" id="Path-2-Copy-17" stroke="#006F65"></line>
            <line x1="25" y1="86" x2="25" y2="89" id="Path-2-Copy-19" stroke="#006F65"></line>
            <line x1="9.3" y1="98" x2="9.3" y2="102" id="Path-2-Copy-18" stroke="#006F65"></line>
            <line x1="1.3" y1="75" x2="1.3" y2="78" id="Path-2-Copy-16" stroke="#006F65"></line>
        </g>
        <g id="Group-3" transform="translate(246.000000, 100.000000)" stroke-width="1">
            <line x1="1" y1="0" x2="1.5" y2="57" id="Path-2-Copy-8" stroke="#0BBFB0"></line>
            <line x1="17" y1="27" x2="17.5" y2="79" id="Path-2-Copy-9" stroke="#0BBFB0"></line>
            <line x1="9.5" y1="8" x2="9" y2="55" id="Path-2-Copy-10" stroke="#0BBFB0"></line>
            <line x1="25" y1="57" x2="25.5" y2="99" id="Path-2-Copy-11" stroke="#0BBFB0"></line>
            <line x1="1.3" y1="27" x2="1.3" y2="30" id="Path-2-Copy-8" stroke="#006F65"></line>
            <line x1="17.3" y1="51" x2="17.3" y2="55" id="Path-2-Copy-9" stroke="#006F65"></line>
            <line x1="9.3" y1="30" x2="9.3" y2="34" id="Path-2-Copy-10" stroke="#006F65"></line>
            <line x1="25.3" y1="77" x2="25.3" y2="80" id="Path-2-Copy-11" stroke="#006F65"></line>
        </g>
        <g id="slice2" transform="translate(147.000000, 111.000000)" stroke-width="1">
            <line x1="17" y1="142" x2="17.5" y2="194" id="Path-2-Copy-21" stroke="#0BBFB0"></line>
            <line x1="8.5" y1="8" x2="8" y2="195" id="Path-2-Copy-22" stroke="#0BBFB0"></line>
            <line x1="25" y1="161" x2="25.5" y2="203" id="Path-2-Copy-23" stroke="#0BBFB0"></line>
            <line x1="1" y1="0" x2="1" y2="174" id="Path-2-Copy-20" stroke="#0BBFB0"></line>
            <line x1="1" y1="76" x2="1" y2="79" id="Path-2-Copy-24" stroke="#006F65"></line>
            <line x1="8.5" y1="80" x2="8.5" y2="84" id="Path-2-Copy-26" stroke="#006F65"></line>
            <line x1="17.3" y1="166" x2="17.3" y2="170" id="Path-2-Copy-25" stroke="#006F65"></line>
            <line x1="25.3" y1="181" x2="25.3" y2="184" id="Path-2-Copy-27" stroke="#006F65"></line>
        </g>
    </g>
</svg>
