<?xml version="1.0" encoding="UTF-8"?>
<svg width="320px" height="350px" viewBox="0 0 320 350" version="1.1" xmlns="http://www.w3.org/2000/svg" xmlns:xlink="http://www.w3.org/1999/xlink">
    <!-- Generator: Sketch 61 (89581) - https://sketch.com -->
    <title>land-transitions-MOB</title>
    <desc>Created with Sketch.</desc>
    <g id="land-transitions-MOB" stroke="none" stroke-width="1" fill="none" fill-rule="evenodd">
        <g id="Group" transform="translate(29.000000, 175.000000)">
            <g id="bar1" transform="translate(0.000000, 59.000000)">
                <rect id="Rectangle-12-Copy" stroke="#0BBFB0" x="0.262331839" y="0.5" width="262" height="46"></rect>
                <line x1="179.262332" y1="1" x2="179.262332" y2="47" id="Path-45" stroke="#9BE8C7"></line>
                <line x1="187.262332" y1="1" x2="187.262332" y2="47" id="Path-45-Copy" stroke="#9BE8C7"></line>
                <line x1="183.262332" y1="1" x2="183.262332" y2="47" id="Path-45-Copy-2" stroke="#9BE8C7"></line>
                <line x1="193.262332" y1="1" x2="193.262332" y2="47" id="Path-45-Copy-3" stroke="#9BE8C7"></line>
                <line x1="207.262332" y1="1" x2="207.262332" y2="47" id="Path-45-Copy-4" stroke="#9BE8C7"></line>
            </g>
            <g id="bar2" transform="translate(0.000000, 0.000000)">
                <rect id="Rectangle-12" stroke="#0BBFB0" x="0.262331839" y="0.5" width="262" height="46"></rect>
                <line x1="190.262332" y1="1" x2="190.262332" y2="47" id="Path-44" stroke="#9BE8C7"></line>
                <line x1="203.962332" y1="1" x2="203.962332" y2="47" id="Path-44-Copy" stroke="#9BE8C7"></line>
                <line x1="173.962332" y1="1" x2="173.962332" y2="47" id="Path-44-Copy-2" stroke="#9BE8C7"></line>
                <line x1="125.962332" y1="1" x2="125.962332" y2="47" id="Path-44-Copy-3" stroke="#9BE8C7"></line>
                <line x1="19.9623318" y1="1" x2="19.9623318" y2="47" id="Path-44-Copy-4" stroke="#9BE8C7"></line>
                <line x1="23.9623318" y1="1" x2="23.9623318" y2="47" id="Path-44-Copy-5" stroke="#9BE8C7"></line>
                <line x1="34.9623318" y1="1" x2="34.9623318" y2="47" id="Path-44-Copy-6" stroke="#9BE8C7"></line>
                <line x1="52.9623318" y1="1" x2="52.9623318" y2="47" id="Path-44-Copy-7" stroke="#9BE8C7"></line>
                <line x1="68.9623318" y1="1" x2="68.9623318" y2="47" id="Path-44-Copy-8" stroke="#9BE8C7"></line>
                <line x1="80.9623318" y1="1" x2="80.9623318" y2="47" id="Path-44-Copy-9" stroke="#9BE8C7"></line>
                <line x1="78.9623318" y1="1" x2="78.9623318" y2="47" id="Path-44-Copy-10" stroke="#9BE8C7"></line>
                <line x1="83.9623318" y1="1" x2="83.9623318" y2="47" id="Path-44-Copy-12" stroke="#9BE8C7"></line>
                <line x1="85.9623318" y1="1" x2="85.9623318" y2="47" id="Path-44-Copy-13" stroke="#9BE8C7"></line>
                <line x1="74.9623318" y1="1" x2="74.9623318" y2="47" id="Path-44-Copy-11" stroke="#9BE8C7"></line>
            </g>
        </g>
    </g>
</svg>