<?xml version="1.0" encoding="UTF-8"?>
<svg width="257px" height="287px" viewBox="0 0 257 287" version="1.1" xmlns="http://www.w3.org/2000/svg" xmlns:xlink="http://www.w3.org/1999/xlink">
    <!-- Generator: Sketch 59.1 (86144) - https://sketch.com -->
    <title>Group 15</title>
    <desc>Created with Sketch.</desc>
    <g id="Re-Desing_V04" stroke="none" stroke-width="1" fill="none" fill-rule="evenodd">
        <g id="Mobile-unroll" transform="translate(-32.000000, -649.000000)">
            <g id="Group-15" transform="translate(25.000000, 647.000000)">
                <g id="Group-14" fill="#5263FF" fill-rule="nonzero">
                    <path d="M10.0779496,3.02 L12.9479496,3.02 C13.5279525,3.02 13.982948,3.1833317 14.3129496,3.51 C14.6429513,3.8366683 14.8079496,4.2733306 14.8079496,4.82 C14.8079496,5.0800013 14.7712833,5.2999991 14.6979496,5.48 C14.6246159,5.6600009 14.5312835,5.80833275 14.4179496,5.925 C14.3046157,6.04166725 14.1812836,6.12833305 14.0479496,6.185 C13.9146156,6.24166695 13.7912835,6.2799999 13.6779496,6.3 L13.6779496,6.36 C13.8046169,6.3666667 13.9462822,6.3999997 14.1029496,6.46 C14.2596171,6.52 14.4079489,6.61499935 14.5479496,6.745 C14.6879503,6.87500065 14.8062825,7.04166565 14.9029496,7.245 C14.9996168,7.44833435 15.0479496,7.6933319 15.0479496,7.98 C15.0479496,8.2666681 15.0029501,8.5333321 14.9129496,8.78 C14.8229492,9.0266679 14.6979504,9.2399991 14.5379496,9.42 C14.3779488,9.6000009 14.1879507,9.74166615 13.9679496,9.845 C13.7479485,9.94833385 13.5079509,10 13.2479496,10 L10.0779496,10 L10.0779496,3.02 Z M10.9179496,9.26 L12.9879496,9.26 C13.3479514,9.26 13.6312819,9.16833425 13.8379496,8.985 C14.0446173,8.80166575 14.1479496,8.5333351 14.1479496,8.18 L14.1479496,7.84 C14.1479496,7.4866649 14.0446173,7.21833425 13.8379496,7.035 C13.6312819,6.85166575 13.3479514,6.76 12.9879496,6.76 L10.9179496,6.76 L10.9179496,9.26 Z M10.9179496,6.04 L12.8479496,6.04 C13.1812846,6.04 13.441282,5.9566675 13.6279496,5.79 C13.8146172,5.6233325 13.9079496,5.3833349 13.9079496,5.07 L13.9079496,4.73 C13.9079496,4.4166651 13.8146172,4.1766675 13.6279496,4.01 C13.441282,3.8433325 13.1812846,3.76 12.8479496,3.76 L10.9179496,3.76 L10.9179496,6.04 Z M17.004952,10 L17.004952,3.02 L21.264952,3.02 L21.264952,3.76 L17.844952,3.76 L17.844952,6.1 L21.064952,6.1 L21.064952,6.84 L17.844952,6.84 L17.844952,9.26 L21.264952,9.26 L21.264952,10 L17.004952,10 Z M23.2319544,10 L23.2319544,3.02 L27.3919544,3.02 L27.3919544,3.76 L24.0719544,3.76 L24.0719544,6.1 L27.1019544,6.1 L27.1019544,6.84 L24.0719544,6.84 L24.0719544,10 L23.2319544,10 Z M31.6589568,10.12 C31.2056212,10.12 30.797292,10.0416675 30.4339568,9.885 C30.0706217,9.72833255 29.7606248,9.49833485 29.5039568,9.195 C29.2472889,8.89166515 29.0489575,8.51500225 28.9089568,8.065 C28.7689561,7.61499775 28.6989568,7.0966696 28.6989568,6.51 C28.6989568,5.9233304 28.7689561,5.4066689 28.9089568,4.96 C29.0489575,4.5133311 29.2472889,4.1366682 29.5039568,3.83 C29.7606248,3.5233318 30.0706217,3.29166745 30.4339568,3.135 C30.797292,2.97833255 31.2056212,2.9 31.6589568,2.9 C32.1056257,2.9 32.5122883,2.97833255 32.8789568,3.135 C33.2456253,3.29166745 33.5572889,3.5233318 33.8139568,3.83 C34.0706248,4.1366682 34.2689561,4.5133311 34.4089568,4.96 C34.5489575,5.4066689 34.6189568,5.9233304 34.6189568,6.51 C34.6189568,7.0966696 34.5489575,7.61499775 34.4089568,8.065 C34.2689561,8.51500225 34.0706248,8.89166515 33.8139568,9.195 C33.5572889,9.49833485 33.2456253,9.72833255 32.8789568,9.885 C32.5122883,10.0416675 32.1056257,10.12 31.6589568,10.12 Z M31.6589568,9.37 C31.9589583,9.37 32.2356222,9.3166672 32.4889568,9.21 C32.7422914,9.1033328 32.9606226,8.950001 33.1439568,8.75 C33.3272911,8.549999 33.4689563,8.3100014 33.5689568,8.03 C33.6689573,7.7499986 33.7189568,7.4366684 33.7189568,7.09 L33.7189568,5.93 C33.7189568,5.5833316 33.6689573,5.2700014 33.5689568,4.99 C33.4689563,4.7099986 33.3272911,4.470001 33.1439568,4.27 C32.9606226,4.069999 32.7422914,3.9166672 32.4889568,3.81 C32.2356222,3.7033328 31.9589583,3.65 31.6589568,3.65 C31.3589553,3.65 31.0822914,3.7033328 30.8289568,3.81 C30.5756222,3.9166672 30.3572911,4.069999 30.1739568,4.27 C29.9906226,4.470001 29.8489573,4.7099986 29.7489568,4.99 C29.6489563,5.2700014 29.5989568,5.5833316 29.5989568,5.93 L29.5989568,7.09 C29.5989568,7.4366684 29.6489563,7.7499986 29.7489568,8.03 C29.8489573,8.3100014 29.9906226,8.549999 30.1739568,8.75 C30.3572911,8.950001 30.5756222,9.1033328 30.8289568,9.21 C31.0822914,9.3166672 31.3589553,9.37 31.6589568,9.37 Z M37.3659592,10 L36.5259592,10 L36.5259592,3.02 L39.3059592,3.02 C39.9192956,3.02 40.3976242,3.1899983 40.7409592,3.53 C41.0842943,3.8700017 41.2559592,4.3599968 41.2559592,5 C41.2559592,5.5133359 41.1376271,5.93499835 40.9009592,6.265 C40.6642914,6.59500165 40.3159615,6.8133328 39.8559592,6.92 L41.4559592,10 L40.5059592,10 L38.9959592,7 L37.3659592,7 L37.3659592,10 Z M39.3059592,6.28 C39.6392942,6.28 39.897625,6.1933342 40.0809592,6.02 C40.2642935,5.8466658 40.3559592,5.6000016 40.3559592,5.28 L40.3559592,4.76 C40.3559592,4.4399984 40.2642935,4.1933342 40.0809592,4.02 C39.897625,3.8466658 39.6392942,3.76 39.3059592,3.76 L37.3659592,3.76 L37.3659592,6.28 L39.3059592,6.28 Z M43.3229616,10 L43.3229616,3.02 L47.5829616,3.02 L47.5829616,3.76 L44.1629616,3.76 L44.1629616,6.1 L47.3829616,6.1 L47.3829616,6.84 L44.1629616,6.84 L44.1629616,9.26 L47.5829616,9.26 L47.5829616,10 L43.3229616,10 Z M53.9069664,10 L53.9069664,7.24 L51.5069664,3.02 L52.4669664,3.02 L54.3269664,6.38 L54.3569664,6.38 L56.2169664,3.02 L57.1769664,3.02 L54.7469664,7.21 L54.7469664,10 L53.9069664,10 Z M60.9439688,10.12 C60.4906332,10.12 60.082304,10.0416675 59.7189688,9.885 C59.3556337,9.72833255 59.0456368,9.49833485 58.7889688,9.195 C58.5323009,8.89166515 58.3339695,8.51500225 58.1939688,8.065 C58.0539681,7.61499775 57.9839688,7.0966696 57.9839688,6.51 C57.9839688,5.9233304 58.0539681,5.4066689 58.1939688,4.96 C58.3339695,4.5133311 58.5323009,4.1366682 58.7889688,3.83 C59.0456368,3.5233318 59.3556337,3.29166745 59.7189688,3.135 C60.082304,2.97833255 60.4906332,2.9 60.9439688,2.9 C61.3906377,2.9 61.7973003,2.97833255 62.1639688,3.135 C62.5306373,3.29166745 62.8423009,3.5233318 63.0989688,3.83 C63.3556368,4.1366682 63.5539681,4.5133311 63.6939688,4.96 C63.8339695,5.4066689 63.9039688,5.9233304 63.9039688,6.51 C63.9039688,7.0966696 63.8339695,7.61499775 63.6939688,8.065 C63.5539681,8.51500225 63.3556368,8.89166515 63.0989688,9.195 C62.8423009,9.49833485 62.5306373,9.72833255 62.1639688,9.885 C61.7973003,10.0416675 61.3906377,10.12 60.9439688,10.12 Z M60.9439688,9.37 C61.2439703,9.37 61.5206342,9.3166672 61.7739688,9.21 C62.0273034,9.1033328 62.2456346,8.950001 62.4289688,8.75 C62.6123031,8.549999 62.7539683,8.3100014 62.8539688,8.03 C62.9539693,7.7499986 63.0039688,7.4366684 63.0039688,7.09 L63.0039688,5.93 C63.0039688,5.5833316 62.9539693,5.2700014 62.8539688,4.99 C62.7539683,4.7099986 62.6123031,4.470001 62.4289688,4.27 C62.2456346,4.069999 62.0273034,3.9166672 61.7739688,3.81 C61.5206342,3.7033328 61.2439703,3.65 60.9439688,3.65 C60.6439673,3.65 60.3673034,3.7033328 60.1139688,3.81 C59.8606342,3.9166672 59.6423031,4.069999 59.4589688,4.27 C59.2756346,4.470001 59.1339693,4.7099986 59.0339688,4.99 C58.9339683,5.2700014 58.8839688,5.5833316 58.8839688,5.93 L58.8839688,7.09 C58.8839688,7.4366684 58.9339683,7.7499986 59.0339688,8.03 C59.1339693,8.3100014 59.2756346,8.549999 59.4589688,8.75 C59.6423031,8.950001 59.8606342,9.1033328 60.1139688,9.21 C60.3673034,9.3166672 60.6439673,9.37 60.9439688,9.37 Z M66.6009712,3.02 L66.6009712,7.34 C66.6009712,8.00667 66.7243033,8.51166495 66.9709712,8.855 C67.2176391,9.19833505 67.6509681,9.37 68.2709712,9.37 C68.8909743,9.37 69.3243033,9.19833505 69.5709712,8.855 C69.8176391,8.51166495 69.9409712,8.00667 69.9409712,7.34 L69.9409712,3.02 L70.7809712,3.02 L70.7809712,7.14 C70.7809712,7.6466692 70.7359717,8.0866648 70.6459712,8.46 C70.5559708,8.8333352 70.4109722,9.1433321 70.2109712,9.39 C70.0109702,9.6366679 69.7493062,9.8199994 69.4259712,9.94 C69.1026363,10.0600006 68.7076402,10.12 68.2409712,10.12 C67.7743022,10.12 67.3826395,10.0600006 67.0659712,9.94 C66.749303,9.8199994 66.4943055,9.6366679 66.3009712,9.39 C66.1076369,9.1433321 65.969305,8.8333352 65.8859712,8.46 C65.8026375,8.0866648 65.7609712,7.6466692 65.7609712,7.14 L65.7609712,3.02 L66.6009712,3.02 Z M80.264976,8.98 L80.234976,8.98 C80.1483089,9.3066683 79.9366444,9.57833225 79.599976,9.795 C79.2633077,10.0116678 78.828312,10.12 78.294976,10.12 C77.8683072,10.12 77.4766445,10.0416675 77.119976,9.885 C76.7633076,9.72833255 76.4583106,9.49833485 76.204976,9.195 C75.9516414,8.89166515 75.7533101,8.51500225 75.609976,8.065 C75.466642,7.61499775 75.394976,7.0966696 75.394976,6.51 C75.394976,5.9299971 75.4649753,5.41500225 75.604976,4.965 C75.7449767,4.51499775 75.9449747,4.13833485 76.204976,3.835 C76.4649773,3.53166515 76.7783075,3.3000008 77.144976,3.14 C77.5116445,2.9799992 77.9183071,2.9 78.364976,2.9 C78.9916458,2.9 79.5149739,3.0399986 79.934976,3.32 C80.3549781,3.6000014 80.6783082,3.9699977 80.904976,4.43 L80.214976,4.85 C80.0549752,4.4766648 79.8166443,4.1833344 79.499976,3.97 C79.1833078,3.7566656 78.8049782,3.65 78.364976,3.65 C78.0583078,3.65 77.7783106,3.70499945 77.524976,3.815 C77.2716414,3.92500055 77.0533103,4.079999 76.869976,4.28 C76.6866418,4.480001 76.5449765,4.7199986 76.444976,5 C76.3449755,5.2800014 76.294976,5.5933316 76.294976,5.94 L76.294976,7.07 C76.294976,7.4166684 76.3449755,7.73166525 76.444976,8.015 C76.5449765,8.29833475 76.6866418,8.539999 76.869976,8.74 C77.0533103,8.940001 77.278308,9.09499945 77.544976,9.205 C77.811644,9.31500055 78.111641,9.37 78.444976,9.37 C78.6849772,9.37 78.9133083,9.33833365 79.129976,9.275 C79.3466438,9.21166635 79.5366419,9.1166673 79.699976,8.99 C79.8633102,8.8633327 79.9916422,8.70500095 80.084976,8.515 C80.1783098,8.32499905 80.224976,8.1000013 80.224976,7.84 L80.224976,7.15 L78.684976,7.15 L78.684976,6.41 L81.044976,6.41 L81.044976,10 L80.264976,10 L80.264976,8.98 Z M83.0919784,10 L83.0919784,3.02 L87.3519784,3.02 L87.3519784,3.76 L83.9319784,3.76 L83.9319784,6.1 L87.1519784,6.1 L87.1519784,6.84 L83.9319784,6.84 L83.9319784,9.26 L87.3519784,9.26 L87.3519784,10 L83.0919784,10 Z M91.6689808,3.76 L91.6689808,10 L90.8289808,10 L90.8289808,3.76 L88.6089808,3.76 L88.6089808,3.02 L93.8889808,3.02 L93.8889808,3.76 L91.6689808,3.76 Z M100.152986,10.12 C99.5863161,10.12 99.1029876,10.0116678 98.7029856,9.795 C98.3029836,9.57833225 97.962987,9.2800019 97.6829856,8.9 L98.3029856,8.38 C98.5496535,8.7066683 98.8229841,8.95499915 99.1229856,9.125 C99.4229871,9.29500085 99.7763169,9.38 100.182986,9.38 C100.682986,9.38 101.064651,9.2600012 101.327986,9.02 C101.59132,8.7799988 101.722986,8.460002 101.722986,8.06 C101.722986,7.726665 101.622987,7.4700009 101.422986,7.29 C101.222985,7.1099991 100.892988,6.9666672 100.432986,6.86 L99.8629856,6.73 C99.2229824,6.5833326 98.734654,6.36166815 98.3979856,6.065 C98.0613173,5.76833185 97.8929856,5.3500027 97.8929856,4.81 C97.8929856,4.5033318 97.9496517,4.2300012 98.0629856,3.99 C98.1763195,3.7499988 98.3346513,3.5500008 98.5379856,3.39 C98.74132,3.2299992 98.9846509,3.10833375 99.2679856,3.025 C99.5513204,2.94166625 99.8629839,2.9 100.202986,2.9 C100.729655,2.9 101.181317,2.9966657 101.557986,3.19 C101.934654,3.3833343 102.252984,3.6666648 102.512986,4.04 L101.882986,4.5 C101.689651,4.233332 101.45632,4.0233341 101.182986,3.87 C100.909651,3.7166659 100.569654,3.64 100.162986,3.64 C99.7163167,3.64 99.3646536,3.73499905 99.1079856,3.925 C98.8513177,4.11500095 98.7229856,4.4 98.7229856,4.78 C98.7229856,5.113335 98.8313179,5.36499915 99.0479856,5.535 C99.2646534,5.70500085 99.5929834,5.8399995 100.032986,5.94 L100.602986,6.07 C101.289656,6.2233341 101.786317,6.4566651 102.092986,6.77 C102.399654,7.0833349 102.552986,7.4999974 102.552986,8.02 C102.552986,8.3400016 102.497986,8.6299987 102.387986,8.89 C102.277985,9.1500013 102.119653,9.3699991 101.912986,9.55 C101.706318,9.7300009 101.454654,9.8699995 101.157986,9.97 C100.861317,10.0700005 100.526321,10.12 100.152986,10.12 Z M106.619988,3.76 L106.619988,10 L105.779988,10 L105.779988,3.76 L103.559988,3.76 L103.559988,3.02 L108.839988,3.02 L108.839988,3.76 L106.619988,3.76 Z M114.10699,10 L113.40699,7.94 L110.58699,7.94 L109.88699,10 L109.03699,10 L111.47699,3.02 L112.54699,3.02 L114.98699,10 L114.10699,10 Z M112.01699,3.8 L111.96699,3.8 L110.78699,7.2 L113.19699,7.2 L112.01699,3.8 Z M117.383993,10 L116.543993,10 L116.543993,3.02 L119.323993,3.02 C119.937329,3.02 120.415658,3.1899983 120.758993,3.53 C121.102328,3.8700017 121.273993,4.3599968 121.273993,5 C121.273993,5.5133359 121.155661,5.93499835 120.918993,6.265 C120.682325,6.59500165 120.333995,6.8133328 119.873993,6.92 L121.473993,10 L120.523993,10 L119.013993,7 L117.383993,7 L117.383993,10 Z M119.323993,6.28 C119.657328,6.28 119.915659,6.1933342 120.098993,6.02 C120.282327,5.8466658 120.373993,5.6000016 120.373993,5.28 L120.373993,4.76 C120.373993,4.4399984 120.282327,4.1933342 120.098993,4.02 C119.915659,3.8466658 119.657328,3.76 119.323993,3.76 L117.383993,3.76 L117.383993,6.28 L119.323993,6.28 Z M125.450995,3.76 L125.450995,10 L124.610995,10 L124.610995,3.76 L122.390995,3.76 L122.390995,3.02 L127.670995,3.02 L127.670995,3.76 L125.450995,3.76 Z M129.217998,10 L129.217998,3.02 L133.477998,3.02 L133.477998,3.76 L130.057998,3.76 L130.057998,6.1 L133.277998,6.1 L133.277998,6.84 L130.057998,6.84 L130.057998,9.26 L133.477998,9.26 L133.477998,10 L129.217998,10 Z M135.445,3.02 L137.785,3.02 C138.218336,3.02 138.611665,3.0933326 138.965,3.24 C139.318335,3.3866674 139.619999,3.60499855 139.87,3.895 C140.120001,4.18500145 140.311666,4.54833115 140.445,4.985 C140.578334,5.42166885 140.645,5.9299971 140.645,6.51 C140.645,7.0900029 140.578334,7.59833115 140.445,8.035 C140.311666,8.47166885 140.120001,8.83499855 139.87,9.125 C139.619999,9.41500145 139.318335,9.6333326 138.965,9.78 C138.611665,9.9266674 138.218336,10 137.785,10 L135.445,10 L135.445,3.02 Z M137.785,9.26 C138.071668,9.26 138.334999,9.21166715 138.575,9.115 C138.815001,9.01833285 139.021666,8.8766676 139.195,8.69 C139.368334,8.5033324 139.503333,8.27500135 139.6,8.005 C139.696667,7.73499865 139.745,7.4266684 139.745,7.08 L139.745,5.94 C139.745,5.5933316 139.696667,5.28500135 139.6,5.015 C139.503333,4.74499865 139.368334,4.5166676 139.195,4.33 C139.021666,4.1433324 138.815001,4.00166715 138.575,3.905 C138.334999,3.80833285 138.071668,3.76 137.785,3.76 L136.285,3.76 L136.285,9.26 L137.785,9.26 Z M146.279005,10 L144.579005,3.02 L145.469005,3.02 L146.799005,8.99 L146.819005,8.99 L147.469005,6.38 L148.349005,3.02 L149.309005,3.02 L150.159005,6.38 L150.809005,8.98 L150.839005,8.98 L151.439005,6.38 L152.229005,3.02 L153.089005,3.02 L151.299005,10 L150.369005,10 L149.459005,6.52 L148.819005,3.96 L148.799005,3.96 L148.139005,6.52 L147.209005,10 L146.279005,10 Z M154.286007,10 L154.286007,9.3 L155.266007,9.3 L155.266007,3.72 L154.286007,3.72 L154.286007,3.02 L157.086007,3.02 L157.086007,3.72 L156.106007,3.72 L156.106007,9.3 L157.086007,9.3 L157.086007,10 L154.286007,10 Z M161.29301,3.76 L161.29301,10 L160.45301,10 L160.45301,3.76 L158.23301,3.76 L158.23301,3.02 L163.51301,3.02 L163.51301,3.76 L161.29301,3.76 Z M169.430012,6.84 L165.900012,6.84 L165.900012,10 L165.060012,10 L165.060012,3.02 L165.900012,3.02 L165.900012,6.1 L169.430012,6.1 L169.430012,3.02 L170.270012,3.02 L170.270012,10 L169.430012,10 L169.430012,6.84 Z M175.284017,10 L175.284017,3.02 L178.064017,3.02 C178.690687,3.02 179.172348,3.19833155 179.509017,3.555 C179.845685,3.91166845 180.014017,4.3999969 180.014017,5.02 C180.014017,5.6400031 179.845685,6.12833155 179.509017,6.485 C179.172348,6.84166845 178.690687,7.02 178.064017,7.02 L176.124017,7.02 L176.124017,10 L175.284017,10 Z M176.124017,6.28 L178.064017,6.28 C178.397352,6.28 178.655683,6.1933342 178.839017,6.02 C179.022351,5.8466658 179.114017,5.6000016 179.114017,5.28 L179.114017,4.76 C179.114017,4.4399984 179.022351,4.1933342 178.839017,4.02 C178.655683,3.8466658 178.397352,3.76 178.064017,3.76 L176.124017,3.76 L176.124017,6.28 Z M184.351019,10.12 C183.897684,10.12 183.489354,10.0416675 183.126019,9.885 C182.762684,9.72833255 182.452687,9.49833485 182.196019,9.195 C181.939351,8.89166515 181.74102,8.51500225 181.601019,8.065 C181.461019,7.61499775 181.391019,7.0966696 181.391019,6.51 C181.391019,5.9233304 181.461019,5.4066689 181.601019,4.96 C181.74102,4.5133311 181.939351,4.1366682 182.196019,3.83 C182.452687,3.5233318 182.762684,3.29166745 183.126019,3.135 C183.489354,2.97833255 183.897684,2.9 184.351019,2.9 C184.797688,2.9 185.204351,2.97833255 185.571019,3.135 C185.937688,3.29166745 186.249351,3.5233318 186.506019,3.83 C186.762687,4.1366682 186.961019,4.5133311 187.101019,4.96 C187.24102,5.4066689 187.311019,5.9233304 187.311019,6.51 C187.311019,7.0966696 187.24102,7.61499775 187.101019,8.065 C186.961019,8.51500225 186.762687,8.89166515 186.506019,9.195 C186.249351,9.49833485 185.937688,9.72833255 185.571019,9.885 C185.204351,10.0416675 184.797688,10.12 184.351019,10.12 Z M184.351019,9.37 C184.651021,9.37 184.927685,9.3166672 185.181019,9.21 C185.434354,9.1033328 185.652685,8.950001 185.836019,8.75 C186.019353,8.549999 186.161019,8.3100014 186.261019,8.03 C186.36102,7.7499986 186.411019,7.4366684 186.411019,7.09 L186.411019,5.93 C186.411019,5.5833316 186.36102,5.2700014 186.261019,4.99 C186.161019,4.7099986 186.019353,4.470001 185.836019,4.27 C185.652685,4.069999 185.434354,3.9166672 185.181019,3.81 C184.927685,3.7033328 184.651021,3.65 184.351019,3.65 C184.051018,3.65 183.774354,3.7033328 183.521019,3.81 C183.267685,3.9166672 183.049353,4.069999 182.866019,4.27 C182.682685,4.470001 182.54102,4.7099986 182.441019,4.99 C182.341019,5.2700014 182.291019,5.5833316 182.291019,5.93 L182.291019,7.09 C182.291019,7.4366684 182.341019,7.7499986 182.441019,8.03 C182.54102,8.3100014 182.682685,8.549999 182.866019,8.75 C183.049353,8.950001 183.267685,9.1033328 183.521019,9.21 C183.774354,9.3166672 184.051018,9.37 184.351019,9.37 Z M189.218022,10 L189.218022,3.02 L190.058022,3.02 L190.058022,9.26 L193.028022,9.26 L193.028022,10 L189.218022,10 Z M194.295024,10 L194.295024,9.3 L195.275024,9.3 L195.275024,3.72 L194.295024,3.72 L194.295024,3.02 L197.095024,3.02 L197.095024,3.72 L196.115024,3.72 L196.115024,9.3 L197.095024,9.3 L197.095024,10 L194.295024,10 Z M201.482026,10.12 C200.595355,10.12 199.905362,9.81833635 199.412026,9.215 C198.918691,8.61166365 198.672026,7.7233392 198.672026,6.55 C198.672026,5.3766608 198.918691,4.47500315 199.412026,3.845 C199.905362,3.21499685 200.595355,2.9 201.482026,2.9 C202.068696,2.9 202.560358,3.033332 202.957026,3.3 C203.353695,3.566668 203.662025,3.9433309 203.882026,4.43 L203.202026,4.84 C203.062026,4.4799982 202.848695,4.19166775 202.562026,3.975 C202.275358,3.75833225 201.915362,3.65 201.482026,3.65 C201.182025,3.65 200.913694,3.7066661 200.677026,3.82 C200.440359,3.9333339 200.240361,4.09499895 200.077026,4.305 C199.913692,4.51500105 199.788694,4.76499855 199.702026,5.055 C199.615359,5.34500145 199.572026,5.6699982 199.572026,6.03 L199.572026,7.07 C199.572026,7.7900036 199.738691,8.3533313 200.072026,8.76 C200.405361,9.1666687 200.875357,9.37 201.482026,9.37 C201.928695,9.37 202.302025,9.25500115 202.602026,9.025 C202.902028,8.79499885 203.122026,8.4900019 203.262026,8.11 L203.932026,8.53 C203.712025,9.0233358 203.395362,9.41166525 202.982026,9.695 C202.568691,9.97833475 202.068696,10.12 201.482026,10.12 Z M207.179029,10 L207.179029,7.24 L204.779029,3.02 L205.739029,3.02 L207.599029,6.38 L207.629029,6.38 L209.489029,3.02 L210.449029,3.02 L208.019029,7.21 L208.019029,10 L207.179029,10 Z M220.103034,4.12 L220.053034,4.12 L219.463034,5.29 L217.793034,8.33 L216.123034,5.29 L215.533034,4.12 L215.483034,4.12 L215.483034,10 L214.663034,10 L214.663034,3.02 L215.783034,3.02 L217.783034,6.78 L217.833034,6.78 L219.843034,3.02 L220.923034,3.02 L220.923034,10 L220.103034,10 L220.103034,4.12 Z M225.790036,10.12 C225.3367,10.12 224.928371,10.0416675 224.565036,9.885 C224.201701,9.72833255 223.891704,9.49833485 223.635036,9.195 C223.378368,8.89166515 223.180037,8.51500225 223.040036,8.065 C222.900035,7.61499775 222.830036,7.0966696 222.830036,6.51 C222.830036,5.9233304 222.900035,5.4066689 223.040036,4.96 C223.180037,4.5133311 223.378368,4.1366682 223.635036,3.83 C223.891704,3.5233318 224.201701,3.29166745 224.565036,3.135 C224.928371,2.97833255 225.3367,2.9 225.790036,2.9 C226.236705,2.9 226.643368,2.97833255 227.010036,3.135 C227.376705,3.29166745 227.688368,3.5233318 227.945036,3.83 C228.201704,4.1366682 228.400035,4.5133311 228.540036,4.96 C228.680037,5.4066689 228.750036,5.9233304 228.750036,6.51 C228.750036,7.0966696 228.680037,7.61499775 228.540036,8.065 C228.400035,8.51500225 228.201704,8.89166515 227.945036,9.195 C227.688368,9.49833485 227.376705,9.72833255 227.010036,9.885 C226.643368,10.0416675 226.236705,10.12 225.790036,10.12 Z M225.790036,9.37 C226.090038,9.37 226.366701,9.3166672 226.620036,9.21 C226.873371,9.1033328 227.091702,8.950001 227.275036,8.75 C227.45837,8.549999 227.600036,8.3100014 227.700036,8.03 C227.800037,7.7499986 227.850036,7.4366684 227.850036,7.09 L227.850036,5.93 C227.850036,5.5833316 227.800037,5.2700014 227.700036,4.99 C227.600036,4.7099986 227.45837,4.470001 227.275036,4.27 C227.091702,4.069999 226.873371,3.9166672 226.620036,3.81 C226.366701,3.7033328 226.090038,3.65 225.790036,3.65 C225.490035,3.65 225.213371,3.7033328 224.960036,3.81 C224.706701,3.9166672 224.48837,4.069999 224.305036,4.27 C224.121702,4.470001 223.980037,4.7099986 223.880036,4.99 C223.780036,5.2700014 223.730036,5.5833316 223.730036,5.93 L223.730036,7.09 C223.730036,7.4366684 223.780036,7.7499986 223.880036,8.03 C223.980037,8.3100014 224.121702,8.549999 224.305036,8.75 C224.48837,8.950001 224.706701,9.1033328 224.960036,9.21 C225.213371,9.3166672 225.490035,9.37 225.790036,9.37 Z M230.657038,3.02 L232.997038,3.02 C233.430374,3.02 233.823703,3.0933326 234.177038,3.24 C234.530374,3.3866674 234.832037,3.60499855 235.082038,3.895 C235.33204,4.18500145 235.523704,4.54833115 235.657038,4.985 C235.790372,5.42166885 235.857038,5.9299971 235.857038,6.51 C235.857038,7.0900029 235.790372,7.59833115 235.657038,8.035 C235.523704,8.47166885 235.33204,8.83499855 235.082038,9.125 C234.832037,9.41500145 234.530374,9.6333326 234.177038,9.78 C233.823703,9.9266674 233.430374,10 232.997038,10 L230.657038,10 L230.657038,3.02 Z M232.997038,9.26 C233.283707,9.26 233.547037,9.21166715 233.787038,9.115 C234.02704,9.01833285 234.233704,8.8766676 234.407038,8.69 C234.580373,8.5033324 234.715371,8.27500135 234.812038,8.005 C234.908706,7.73499865 234.957038,7.4266684 234.957038,7.08 L234.957038,5.94 C234.957038,5.5933316 234.908706,5.28500135 234.812038,5.015 C234.715371,4.74499865 234.580373,4.5166676 234.407038,4.33 C234.233704,4.1433324 234.02704,4.00166715 233.787038,3.905 C233.547037,3.80833285 233.283707,3.76 232.997038,3.76 L231.497038,3.76 L231.497038,9.26 L232.997038,9.26 Z M238.554041,3.02 L238.554041,7.34 C238.554041,8.00667 238.677373,8.51166495 238.924041,8.855 C239.170709,9.19833505 239.604038,9.37 240.224041,9.37 C240.844044,9.37 241.277373,9.19833505 241.524041,8.855 C241.770709,8.51166495 241.894041,8.00667 241.894041,7.34 L241.894041,3.02 L242.734041,3.02 L242.734041,7.14 C242.734041,7.6466692 242.689041,8.0866648 242.599041,8.46 C242.50904,8.8333352 242.364042,9.1433321 242.164041,9.39 C241.96404,9.6366679 241.702376,9.8199994 241.379041,9.94 C241.055706,10.0600006 240.66071,10.12 240.194041,10.12 C239.727372,10.12 239.335709,10.0600006 239.019041,9.94 C238.702373,9.8199994 238.447375,9.6366679 238.254041,9.39 C238.060707,9.1433321 237.922375,8.8333352 237.839041,8.46 C237.755707,8.0866648 237.714041,7.6466692 237.714041,7.14 L237.714041,3.02 L238.554041,3.02 Z M244.941043,10 L244.941043,3.02 L245.781043,3.02 L245.781043,9.26 L248.751043,9.26 L248.751043,10 L244.941043,10 Z M250.348046,10 L250.348046,3.02 L254.608046,3.02 L254.608046,3.76 L251.188046,3.76 L251.188046,6.1 L254.408046,6.1 L254.408046,6.84 L251.188046,6.84 L251.188046,9.26 L254.608046,9.26 L254.608046,10 L250.348046,10 Z M258.535048,10.12 C257.968379,10.12 257.48505,10.0116678 257.085048,9.795 C256.685046,9.57833225 256.345049,9.2800019 256.065048,8.9 L256.685048,8.38 C256.931716,8.7066683 257.205047,8.95499915 257.505048,9.125 C257.80505,9.29500085 258.158379,9.38 258.565048,9.38 C259.065048,9.38 259.446713,9.2600012 259.710048,9.02 C259.973383,8.7799988 260.105048,8.460002 260.105048,8.06 C260.105048,7.726665 260.005049,7.4700009 259.805048,7.29 C259.605047,7.1099991 259.27505,6.9666672 258.815048,6.86 L258.245048,6.73 C257.605045,6.5833326 257.116716,6.36166815 256.780048,6.065 C256.44338,5.76833185 256.275048,5.3500027 256.275048,4.81 C256.275048,4.5033318 256.331714,4.2300012 256.445048,3.99 C256.558382,3.7499988 256.716714,3.5500008 256.920048,3.39 C257.123382,3.2299992 257.366713,3.10833375 257.650048,3.025 C257.933383,2.94166625 258.245046,2.9 258.585048,2.9 C259.111717,2.9 259.563379,2.9966657 259.940048,3.19 C260.316717,3.3833343 260.635047,3.6666648 260.895048,4.04 L260.265048,4.5 C260.071714,4.233332 259.838383,4.0233341 259.565048,3.87 C259.291713,3.7166659 258.951717,3.64 258.545048,3.64 C258.098379,3.64 257.746716,3.73499905 257.490048,3.925 C257.23338,4.11500095 257.105048,4.4 257.105048,4.78 C257.105048,5.113335 257.21338,5.36499915 257.430048,5.535 C257.646716,5.70500085 257.975046,5.8399995 258.415048,5.94 L258.985048,6.07 C259.671718,6.2233341 260.16838,6.4566651 260.475048,6.77 C260.781716,7.0833349 260.935048,7.4999974 260.935048,8.02 C260.935048,8.3400016 260.880049,8.6299987 260.770048,8.89 C260.660047,9.1500013 260.501716,9.3699991 260.295048,9.55 C260.08838,9.7300009 259.836716,9.8699995 259.540048,9.97 C259.24338,10.0700005 258.908383,10.12 258.535048,10.12 Z" id="BEFOREYOUGETSTARTEDWITHPOLICYMODULES"></path>
                    <path d="M23.6664699,46.336 C21.631793,46.336 20.1478079,45.7293394 19.2144699,44.516 C18.2811319,43.3026606 17.8144699,41.5573447 17.8144699,39.28 C17.8144699,38.5333296 17.8658027,37.6886714 17.9684699,36.746 C18.071137,35.8033286 18.2531352,34.8420049 18.5144699,33.862 C18.7758045,32.8819951 19.1211344,31.9300046 19.5504699,31.006 C19.9798053,30.0819954 20.5164666,29.2560036 21.1604699,28.528 C21.8044731,27.7999964 22.5744654,27.2166689 23.4704699,26.778 C24.3664743,26.3393311 25.402464,26.12 26.5784699,26.12 C27.4744743,26.12 28.2398,26.2506654 28.8744699,26.512 C29.5091397,26.7733346 30.0364678,27.1139979 30.4564699,27.534 C30.876472,27.9540021 31.1984687,28.4253307 31.4224699,28.948 C31.646471,29.4706693 31.8144699,30.002664 31.9264699,30.544 L29.8544699,31.216 C29.7611361,30.8053313 29.6351373,30.4133352 29.4764699,30.04 C29.3178024,29.6666648 29.1078045,29.3400014 28.8464699,29.06 C28.5851352,28.7799986 28.2584718,28.5560008 27.8664699,28.388 C27.4744679,28.2199992 26.9891394,28.136 26.4104699,28.136 C24.842462,28.136 23.5964745,28.7286607 22.6724699,29.914 C21.7484652,31.0993393 21.1184715,32.6999899 20.7824699,34.716 L20.3344699,37.404 C20.2598028,37.8333355 20.2038034,38.2533313 20.1664699,38.664 C20.1291363,39.0746687 20.1104699,39.475998 20.1104699,39.868 C20.1104699,41.2120067 20.4091335,42.2899959 21.0064699,43.102 C21.6038062,43.9140041 22.5744631,44.32 23.9184699,44.32 C24.4784727,44.32 24.9731344,44.2406675 25.4024699,44.082 C25.8318053,43.9233325 26.228468,43.6853349 26.5924699,43.368 C26.9564717,43.0506651 27.3064682,42.6493358 27.6424699,42.164 C27.9784715,41.6786642 28.3331347,41.1093366 28.7064699,40.456 L30.5264699,41.38 C30.1531347,42.1453372 29.7518053,42.8359969 29.3224699,43.452 C28.8931344,44.0680031 28.4031393,44.5906645 27.8524699,45.02 C27.3018004,45.4493355 26.6858066,45.7759989 26.0044699,46 C25.3231331,46.2240011 24.5438076,46.336 23.6664699,46.336 Z M39.7266884,46.336 C38.9613513,46.336 38.4200234,46.1493352 38.1026884,45.776 C37.7853535,45.4026648 37.6266884,44.9266696 37.6266884,44.348 L37.6329107,44.061778 C37.6349847,44.0099262 37.6375773,43.9560003 37.6406884,43.9 C37.6500218,43.7319992 37.6733549,43.5826673 37.7106884,43.452 L40.8466884,27.156 L35.7506884,27.156 L36.0586884,25.28 L43.4226884,25.28 L39.7826884,44.18 L40.4826884,44.404 L46.2226884,39.532 L47.4826884,40.764 L44.0175445,43.8954296 C43.5756401,44.2878103 43.1813568,44.6206653 42.8346884,44.894 C42.3493527,45.2766686 41.9246903,45.5753323 41.5606885,45.79 C41.1966866,46.0046677 40.8700232,46.149333 40.5806884,46.224 C40.2913537,46.298667 40.0066899,46.336 39.7266884,46.336 Z M59.398907,28.332 C58.8015707,28.332 58.3815749,28.2200011 58.138907,27.996 C57.8962392,27.7719989 57.774907,27.5106682 57.774907,27.212 C57.774907,27.0999994 57.7842403,26.9786673 57.802907,26.848 C57.8153515,26.7608885 57.831944,26.6654816 57.8526848,26.561778 L57.886907,26.4 C57.9615741,25.9706645 58.1482389,25.6393345 58.446907,25.406 C58.7455752,25.1726655 59.1749042,25.056 59.734907,25.056 C60.3322434,25.056 60.7522392,25.1679989 60.994907,25.392 C61.2375749,25.6160011 61.358907,25.8773318 61.358907,26.176 C61.358907,26.2880006 61.3495738,26.4093327 61.330907,26.54 C61.3184625,26.6271115 61.30187,26.7225184 61.2811293,26.826222 L61.246907,26.988 C61.17224,27.4173355 60.9855752,27.7486655 60.686907,27.982 C60.3882389,28.2153345 59.9589098,28.332 59.398907,28.332 Z M57.494907,46.336 C56.7855702,46.336 56.2489089,46.1540018 55.884907,45.79 C55.5209052,45.4259982 55.338907,44.9640028 55.338907,44.404 C55.338907,44.2173324 55.3529069,44.026001 55.380907,43.83 C55.4089072,43.633999 55.4415735,43.4520008 55.478907,43.284 L57.382907,33.428 L52.174907,33.428 L52.482907,31.552 L59.930907,31.552 L57.494907,44.152 L58.138907,44.404 L63.654907,39.644 L64.970907,40.876 L62.422907,43.228 C61.7695704,43.8440031 61.2049094,44.347998 60.728907,44.74 C60.2529047,45.132002 59.8282422,45.4493321 59.454907,45.692 C59.0815718,45.9346679 58.7409086,46.1026662 58.432907,46.196 C58.1249055,46.2893338 57.812242,46.336 57.494907,46.336 Z M67.3391256,46 L69.7471256,31.552 L71.7631256,31.552 L71.3991256,33.82 L71.5111256,33.82 C71.8471273,33.0919964 72.2531233,32.4760025 72.7291256,31.972 C73.205128,31.4679975 73.844455,31.216 74.6471256,31.216 C75.4684631,31.216 76.0564572,31.4773307 76.4111256,32 C76.7657941,32.5226693 76.9151259,33.1759961 76.8591256,33.96 L76.9431256,33.96 C77.3164608,33.1199958 77.7831228,32.4526691 78.3431256,31.958 C78.9031284,31.4633309 79.6031214,31.216 80.4431256,31.216 C81.2457963,31.216 81.8571235,31.4539976 82.2771256,31.93 C82.6971277,32.4060024 82.9071256,33.0919955 82.9071256,33.988 C82.9071256,34.2493346 82.8884592,34.5573316 82.8511256,34.912 C82.8137921,35.2666684 82.7671259,35.6119983 82.7111256,35.948 L81.0311256,46 L79.0151256,46 L80.6391256,36.312 C80.6951259,35.9759983 80.7417921,35.6540015 80.7791256,35.346 C80.8164592,35.0379985 80.8351256,34.7813344 80.8351256,34.576 C80.8351256,33.5306614 80.4244631,33.008 79.6031256,33.008 C79.2111237,33.008 78.8704604,33.1153323 78.5811256,33.33 C78.2917909,33.5446677 78.0257935,33.8106651 77.7831256,34.128 C77.521791,34.5013352 77.3071265,34.9073311 77.1391256,35.346 C76.9711248,35.7846689 76.8497927,36.2186645 76.7751256,36.648 L75.2071256,46 L73.1911256,46 L74.8151256,36.312 C74.9271262,35.6399966 74.9831256,35.0893355 74.9831256,34.66 C74.9831256,34.0626637 74.8851266,33.6380013 74.6891256,33.386 C74.4931247,33.1339987 74.1991276,33.008 73.8071256,33.008 C73.4151237,33.008 73.0604606,33.1153323 72.7431256,33.33 C72.4257907,33.5446677 72.1551268,33.8106651 71.9311256,34.128 C71.669791,34.5013352 71.4551265,34.9073311 71.2871256,35.346 C71.1191248,35.7846689 70.9977927,36.2186645 70.9231256,36.648 L69.3551256,46 L67.3391256,46 Z M94.8513442,46 L95.4113442,42.584 L95.3273442,42.584 C94.7673414,43.7226724 94.0906815,44.6326633 93.2973442,45.314 C92.5040069,45.9953367 91.4726839,46.336 90.2033442,46.336 C88.7473369,46.336 87.6320148,45.869338 86.8573442,44.936 C86.0826737,44.002662 85.6953442,42.602676 85.6953442,40.736 C85.6953442,39.7653285 85.8120097,38.7246722 86.0453442,37.614 C86.2786787,36.5033278 86.6613416,35.4720048 87.1933442,34.52 C87.7253469,33.5679952 88.4300065,32.7793365 89.3073442,32.154 C90.1846819,31.5286635 91.2580045,31.216 92.5273442,31.216 C93.5913495,31.216 94.482674,31.4539976 95.2013442,31.93 C95.9200145,32.4060024 96.4380093,33.1199952 96.7553442,34.072 L96.8393442,34.072 L97.2593442,31.552 L99.4433442,31.552 L97.0353442,46 L94.8513442,46 Z M90.9593442,44.404 C91.5566805,44.404 92.1446747,44.2780013 92.7233442,44.026 C93.3020138,43.7739987 93.8433417,43.3680028 94.3473442,42.808 C94.7206794,42.3973313 95.0520094,41.9120028 95.3413442,41.352 C95.630679,40.7919972 95.8313437,40.1760034 95.9433442,39.504 L96.4753442,36.312 C96.6433451,35.303995 96.4053474,34.5246694 95.7613442,33.974 C95.117341,33.4233306 94.2540163,33.148 93.1713442,33.148 C91.7713372,33.148 90.6746815,33.5679958 89.8813442,34.408 C89.0880069,35.2480042 88.5793453,36.3399933 88.3553442,37.684 L88.0193442,39.7 L87.9703442,40.0675001 C87.9563442,40.1818332 87.9446776,40.2879995 87.9353442,40.386 C87.9166775,40.582001 87.9073442,40.7733324 87.9073442,40.96 C87.9073442,42.0426721 88.1640083,42.8873303 88.6773442,43.494 C89.1906801,44.1006697 89.9513392,44.404 90.9593442,44.404 Z M107.943563,46.336 C107.290226,46.336 106.781565,46.1586684 106.417563,45.804 C106.053561,45.4493316 105.871563,44.9360034 105.871563,44.264 L105.879438,43.8912499 C105.881188,43.8410833 105.883229,43.788 105.885563,43.732 C105.894896,43.5079989 105.918229,43.3213341 105.955563,43.172 L107.635563,33.428 L103.463563,33.428 L103.771563,31.552 L106.711563,31.552 C107.196899,31.552 107.556228,31.454001 107.789563,31.258 C108.022897,31.061999 108.186229,30.7213358 108.279563,30.236 L108.923563,26.456 L110.995563,26.456 L110.127563,31.552 L116.091563,31.552 L115.783563,33.428 L109.819563,33.428 L108.027563,44.124 L108.587563,44.46 L114.887563,40.26 L115.979563,41.66 L112.277276,44.2805722 C111.8468,44.5815244 111.461565,44.8419989 111.121563,45.062 C110.64556,45.3700015 110.216231,45.6173324 109.833563,45.804 C109.450894,45.9906676 109.110231,46.1259996 108.811563,46.21 C108.512895,46.2940004 108.223564,46.336 107.943563,46.336 Z M126.131781,46.336 C124.302439,46.336 122.89312,45.8273384 121.903781,44.81 C120.914443,43.7926616 120.419781,42.2386771 120.419781,40.148 C120.419781,38.8413268 120.615779,37.6420055 121.007781,36.55 C121.399783,35.4579945 121.945778,34.5153373 122.645781,33.722 C123.345785,32.9286627 124.185777,32.3126689 125.165781,31.874 C126.145786,31.4353311 127.214442,31.216 128.371781,31.216 C129.081118,31.216 129.734445,31.2999992 130.331781,31.468 C130.929118,31.6360008 131.447113,31.8833317 131.885781,32.21 C132.32445,32.5366683 132.665114,32.9426642 132.907781,33.428 C133.150449,33.9133358 133.271781,34.4733302 133.271781,35.108 C133.271781,35.6120025 133.155116,36.134664 132.921781,36.676 C132.688447,37.217336 132.203118,37.721331 131.465781,38.188 C130.728444,38.654669 129.664455,39.0466651 128.273781,39.364 C126.883108,39.6813349 125.039793,39.8679997 122.743781,39.924 C122.725115,40.0733341 122.715781,40.2086661 122.715781,40.33 L122.715781,40.568 C122.715781,41.0720025 122.762448,41.557331 122.855781,42.024 C122.949115,42.490669 123.126447,42.9059982 123.387781,43.27 C123.649116,43.6340018 124.013112,43.9233323 124.479781,44.138 C124.94645,44.3526677 125.562444,44.46 126.327781,44.46 C126.850451,44.46 127.321779,44.3993339 127.741781,44.278 C128.161784,44.1566661 128.563113,43.9700013 128.945781,43.718 C129.32845,43.4659987 129.70178,43.1393353 130.065781,42.738 C130.429783,42.3366647 130.817113,41.8466696 131.227781,41.268 L132.767781,42.22 C131.946444,43.5640067 131.017787,44.5859965 129.981781,45.286 C128.945776,45.9860035 127.662456,46.336 126.131781,46.336 Z M128.175781,33.036 C126.719774,33.036 125.534453,33.4746623 124.619781,34.352 C123.70511,35.2293377 123.145116,36.4893251 122.939781,38.132 L122.911781,38.412 C124.666457,38.3559997 126.080443,38.2206677 127.153781,38.006 C128.22712,37.7913323 129.048445,37.5346682 129.617781,37.236 C130.187118,36.9373318 130.565114,36.6106684 130.751781,36.256 C130.938449,35.9013316 131.031781,35.5466684 131.031781,35.192 C131.031781,34.8933318 130.980449,34.6133346 130.877781,34.352 C130.775114,34.0906654 130.611783,33.862001 130.387781,33.666 C130.16378,33.469999 129.869783,33.3160006 129.505781,33.204 C129.14178,33.0919994 128.698451,33.036 128.175781,33.036 Z M160.660219,46.336 C158.625542,46.336 157.141557,45.7293394 156.208219,44.516 C155.274881,43.3026606 154.808219,41.5573447 154.808219,39.28 C154.808219,38.5333296 154.859551,37.6886714 154.962219,36.746 C155.064886,35.8033286 155.246884,34.8420049 155.508219,33.862 C155.769553,32.8819951 156.114883,31.9300046 156.544219,31.006 C156.973554,30.0819954 157.510215,29.2560036 158.154219,28.528 C158.798222,27.7999964 159.568214,27.2166689 160.464219,26.778 C161.360223,26.3393311 162.396213,26.12 163.572219,26.12 C164.468223,26.12 165.233549,26.2506654 165.868219,26.512 C166.502888,26.7733346 167.030216,27.1139979 167.450219,27.534 C167.870221,27.9540021 168.192217,28.4253307 168.416219,28.948 C168.64022,29.4706693 168.808219,30.002664 168.920219,30.544 L166.848219,31.216 C166.754885,30.8053313 166.628886,30.4133352 166.470219,30.04 C166.311551,29.6666648 166.101553,29.3400014 165.840219,29.06 C165.578884,28.7799986 165.252221,28.5560008 164.860219,28.388 C164.468217,28.2199992 163.982888,28.136 163.404219,28.136 C161.836211,28.136 160.590223,28.7286607 159.666219,29.914 C158.742214,31.0993393 158.11222,32.6999899 157.776219,34.716 L157.328219,37.404 C157.253552,37.8333355 157.197552,38.2533313 157.160219,38.664 C157.122885,39.0746687 157.104219,39.475998 157.104219,39.868 C157.104219,41.2120067 157.402882,42.2899959 158.000219,43.102 C158.597555,43.9140041 159.568212,44.32 160.912219,44.32 C161.472221,44.32 161.966883,44.2406675 162.396219,44.082 C162.825554,43.9233325 163.222217,43.6853349 163.586219,43.368 C163.95022,43.0506651 164.300217,42.6493358 164.636219,42.164 C164.97222,41.6786642 165.326883,41.1093366 165.700219,40.456 L167.520219,41.38 C167.146883,42.1453372 166.745554,42.8359969 166.316219,43.452 C165.886883,44.0680031 165.396888,44.5906645 164.846219,45.02 C164.295549,45.4493355 163.679555,45.7759989 162.998219,46 C162.316882,46.2240011 161.537556,46.336 160.660219,46.336 Z M174.872437,25.28 L177.056437,25.28 L175.432437,34.968 L175.544437,34.968 C176.085773,33.8106609 176.729767,32.8960034 177.476437,32.224 C178.223108,31.5519966 179.184431,31.216 180.360437,31.216 C181.573777,31.216 182.530434,31.5799964 183.230437,32.308 C183.930441,33.0360036 184.280437,34.06266 184.280437,35.388 C184.280437,35.6680014 184.266437,35.9713317 184.238437,36.298 C184.210437,36.6246683 184.168437,36.9466651 184.112437,37.264 L182.656437,46 L180.472437,46 L181.900437,37.46 C181.956437,37.1239983 181.99377,36.820668 182.012437,36.55 L182.030357,36.2543196 C182.037077,36.1210399 182.040437,36.0096004 182.040437,35.92 C182.040437,35.061329 181.844439,34.3846691 181.452437,33.89 C181.060435,33.3953309 180.453775,33.148 179.632437,33.148 C178.997767,33.148 178.433106,33.2879986 177.938437,33.568 C177.443768,33.8480014 176.991106,34.2306642 176.580437,34.716 L176.230437,35.15 L176.230437,35.15 C176.07177,35.346001 175.908438,35.5886652 175.740437,35.878 C175.572436,36.1673348 175.413771,36.4939982 175.264437,36.858 C175.115103,37.2220018 175.003104,37.6093313 174.928437,38.02 L173.584437,46 L171.400437,46 L174.872437,25.28 Z M197.596656,46 L198.156656,42.584 L198.072656,42.584 C197.512653,43.7226724 196.835993,44.6326633 196.042656,45.314 C195.249318,45.9953367 194.217995,46.336 192.948656,46.336 C191.492648,46.336 190.377326,45.869338 189.602656,44.936 C188.827985,44.002662 188.440656,42.602676 188.440656,40.736 C188.440656,39.7653285 188.557321,38.7246722 188.790656,37.614 C189.02399,36.5033278 189.406653,35.4720048 189.938656,34.52 C190.470658,33.5679952 191.175318,32.7793365 192.052656,32.154 C192.929993,31.5286635 194.003316,31.216 195.272656,31.216 C196.336661,31.216 197.227986,31.4539976 197.946656,31.93 C198.665326,32.4060024 199.183321,33.1199952 199.500656,34.072 L199.584656,34.072 L200.004656,31.552 L202.188656,31.552 L199.780656,46 L197.596656,46 Z M193.704656,44.404 C194.301992,44.404 194.889986,44.2780013 195.468656,44.026 C196.047325,43.7739987 196.588653,43.3680028 197.092656,42.808 C197.465991,42.3973313 197.797321,41.9120028 198.086656,41.352 C198.375991,40.7919972 198.576655,40.1760034 198.688656,39.504 L199.220656,36.312 C199.388657,35.303995 199.150659,34.5246694 198.506656,33.974 C197.862653,33.4233306 196.999328,33.148 195.916656,33.148 C194.516649,33.148 193.419993,33.5679958 192.626656,34.408 C191.833318,35.2480042 191.324657,36.3399933 191.100656,37.684 L190.764656,39.7 L190.715656,40.0675001 C190.701656,40.1818332 190.689989,40.2879995 190.680656,40.386 C190.661989,40.582001 190.652656,40.7733324 190.652656,40.96 C190.652656,42.0426721 190.90932,42.8873303 191.422656,43.494 C191.935992,44.1006697 192.696651,44.404 193.704656,44.404 Z M205.648874,46 L208.056874,31.552 L210.240874,31.552 L209.680874,34.968 L209.792874,34.968 C210.33421,33.8106609 210.978204,32.8960034 211.724874,32.224 C212.471545,31.5519966 213.432868,31.216 214.608874,31.216 C215.822214,31.216 216.778871,31.5799964 217.478874,32.308 C218.178878,33.0360036 218.528874,34.06266 218.528874,35.388 C218.528874,35.6680014 218.514875,35.9713317 218.486874,36.298 C218.468208,36.5157789 218.443319,36.7314815 218.412208,36.9451108 L216.904874,46 L214.720874,46 L216.148874,37.46 C216.204875,37.1239983 216.242208,36.820668 216.260874,36.55 L216.284394,36.1283199 C216.287381,36.0491735 216.288874,35.9797336 216.288874,35.92 C216.288874,35.061329 216.092876,34.3846691 215.700874,33.89 C215.308872,33.3953309 214.702212,33.148 213.880874,33.148 C213.246205,33.148 212.681544,33.2879986 212.186874,33.568 C211.692205,33.8480014 211.239543,34.2306642 210.828874,34.716 L210.478874,35.15 L210.478874,35.15 C210.320207,35.346001 210.156875,35.5886652 209.988874,35.878 C209.820874,36.1673348 209.662208,36.4939982 209.512874,36.858 C209.36354,37.2220018 209.251541,37.6093313 209.176874,38.02 L207.832874,46 L205.648874,46 Z M227.057093,51.936 C224.742415,51.936 223.053098,51.27334 221.989093,49.948 L223.501093,48.492 C223.874428,48.9773358 224.359757,49.3506654 224.957093,49.612 C225.554429,49.8733346 226.301088,50.004 227.197093,50.004 C228.522433,50.004 229.577089,49.6680034 230.361093,48.996 C231.145097,48.3239966 231.667758,47.1853414 231.929093,45.58 L232.517093,42.108 L232.405093,42.108 C231.863757,43.2653391 231.187097,44.1799966 230.375093,44.852 C229.563089,45.5240034 228.522433,45.86 227.253093,45.86 C225.759752,45.86 224.63043,45.3886714 223.865093,44.446 C223.099756,43.5033286 222.717093,42.1453422 222.717093,40.372 C222.717093,39.438662 222.838425,38.4353387 223.081093,37.362 C223.323761,36.2886613 223.715757,35.2993379 224.257093,34.394 C224.798429,33.4886621 225.498422,32.7326697 226.357093,32.126 C227.215764,31.5193303 228.27042,31.216 229.521093,31.216 C230.585098,31.216 231.476423,31.4539976 232.195093,31.93 C232.913763,32.4060024 233.431758,33.1199952 233.749093,34.072 L233.833093,34.072 L234.253093,31.552 L236.437093,31.552 L234.029093,46 C233.655758,48.1280106 232.853099,49.6493288 231.621093,50.564 C230.389087,51.4786712 228.867769,51.936 227.057093,51.936 Z M228.009093,43.928 C228.606429,43.928 229.194423,43.8066679 229.773093,43.564 C230.351763,43.3213321 230.902424,42.9106696 231.425093,42.332 C231.686428,42.0333318 231.985091,41.6086694 232.321093,41.058 C232.657095,40.5073306 232.890426,39.8400039 233.021093,39.056 L233.469093,36.312 C233.637094,35.303995 233.399096,34.5246694 232.755093,33.974 C232.11109,33.4233306 231.247765,33.148 230.165093,33.148 C228.802419,33.148 227.715097,33.5586626 226.903093,34.38 C226.091089,35.2013374 225.573094,36.2839933 225.349093,37.628 L225.097093,39.14 L224.999093,39.798 L224.999093,39.798 C224.971093,39.9753342 224.957093,40.1666656 224.957093,40.372 C224.957093,41.5293391 225.213757,42.4113303 225.727093,43.018 C226.240429,43.6246697 227.001088,43.928 228.009093,43.928 Z M246.001312,46.336 C244.171969,46.336 242.76265,45.8273384 241.773312,44.81 C240.783973,43.7926616 240.289312,42.2386771 240.289312,40.148 C240.289312,38.8413268 240.48531,37.6420055 240.877312,36.55 C241.269314,35.4579945 241.815308,34.5153373 242.515312,33.722 C243.215315,32.9286627 244.055307,32.3126689 245.035312,31.874 C246.015316,31.4353311 247.083972,31.216 248.241312,31.216 C248.950648,31.216 249.603975,31.2999992 250.201312,31.468 C250.798648,31.6360008 251.316643,31.8833317 251.755312,32.21 C252.19398,32.5366683 252.534644,32.9426642 252.777312,33.428 C253.019979,33.9133358 253.141312,34.4733302 253.141312,35.108 C253.141312,35.6120025 253.024646,36.134664 252.791312,36.676 C252.557977,37.217336 252.072649,37.721331 251.335312,38.188 C250.597975,38.654669 249.533985,39.0466651 248.143312,39.364 C246.752638,39.6813349 244.909323,39.8679997 242.613312,39.924 C242.594645,40.0733341 242.585312,40.2086661 242.585312,40.33 L242.585312,40.568 C242.585312,41.0720025 242.631978,41.557331 242.725312,42.024 C242.818645,42.490669 242.995977,42.9059982 243.257312,43.27 C243.518646,43.6340018 243.882643,43.9233323 244.349312,44.138 C244.815981,44.3526677 245.431974,44.46 246.197312,44.46 C246.719981,44.46 247.191309,44.3993339 247.611312,44.278 C248.031314,44.1566661 248.432643,43.9700013 248.815312,43.718 C249.19798,43.4659987 249.57131,43.1393353 249.935312,42.738 C250.299313,42.3366647 250.686643,41.8466696 251.097312,41.268 L252.637312,42.22 C251.815974,43.5640067 250.887317,44.5859965 249.851312,45.286 C248.815306,45.9860035 247.531986,46.336 246.001312,46.336 Z M248.045312,33.036 C246.589304,33.036 245.403983,33.4746623 244.489312,34.352 C243.57464,35.2293377 243.014646,36.4893251 242.809312,38.132 L242.781312,38.412 C244.535987,38.3559997 245.949973,38.2206677 247.023312,38.006 C248.09665,37.7913323 248.917975,37.5346682 249.487312,37.236 C250.056648,36.9373318 250.434644,36.6106684 250.621312,36.256 C250.807979,35.9013316 250.901312,35.5466684 250.901312,35.192 C250.901312,34.8933318 250.849979,34.6133346 250.747312,34.352 C250.644644,34.0906654 250.481313,33.862001 250.257312,33.666 C250.03331,33.469999 249.739313,33.3160006 249.375312,33.204 C249.01131,33.0919994 248.567981,33.036 248.045312,33.036 Z M14.5163606,74.336 C12.8176854,74.336 11.4130328,74.0140032 10.3023606,73.37 C9.19168834,72.7259968 8.34703012,71.900005 7.76836056,70.892 L9.50436056,69.52 C10.1016969,70.4720048 10.8110231,71.181331 11.6323606,71.648 C12.453698,72.114669 13.4523547,72.348 14.6283606,72.348 C16.1590349,72.348 17.3723561,71.979337 18.2683606,71.242 C19.164365,70.504663 19.6123606,69.5106729 19.6123606,68.26 C19.6123606,67.4573293 19.3836962,66.8133358 18.9263606,66.328 C18.4690249,65.8426642 17.6710329,65.4693346 16.5323606,65.208 L14.4323606,64.732 C12.8830195,64.3773316 11.7536974,63.8080039 11.0443606,63.024 C10.3350237,62.2399961 9.98036056,61.2133397 9.98036056,59.944 C9.98036056,59.0479955 10.1530255,58.2406703 10.4983606,57.522 C10.8436956,56.8033297 11.3243575,56.1920025 11.9403606,55.688 C12.5563636,55.1839975 13.2936896,54.796668 14.1523606,54.526 C15.0110315,54.255332 15.963022,54.12 17.0083606,54.12 C17.8483648,54.12 18.6090238,54.2039992 19.2903606,54.372 C19.9716973,54.5400008 20.5736913,54.7733318 21.0963606,55.072 C21.6190298,55.3706682 22.0670254,55.7113314 22.4403606,56.094 C22.8136958,56.4766686 23.1310259,56.8919978 23.3923606,57.34 L21.7123606,58.572 C21.1710245,57.7506626 20.5130311,57.1300021 19.7383606,56.71 C18.96369,56.2899979 18.0163662,56.08 16.8963606,56.08 C15.4776868,56.08 14.3623646,56.41133 13.5503606,57.074 C12.7383565,57.73667 12.3323606,58.6373276 12.3323606,59.776 C12.3323606,60.6720045 12.5983579,61.3439978 13.1303606,61.792 C13.6623632,62.2400022 14.451022,62.5853321 15.4963606,62.828 L17.5403606,63.304 C19.1643687,63.6773352 20.3076906,64.2653293 20.9703606,65.068 C21.6330305,65.8706707 21.9643606,66.8693274 21.9643606,68.064 C21.9643606,68.997338 21.7916956,69.8466628 21.4463606,70.612 C21.1010255,71.3773372 20.6063638,72.0353306 19.9623606,72.586 C19.3183573,73.1366694 18.5343652,73.5659985 17.6103606,73.874 C16.6863559,74.1820015 15.6550329,74.336 14.5163606,74.336 Z M31.7525792,74.336 C30.8565747,74.336 30.0679159,74.1866682 29.3865792,73.888 C28.7052424,73.5893318 28.1359148,73.1740027 27.6785792,72.642 C27.2212435,72.1099973 26.8759137,71.4660038 26.6425792,70.71 C26.4092447,69.9539962 26.2925792,69.1280045 26.2925792,68.232 C26.2925792,66.8506598 26.4885772,65.6046722 26.8805792,64.494 C27.2725811,63.3833278 27.8045758,62.4360039 28.4765792,61.652 C29.1485825,60.8679961 29.9372413,60.2660021 30.8425792,59.846 C31.747917,59.4259979 32.7139074,59.216 33.7405792,59.216 C34.5059163,59.216 35.173243,59.3093324 35.7425792,59.496 C36.3119153,59.6826676 36.8019104,59.9299985 37.2125792,60.238 C37.6232479,60.5460015 37.9545779,60.9146645 38.2065792,61.344 C38.4585804,61.7733355 38.6499118,62.221331 38.7805792,62.688 L36.9045792,63.416 C36.6245778,62.5199955 36.2092486,61.9133349 35.6585792,61.596 C35.1079097,61.2786651 34.3845836,61.12 33.4885792,61.12 C32.256573,61.12 31.2532497,61.5213293 30.4785792,62.324 C29.7039086,63.1266707 29.1859138,64.2839924 28.9245792,65.796 L28.6445792,67.476 C28.5885789,67.8120017 28.5512459,68.0733324 28.5325792,68.26 C28.5139124,68.4466676 28.5045792,68.6333324 28.5045792,68.82 C28.5045792,70.0520062 28.8265759,70.9619971 29.4705792,71.55 C30.1145824,72.1380029 30.9685738,72.432 32.0325792,72.432 C32.3499141,72.432 32.6719109,72.394667 32.9985792,72.32 C33.3252475,72.245333 33.6799106,72.0866679 34.0625792,71.844 C34.4452477,71.6013321 34.8605769,71.246669 35.3085792,70.78 C35.7565814,70.313331 36.2699096,69.6880039 36.8485792,68.904 L38.4165792,69.828 C37.9685769,70.5560036 37.5112482,71.2046638 37.0445792,71.774 C36.5779102,72.3433362 36.0785818,72.8146648 35.5465792,73.188 C35.0145765,73.5613352 34.4359156,73.845999 33.8105792,74.042 C33.1852427,74.238001 32.4992496,74.336 31.7525792,74.336 Z M49.0727977,74.336 C47.2434553,74.336 45.834136,73.8273384 44.8447977,72.81 C43.8554595,71.7926616 43.3607977,70.2386771 43.3607977,68.148 C43.3607977,66.8413268 43.5567958,65.6420055 43.9487977,64.55 C44.3407997,63.4579945 44.8867942,62.5153373 45.5867977,61.722 C46.2868012,60.9286627 47.1267928,60.3126689 48.1067977,59.874 C49.0868026,59.4353311 50.1554586,59.216 51.3127977,59.216 C52.0221346,59.216 52.6754614,59.2999992 53.2727977,59.468 C53.8701341,59.6360008 54.3881289,59.8833317 54.8267977,60.21 C55.2654666,60.5366683 55.6061299,60.9426642 55.8487977,61.428 C56.0914656,61.9133358 56.2127977,62.4733302 56.2127977,63.108 C56.2127977,63.6120025 56.0961322,64.134664 55.8627977,64.676 C55.6294632,65.217336 55.1441348,65.721331 54.4067977,66.188 C53.6694607,66.654669 52.6054714,67.0466651 51.2147977,67.364 C49.8241241,67.6813349 47.9808092,67.8679997 45.6847977,67.924 C45.666131,68.0733341 45.6567977,68.2086661 45.6567977,68.33 L45.6567977,68.568 C45.6567977,69.0720025 45.7034639,69.557331 45.7967977,70.024 C45.8901315,70.490669 46.0674631,70.9059982 46.3287977,71.27 C46.5901324,71.6340018 46.9541287,71.9233323 47.4207977,72.138 C47.8874667,72.3526677 48.5034606,72.46 49.2687977,72.46 C49.791467,72.46 50.2627956,72.3993339 50.6827977,72.278 C51.1027998,72.1566661 51.5041292,71.9700013 51.8867977,71.718 C52.2694663,71.4659987 52.6427959,71.1393353 53.0067977,70.738 C53.3707996,70.3366647 53.758129,69.8466696 54.1687977,69.268 L55.7087977,70.22 C54.8874603,71.5640067 53.9588029,72.5859965 52.9227977,73.286 C51.8867926,73.9860035 50.6034721,74.336 49.0727977,74.336 Z M51.1167977,61.036 C49.6607905,61.036 48.475469,61.4746623 47.5607977,62.352 C46.6461265,63.2293377 46.0861321,64.4893251 45.8807977,66.132 L45.8527977,66.412 C47.6074732,66.3559997 49.021459,66.2206677 50.0947977,66.006 C51.1681364,65.7913323 51.9894616,65.5346682 52.5587977,65.236 C53.1281339,64.9373318 53.5061301,64.6106684 53.6927977,64.256 C53.8794653,63.9013316 53.9727977,63.5466684 53.9727977,63.192 C53.9727977,62.8933318 53.9214649,62.6133346 53.8187977,62.352 C53.7161306,62.0906654 53.5527989,61.862001 53.3287977,61.666 C53.1047966,61.469999 52.8107996,61.3160006 52.4467977,61.204 C52.0827959,61.0919994 51.639467,61.036 51.1167977,61.036 Z M60.0930163,74 L62.5010163,59.552 L64.6850163,59.552 L64.1250163,62.968 L64.2370163,62.968 C64.7783524,61.8106609 65.4223459,60.8960034 66.1690163,60.224 C66.9156867,59.5519966 67.8770105,59.216 69.0530163,59.216 C70.2663557,59.216 71.2230128,59.5799964 71.9230163,60.308 C72.6230198,61.0360036 72.9730163,62.06266 72.9730163,63.388 C72.9730163,63.6680014 72.9590165,63.9713317 72.9310163,64.298 C72.9030162,64.6246683 72.8610166,64.9466651 72.8050163,65.264 L71.3490163,74 L69.1650163,74 L70.5930163,65.46 C70.6490166,65.1239983 70.6863496,64.820668 70.7050163,64.55 L70.7285364,64.1283199 C70.731523,64.0491735 70.7330163,63.9797336 70.7330163,63.92 C70.7330163,63.061329 70.5370183,62.3846691 70.1450163,61.89 C69.7530144,61.3953309 69.1463538,61.148 68.3250163,61.148 C67.6903465,61.148 67.1256855,61.2879986 66.6310163,61.568 C66.1363472,61.8480014 65.6836851,62.2306642 65.2730163,62.716 L64.9230163,63.15 L64.9230163,63.15 C64.7643489,63.346001 64.6010172,63.5886652 64.4330163,63.878 C64.2650155,64.1673348 64.1063504,64.4939982 63.9570163,64.858 C63.8076823,65.2220018 63.6956834,65.6093313 63.6210163,66.02 L62.2770163,74 L60.0930163,74 Z M86.2892349,74 L86.8492349,70.584 L86.7652349,70.584 C86.2052321,71.7226724 85.5285722,72.6326633 84.7352349,73.314 C83.9418976,73.9953367 82.9105746,74.336 81.6412349,74.336 C80.1852276,74.336 79.0699055,73.869338 78.2952349,72.936 C77.5205644,72.002662 77.1332349,70.602676 77.1332349,68.736 C77.1332349,67.7653285 77.2499004,66.7246722 77.4832349,65.614 C77.7165694,64.5033278 78.0992323,63.4720048 78.6312349,62.52 C79.1632376,61.5679952 79.8678972,60.7793365 80.7452349,60.154 C81.6225726,59.5286635 82.6958952,59.216 83.9652349,59.216 C85.0292402,59.216 85.9205647,59.4539976 86.6392349,59.93 C87.3579052,60.4060024 87.8759,61.1199952 88.1932349,62.072 L88.2772349,62.072 L88.6972349,59.552 L90.8812349,59.552 L88.4732349,74 L86.2892349,74 Z M82.3972349,72.404 C82.9945712,72.404 83.5825654,72.2780013 84.1612349,72.026 C84.7399045,71.7739987 85.2812324,71.3680028 85.7852349,70.808 C86.1585701,70.3973313 86.4899001,69.9120028 86.7792349,69.352 C87.0685697,68.7919972 87.2692344,68.1760034 87.3812349,67.504 L87.9132349,64.312 C88.0812358,63.303995 87.8432381,62.5246694 87.1992349,61.974 C86.5552317,61.4233306 85.691907,61.148 84.6092349,61.148 C83.2092279,61.148 82.1125722,61.5679958 81.3192349,62.408 C80.5258976,63.2480042 80.017236,64.3399933 79.7932349,65.684 L79.4572349,67.7 C79.4199014,67.9613346 79.3919017,68.189999 79.3732349,68.386 C79.3545682,68.582001 79.3452349,68.7733324 79.3452349,68.96 C79.3452349,70.0426721 79.601899,70.8873303 80.1152349,71.494 C80.6285708,72.1006697 81.3892299,72.404 82.3972349,72.404 Z M97.6734535,74 L99.7734535,61.428 L95.7134535,61.428 L96.0214535,59.552 L102.265454,59.552 L101.621454,63.416 L101.761454,63.416 C102.004121,62.8373304 102.284119,62.3100024 102.601454,61.834 C102.918788,61.3579976 103.287451,60.9520017 103.707454,60.616 C104.127456,60.2799983 104.608117,60.0186676 105.149454,59.832 C105.69079,59.6453324 106.306783,59.552 106.997454,59.552 L109.181454,59.552 L108.817454,61.736 L106.353454,61.736 C105.513449,61.736 104.813456,61.8526655 104.253454,62.086 C103.693451,62.3193345 103.198789,62.6879975 102.769454,63.192 L102.391454,63.654 L102.391454,63.654 C102.232786,63.850001 102.069454,64.0879986 101.901454,64.368 C101.733453,64.6480014 101.579454,64.9653316 101.439454,65.32 C101.299453,65.6746684 101.192121,66.0573313 101.117454,66.468 L99.8574535,74 L97.6734535,74 Z M119.333672,56.332 C118.736336,56.332 118.31634,56.2200011 118.073672,55.996 C117.831004,55.7719989 117.709672,55.5106682 117.709672,55.212 C117.709672,55.0999994 117.719005,54.9786673 117.737672,54.848 C117.750117,54.7608885 117.766709,54.6654816 117.78745,54.561778 L117.821672,54.4 C117.896339,53.9706645 118.083004,53.6393345 118.381672,53.406 C118.68034,53.1726655 119.109669,53.056 119.669672,53.056 C120.267008,53.056 120.687004,53.1679989 120.929672,53.392 C121.17234,53.6160011 121.293672,53.8773318 121.293672,54.176 C121.293672,54.2880006 121.284339,54.4093327 121.265672,54.54 C121.253228,54.6271115 121.236635,54.7225184 121.215894,54.826222 L121.181672,54.988 C121.107005,55.4173355 120.92034,55.7486655 120.621672,55.982 C120.323004,56.2153345 119.893675,56.332 119.333672,56.332 Z M117.429672,74.336 C116.720335,74.336 116.183674,74.1540018 115.819672,73.79 C115.45567,73.4259982 115.273672,72.9640028 115.273672,72.404 C115.273672,72.2173324 115.287672,72.026001 115.315672,71.83 C115.343672,71.633999 115.376339,71.4520008 115.413672,71.284 L117.317672,61.428 L112.109672,61.428 L112.417672,59.552 L119.865672,59.552 L117.429672,72.152 L118.073672,72.404 L123.589672,67.644 L124.905672,68.876 L122.357672,71.228 C121.704336,71.8440031 121.139674,72.347998 120.663672,72.74 C120.18767,73.132002 119.763007,73.4493321 119.389672,73.692 C119.016337,73.9346679 118.675674,74.1026662 118.367672,74.196 C118.059671,74.2893338 117.747007,74.336 117.429672,74.336 Z M134.357891,74.336 C133.424553,74.336 132.607894,74.1866682 131.907891,73.888 C131.207887,73.5893318 130.62456,73.1740027 130.157891,72.642 C129.691222,72.1099973 129.336559,71.4660038 129.093891,70.71 C128.851223,69.9539962 128.729891,69.1280045 128.729891,68.232 C128.729891,66.8506598 128.925889,65.6046722 129.317891,64.494 C129.709893,63.3833278 130.246554,62.4360039 130.927891,61.652 C131.609227,60.8679961 132.407219,60.2660021 133.321891,59.846 C134.236562,59.4259979 135.225885,59.216 136.289891,59.216 C137.223229,59.216 138.044554,59.3653318 138.753891,59.664 C139.463228,59.9626682 140.055888,60.3779973 140.531891,60.91 C141.007893,61.4420027 141.362556,62.0859962 141.595891,62.842 C141.829225,63.5980038 141.945891,64.4239955 141.945891,65.32 C141.945891,66.7013402 141.749893,67.9473278 141.357891,69.058 C140.965889,70.1686722 140.429227,71.1159961 139.747891,71.9 C139.066554,72.6840039 138.263895,73.2859979 137.339891,73.706 C136.415886,74.1260021 135.421896,74.336 134.357891,74.336 Z M134.469891,72.432 C135.832564,72.432 136.919887,72.0166708 137.731891,71.186 C138.543895,70.3553292 139.071223,69.2213405 139.313891,67.784 L139.593891,66.104 C139.649891,65.7679983 139.687224,65.4880011 139.705891,65.264 C139.724557,65.0399989 139.733891,64.8440008 139.733891,64.676 C139.733891,63.4439938 139.416561,62.5433362 138.781891,61.974 C138.147221,61.4046638 137.288563,61.12 136.205891,61.12 C134.843217,61.12 133.755895,61.5353292 132.943891,62.366 C132.131887,63.1966708 131.604559,64.3306595 131.361891,65.768 L131.081891,67.448 C131.02589,67.7840017 130.988557,68.0639989 130.969891,68.288 C130.951224,68.5120011 130.941891,68.7079992 130.941891,68.876 C130.941891,70.1080062 131.259221,71.0086638 131.893891,71.578 C132.528561,72.1473362 133.387219,72.432 134.469891,72.432 Z M162.502328,74 L165.778328,54.456 L172.750328,54.456 C174.393003,54.456 175.601657,54.8806624 176.376328,55.73 C177.150998,56.5793376 177.538328,57.6853265 177.538328,59.048 C177.538328,61.1386771 176.983,62.7673275 175.872328,63.934 C174.761656,65.1006725 173.179671,65.684 171.126328,65.684 L166.198328,65.684 L164.798328,74 L162.502328,74 Z M166.534328,63.668 L171.350328,63.668 C172.414333,63.668 173.240325,63.4160025 173.828328,62.912 C174.416331,62.4079975 174.784994,61.7360042 174.934328,60.896 L175.102328,59.888 C175.158328,59.5519983 175.186328,59.188002 175.186328,58.796 C175.186328,58.0119961 174.94833,57.4286686 174.472328,57.046 C173.996326,56.6633314 173.328999,56.472 172.470328,56.472 L167.738328,56.472 L166.534328,63.668 Z M183.294546,74 L185.394546,61.428 L181.334546,61.428 L181.642546,59.552 L187.886546,59.552 L187.242546,63.416 L187.382546,63.416 C187.625214,62.8373304 187.905212,62.3100024 188.222546,61.834 C188.539881,61.3579976 188.908544,60.9520017 189.328546,60.616 C189.748549,60.2799983 190.22921,60.0186676 190.770546,59.832 C191.311883,59.6453324 191.927876,59.552 192.618546,59.552 L194.802546,59.552 L194.438546,61.736 L191.974546,61.736 C191.134542,61.736 190.434549,61.8526655 189.874546,62.086 C189.314544,62.3193345 188.819882,62.6879975 188.390546,63.192 L188.012546,63.654 L188.012546,63.654 C187.853879,63.850001 187.690547,64.0879986 187.522546,64.368 C187.354546,64.6480014 187.200547,64.9653316 187.060546,65.32 C186.920546,65.6746684 186.813214,66.0573313 186.738546,66.468 L185.478546,74 L183.294546,74 Z M204.954765,56.332 C204.357429,56.332 203.937433,56.2200011 203.694765,55.996 C203.452097,55.7719989 203.330765,55.5106682 203.330765,55.212 C203.330765,55.0999994 203.340098,54.9786673 203.358765,54.848 C203.37121,54.7608885 203.387802,54.6654816 203.408543,54.561778 L203.442765,54.4 C203.517432,53.9706645 203.704097,53.6393345 204.002765,53.406 C204.301433,53.1726655 204.730762,53.056 205.290765,53.056 C205.888101,53.056 206.308097,53.1679989 206.550765,53.392 C206.793433,53.6160011 206.914765,53.8773318 206.914765,54.176 C206.914765,54.2880006 206.905432,54.4093327 206.886765,54.54 C206.874321,54.6271115 206.857728,54.7225184 206.836987,54.826222 L206.802765,54.988 C206.728098,55.4173355 206.541433,55.7486655 206.242765,55.982 C205.944097,56.2153345 205.514768,56.332 204.954765,56.332 Z M203.050765,74.336 C202.341428,74.336 201.804767,74.1540018 201.440765,73.79 C201.076763,73.4259982 200.894765,72.9640028 200.894765,72.404 C200.894765,72.2173324 200.908765,72.026001 200.936765,71.83 C200.964765,71.633999 200.997432,71.4520008 201.034765,71.284 L202.938765,61.428 L197.730765,61.428 L198.038765,59.552 L205.486765,59.552 L203.050765,72.152 L203.694765,72.404 L209.210765,67.644 L210.526765,68.876 L207.978765,71.228 C207.325428,71.8440031 206.760767,72.347998 206.284765,72.74 C205.808763,73.132002 205.3841,73.4493321 205.010765,73.692 C204.63743,73.9346679 204.296767,74.1026662 203.988765,74.196 C203.680764,74.2893338 203.3681,74.336 203.050765,74.336 Z M212.894984,74 L215.302984,59.552 L217.318984,59.552 L216.954984,61.82 L217.066984,61.82 C217.402985,61.0919964 217.808981,60.4760025 218.284984,59.972 C218.760986,59.4679975 219.400313,59.216 220.202984,59.216 C221.024321,59.216 221.612315,59.4773307 221.966984,60 C222.321652,60.5226693 222.470984,61.1759961 222.414984,61.96 L222.498984,61.96 C222.872319,61.1199958 223.338981,60.4526691 223.898984,59.958 C224.458986,59.4633309 225.158979,59.216 225.998984,59.216 C226.801654,59.216 227.412982,59.4539976 227.832984,59.93 C228.252986,60.4060024 228.462984,61.0919955 228.462984,61.988 C228.462984,62.2493346 228.444317,62.5573316 228.406984,62.912 C228.36965,63.2666684 228.322984,63.6119983 228.266984,63.948 L226.586984,74 L224.570984,74 L226.194984,64.312 C226.232317,64.0879989 226.265502,63.8702222 226.294539,63.658667 L226.334984,63.346 C226.372317,63.0379985 226.390984,62.7813344 226.390984,62.576 C226.390984,61.5306614 225.980321,61.008 225.158984,61.008 C224.766982,61.008 224.426318,61.1153323 224.136984,61.33 C223.847649,61.5446677 223.581652,61.8106651 223.338984,62.128 C223.077649,62.5013352 222.862985,62.9073311 222.694984,63.346 C222.526983,63.7846689 222.405651,64.2186645 222.330984,64.648 L220.762984,74 L218.746984,74 L220.370984,64.312 C220.482984,63.6399966 220.538984,63.0893355 220.538984,62.66 C220.538984,62.0626637 220.440985,61.6380013 220.244984,61.386 C220.048983,61.1339987 219.754986,61.008 219.362984,61.008 C218.970982,61.008 218.616319,61.1153323 218.298984,61.33 C217.981649,61.5446677 217.710985,61.8106651 217.486984,62.128 C217.225649,62.5013352 217.010985,62.9073311 216.842984,63.346 C216.674983,63.7846689 216.553651,64.2186645 216.478984,64.648 L214.910984,74 L212.894984,74 Z M237.439202,74.336 C235.60986,74.336 234.200541,73.8273384 233.211202,72.81 C232.221864,71.7926616 231.727202,70.2386771 231.727202,68.148 C231.727202,66.8413268 231.9232,65.6420055 232.315202,64.55 C232.707204,63.4579945 233.253199,62.5153373 233.953202,61.722 C234.653206,60.9286627 235.493197,60.3126689 236.473202,59.874 C237.453207,59.4353311 238.521863,59.216 239.679202,59.216 C240.388539,59.216 241.041866,59.2999992 241.639202,59.468 C242.236539,59.6360008 242.754533,59.8833317 243.193202,60.21 C243.631871,60.5366683 243.972534,60.9426642 244.215202,61.428 C244.45787,61.9133358 244.579202,62.4733302 244.579202,63.108 C244.579202,63.6120025 244.462537,64.134664 244.229202,64.676 C243.995868,65.217336 243.510539,65.721331 242.773202,66.188 C242.035865,66.654669 240.971876,67.0466651 239.581202,67.364 C238.190529,67.6813349 236.347214,67.8679997 234.051202,67.924 C234.032535,68.0733341 234.023202,68.2086661 234.023202,68.33 L234.023202,68.568 C234.023202,69.0720025 234.069868,69.557331 234.163202,70.024 C234.256536,70.490669 234.433868,70.9059982 234.695202,71.27 C234.956537,71.6340018 235.320533,71.9233323 235.787202,72.138 C236.253871,72.3526677 236.869865,72.46 237.635202,72.46 C238.157872,72.46 238.6292,72.3993339 239.049202,72.278 C239.469204,72.1566661 239.870534,71.9700013 240.253202,71.718 C240.635871,71.4659987 241.0092,71.1393353 241.373202,70.738 C241.737204,70.3366647 242.124534,69.8466696 242.535202,69.268 L244.075202,70.22 C243.253865,71.5640067 242.325207,72.5859965 241.289202,73.286 C240.253197,73.9860035 238.969877,74.336 237.439202,74.336 Z M239.483202,61.036 C238.027195,61.036 236.841873,61.4746623 235.927202,62.352 C235.012531,63.2293377 234.452537,64.4893251 234.247202,66.132 L234.219202,66.412 C235.973878,66.3559997 237.387864,66.2206677 238.461202,66.006 C239.534541,65.7913323 240.355866,65.5346682 240.925202,65.236 C241.494538,64.9373318 241.872535,64.6106684 242.059202,64.256 C242.24587,63.9013316 242.339202,63.5466684 242.339202,63.192 C242.339202,62.8933318 242.287869,62.6133346 242.185202,62.352 C242.082535,62.0906654 241.919203,61.862001 241.695202,61.666 C241.471201,61.469999 241.177204,61.3160006 240.813202,61.204 C240.4492,61.0919994 240.005872,61.036 239.483202,61.036 Z M251.791421,74 L253.891421,61.428 L249.831421,61.428 L250.139421,59.552 L256.383421,59.552 L255.739421,63.416 L255.879421,63.416 C256.122089,62.8373304 256.402086,62.3100024 256.719421,61.834 C257.036756,61.3579976 257.405419,60.9520017 257.825421,60.616 C258.245423,60.2799983 258.726085,60.0186676 259.267421,59.832 C259.808757,59.6453324 260.424751,59.552 261.115421,59.552 L263.299421,59.552 L262.935421,61.736 L260.471421,61.736 C259.631417,61.736 258.931424,61.8526655 258.371421,62.086 C257.811418,62.3193345 257.316756,62.6879975 256.887421,63.192 L256.509421,63.654 L256.509421,63.654 C256.350753,63.850001 256.187422,64.0879986 256.019421,64.368 C255.85142,64.6480014 255.697422,64.9653316 255.557421,65.32 C255.41742,65.6746684 255.310088,66.0573313 255.235421,66.468 L253.975421,74 L251.791421,74 Z" id="ClimateChangeScenarioPrimer"></path>
                </g>
                <g id="Group-32" transform="translate(55.000000, 128.000000)">
                    <circle id="Oval" stroke="#5263FF" cx="80.75" cy="80.25" r="80.25"></circle>
                    <path d="M22.3596774,85.023871 L19.5,76.1525161 L21.4572903,76.1525161 L22.7790968,80.4102581 L23.478129,83.1936774 L23.5162581,83.1936774 L24.189871,80.4102581 L25.5116774,76.1525161 L27.4054194,76.1525161 L24.5203226,85.023871 L22.3596774,85.023871 Z M28.723416,85.023871 L28.723416,83.486 L29.8672869,83.486 L29.8672869,77.6903871 L28.723416,77.6903871 L28.723416,76.1525161 L32.9430289,76.1525161 L32.9430289,77.6903871 L31.7991579,77.6903871 L31.7991579,83.486 L32.9430289,83.486 L32.9430289,85.023871 L28.723416,85.023871 Z M37.9341222,85.1763871 C37.1545915,85.1763871 36.4936948,85.0429368 35.9514126,84.7760323 C35.4091303,84.5091277 34.9473499,84.1638516 34.5660577,83.7401935 L35.8370255,82.4565161 C36.4386199,83.134369 37.1800103,83.4732903 38.061219,83.4732903 C38.535716,83.4732903 38.8873469,83.3758504 39.1161222,83.1809677 C39.3448976,82.986085 39.4592835,82.7276575 39.4592835,82.4056774 C39.4592835,82.1599558 39.3914993,81.9544847 39.2559287,81.7892581 C39.1203581,81.6240314 38.8449845,81.5117637 38.4297996,81.4524516 L37.5528319,81.3380645 C36.6123111,81.2194403 35.9238771,80.9355936 35.4875093,80.4865161 C35.0511416,80.0374386 34.8329609,79.4400897 34.8329609,78.6944516 C34.8329609,78.2962131 34.9092182,77.9318726 35.0617351,77.6014194 C35.214252,77.2709661 35.4324326,76.9871195 35.7162835,76.749871 C36.0001344,76.5126225 36.3475288,76.328334 36.7584771,76.197 C37.1694254,76.065666 37.6375605,76 38.1628964,76 C38.8322761,76 39.4211519,76.1059129 39.9295416,76.3177419 C40.4379312,76.5295699 40.8742925,76.8388367 41.2386384,77.2455484 L39.9549609,78.5419355 C39.7431319,78.2962138 39.4868227,78.0949793 39.1860255,77.9382258 C38.8852283,77.7814723 38.50606,77.7030968 38.0485093,77.7030968 C37.6163781,77.7030968 37.2944029,77.7793541 37.0825738,77.931871 C36.8707448,78.0843879 36.7648319,78.2962137 36.7648319,78.5673548 C36.7648319,78.8723886 36.847444,79.0926875 37.0126706,79.2282581 C37.1778972,79.3638286 37.4469161,79.4612685 37.8197351,79.5205806 L38.6967029,79.6603871 C39.6118042,79.8044308 40.2896469,80.0861592 40.7302513,80.5055806 C41.1708556,80.9250021 41.3911545,81.5202327 41.3911545,82.2912903 C41.3911545,82.7149484 41.3148972,83.1047079 41.1623803,83.4605806 C41.0098634,83.8164534 40.7874463,84.1214826 40.4951222,84.3756774 C40.2027982,84.6298722 39.840576,84.8268703 39.4084448,84.9666774 C38.9763136,85.1064846 38.4848777,85.1763871 37.9341222,85.1763871 Z M43.1539898,85.023871 L43.1539898,83.486 L44.2978608,83.486 L44.2978608,77.6903871 L43.1539898,77.6903871 L43.1539898,76.1525161 L47.3736027,76.1525161 L47.3736027,77.6903871 L46.2297317,77.6903871 L46.2297317,83.486 L47.3736027,83.486 L47.3736027,85.023871 L43.1539898,85.023871 Z M53.1399864,77.8683226 L53.1399864,85.023871 L51.2081154,85.023871 L51.2081154,77.8683226 L48.8059864,77.8683226 L48.8059864,76.1525161 L55.5421154,76.1525161 L55.5421154,77.8683226 L53.1399864,77.8683226 Z M64.5710764,77.8683226 L64.5710764,85.023871 L62.6392054,85.023871 L62.6392054,77.8683226 L60.2370764,77.8683226 L60.2370764,76.1525161 L66.9732054,76.1525161 L66.9732054,77.8683226 L64.5710764,77.8683226 Z M74.1122343,81.3889032 L70.7314601,81.3889032 L70.7314601,85.023871 L68.7995891,85.023871 L68.7995891,76.1525161 L70.7314601,76.1525161 L70.7314601,79.6858065 L74.1122343,79.6858065 L74.1122343,76.1525161 L76.0441052,76.1525161 L76.0441052,85.023871 L74.1122343,85.023871 L74.1122343,81.3889032 Z M78.5059728,85.023871 L78.5059728,76.1525161 L84.5430696,76.1525161 L84.5430696,77.8683226 L80.4378438,77.8683226 L80.4378438,79.6858065 L83.9584244,79.6858065 L83.9584244,81.3889032 L80.4378438,81.3889032 L80.4378438,83.3080645 L84.5430696,83.3080645 L84.5430696,85.023871 L78.5059728,85.023871 Z M90.2293853,85.023871 L90.2293853,76.1525161 L94.4235789,76.1525161 C94.8387638,76.1525161 95.2115772,76.2224187 95.5420305,76.3622258 C95.8724838,76.502033 96.1542121,76.6947945 96.3872241,76.9405161 C96.620236,77.1862378 96.8002879,77.4849122 96.9273853,77.8365484 C97.0544828,78.1881846 97.1180305,78.5715893 97.1180305,78.9867742 C97.1180305,79.4104322 97.0544828,79.7959553 96.9273853,80.1433548 C96.8002879,80.4907544 96.620236,80.7873106 96.3872241,81.0330323 C96.1542121,81.2787539 95.8724838,81.4715154 95.5420305,81.6113226 C95.2115772,81.7511297 94.8387638,81.8210323 94.4235789,81.8210323 L92.1612563,81.8210323 L92.1612563,85.023871 L90.2293853,85.023871 Z M92.1612563,80.1433548 L94.1948047,80.1433548 C94.4828922,80.1433548 94.7095458,80.0692158 94.8747724,79.9209355 C95.0399991,79.7726552 95.1226111,79.5544746 95.1226111,79.2663871 L95.1226111,78.7071613 C95.1226111,78.4190738 95.0399991,78.2008932 94.8747724,78.0526129 C94.7095458,77.9043326 94.4828922,77.8301935 94.1948047,77.8301935 L92.1612563,77.8301935 L92.1612563,80.1433548 Z M101.003382,85.023871 L99.071511,85.023871 L99.071511,76.1525161 L103.278414,76.1525161 C103.685126,76.1525161 104.053703,76.2203004 104.384156,76.355871 C104.714609,76.4914415 104.996338,76.6842031 105.22935,76.9341613 C105.462362,77.1841195 105.642414,77.482794 105.769511,77.8301935 C105.896608,78.1775931 105.960156,78.5631162 105.960156,78.9867742 C105.960156,79.5883686 105.826706,80.1136967 105.559801,80.5627742 C105.292897,81.0118517 104.888309,81.3380635 104.346027,81.5414194 L106.087253,85.023871 L103.939317,85.023871 L102.388737,81.7701935 L101.003382,81.7701935 L101.003382,85.023871 Z M103.03693,80.1433548 C103.325018,80.1433548 103.551671,80.0692158 103.716898,79.9209355 C103.882125,79.7726552 103.964737,79.5544746 103.964737,79.2663871 L103.964737,78.7071613 C103.964737,78.4190738 103.882125,78.2008932 103.716898,78.0526129 C103.551671,77.9043326 103.325018,77.8301935 103.03693,77.8301935 L101.003382,77.8301935 L101.003382,80.1433548 L103.03693,80.1433548 Z M107.79925,85.023871 L107.79925,83.486 L108.94312,83.486 L108.94312,77.6903871 L107.79925,77.6903871 L107.79925,76.1525161 L112.018862,76.1525161 L112.018862,77.6903871 L110.874991,77.6903871 L110.874991,83.486 L112.018862,83.486 L112.018862,85.023871 L107.79925,85.023871 Z M120.77202,79.2028387 L120.733891,79.2028387 L120.085698,80.4992258 L118.357182,83.6385161 L116.666794,80.5119355 L115.993182,79.113871 L115.955053,79.113871 L115.955053,85.023871 L114.137569,85.023871 L114.137569,76.1525161 L116.183827,76.1525161 L118.357182,80.3085806 L118.382601,80.3085806 L120.530536,76.1525161 L122.589504,76.1525161 L122.589504,85.023871 L120.77202,85.023871 L120.77202,79.2028387 Z M125.051372,85.023871 L125.051372,76.1525161 L131.088469,76.1525161 L131.088469,77.8683226 L126.983243,77.8683226 L126.983243,79.6858065 L130.503823,79.6858065 L130.503823,81.3889032 L126.983243,81.3889032 L126.983243,83.3080645 L131.088469,83.3080645 L131.088469,85.023871 L125.051372,85.023871 Z M137.477626,76.1525161 C137.884338,76.1525161 138.252915,76.2203004 138.583368,76.355871 C138.913822,76.4914415 139.19555,76.6842031 139.428562,76.9341613 C139.661574,77.1841195 139.841626,77.482794 139.968723,77.8301935 C140.095821,78.1775931 140.159368,78.5631162 140.159368,78.9867742 C140.159368,79.5883686 140.025918,80.1136967 139.759013,80.5627742 C139.492109,81.0118517 139.087522,81.3380635 138.545239,81.5414194 L140.286465,85.023871 L138.13853,85.023871 L136.587949,81.7701935 L135.202594,81.7701935 L135.202594,85.023871 L133.270723,85.023871 L133.270723,76.1525161 L137.477626,76.1525161 Z M137.236143,77.8301935 L135.202594,77.8301935 L135.202594,80.1433548 L137.236143,80.1433548 C137.52423,80.1433548 137.750884,80.0692158 137.91611,79.9209355 C138.081337,79.7726552 138.163949,79.5544746 138.163949,79.2663871 L138.163949,79.2663871 L138.163949,78.7071613 C138.163949,78.4190738 138.081337,78.2008932 137.91611,78.0526129 C137.750884,77.9043326 137.52423,77.8301935 137.236143,77.8301935 L137.236143,77.8301935 Z" id="VISITTHEPRIMER" fill="#5263FF" fill-rule="nonzero" transform="translate(79.893233, 80.588194) rotate(-30.000000) translate(-79.893233, -80.588194) "></path>
                </g>
            </g>
        </g>
    </g>
</svg>