<svg width="253" height="223" viewBox="0 0 253 223" fill="none" xmlns="http://www.w3.org/2000/svg">
<path d="M1.26899 3.02H4.13899C4.71899 3.02 5.17232 3.18333 5.49899 3.51C5.83232 3.83667 5.99899 4.27333 5.99899 4.82C5.99899 5.08 5.96232 5.3 5.88899 5.48C5.81566 5.66 5.72232 5.81 5.60899 5.93C5.49566 6.04333 5.37232 6.13 5.23899 6.19C5.10566 6.24333 4.98232 6.28 4.86899 6.3V6.36C4.99566 6.36667 5.13566 6.4 5.28899 6.46C5.44899 6.52 5.59899 6.61667 5.73899 6.75C5.87899 6.87667 5.99566 7.04333 6.08899 7.25C6.18899 7.45 6.23899 7.69333 6.23899 7.98C6.23899 8.26667 6.19232 8.53333 6.09899 8.78C6.01232 9.02667 5.88899 9.24 5.72899 9.42C5.56899 9.6 5.37899 9.74333 5.15899 9.85C4.93899 9.95 4.69899 10 4.43899 10H1.26899V3.02ZM2.10899 9.26H4.17899C4.53899 9.26 4.82232 9.17 5.02899 8.99C5.23566 8.80333 5.33899 8.53333 5.33899 8.18V7.84C5.33899 7.48667 5.23566 7.22 5.02899 7.04C4.82232 6.85333 4.53899 6.76 4.17899 6.76H2.10899V9.26ZM2.10899 6.04H4.03899C4.37232 6.04 4.63232 5.95667 4.81899 5.79C5.00566 5.62333 5.09899 5.38333 5.09899 5.07V4.73C5.09899 4.41667 5.00566 4.17667 4.81899 4.01C4.63232 3.84333 4.37232 3.76 4.03899 3.76H2.10899V6.04ZM8.19919 10V3.02H12.4592V3.76H9.03919V6.1H12.2592V6.84H9.03919V9.26H12.4592V10H8.19919ZM14.4263 10V3.02H18.5863V3.76H15.2663V6.1H18.2963V6.84H15.2663V10H14.4263ZM22.8532 10.12C22.3999 10.12 21.9899 10.0433 21.6232 9.89C21.2632 9.73 20.9532 9.5 20.6932 9.2C20.4399 8.89333 20.2432 8.51667 20.1032 8.07C19.9632 7.61667 19.8932 7.09667 19.8932 6.51C19.8932 5.92333 19.9632 5.40667 20.1032 4.96C20.2432 4.51333 20.4399 4.13667 20.6932 3.83C20.9532 3.52333 21.2632 3.29333 21.6232 3.14C21.9899 2.98 22.3999 2.9 22.8532 2.9C23.2999 2.9 23.7065 2.98 24.0732 3.14C24.4399 3.29333 24.7499 3.52333 25.0032 3.83C25.2632 4.13667 25.4632 4.51333 25.6032 4.96C25.7432 5.40667 25.8132 5.92333 25.8132 6.51C25.8132 7.09667 25.7432 7.61667 25.6032 8.07C25.4632 8.51667 25.2632 8.89333 25.0032 9.2C24.7499 9.5 24.4399 9.73 24.0732 9.89C23.7065 10.0433 23.2999 10.12 22.8532 10.12ZM22.8532 9.37C23.1532 9.37 23.4299 9.31667 23.6832 9.21C23.9365 9.10333 24.1532 8.95 24.3332 8.75C24.5199 8.55 24.6632 8.31 24.7632 8.03C24.8632 7.75 24.9132 7.43667 24.9132 7.09V5.93C24.9132 5.58333 24.8632 5.27 24.7632 4.99C24.6632 4.71 24.5199 4.47 24.3332 4.27C24.1532 4.07 23.9365 3.91667 23.6832 3.81C23.4299 3.70333 23.1532 3.65 22.8532 3.65C22.5532 3.65 22.2765 3.70333 22.0232 3.81C21.7699 3.91667 21.5499 4.07 21.3632 4.27C21.1832 4.47 21.0432 4.71 20.9432 4.99C20.8432 5.27 20.7932 5.58333 20.7932 5.93V7.09C20.7932 7.43667 20.8432 7.75 20.9432 8.03C21.0432 8.31 21.1832 8.55 21.3632 8.75C21.5499 8.95 21.7699 9.10333 22.0232 9.21C22.2765 9.31667 22.5532 9.37 22.8532 9.37ZM28.5603 10H27.7203V3.02H30.5003C31.1136 3.02 31.5903 3.19 31.9303 3.53C32.2769 3.87 32.4503 4.36 32.4503 5C32.4503 5.51333 32.3303 5.93667 32.0903 6.27C31.8569 6.59667 31.5103 6.81333 31.0503 6.92L32.6503 10H31.7003L30.1903 7H28.5603V10ZM30.5003 6.28C30.8336 6.28 31.0903 6.19333 31.2703 6.02C31.4569 5.84667 31.5503 5.6 31.5503 5.28V4.76C31.5503 4.44 31.4569 4.19333 31.2703 4.02C31.0903 3.84667 30.8336 3.76 30.5003 3.76H28.5603V6.28H30.5003ZM34.5138 10V3.02H38.7738V3.76H35.3538V6.1H38.5738V6.84H35.3538V9.26H38.7738V10H34.5138ZM45.1011 10V7.24L42.7011 3.02H43.6611L45.5211 6.38H45.5511L47.4111 3.02H48.3711L45.9411 7.21V10H45.1011ZM52.1331 10.12C51.6798 10.12 51.2698 10.0433 50.9031 9.89C50.5431 9.73 50.2331 9.5 49.9731 9.2C49.7198 8.89333 49.5231 8.51667 49.3831 8.07C49.2431 7.61667 49.1731 7.09667 49.1731 6.51C49.1731 5.92333 49.2431 5.40667 49.3831 4.96C49.5231 4.51333 49.7198 4.13667 49.9731 3.83C50.2331 3.52333 50.5431 3.29333 50.9031 3.14C51.2698 2.98 51.6798 2.9 52.1331 2.9C52.5798 2.9 52.9865 2.98 53.3531 3.14C53.7198 3.29333 54.0298 3.52333 54.2831 3.83C54.5431 4.13667 54.7431 4.51333 54.8831 4.96C55.0231 5.40667 55.0931 5.92333 55.0931 6.51C55.0931 7.09667 55.0231 7.61667 54.8831 8.07C54.7431 8.51667 54.5431 8.89333 54.2831 9.2C54.0298 9.5 53.7198 9.73 53.3531 9.89C52.9865 10.0433 52.5798 10.12 52.1331 10.12ZM52.1331 9.37C52.4331 9.37 52.7098 9.31667 52.9631 9.21C53.2165 9.10333 53.4331 8.95 53.6131 8.75C53.7998 8.55 53.9431 8.31 54.0431 8.03C54.1431 7.75 54.1931 7.43667 54.1931 7.09V5.93C54.1931 5.58333 54.1431 5.27 54.0431 4.99C53.9431 4.71 53.7998 4.47 53.6131 4.27C53.4331 4.07 53.2165 3.91667 52.9631 3.81C52.7098 3.70333 52.4331 3.65 52.1331 3.65C51.8331 3.65 51.5565 3.70333 51.3031 3.81C51.0498 3.91667 50.8298 4.07 50.6431 4.27C50.4631 4.47 50.3231 4.71 50.2231 4.99C50.1231 5.27 50.0731 5.58333 50.0731 5.93V7.09C50.0731 7.43667 50.1231 7.75 50.2231 8.03C50.3231 8.31 50.4631 8.55 50.6431 8.75C50.8298 8.95 51.0498 9.10333 51.3031 9.21C51.5565 9.31667 51.8331 9.37 52.1331 9.37ZM57.7902 3.02V7.34C57.7902 8.00667 57.9135 8.51333 58.1602 8.86C58.4069 9.2 58.8402 9.37 59.4602 9.37C60.0802 9.37 60.5135 9.2 60.7602 8.86C61.0069 8.51333 61.1302 8.00667 61.1302 7.34V3.02H61.9702V7.14C61.9702 7.64667 61.9235 8.08667 61.8302 8.46C61.7435 8.83333 61.6002 9.14333 61.4002 9.39C61.2002 9.63667 60.9369 9.82 60.6102 9.94C60.2902 10.06 59.8969 10.12 59.4302 10.12C58.9635 10.12 58.5702 10.06 58.2502 9.94C57.9369 9.82 57.6835 9.63667 57.4902 9.39C57.2969 9.14333 57.1569 8.83333 57.0702 8.46C56.9902 8.08667 56.9502 7.64667 56.9502 7.14V3.02H57.7902ZM71.4548 8.98H71.4248C71.3382 9.30667 71.1248 9.58 70.7848 9.8C70.4515 10.0133 70.0182 10.12 69.4848 10.12C69.0582 10.12 68.6648 10.0433 68.3048 9.89C67.9515 9.73 67.6482 9.5 67.3948 9.2C67.1415 8.89333 66.9415 8.51667 66.7948 8.07C66.6548 7.61667 66.5848 7.09667 66.5848 6.51C66.5848 5.93 66.6548 5.41667 66.7948 4.97C66.9348 4.51667 67.1348 4.14 67.3948 3.84C67.6548 3.53333 67.9682 3.3 68.3348 3.14C68.7015 2.98 69.1082 2.9 69.5548 2.9C70.1815 2.9 70.7048 3.04 71.1248 3.32C71.5448 3.6 71.8682 3.97 72.0948 4.43L71.4048 4.85C71.2448 4.47667 71.0048 4.18333 70.6848 3.97C70.3715 3.75667 69.9948 3.65 69.5548 3.65C69.2482 3.65 68.9682 3.70667 68.7148 3.82C68.4615 3.92667 68.2415 4.08 68.0548 4.28C67.8748 4.48 67.7348 4.72 67.6348 5C67.5348 5.28 67.4848 5.59333 67.4848 5.94V7.07C67.4848 7.41667 67.5348 7.73333 67.6348 8.02C67.7348 8.3 67.8748 8.54 68.0548 8.74C68.2415 8.94 68.4682 9.09667 68.7348 9.21C69.0015 9.31667 69.3015 9.37 69.6348 9.37C69.8748 9.37 70.1015 9.34 70.3148 9.28C70.5348 9.21333 70.7248 9.11667 70.8848 8.99C71.0515 8.86333 71.1815 8.70667 71.2748 8.52C71.3682 8.32667 71.4148 8.1 71.4148 7.84V7.15H69.8748V6.41H72.2348V10H71.4548V8.98ZM74.285 10V3.02H78.545V3.76H75.125V6.1H78.345V6.84H75.125V9.26H78.545V10H74.285ZM82.8621 3.76V10H82.0221V3.76H79.8021V3.02H85.0821V3.76H82.8621ZM91.352 10.12C90.7853 10.12 90.302 10.0133 89.902 9.8C89.502 9.58 89.162 9.28 88.882 8.9L89.502 8.38C89.7487 8.70667 90.022 8.95667 90.322 9.13C90.622 9.29667 90.9753 9.38 91.382 9.38C91.882 9.38 92.262 9.26 92.522 9.02C92.7887 8.78 92.922 8.46 92.922 8.06C92.922 7.72667 92.822 7.47 92.622 7.29C92.422 7.11 92.092 6.96667 91.632 6.86L91.062 6.73C90.422 6.58333 89.932 6.36333 89.592 6.07C89.2587 5.77 89.092 5.35 89.092 4.81C89.092 4.50333 89.1487 4.23 89.262 3.99C89.3753 3.75 89.532 3.55 89.732 3.39C89.9387 3.23 90.182 3.11 90.462 3.03C90.7487 2.94333 91.062 2.9 91.402 2.9C91.9287 2.9 92.3787 2.99667 92.752 3.19C93.132 3.38333 93.452 3.66667 93.712 4.04L93.082 4.5C92.8887 4.23333 92.6553 4.02333 92.382 3.87C92.1087 3.71667 91.7687 3.64 91.362 3.64C90.9153 3.64 90.562 3.73667 90.302 3.93C90.0487 4.11667 89.922 4.4 89.922 4.78C89.922 5.11333 90.0287 5.36667 90.242 5.54C90.462 5.70667 90.792 5.84 91.232 5.94L91.802 6.07C92.4887 6.22333 92.9853 6.45667 93.292 6.77C93.5987 7.08333 93.752 7.5 93.752 8.02C93.752 8.34 93.6953 8.63 93.582 8.89C93.4753 9.15 93.3187 9.37 93.112 9.55C92.9053 9.73 92.652 9.87 92.352 9.97C92.0587 10.07 91.7253 10.12 91.352 10.12ZM97.8226 3.76V10H96.9826V3.76H94.7626V3.02H100.043V3.76H97.8226ZM105.308 10L104.608 7.94H101.788L101.088 10H100.238L102.678 3.02H103.748L106.188 10H105.308ZM103.218 3.8H103.168L101.988 7.2H104.398L103.218 3.8ZM108.581 10H107.741V3.02H110.521C111.135 3.02 111.611 3.19 111.951 3.53C112.298 3.87 112.471 4.36 112.471 5C112.471 5.51333 112.351 5.93667 112.111 6.27C111.878 6.59667 111.531 6.81333 111.071 6.92L112.671 10H111.721L110.211 7H108.581V10ZM110.521 6.28C110.855 6.28 111.111 6.19333 111.291 6.02C111.478 5.84667 111.571 5.6 111.571 5.28V4.76C111.571 4.44 111.478 4.19333 111.291 4.02C111.111 3.84667 110.855 3.76 110.521 3.76H108.581V6.28H110.521ZM116.641 3.76V10H115.801V3.76H113.581V3.02H118.861V3.76H116.641ZM120.41 10V3.02H124.67V3.76H121.25V6.1H124.47V6.84H121.25V9.26H124.67V10H120.41ZM126.637 3.02H128.977C129.411 3.02 129.804 3.09333 130.157 3.24C130.511 3.38667 130.811 3.60667 131.057 3.9C131.311 4.18667 131.504 4.55 131.637 4.99C131.771 5.42333 131.837 5.93 131.837 6.51C131.837 7.09 131.771 7.6 131.637 8.04C131.504 8.47333 131.311 8.83667 131.057 9.13C130.811 9.41667 130.511 9.63333 130.157 9.78C129.804 9.92667 129.411 10 128.977 10H126.637V3.02ZM128.977 9.26C129.264 9.26 129.527 9.21333 129.767 9.12C130.007 9.02 130.214 8.87667 130.387 8.69C130.561 8.50333 130.694 8.27667 130.787 8.01C130.887 7.73667 130.937 7.42667 130.937 7.08V5.94C130.937 5.59333 130.887 5.28667 130.787 5.02C130.694 4.74667 130.561 4.51667 130.387 4.33C130.214 4.14333 130.007 4.00333 129.767 3.91C129.527 3.81 129.264 3.76 128.977 3.76H127.477V9.26H128.977ZM137.474 10L135.774 3.02H136.664L137.414 6.38L137.994 8.99H138.014L138.664 6.38L139.544 3.02H140.504L141.354 6.38L142.004 8.98H142.034L142.634 6.38L143.424 3.02H144.284L142.494 10H141.564L140.654 6.52L140.014 3.96H139.994L139.334 6.52L138.404 10H137.474ZM145.477 10V9.3H146.457V3.72H145.477V3.02H148.277V3.72H147.297V9.3H148.277V10H145.477ZM152.489 3.76V10H151.649V3.76H149.429V3.02H154.709V3.76H152.489ZM160.629 6.84H157.099V10H156.259V3.02H157.099V6.1H160.629V3.02H161.469V10H160.629V6.84ZM166.487 10V3.02H169.267C169.893 3.02 170.373 3.2 170.707 3.56C171.047 3.91333 171.217 4.4 171.217 5.02C171.217 5.64 171.047 6.13 170.707 6.49C170.373 6.84333 169.893 7.02 169.267 7.02H167.327V10H166.487ZM167.327 6.28H169.267C169.6 6.28 169.857 6.19333 170.037 6.02C170.223 5.84667 170.317 5.6 170.317 5.28V4.76C170.317 4.44 170.223 4.19333 170.037 4.02C169.857 3.84667 169.6 3.76 169.267 3.76H167.327V6.28ZM175.558 10.12C175.105 10.12 174.695 10.0433 174.328 9.89C173.968 9.73 173.658 9.5 173.398 9.2C173.145 8.89333 172.948 8.51667 172.808 8.07C172.668 7.61667 172.598 7.09667 172.598 6.51C172.598 5.92333 172.668 5.40667 172.808 4.96C172.948 4.51333 173.145 4.13667 173.398 3.83C173.658 3.52333 173.968 3.29333 174.328 3.14C174.695 2.98 175.105 2.9 175.558 2.9C176.005 2.9 176.411 2.98 176.778 3.14C177.145 3.29333 177.455 3.52333 177.708 3.83C177.968 4.13667 178.168 4.51333 178.308 4.96C178.448 5.40667 178.518 5.92333 178.518 6.51C178.518 7.09667 178.448 7.61667 178.308 8.07C178.168 8.51667 177.968 8.89333 177.708 9.2C177.455 9.5 177.145 9.73 176.778 9.89C176.411 10.0433 176.005 10.12 175.558 10.12ZM175.558 9.37C175.858 9.37 176.135 9.31667 176.388 9.21C176.641 9.10333 176.858 8.95 177.038 8.75C177.225 8.55 177.368 8.31 177.468 8.03C177.568 7.75 177.618 7.43667 177.618 7.09V5.93C177.618 5.58333 177.568 5.27 177.468 4.99C177.368 4.71 177.225 4.47 177.038 4.27C176.858 4.07 176.641 3.91667 176.388 3.81C176.135 3.70333 175.858 3.65 175.558 3.65C175.258 3.65 174.981 3.70333 174.728 3.81C174.475 3.91667 174.255 4.07 174.068 4.27C173.888 4.47 173.748 4.71 173.648 4.99C173.548 5.27 173.498 5.58333 173.498 5.93V7.09C173.498 7.43667 173.548 7.75 173.648 8.03C173.748 8.31 173.888 8.55 174.068 8.75C174.255 8.95 174.475 9.10333 174.728 9.21C174.981 9.31667 175.258 9.37 175.558 9.37ZM180.425 10V3.02H181.265V9.26H184.235V10H180.425ZM185.502 10V9.3H186.482V3.72H185.502V3.02H188.302V3.72H187.322V9.3H188.302V10H185.502ZM192.693 10.12C191.806 10.12 191.116 9.82 190.623 9.22C190.129 8.61333 189.883 7.72333 189.883 6.55C189.883 5.37667 190.129 4.47667 190.623 3.85C191.116 3.21667 191.806 2.9 192.693 2.9C193.279 2.9 193.769 3.03333 194.163 3.3C194.563 3.56667 194.873 3.94333 195.093 4.43L194.413 4.84C194.273 4.48 194.059 4.19333 193.773 3.98C193.486 3.76 193.126 3.65 192.693 3.65C192.393 3.65 192.123 3.70667 191.883 3.82C191.649 3.93333 191.449 4.09667 191.283 4.31C191.123 4.51667 190.999 4.76667 190.913 5.06C190.826 5.34667 190.783 5.67 190.783 6.03V7.07C190.783 7.79 190.949 8.35333 191.283 8.76C191.616 9.16667 192.086 9.37 192.693 9.37C193.139 9.37 193.513 9.25667 193.813 9.03C194.113 8.79667 194.333 8.49 194.473 8.11L195.143 8.53C194.923 9.02333 194.606 9.41333 194.193 9.7C193.779 9.98 193.279 10.12 192.693 10.12ZM198.392 10V7.24L195.992 3.02H196.952L198.812 6.38H198.842L200.702 3.02H201.662L199.232 7.21V10H198.392ZM211.317 4.12H211.267L210.677 5.29L209.007 8.33L207.337 5.29L206.747 4.12H206.697V10H205.877V3.02H206.997L208.997 6.78H209.047L211.057 3.02H212.137V10H211.317V4.12ZM216.999 10.12C216.546 10.12 216.136 10.0433 215.769 9.89C215.409 9.73 215.099 9.5 214.839 9.2C214.586 8.89333 214.389 8.51667 214.249 8.07C214.109 7.61667 214.039 7.09667 214.039 6.51C214.039 5.92333 214.109 5.40667 214.249 4.96C214.389 4.51333 214.586 4.13667 214.839 3.83C215.099 3.52333 215.409 3.29333 215.769 3.14C216.136 2.98 216.546 2.9 216.999 2.9C217.446 2.9 217.853 2.98 218.219 3.14C218.586 3.29333 218.896 3.52333 219.149 3.83C219.409 4.13667 219.609 4.51333 219.749 4.96C219.889 5.40667 219.959 5.92333 219.959 6.51C219.959 7.09667 219.889 7.61667 219.749 8.07C219.609 8.51667 219.409 8.89333 219.149 9.2C218.896 9.5 218.586 9.73 218.219 9.89C217.853 10.0433 217.446 10.12 216.999 10.12ZM216.999 9.37C217.299 9.37 217.576 9.31667 217.829 9.21C218.083 9.10333 218.299 8.95 218.479 8.75C218.666 8.55 218.809 8.31 218.909 8.03C219.009 7.75 219.059 7.43667 219.059 7.09V5.93C219.059 5.58333 219.009 5.27 218.909 4.99C218.809 4.71 218.666 4.47 218.479 4.27C218.299 4.07 218.083 3.91667 217.829 3.81C217.576 3.70333 217.299 3.65 216.999 3.65C216.699 3.65 216.423 3.70333 216.169 3.81C215.916 3.91667 215.696 4.07 215.509 4.27C215.329 4.47 215.189 4.71 215.089 4.99C214.989 5.27 214.939 5.58333 214.939 5.93V7.09C214.939 7.43667 214.989 7.75 215.089 8.03C215.189 8.31 215.329 8.55 215.509 8.75C215.696 8.95 215.916 9.10333 216.169 9.21C216.423 9.31667 216.699 9.37 216.999 9.37ZM221.866 3.02H224.206C224.64 3.02 225.033 3.09333 225.386 3.24C225.74 3.38667 226.04 3.60667 226.286 3.9C226.54 4.18667 226.733 4.55 226.866 4.99C227 5.42333 227.066 5.93 227.066 6.51C227.066 7.09 227 7.6 226.866 8.04C226.733 8.47333 226.54 8.83667 226.286 9.13C226.04 9.41667 225.74 9.63333 225.386 9.78C225.033 9.92667 224.64 10 224.206 10H221.866V3.02ZM224.206 9.26C224.493 9.26 224.756 9.21333 224.996 9.12C225.236 9.02 225.443 8.87667 225.616 8.69C225.79 8.50333 225.923 8.27667 226.016 8.01C226.116 7.73667 226.166 7.42667 226.166 7.08V5.94C226.166 5.59333 226.116 5.28667 226.016 5.02C225.923 4.74667 225.79 4.51667 225.616 4.33C225.443 4.14333 225.236 4.00333 224.996 3.91C224.756 3.81 224.493 3.76 224.206 3.76H222.706V9.26H224.206ZM229.762 3.02V7.34C229.762 8.00667 229.886 8.51333 230.132 8.86C230.379 9.2 230.812 9.37 231.432 9.37C232.052 9.37 232.486 9.2 232.732 8.86C232.979 8.51333 233.102 8.00667 233.102 7.34V3.02H233.942V7.14C233.942 7.64667 233.896 8.08667 233.802 8.46C233.716 8.83333 233.572 9.14333 233.372 9.39C233.172 9.63667 232.909 9.82 232.582 9.94C232.262 10.06 231.869 10.12 231.402 10.12C230.936 10.12 230.542 10.06 230.222 9.94C229.909 9.82 229.656 9.63667 229.462 9.39C229.269 9.14333 229.129 8.83333 229.042 8.46C228.962 8.08667 228.922 7.64667 228.922 7.14V3.02H229.762ZM236.147 10V3.02H236.987V9.26H239.957V10H236.147ZM241.553 10V3.02H245.813V3.76H242.393V6.1H245.613V6.84H242.393V9.26H245.813V10H241.553ZM249.74 10.12C249.174 10.12 248.69 10.0133 248.29 9.8C247.89 9.58 247.55 9.28 247.27 8.9L247.89 8.38C248.137 8.70667 248.41 8.95667 248.71 9.13C249.01 9.29667 249.364 9.38 249.77 9.38C250.27 9.38 250.65 9.26 250.91 9.02C251.177 8.78 251.31 8.46 251.31 8.06C251.31 7.72667 251.21 7.47 251.01 7.29C250.81 7.11 250.48 6.96667 250.02 6.86L249.45 6.73C248.81 6.58333 248.32 6.36333 247.98 6.07C247.647 5.77 247.48 5.35 247.48 4.81C247.48 4.50333 247.537 4.23 247.65 3.99C247.764 3.75 247.92 3.55 248.12 3.39C248.327 3.23 248.57 3.11 248.85 3.03C249.137 2.94333 249.45 2.9 249.79 2.9C250.317 2.9 250.767 2.99667 251.14 3.19C251.52 3.38333 251.84 3.66667 252.1 4.04L251.47 4.5C251.277 4.23333 251.044 4.02333 250.77 3.87C250.497 3.71667 250.157 3.64 249.75 3.64C249.304 3.64 248.95 3.73667 248.69 3.93C248.437 4.11667 248.31 4.4 248.31 4.78C248.31 5.11333 248.417 5.36667 248.63 5.54C248.85 5.70667 249.18 5.84 249.62 5.94L250.19 6.07C250.877 6.22333 251.374 6.45667 251.68 6.77C251.987 7.08333 252.14 7.5 252.14 8.02C252.14 8.34 252.084 8.63 251.97 8.89C251.864 9.15 251.707 9.37 251.5 9.55C251.294 9.73 251.04 9.87 250.74 9.97C250.447 10.07 250.114 10.12 249.74 10.12Z" fill="#5263FF"/>
<path d="M6.027 46.252C4.501 46.252 3.388 45.797 2.688 44.887C1.988 43.977 1.638 42.668 1.638 40.96C1.638 40.4 1.673 39.77 1.743 39.07C1.827 38.356 1.967 37.635 2.163 36.907C2.359 36.165 2.618 35.451 2.94 34.765C3.262 34.065 3.661 33.442 4.137 32.896C4.627 32.35 5.208 31.916 5.88 31.594C6.552 31.258 7.329 31.09 8.211 31.09C8.883 31.09 9.457 31.188 9.933 31.384C10.409 31.58 10.801 31.839 11.109 32.161C11.431 32.469 11.676 32.819 11.844 33.211C12.012 33.603 12.138 34.002 12.222 34.408L10.668 34.912C10.598 34.604 10.5 34.31 10.374 34.03C10.262 33.75 10.108 33.505 9.912 33.295C9.716 33.085 9.471 32.917 9.177 32.791C8.883 32.665 8.519 32.602 8.085 32.602C6.909 32.602 5.971 33.05 5.271 33.946C4.585 34.828 4.116 36.025 3.864 37.537L3.528 39.553C3.472 39.875 3.43 40.19 3.402 40.498C3.374 40.806 3.36 41.107 3.36 41.401C3.36 42.409 3.584 43.221 4.032 43.837C4.48 44.439 5.208 44.74 6.216 44.74C6.636 44.74 7.007 44.684 7.329 44.572C7.651 44.446 7.945 44.264 8.211 44.026C8.491 43.788 8.757 43.487 9.009 43.123C9.261 42.759 9.527 42.332 9.807 41.842L11.172 42.535C10.892 43.109 10.591 43.627 10.269 44.089C9.947 44.551 9.576 44.943 9.156 45.265C8.75 45.587 8.288 45.832 7.77 46C7.266 46.168 6.685 46.252 6.027 46.252ZM18.064 46.252C17.49 46.252 17.084 46.112 16.846 45.832C16.608 45.552 16.489 45.195 16.489 44.761C16.489 44.663 16.489 44.551 16.489 44.425C16.503 44.299 16.524 44.187 16.552 44.089L18.904 31.867H15.082L15.313 30.46H20.836L18.106 44.635L18.631 44.803L22.936 41.149L23.881 42.073L21.697 44.047C21.193 44.509 20.759 44.887 20.395 45.181C20.031 45.461 19.709 45.685 19.429 45.853C19.163 46.007 18.918 46.112 18.694 46.168C18.484 46.224 18.274 46.252 18.064 46.252ZM32.8099 32.749C32.3619 32.749 32.0469 32.665 31.8649 32.497C31.6829 32.329 31.5919 32.133 31.5919 31.909C31.5919 31.825 31.5989 31.734 31.6129 31.636C31.6269 31.538 31.6479 31.426 31.6759 31.3C31.7319 30.978 31.8719 30.733 32.0959 30.565C32.3199 30.383 32.6419 30.292 33.0619 30.292C33.5099 30.292 33.8249 30.376 34.0069 30.544C34.1889 30.712 34.2799 30.908 34.2799 31.132C34.2799 31.216 34.2729 31.307 34.2589 31.405C34.2449 31.503 34.2239 31.615 34.1959 31.741C34.1399 32.063 33.9999 32.315 33.7759 32.497C33.5519 32.665 33.2299 32.749 32.8099 32.749ZM31.3819 46.252C30.8499 46.252 30.4439 46.119 30.1639 45.853C29.8979 45.573 29.7649 45.223 29.7649 44.803C29.7649 44.663 29.7719 44.523 29.7859 44.383C29.8139 44.229 29.8419 44.089 29.8699 43.963L31.2979 36.571H27.3919L27.6229 35.164H33.2089L31.3819 44.614L31.8649 44.803L36.0019 41.233L36.9889 42.157L35.0779 43.921C34.5879 44.383 34.1609 44.761 33.7969 45.055C33.4469 45.349 33.1319 45.587 32.8519 45.769C32.5719 45.951 32.3129 46.077 32.0749 46.147C31.8509 46.217 31.6199 46.252 31.3819 46.252ZM38.7569 46L40.5629 35.164H42.0749L41.8019 36.865H41.8859C42.1379 36.319 42.4389 35.857 42.7889 35.479C43.1529 35.101 43.6359 34.912 44.2379 34.912C44.8539 34.912 45.2949 35.108 45.5609 35.5C45.8269 35.892 45.9389 36.382 45.8969 36.97H45.9599C46.2399 36.34 46.5899 35.843 47.0099 35.479C47.4299 35.101 47.9549 34.912 48.5849 34.912C49.1869 34.912 49.6419 35.094 49.9499 35.458C50.2719 35.808 50.4329 36.319 50.4329 36.991C50.4329 37.187 50.4189 37.418 50.3909 37.684C50.3629 37.95 50.3279 38.209 50.2859 38.461L49.0259 46H47.5139L48.7319 38.734C48.7739 38.482 48.8089 38.244 48.8369 38.02C48.8649 37.782 48.8789 37.586 48.8789 37.432C48.8789 36.648 48.5709 36.256 47.9549 36.256C47.6609 36.256 47.4019 36.34 47.1779 36.508C46.9679 36.662 46.7719 36.858 46.5899 37.096C46.3939 37.376 46.2329 37.684 46.1069 38.02C45.9809 38.342 45.8899 38.664 45.8339 38.986L44.6579 46H43.1459L44.3639 38.734C44.4479 38.23 44.4899 37.817 44.4899 37.495C44.4899 37.047 44.4129 36.732 44.2589 36.55C44.1189 36.354 43.9019 36.256 43.6079 36.256C43.3139 36.256 43.0479 36.34 42.8099 36.508C42.5719 36.662 42.3689 36.858 42.2009 37.096C42.0049 37.376 41.8439 37.684 41.7179 38.02C41.5919 38.342 41.5009 38.664 41.4449 38.986L40.2689 46H38.7569ZM59.3828 46L59.8028 43.438H59.7398C59.3198 44.292 58.8088 44.978 58.2068 45.496C57.6188 46 56.8488 46.252 55.8968 46.252C54.8048 46.252 53.9648 45.902 53.3768 45.202C52.8028 44.502 52.5158 43.452 52.5158 42.052C52.5158 41.324 52.5998 40.547 52.7678 39.721C52.9498 38.881 53.2368 38.104 53.6288 37.39C54.0348 36.676 54.5668 36.088 55.2248 35.626C55.8828 35.15 56.6878 34.912 57.6398 34.912C58.4378 34.912 59.1028 35.094 59.6348 35.458C60.1808 35.808 60.5728 36.34 60.8108 37.054H60.8738L61.1888 35.164H62.8268L61.0208 46H59.3828ZM56.4638 44.803C56.9118 44.803 57.3528 44.712 57.7868 44.53C58.2208 44.334 58.6268 44.026 59.0048 43.606C59.2848 43.298 59.5298 42.934 59.7398 42.514C59.9638 42.094 60.1178 41.632 60.2018 41.128L60.6008 38.734C60.7268 37.978 60.5448 37.397 60.0548 36.991C59.5788 36.571 58.9348 36.361 58.1228 36.361C57.0728 36.361 56.2468 36.676 55.6448 37.306C55.0568 37.936 54.6788 38.755 54.5108 39.763L54.2588 41.275C54.2308 41.471 54.2098 41.646 54.1958 41.8C54.1818 41.94 54.1748 42.08 54.1748 42.22C54.1748 43.032 54.3638 43.669 54.7418 44.131C55.1338 44.579 55.7078 44.803 56.4638 44.803ZM69.1938 46.252C68.7038 46.252 68.3188 46.119 68.0388 45.853C67.7728 45.587 67.6398 45.202 67.6398 44.698C67.6398 44.6 67.6398 44.467 67.6398 44.299C67.6538 44.131 67.6748 43.991 67.7028 43.879L68.9628 36.571H65.8338L66.0648 35.164H68.2698C68.6338 35.164 68.8998 35.094 69.0678 34.954C69.2498 34.8 69.3758 34.541 69.4458 34.177L69.9288 31.342H71.4828L70.8318 35.164H75.3048L75.0738 36.571H70.6008L69.2568 44.593L69.6768 44.845L74.4018 41.695L75.2208 42.745L72.8478 44.425C72.3578 44.775 71.9308 45.069 71.5668 45.307C71.2168 45.531 70.8948 45.713 70.6008 45.853C70.3208 45.993 70.0688 46.091 69.8448 46.147C69.6208 46.217 69.4038 46.252 69.1938 46.252ZM82.8268 46.252C81.4548 46.252 80.3978 45.874 79.6558 45.118C78.9138 44.348 78.5428 43.179 78.5428 41.611C78.5428 40.631 78.6898 39.735 78.9838 38.923C79.2778 38.097 79.6838 37.39 80.2018 36.802C80.7338 36.2 81.3638 35.738 82.0918 35.416C82.8338 35.08 83.6388 34.912 84.5068 34.912C85.0388 34.912 85.5288 34.975 85.9768 35.101C86.4248 35.227 86.8098 35.416 87.1318 35.668C87.4678 35.906 87.7268 36.207 87.9088 36.571C88.0908 36.935 88.1818 37.355 88.1818 37.831C88.1818 38.209 88.0908 38.601 87.9088 39.007C87.7408 39.413 87.3768 39.791 86.8168 40.141C86.2708 40.491 85.4728 40.785 84.4228 41.023C83.3868 41.261 82.0078 41.401 80.2858 41.443C80.2718 41.555 80.2648 41.66 80.2648 41.758C80.2648 41.842 80.2648 41.898 80.2648 41.926C80.2648 42.304 80.2998 42.668 80.3698 43.018C80.4398 43.368 80.5728 43.683 80.7688 43.963C80.9648 44.229 81.2378 44.446 81.5878 44.614C81.9378 44.768 82.3998 44.845 82.9738 44.845C83.3658 44.845 83.7158 44.803 84.0238 44.719C84.3458 44.621 84.6468 44.481 84.9268 44.299C85.2208 44.103 85.5008 43.858 85.7668 43.564C86.0468 43.256 86.3408 42.885 86.6488 42.451L87.8038 43.165C87.1878 44.173 86.4878 44.943 85.7038 45.475C84.9338 45.993 83.9748 46.252 82.8268 46.252ZM84.3598 36.277C83.2678 36.277 82.3788 36.606 81.6928 37.264C81.0068 37.922 80.5868 38.867 80.4328 40.099L80.4118 40.309C81.7278 40.267 82.7848 40.169 83.5828 40.015C84.3948 39.847 85.0108 39.651 85.4308 39.427C85.8648 39.203 86.1518 38.958 86.2918 38.692C86.4318 38.426 86.5018 38.16 86.5018 37.894C86.5018 37.67 86.4598 37.46 86.3758 37.264C86.3058 37.068 86.1868 36.9 86.0188 36.76C85.8508 36.606 85.6268 36.487 85.3468 36.403C85.0808 36.319 84.7518 36.277 84.3598 36.277ZM108.707 46.252C107.181 46.252 106.068 45.797 105.368 44.887C104.668 43.977 104.318 42.668 104.318 40.96C104.318 40.4 104.353 39.77 104.423 39.07C104.507 38.356 104.647 37.635 104.843 36.907C105.039 36.165 105.298 35.451 105.62 34.765C105.942 34.065 106.341 33.442 106.817 32.896C107.307 32.35 107.888 31.916 108.56 31.594C109.232 31.258 110.009 31.09 110.891 31.09C111.563 31.09 112.137 31.188 112.613 31.384C113.089 31.58 113.481 31.839 113.789 32.161C114.111 32.469 114.356 32.819 114.524 33.211C114.692 33.603 114.818 34.002 114.902 34.408L113.348 34.912C113.278 34.604 113.18 34.31 113.054 34.03C112.942 33.75 112.788 33.505 112.592 33.295C112.396 33.085 112.151 32.917 111.857 32.791C111.563 32.665 111.199 32.602 110.765 32.602C109.589 32.602 108.651 33.05 107.951 33.946C107.265 34.828 106.796 36.025 106.544 37.537L106.208 39.553C106.152 39.875 106.11 40.19 106.082 40.498C106.054 40.806 106.04 41.107 106.04 41.401C106.04 42.409 106.264 43.221 106.712 43.837C107.16 44.439 107.888 44.74 108.896 44.74C109.316 44.74 109.687 44.684 110.009 44.572C110.331 44.446 110.625 44.264 110.891 44.026C111.171 43.788 111.437 43.487 111.689 43.123C111.941 42.759 112.207 42.332 112.487 41.842L113.852 42.535C113.572 43.109 113.271 43.627 112.949 44.089C112.627 44.551 112.256 44.943 111.836 45.265C111.43 45.587 110.968 45.832 110.45 46C109.946 46.168 109.365 46.252 108.707 46.252ZM119.358 30.46H120.996L119.778 37.726H119.862C120.268 36.858 120.751 36.172 121.311 35.668C121.871 35.164 122.592 34.912 123.474 34.912C124.384 34.912 125.098 35.185 125.616 35.731C126.148 36.277 126.414 37.047 126.414 38.041C126.414 38.251 126.4 38.482 126.372 38.734C126.358 38.972 126.33 39.21 126.288 39.448L125.196 46H123.558L124.629 39.595C124.671 39.343 124.699 39.119 124.713 38.923C124.727 38.713 124.734 38.552 124.734 38.44C124.734 37.796 124.587 37.292 124.293 36.928C123.999 36.55 123.544 36.361 122.928 36.361C122.452 36.361 122.025 36.466 121.647 36.676C121.283 36.886 120.947 37.173 120.639 37.537C120.583 37.607 120.492 37.719 120.366 37.873C120.254 38.013 120.135 38.195 120.009 38.419C119.883 38.629 119.764 38.874 119.652 39.154C119.54 39.42 119.456 39.707 119.4 40.015L118.392 46H116.754L119.358 30.46ZM136.393 46L136.813 43.438H136.75C136.33 44.292 135.819 44.978 135.217 45.496C134.629 46 133.859 46.252 132.907 46.252C131.815 46.252 130.975 45.902 130.387 45.202C129.813 44.502 129.526 43.452 129.526 42.052C129.526 41.324 129.61 40.547 129.778 39.721C129.96 38.881 130.247 38.104 130.639 37.39C131.045 36.676 131.577 36.088 132.235 35.626C132.893 35.15 133.698 34.912 134.65 34.912C135.448 34.912 136.113 35.094 136.645 35.458C137.191 35.808 137.583 36.34 137.821 37.054H137.884L138.199 35.164H139.837L138.031 46H136.393ZM133.474 44.803C133.922 44.803 134.363 44.712 134.797 44.53C135.231 44.334 135.637 44.026 136.015 43.606C136.295 43.298 136.54 42.934 136.75 42.514C136.974 42.094 137.128 41.632 137.212 41.128L137.611 38.734C137.737 37.978 137.555 37.397 137.065 36.991C136.589 36.571 135.945 36.361 135.133 36.361C134.083 36.361 133.257 36.676 132.655 37.306C132.067 37.936 131.689 38.755 131.521 39.763L131.269 41.275C131.241 41.471 131.22 41.646 131.206 41.8C131.192 41.94 131.185 42.08 131.185 42.22C131.185 43.032 131.374 43.669 131.752 44.131C132.144 44.579 132.718 44.803 133.474 44.803ZM142.424 46L144.23 35.164H145.868L145.448 37.726H145.532C145.938 36.858 146.421 36.172 146.981 35.668C147.541 35.164 148.262 34.912 149.144 34.912C150.054 34.912 150.768 35.185 151.286 35.731C151.818 36.277 152.084 37.047 152.084 38.041C152.084 38.251 152.07 38.482 152.042 38.734C152.028 38.972 152 39.21 151.958 39.448L150.866 46H149.228L150.299 39.595C150.341 39.343 150.369 39.119 150.383 38.923C150.397 38.713 150.404 38.552 150.404 38.44C150.404 37.796 150.257 37.292 149.963 36.928C149.669 36.55 149.214 36.361 148.598 36.361C148.122 36.361 147.695 36.466 147.317 36.676C146.953 36.886 146.617 37.173 146.309 37.537C146.253 37.607 146.162 37.719 146.036 37.873C145.924 38.013 145.805 38.195 145.679 38.419C145.553 38.629 145.434 38.874 145.322 39.154C145.21 39.42 145.126 39.707 145.07 40.015L144.062 46H142.424ZM158.472 50.452C156.736 50.452 155.469 49.955 154.671 48.961L155.805 47.869C156.085 48.233 156.449 48.513 156.897 48.709C157.345 48.905 157.905 49.003 158.577 49.003C159.571 49.003 160.362 48.751 160.95 48.247C161.538 47.743 161.93 46.889 162.126 45.685L162.567 43.081H162.483C162.077 43.949 161.566 44.635 160.95 45.139C160.348 45.643 159.571 45.895 158.619 45.895C157.499 45.895 156.652 45.545 156.078 44.845C155.504 44.131 155.217 43.109 155.217 41.779C155.217 41.079 155.308 40.33 155.49 39.532C155.672 38.72 155.966 37.978 156.372 37.306C156.778 36.62 157.303 36.053 157.947 35.605C158.591 35.143 159.382 34.912 160.32 34.912C161.118 34.912 161.783 35.094 162.315 35.458C162.861 35.808 163.253 36.34 163.491 37.054H163.554L163.869 35.164H165.507L163.701 46C163.421 47.596 162.819 48.737 161.895 49.423C160.971 50.109 159.83 50.452 158.472 50.452ZM159.186 44.446C159.634 44.446 160.075 44.355 160.509 44.173C160.943 43.991 161.356 43.683 161.748 43.249C161.944 43.025 162.168 42.71 162.42 42.304C162.672 41.884 162.847 41.38 162.945 40.792L163.281 38.734C163.407 37.978 163.225 37.397 162.735 36.991C162.259 36.571 161.615 36.361 160.803 36.361C159.781 36.361 158.962 36.669 158.346 37.285C157.744 37.901 157.359 38.713 157.191 39.721L157.002 40.855C156.974 41.051 156.946 41.219 156.918 41.359C156.904 41.485 156.897 41.625 156.897 41.779C156.897 42.647 157.086 43.312 157.464 43.774C157.856 44.222 158.43 44.446 159.186 44.446ZM172.671 46.252C171.299 46.252 170.242 45.874 169.5 45.118C168.758 44.348 168.387 43.179 168.387 41.611C168.387 40.631 168.534 39.735 168.828 38.923C169.122 38.097 169.528 37.39 170.046 36.802C170.578 36.2 171.208 35.738 171.936 35.416C172.678 35.08 173.483 34.912 174.351 34.912C174.883 34.912 175.373 34.975 175.821 35.101C176.269 35.227 176.654 35.416 176.976 35.668C177.312 35.906 177.571 36.207 177.753 36.571C177.935 36.935 178.026 37.355 178.026 37.831C178.026 38.209 177.935 38.601 177.753 39.007C177.585 39.413 177.221 39.791 176.661 40.141C176.115 40.491 175.317 40.785 174.267 41.023C173.231 41.261 171.852 41.401 170.13 41.443C170.116 41.555 170.109 41.66 170.109 41.758C170.109 41.842 170.109 41.898 170.109 41.926C170.109 42.304 170.144 42.668 170.214 43.018C170.284 43.368 170.417 43.683 170.613 43.963C170.809 44.229 171.082 44.446 171.432 44.614C171.782 44.768 172.244 44.845 172.818 44.845C173.21 44.845 173.56 44.803 173.868 44.719C174.19 44.621 174.491 44.481 174.771 44.299C175.065 44.103 175.345 43.858 175.611 43.564C175.891 43.256 176.185 42.885 176.493 42.451L177.648 43.165C177.032 44.173 176.332 44.943 175.548 45.475C174.778 45.993 173.819 46.252 172.671 46.252ZM174.204 36.277C173.112 36.277 172.223 36.606 171.537 37.264C170.851 37.922 170.431 38.867 170.277 40.099L170.256 40.309C171.572 40.267 172.629 40.169 173.427 40.015C174.239 39.847 174.855 39.651 175.275 39.427C175.709 39.203 175.996 38.958 176.136 38.692C176.276 38.426 176.346 38.16 176.346 37.894C176.346 37.67 176.304 37.46 176.22 37.264C176.15 37.068 176.031 36.9 175.863 36.76C175.695 36.606 175.471 36.487 175.191 36.403C174.925 36.319 174.596 36.277 174.204 36.277ZM5.586 67.252C4.312 67.252 3.255 67.014 2.415 66.538C1.589 66.048 0.959 65.425 0.525 64.669L1.827 63.64C2.275 64.354 2.807 64.886 3.423 65.236C4.039 65.586 4.788 65.761 5.67 65.761C6.818 65.761 7.728 65.488 8.4 64.942C9.072 64.382 9.408 63.633 9.408 62.695C9.408 62.093 9.233 61.61 8.883 61.246C8.547 60.882 7.952 60.602 7.098 60.406L5.523 60.049C4.361 59.783 3.514 59.356 2.982 58.768C2.45 58.18 2.184 57.41 2.184 56.458C2.184 55.786 2.31 55.184 2.562 54.652C2.828 54.106 3.192 53.644 3.654 53.266C4.116 52.888 4.669 52.601 5.313 52.405C5.957 52.195 6.671 52.09 7.455 52.09C8.085 52.09 8.652 52.153 9.156 52.279C9.674 52.405 10.129 52.58 10.521 52.804C10.913 53.028 11.249 53.287 11.529 53.581C11.809 53.861 12.047 54.169 12.243 54.505L10.983 55.429C10.577 54.813 10.08 54.351 9.492 54.043C8.918 53.721 8.211 53.56 7.371 53.56C6.307 53.56 5.467 53.812 4.851 54.316C4.249 54.806 3.948 55.478 3.948 56.332C3.948 57.004 4.144 57.508 4.536 57.844C4.942 58.18 5.537 58.439 6.321 58.621L7.854 58.978C9.072 59.258 9.926 59.699 10.416 60.301C10.92 60.903 11.172 61.652 11.172 62.548C11.172 63.248 11.039 63.885 10.773 64.459C10.521 65.033 10.15 65.53 9.66 65.95C9.184 66.356 8.596 66.678 7.896 66.916C7.21 67.14 6.44 67.252 5.586 67.252ZM18.505 67.252C17.833 67.252 17.238 67.14 16.72 66.916C16.216 66.692 15.789 66.384 15.439 65.992C15.103 65.586 14.844 65.103 14.662 64.543C14.494 63.969 14.41 63.346 14.41 62.674C14.41 61.638 14.557 60.707 14.851 59.881C15.145 59.041 15.544 58.327 16.048 57.739C16.552 57.151 17.14 56.703 17.812 56.395C18.498 56.073 19.226 55.912 19.996 55.912C20.57 55.912 21.067 55.982 21.487 56.122C21.921 56.262 22.292 56.451 22.6 56.689C22.908 56.913 23.153 57.186 23.335 57.508C23.531 57.83 23.678 58.166 23.776 58.516L22.369 59.062C22.159 58.39 21.844 57.935 21.424 57.697C21.018 57.459 20.479 57.34 19.807 57.34C18.883 57.34 18.127 57.641 17.539 58.243C16.965 58.845 16.58 59.713 16.384 60.847L16.174 62.107C16.132 62.359 16.104 62.555 16.09 62.695C16.076 62.835 16.069 62.975 16.069 63.115C16.069 64.039 16.307 64.725 16.783 65.173C17.273 65.607 17.917 65.824 18.715 65.824C18.953 65.824 19.191 65.796 19.429 65.74C19.681 65.684 19.947 65.565 20.227 65.383C20.521 65.201 20.836 64.935 21.172 64.585C21.508 64.235 21.893 63.766 22.327 63.178L23.503 63.871C23.167 64.417 22.824 64.907 22.474 65.341C22.124 65.761 21.746 66.111 21.34 66.391C20.948 66.671 20.514 66.881 20.038 67.021C19.576 67.175 19.065 67.252 18.505 67.252ZM31.4869 67.252C30.1149 67.252 29.0579 66.874 28.3159 66.118C27.5739 65.348 27.2029 64.179 27.2029 62.611C27.2029 61.631 27.3499 60.735 27.6439 59.923C27.9379 59.097 28.3439 58.39 28.8619 57.802C29.3939 57.2 30.0239 56.738 30.7519 56.416C31.4939 56.08 32.2989 55.912 33.1669 55.912C33.6989 55.912 34.1889 55.975 34.6369 56.101C35.0849 56.227 35.4699 56.416 35.7919 56.668C36.1279 56.906 36.3869 57.207 36.5689 57.571C36.7509 57.935 36.8419 58.355 36.8419 58.831C36.8419 59.209 36.7509 59.601 36.5689 60.007C36.4009 60.413 36.0369 60.791 35.4769 61.141C34.9309 61.491 34.1329 61.785 33.0829 62.023C32.0469 62.261 30.6679 62.401 28.9459 62.443C28.9319 62.555 28.9249 62.66 28.9249 62.758C28.9249 62.842 28.9249 62.898 28.9249 62.926C28.9249 63.304 28.9599 63.668 29.0299 64.018C29.0999 64.368 29.2329 64.683 29.4289 64.963C29.6249 65.229 29.8979 65.446 30.2479 65.614C30.5979 65.768 31.0599 65.845 31.6339 65.845C32.0259 65.845 32.3759 65.803 32.6839 65.719C33.0059 65.621 33.3069 65.481 33.5869 65.299C33.8809 65.103 34.1609 64.858 34.4269 64.564C34.7069 64.256 35.0009 63.885 35.3089 63.451L36.4639 64.165C35.8479 65.173 35.1479 65.943 34.3639 66.475C33.5939 66.993 32.6349 67.252 31.4869 67.252ZM33.0199 57.277C31.9279 57.277 31.0389 57.606 30.3529 58.264C29.6669 58.922 29.2469 59.867 29.0929 61.099L29.0719 61.309C30.3879 61.267 31.4449 61.169 32.2429 61.015C33.0549 60.847 33.6709 60.651 34.0909 60.427C34.5249 60.203 34.8119 59.958 34.9519 59.692C35.0919 59.426 35.1619 59.16 35.1619 58.894C35.1619 58.67 35.1199 58.46 35.0359 58.264C34.9659 58.068 34.8469 57.9 34.6789 57.76C34.5109 57.606 34.2869 57.487 34.0069 57.403C33.7409 57.319 33.4119 57.277 33.0199 57.277ZM39.7439 67L41.5499 56.164H43.1879L42.7679 58.726H42.8519C43.2579 57.858 43.7409 57.172 44.3009 56.668C44.8609 56.164 45.5819 55.912 46.4639 55.912C47.3739 55.912 48.0879 56.185 48.6059 56.731C49.1379 57.277 49.4039 58.047 49.4039 59.041C49.4039 59.251 49.3899 59.482 49.3619 59.734C49.3479 59.972 49.3199 60.21 49.2779 60.448L48.1859 67H46.5479L47.6189 60.595C47.6609 60.343 47.6889 60.119 47.7029 59.923C47.7169 59.713 47.7239 59.552 47.7239 59.44C47.7239 58.796 47.5769 58.292 47.2829 57.928C46.9889 57.55 46.5339 57.361 45.9179 57.361C45.4419 57.361 45.0149 57.466 44.6369 57.676C44.2729 57.886 43.9369 58.173 43.6289 58.537C43.5729 58.607 43.4819 58.719 43.3559 58.873C43.2439 59.013 43.1249 59.195 42.9989 59.419C42.8729 59.629 42.7539 59.874 42.6419 60.154C42.5299 60.42 42.4459 60.707 42.3899 61.015L41.3819 67H39.7439ZM59.3828 67L59.8028 64.438H59.7398C59.3198 65.292 58.8088 65.978 58.2068 66.496C57.6188 67 56.8488 67.252 55.8968 67.252C54.8048 67.252 53.9648 66.902 53.3768 66.202C52.8028 65.502 52.5158 64.452 52.5158 63.052C52.5158 62.324 52.5998 61.547 52.7678 60.721C52.9498 59.881 53.2368 59.104 53.6288 58.39C54.0348 57.676 54.5668 57.088 55.2248 56.626C55.8828 56.15 56.6878 55.912 57.6398 55.912C58.4378 55.912 59.1028 56.094 59.6348 56.458C60.1808 56.808 60.5728 57.34 60.8108 58.054H60.8738L61.1888 56.164H62.8268L61.0208 67H59.3828ZM56.4638 65.803C56.9118 65.803 57.3528 65.712 57.7868 65.53C58.2208 65.334 58.6268 65.026 59.0048 64.606C59.2848 64.298 59.5298 63.934 59.7398 63.514C59.9638 63.094 60.1178 62.632 60.2018 62.128L60.6008 59.734C60.7268 58.978 60.5448 58.397 60.0548 57.991C59.5788 57.571 58.9348 57.361 58.1228 57.361C57.0728 57.361 56.2468 57.676 55.6448 58.306C55.0568 58.936 54.6788 59.755 54.5108 60.763L54.2588 62.275C54.2308 62.471 54.2098 62.646 54.1958 62.8C54.1818 62.94 54.1748 63.08 54.1748 63.22C54.1748 64.032 54.3638 64.669 54.7418 65.131C55.1338 65.579 55.7078 65.803 56.4638 65.803ZM67.9128 67L69.4878 57.571H66.4428L66.6738 56.164H71.3568L70.8738 59.062H70.9788C71.1608 58.628 71.3708 58.236 71.6088 57.886C71.8468 57.522 72.1198 57.214 72.4278 56.962C72.7498 56.71 73.1138 56.514 73.5198 56.374C73.9258 56.234 74.3878 56.164 74.9058 56.164H76.5438L76.2708 57.802H74.4228C73.7928 57.802 73.2678 57.893 72.8478 58.075C72.4278 58.243 72.0568 58.516 71.7348 58.894C71.6648 58.978 71.5668 59.097 71.4408 59.251C71.3288 59.391 71.2098 59.566 71.0838 59.776C70.9578 59.986 70.8388 60.224 70.7268 60.49C70.6288 60.756 70.5518 61.043 70.4958 61.351L69.5508 67H67.9128ZM84.1498 53.749C83.7018 53.749 83.3868 53.665 83.2048 53.497C83.0228 53.329 82.9318 53.133 82.9318 52.909C82.9318 52.825 82.9388 52.734 82.9528 52.636C82.9668 52.538 82.9878 52.426 83.0158 52.3C83.0718 51.978 83.2118 51.733 83.4358 51.565C83.6598 51.383 83.9818 51.292 84.4018 51.292C84.8498 51.292 85.1648 51.376 85.3468 51.544C85.5288 51.712 85.6198 51.908 85.6198 52.132C85.6198 52.216 85.6128 52.307 85.5988 52.405C85.5848 52.503 85.5638 52.615 85.5358 52.741C85.4798 53.063 85.3398 53.315 85.1158 53.497C84.8918 53.665 84.5698 53.749 84.1498 53.749ZM82.7218 67.252C82.1898 67.252 81.7838 67.119 81.5038 66.853C81.2378 66.573 81.1048 66.223 81.1048 65.803C81.1048 65.663 81.1118 65.523 81.1258 65.383C81.1538 65.229 81.1818 65.089 81.2098 64.963L82.6378 57.571H78.7318L78.9628 56.164H84.5488L82.7218 65.614L83.2048 65.803L87.3418 62.233L88.3288 63.157L86.4178 64.921C85.9278 65.383 85.5008 65.761 85.1368 66.055C84.7868 66.349 84.4718 66.587 84.1918 66.769C83.9118 66.951 83.6528 67.077 83.4148 67.147C83.1908 67.217 82.9598 67.252 82.7218 67.252ZM95.4097 67.252C94.7097 67.252 94.0937 67.14 93.5617 66.916C93.0437 66.692 92.6097 66.384 92.2597 65.992C91.9097 65.586 91.6437 65.103 91.4617 64.543C91.2797 63.969 91.1887 63.346 91.1887 62.674C91.1887 61.638 91.3357 60.707 91.6297 59.881C91.9237 59.041 92.3227 58.327 92.8267 57.739C93.3447 57.151 93.9467 56.703 94.6327 56.395C95.3187 56.073 96.0607 55.912 96.8587 55.912C97.5587 55.912 98.1747 56.024 98.7067 56.248C99.2387 56.472 99.6797 56.787 100.03 57.193C100.394 57.585 100.66 58.068 100.828 58.642C101.01 59.202 101.101 59.818 101.101 60.49C101.101 61.526 100.954 62.464 100.66 63.304C100.366 64.13 99.9597 64.837 99.4417 65.425C98.9377 66.013 98.3357 66.468 97.6357 66.79C96.9497 67.098 96.2077 67.252 95.4097 67.252ZM95.4937 65.824C96.5157 65.824 97.3277 65.516 97.9297 64.9C98.5457 64.27 98.9447 63.416 99.1267 62.338L99.3367 61.078C99.3787 60.826 99.4067 60.616 99.4207 60.448C99.4347 60.28 99.4417 60.133 99.4417 60.007C99.4417 59.083 99.2037 58.411 98.7277 57.991C98.2517 57.557 97.6077 57.34 96.7957 57.34C95.7737 57.34 94.9547 57.655 94.3387 58.285C93.7367 58.901 93.3447 59.748 93.1627 60.826L92.9527 62.086C92.9107 62.338 92.8827 62.548 92.8687 62.716C92.8547 62.884 92.8477 63.031 92.8477 63.157C92.8477 64.081 93.0857 64.76 93.5617 65.194C94.0377 65.614 94.6817 65.824 95.4937 65.824ZM116.502 67L118.959 52.342H124.188C125.42 52.342 126.323 52.664 126.897 53.308C127.485 53.938 127.779 54.764 127.779 55.786C127.779 57.354 127.359 58.579 126.519 59.461C125.693 60.329 124.51 60.763 122.97 60.763H119.274L118.224 67H116.502ZM119.526 59.251H123.138C123.936 59.251 124.552 59.062 124.986 58.684C125.434 58.306 125.714 57.802 125.826 57.172L125.952 56.416C125.994 56.164 126.015 55.891 126.015 55.597C126.015 55.009 125.833 54.575 125.469 54.295C125.119 54.001 124.622 53.854 123.978 53.854H120.429L119.526 59.251ZM132.088 67L133.663 57.571H130.618L130.849 56.164H135.532L135.049 59.062H135.154C135.336 58.628 135.546 58.236 135.784 57.886C136.022 57.522 136.295 57.214 136.603 56.962C136.925 56.71 137.289 56.514 137.695 56.374C138.101 56.234 138.563 56.164 139.081 56.164H140.719L140.446 57.802H138.598C137.968 57.802 137.443 57.893 137.023 58.075C136.603 58.243 136.232 58.516 135.91 58.894C135.84 58.978 135.742 59.097 135.616 59.251C135.504 59.391 135.385 59.566 135.259 59.776C135.133 59.986 135.014 60.224 134.902 60.49C134.804 60.756 134.727 61.043 134.671 61.351L133.726 67H132.088ZM148.325 53.749C147.877 53.749 147.562 53.665 147.38 53.497C147.198 53.329 147.107 53.133 147.107 52.909C147.107 52.825 147.114 52.734 147.128 52.636C147.142 52.538 147.163 52.426 147.191 52.3C147.247 51.978 147.387 51.733 147.611 51.565C147.835 51.383 148.157 51.292 148.577 51.292C149.025 51.292 149.34 51.376 149.522 51.544C149.704 51.712 149.795 51.908 149.795 52.132C149.795 52.216 149.788 52.307 149.774 52.405C149.76 52.503 149.739 52.615 149.711 52.741C149.655 53.063 149.515 53.315 149.291 53.497C149.067 53.665 148.745 53.749 148.325 53.749ZM146.897 67.252C146.365 67.252 145.959 67.119 145.679 66.853C145.413 66.573 145.28 66.223 145.28 65.803C145.28 65.663 145.287 65.523 145.301 65.383C145.329 65.229 145.357 65.089 145.385 64.963L146.813 57.571H142.907L143.138 56.164H148.724L146.897 65.614L147.38 65.803L151.517 62.233L152.504 63.157L150.593 64.921C150.103 65.383 149.676 65.761 149.312 66.055C148.962 66.349 148.647 66.587 148.367 66.769C148.087 66.951 147.828 67.077 147.59 67.147C147.366 67.217 147.135 67.252 146.897 67.252ZM154.272 67L156.078 56.164H157.59L157.317 57.865H157.401C157.653 57.319 157.954 56.857 158.304 56.479C158.668 56.101 159.151 55.912 159.753 55.912C160.369 55.912 160.81 56.108 161.076 56.5C161.342 56.892 161.454 57.382 161.412 57.97H161.475C161.755 57.34 162.105 56.843 162.525 56.479C162.945 56.101 163.47 55.912 164.1 55.912C164.702 55.912 165.157 56.094 165.465 56.458C165.787 56.808 165.948 57.319 165.948 57.991C165.948 58.187 165.934 58.418 165.906 58.684C165.878 58.95 165.843 59.209 165.801 59.461L164.541 67H163.029L164.247 59.734C164.289 59.482 164.324 59.244 164.352 59.02C164.38 58.782 164.394 58.586 164.394 58.432C164.394 57.648 164.086 57.256 163.47 57.256C163.176 57.256 162.917 57.34 162.693 57.508C162.483 57.662 162.287 57.858 162.105 58.096C161.909 58.376 161.748 58.684 161.622 59.02C161.496 59.342 161.405 59.664 161.349 59.986L160.173 67H158.661L159.879 59.734C159.963 59.23 160.005 58.817 160.005 58.495C160.005 58.047 159.928 57.732 159.774 57.55C159.634 57.354 159.417 57.256 159.123 57.256C158.829 57.256 158.563 57.34 158.325 57.508C158.087 57.662 157.884 57.858 157.716 58.096C157.52 58.376 157.359 58.684 157.233 59.02C157.107 59.342 157.016 59.664 156.96 59.986L155.784 67H154.272ZM172.671 67.252C171.299 67.252 170.242 66.874 169.5 66.118C168.758 65.348 168.387 64.179 168.387 62.611C168.387 61.631 168.534 60.735 168.828 59.923C169.122 59.097 169.528 58.39 170.046 57.802C170.578 57.2 171.208 56.738 171.936 56.416C172.678 56.08 173.483 55.912 174.351 55.912C174.883 55.912 175.373 55.975 175.821 56.101C176.269 56.227 176.654 56.416 176.976 56.668C177.312 56.906 177.571 57.207 177.753 57.571C177.935 57.935 178.026 58.355 178.026 58.831C178.026 59.209 177.935 59.601 177.753 60.007C177.585 60.413 177.221 60.791 176.661 61.141C176.115 61.491 175.317 61.785 174.267 62.023C173.231 62.261 171.852 62.401 170.13 62.443C170.116 62.555 170.109 62.66 170.109 62.758C170.109 62.842 170.109 62.898 170.109 62.926C170.109 63.304 170.144 63.668 170.214 64.018C170.284 64.368 170.417 64.683 170.613 64.963C170.809 65.229 171.082 65.446 171.432 65.614C171.782 65.768 172.244 65.845 172.818 65.845C173.21 65.845 173.56 65.803 173.868 65.719C174.19 65.621 174.491 65.481 174.771 65.299C175.065 65.103 175.345 64.858 175.611 64.564C175.891 64.256 176.185 63.885 176.493 63.451L177.648 64.165C177.032 65.173 176.332 65.943 175.548 66.475C174.778 66.993 173.819 67.252 172.671 67.252ZM174.204 57.277C173.112 57.277 172.223 57.606 171.537 58.264C170.851 58.922 170.431 59.867 170.277 61.099L170.256 61.309C171.572 61.267 172.629 61.169 173.427 61.015C174.239 60.847 174.855 60.651 175.275 60.427C175.709 60.203 175.996 59.958 176.136 59.692C176.276 59.426 176.346 59.16 176.346 58.894C176.346 58.67 176.304 58.46 176.22 58.264C176.15 58.068 176.031 57.9 175.863 57.76C175.695 57.606 175.471 57.487 175.191 57.403C174.925 57.319 174.596 57.277 174.204 57.277ZM183.427 67L185.002 57.571H181.957L182.188 56.164H186.871L186.388 59.062H186.493C186.675 58.628 186.885 58.236 187.123 57.886C187.361 57.522 187.634 57.214 187.942 56.962C188.264 56.71 188.628 56.514 189.034 56.374C189.44 56.234 189.902 56.164 190.42 56.164H192.058L191.785 57.802H189.937C189.307 57.802 188.782 57.893 188.362 58.075C187.942 58.243 187.571 58.516 187.249 58.894C187.179 58.978 187.081 59.097 186.955 59.251C186.843 59.391 186.724 59.566 186.598 59.776C186.472 59.986 186.353 60.224 186.241 60.49C186.143 60.756 186.066 61.043 186.01 61.351L185.065 67H183.427Z" fill="#5263FF"/>
<path fill-rule="evenodd" clip-rule="evenodd" d="M126.677 222C158.433 222 184.177 196.256 184.177 164.5C184.177 132.744 158.433 107 126.677 107C94.9208 107 69.1771 132.744 69.1771 164.5C69.1771 196.256 94.9208 222 126.677 222Z" stroke="#5263FF"/>
<path d="M93.1839 187.973L88.2892 183.545L89.4895 182.852L91.8076 184.995L93.2218 186.455L93.2452 186.441L92.6728 184.496L91.9759 181.417L93.1372 180.746L94.5089 187.208L93.1839 187.973ZM97.0895 185.718L96.545 184.775L97.2465 184.37L95.1945 180.816L94.493 181.221L93.9485 180.278L96.5362 178.784L97.0807 179.727L96.3792 180.132L98.4312 183.686L99.1327 183.281L99.6772 184.224L97.0895 185.718ZM102.789 182.552C102.311 182.828 101.859 182.982 101.434 183.012C101.005 183.038 100.599 182.989 100.215 182.864L100.54 181.627C101.149 181.829 101.724 181.775 102.264 181.463C102.555 181.295 102.736 181.11 102.808 180.91C102.879 180.709 102.858 180.51 102.744 180.313C102.657 180.162 102.543 180.062 102.403 180.011C102.26 179.955 102.05 179.982 101.775 180.093L101.196 180.333C100.578 180.593 100.054 180.664 99.6244 180.545C99.2004 180.422 98.8564 180.132 98.5924 179.675C98.4514 179.431 98.3692 179.18 98.3457 178.924C98.3222 178.667 98.3542 178.416 98.4417 178.172C98.5344 177.925 98.6829 177.69 98.8873 177.468C99.0939 177.238 99.3583 177.03 99.6805 176.844C100.091 176.607 100.49 176.463 100.876 176.413C101.263 176.363 101.64 176.398 102.008 176.518L101.679 177.768C101.463 177.692 101.234 177.662 100.993 177.676C100.754 177.682 100.494 177.767 100.213 177.929C99.9483 178.082 99.7779 178.242 99.702 178.411C99.6261 178.579 99.6361 178.747 99.7321 178.913C99.8401 179.1 99.9675 179.207 100.114 179.233C100.266 179.256 100.467 179.22 100.717 179.124L101.304 178.899C101.916 178.664 102.432 178.598 102.852 178.702C103.27 178.8 103.615 179.086 103.888 179.559C104.038 179.819 104.129 180.085 104.161 180.357C104.194 180.629 104.164 180.896 104.072 181.157C103.986 181.414 103.835 181.664 103.621 181.905C103.404 182.142 103.127 182.357 102.789 182.552ZM105.936 180.61L105.392 179.667L106.093 179.262L104.041 175.708L103.34 176.113L102.795 175.17L105.383 173.676L105.928 174.619L105.226 175.024L107.278 178.578L107.98 178.173L108.524 179.116L105.936 180.61ZM109.525 172.688L112.058 177.076L110.874 177.76L108.34 173.372L106.867 174.222L106.259 173.17L110.39 170.785L110.998 171.837L109.525 172.688ZM116.537 168.639L119.071 173.027L117.886 173.711L115.353 169.323L113.88 170.173L113.272 169.121L117.403 166.736L118.011 167.788L116.537 168.639ZM123.635 167.42L121.562 168.617L122.849 170.846L121.664 171.53L118.523 166.09L119.708 165.406L120.959 167.572L123.032 166.375L121.781 164.209L122.966 163.525L126.107 168.965L124.922 169.649L123.635 167.42ZM127.614 168.095L124.473 162.655L128.175 160.517L128.782 161.569L126.265 163.023L126.908 164.137L129.067 162.891L129.67 163.935L127.511 165.182L128.191 166.359L130.708 164.905L131.316 165.958L127.614 168.095ZM134.809 163.941L131.668 158.5L134.24 157.015C134.494 156.868 134.749 156.781 135.002 156.752C135.253 156.718 135.492 156.736 135.719 156.806C135.952 156.872 136.17 156.992 136.374 157.166C136.575 157.334 136.749 157.545 136.896 157.8C137.046 158.059 137.143 158.318 137.188 158.576C137.233 158.834 137.227 159.081 137.168 159.315C137.115 159.547 137.012 159.766 136.861 159.971C136.706 160.171 136.501 160.345 136.247 160.492L134.859 161.293L135.993 163.257L134.809 163.941ZM134.265 160.264L135.513 159.544C135.689 159.442 135.801 159.318 135.849 159.173C135.899 159.019 135.873 158.854 135.771 158.678L135.573 158.335C135.471 158.158 135.343 158.055 135.188 158.027C135.035 157.991 134.87 158.023 134.694 158.125L133.446 158.845L134.265 160.264ZM141.418 160.125L140.233 160.809L137.092 155.369L139.672 153.879C139.921 153.735 140.171 153.646 140.422 153.612C140.673 153.579 140.913 153.599 141.144 153.674C141.376 153.741 141.593 153.858 141.794 154.026C141.995 154.194 142.17 154.408 142.32 154.668C142.533 155.037 142.636 155.407 142.629 155.778C142.627 156.147 142.495 156.489 142.235 156.806L144.536 158.325L143.218 159.086L141.115 157.639L140.266 158.13L141.418 160.125ZM140.937 156.412C141.114 156.31 141.226 156.186 141.274 156.041C141.323 155.888 141.297 155.722 141.195 155.546L140.997 155.203C140.895 155.026 140.767 154.924 140.612 154.895C140.459 154.859 140.295 154.892 140.118 154.994L138.871 155.714L139.69 157.132L140.937 156.412ZM145.584 157.72L145.04 156.777L145.741 156.372L143.689 152.817L142.988 153.222L142.443 152.279L145.031 150.785L145.575 151.728L144.874 152.133L146.926 155.688L147.627 155.283L148.172 156.226L145.584 157.72ZM151.476 149.558L151.452 149.572L151.514 150.596L151.565 153.134L149.422 151.815L148.514 151.196L148.49 151.209L150.583 154.834L149.468 155.477L146.327 150.037L147.582 149.312L150.386 151.092L150.402 151.083L150.248 147.773L151.51 147.044L154.651 152.485L153.537 153.128L151.476 149.558ZM156.164 151.612L153.023 146.171L156.725 144.034L157.333 145.086L154.815 146.539L155.459 147.654L157.618 146.407L158.221 147.452L156.062 148.698L156.741 149.875L159.259 148.422L159.866 149.474L156.164 151.612ZM162.392 148.015L161.208 148.699L158.067 143.259L160.647 141.77C160.896 141.626 161.146 141.537 161.397 141.503C161.647 141.469 161.888 141.489 162.118 141.564C162.351 141.631 162.567 141.748 162.768 141.916C162.969 142.084 163.145 142.298 163.295 142.558C163.508 142.927 163.61 143.297 163.603 143.669C163.601 144.037 163.47 144.38 163.209 144.696L165.51 146.215L164.193 146.976L162.09 145.53L161.24 146.02L162.392 148.015ZM161.911 144.302C162.088 144.2 162.2 144.077 162.248 143.931C162.298 143.778 162.272 143.613 162.17 143.436L161.972 143.093C161.87 142.917 161.741 142.814 161.587 142.786C161.434 142.749 161.269 142.782 161.092 142.884L159.845 143.604L160.664 145.022L161.911 144.302Z" fill="#5263FF"/>
</svg>
