<?xml version="1.0" encoding="UTF-8"?>
<svg width="320px" height="350px" viewBox="0 0 320 350" version="1.1" xmlns="http://www.w3.org/2000/svg" xmlns:xlink="http://www.w3.org/1999/xlink">
    <!-- Generator: Sketch 61 (89581) - https://sketch.com -->
    <title>stocktake-1-MOB</title>
    <desc>Created with Sketch.</desc>
    <g id="stocktake-1-MOB" stroke="none" stroke-width="1" fill="none" fill-rule="evenodd">
        <line x1="37" y1="220.5" x2="284" y2="220" id="base" stroke="#0BBFB0"></line>
        <polyline id="emissions" stroke="#0BBFB0" points="1 139 17.9207317 133.526316 35.7560976 126.684211 40.7865854 122.122807 54.0487805 104.789474 70.054878 90.1929825 76 87"></polyline>
        <polyline id="scenario1" stroke="#9BE8C7" points="39 123.747875 78.1193913 99.7245283 98.2104369 93 143.871904 168.192453 196.230387 214.041509 251.024148 242.773585 302.164991 250.720755 346 255"></polyline>
        <polyline id="scenario2" stroke="#99F0E9" points="39 124 79.2116207 103.090226 96.2695297 97 131.60377 121.969925 190.08803 214.541353 213.238049 232.203008 247.353867 250.473684 287.561796 259 343 259"></polyline>
        <polyline id="scenario3" stroke="#005F57" points="46 115.238727 94.5626283 93.0457746 126.83513 90 143.884754 116.193662 168.850274 184.419014 184.682067 216.09507 215.127823 242.288732 244.964665 256.908451 279.672827 263 325.341461 263 343 263"></polyline>
    </g>
</svg>