<?xml version="1.0" encoding="UTF-8"?>
<svg width="320px" height="350px" viewBox="0 0 320 350" version="1.1" xmlns="http://www.w3.org/2000/svg" xmlns:xlink="http://www.w3.org/1999/xlink">
    <!-- Generator: Sketch 61 (89581) - https://sketch.com -->
    <title>transition-path-1-MOB</title>
    <desc>Created with Sketch.</desc>
    <g id="transition-path-1-MOB" stroke="none" stroke-width="1" fill="none" fill-rule="evenodd">
        <g id="Group-4" transform="translate(-33.000000, 79.000000)" stroke-width="1.5">
            <g id="Group" transform="translate(154.000000, 56.040230)">
                <path d="M0,55.7717522 L233.706323,55.7717522 L213.060888,35.4170981 C209.24448,31.6544429 203.113672,31.6544429 199.297265,35.4170981 C195.480857,39.1797534 189.350049,39.1797534 185.533641,35.4170981 L165.989296,16.1480256 C156.906247,7.19290615 142.314923,7.19290615 133.231873,16.1480256 L126.212425,23.068608 C121.022111,28.1858191 112.684212,28.1858191 107.493898,23.068608 C102.303583,17.9513969 93.9656841,17.9513969 88.77537,23.068608 L81.1365591,30.59983 C74.5341742,37.1092235 63.9278757,37.1092235 57.3254908,30.59983 L57.2566727,30.5319812 C50.6924519,24.0602142 40.1474615,24.0602142 33.5832407,30.5319812 L26.7702472,37.249017 C23.9842698,39.9957553 19.5087797,39.9957553 16.7228023,37.249017 C14.7108494,35.2654015 11.4718013,35.2883735 9.48818581,37.3003263 C9.10909938,37.6848283 8.7932749,38.1269206 8.55243969,38.6101873 L0,55.7717522 L0,55.7717522 Z" id="Path-43" stroke="#427660"></path>
                <path d="M0,55.7717522 L233.706323,55.7717522 L225.494251,52.9024072 C214.240466,48.97027 202.250073,47.6032784 190.4,48.9014085 C178.648058,50.1887886 166.773731,48.0711335 156.191309,42.8006662 L145.918785,37.6845409 C138.549504,34.0143456 129.662506,35.4313317 123.8,41.2112676 C117.855925,47.0716233 108.989094,48.8211025 101.264566,45.6576447 L97.2230441,44.0025034 C91.2850294,41.5706838 84.6574683,41.4206835 78.6155125,43.5813629 L77.6524799,43.9257555 C72.0493592,45.9295019 66.2785685,47.4291201 60.4088,48.4067595 L57.4155125,48.9053066 C49.5930877,50.2081706 41.6083366,50.199675 33.788702,48.8801681 L33.6732624,48.8606885 C25.8780478,47.5453023 17.870255,48.4387521 10.5566436,51.4398684 L0,55.7717522 L0,55.7717522 Z" id="Path-43" stroke="#0BBFB0"></path>
            </g>
            <g id="Group-2" transform="translate(56.000000, 167.040230)">
                <path d="M0,24.7233081 L233.706323,24.7233081 L219.072724,20.5367671 C208.535487,17.5221585 198.589566,12.7325157 189.662728,6.37383807 L187.549209,4.86835682 C180.437904,-0.19709843 171.273427,-1.39518743 163.098936,1.6719274 L162.866866,1.75900122 C154.344523,4.956632 145.425495,6.97569935 136.356888,7.76026426 L126.489898,8.61390084 C120.087668,9.16778575 113.642491,8.96601739 107.287443,8.01276176 C100.998282,7.06938918 94.5754648,7.61638102 88.5364016,9.60967257 L80.9545887,12.1121739 C73.3094229,14.6355858 65.089323,14.8451832 57.3254908,12.7146724 L57.2502486,12.6940248 C49.5054518,10.5687376 41.3322431,10.5606215 33.5832407,12.670523 L26.5275689,14.5916443 C23.3533924,15.4559103 20.0812241,15.9082672 16.7916204,15.9375783 C13.5709156,15.9662756 10.4416478,17.0120052 7.85076778,18.9254063 L0,24.7233081 L0,24.7233081 Z" id="Path-43-Copy" stroke="#427660"></path>
                <path d="M0,24.7233081 L233.706323,24.7233081 L214.981363,21.422326 C207.122756,20.0369496 199.458221,17.7159152 192.151303,14.5087492 L188.46311,12.8899206 C180.484532,9.38794811 171.588293,8.55642892 163.098936,10.5191662 L158.518808,11.5780906 C152.865989,12.8850209 147.110153,13.6975145 141.316447,14.0063753 L124.127,14.9227398 C119.28419,15.1809087 114.429014,15.0864444 109.599911,14.6400949 L107.287443,14.4263556 C100.944594,13.840092 94.5500528,14.1872763 88.307963,15.4568249 L81.0633189,16.9302781 C73.2423248,18.5209524 65.1948958,18.6543101 57.3254908,17.3236487 L57.2541231,17.311581 C49.4198557,15.9868611 41.419196,15.9817449 33.5832407,17.2964441 L26.6332026,18.4625061 C23.3806838,19.0082065 20.08955,19.2914796 16.7916204,19.3095867 C13.5253156,19.3275202 10.2997513,20.0362156 7.32675825,21.3891311 L0,24.7233081 L0,24.7233081 Z" id="Path-43-Copy" stroke="#0BBFB0"></path>
            </g>
            <g id="Group-3" transform="translate(0.000000, 0.040230)">
                <path d="M0,29.8614237 L233.706323,29.8614237 C220.000931,24.0792793 210.36549,20.5254714 204.8,19.2 C199.23451,17.8745286 188.43451,19.3411953 172.4,23.6 L172.4,23.6 L155.932168,19.1492347 C147.357264,16.831693 138.297827,17.019915 129.826581,19.6916136 L126.240944,20.8224673 C120.099486,22.7593872 113.545306,22.9801294 107.287443,21.4608136 L103.486563,20.5380167 C99.6467132,19.6057584 95.7549826,18.9019111 91.8318433,18.4301773 L82.1649152,17.2677875 C73.5904595,16.236761 65.2182031,13.930232 57.3254908,10.4246081 L57.2415519,10.3873258 C49.7124779,7.04321536 41.121945,7.03080554 33.5832407,10.3531492 L26.2811158,13.5712312 C23.2885921,14.8900509 20.0615225,15.5939484 16.7916204,15.6411064 C13.645771,15.6864754 10.6758063,17.100243 8.6570468,19.5133399 L0,29.8614237 L0,29.8614237 Z" id="Path-43-Copy-2" stroke="#427660"></path>
                <path d="M0,29.8614237 L233.706323,29.8614237 C218.90165,16.7584541 208.716569,9.78768474 203.151079,8.94911563 C200.078216,8.48611814 195.70898,9.48497793 190.04337,11.945695 C179.519761,16.5163674 167.260425,14.0041916 159.382757,5.66274395 C152.530958,-1.59244018 141.094988,-1.91944808 133.839804,4.93235137 C133.215278,5.52215433 132.633606,6.15574204 132.099214,6.82829383 L122.873794,18.4388216 C119.150863,23.1242675 113.202522,25.4552711 107.287443,24.5467166 L101.503323,23.6582771 C98.9831795,23.2711837 96.4491537,22.9806161 93.9068011,22.7872111 L79.1353591,21.6635 C72.5486764,21.1624298 66.0278487,20.0099503 59.6684389,18.222951 L57.2499593,17.5433563 C49.5119972,15.3689828 41.3255941,15.3606864 33.5832407,17.5193718 L26.5195835,19.4888264 C23.3513177,20.3721869 20.0805918,20.8348275 16.7916204,20.8648364 C13.5739304,20.8941949 10.4510468,21.9579415 7.88449344,23.8988676 L0,29.8614237 L0,29.8614237 Z" id="Path-43-Copy-2" stroke="#0BBFB0"></path>
            </g>
        </g>
    </g>
</svg>