<?xml version="1.0" encoding="UTF-8"?>
<svg width="320px" height="350px" viewBox="0 0 320 350" version="1.1" xmlns="http://www.w3.org/2000/svg" xmlns:xlink="http://www.w3.org/1999/xlink">
    <g id="transition-path-1-MOB" stroke="none" stroke-width="1" fill="none" fill-rule="evenodd">
        <g id="Group" transform="translate(-104.000000, 42.000000)">
            <path d="M34,266 L408,266 L362.942575,260.232765 C358.731986,259.693821 354.491352,259.423528 350.246412,259.423528 L317.572987,259.423528 L278.525691,259.423528 L240.059566,259.423528 C227.637228,259.423528 215.554725,255.366732 205.649454,247.870062 C196.099587,240.642375 183.592135,238.608176 172.244042,242.437041 L167.587161,244.008281 C153.175512,248.870795 137.335891,246.930641 124.523877,238.73357 L120.564764,236.200548 C107.223461,227.66484 91.3364552,224.016166 75.6077746,225.875542 C60.4903971,227.662652 47.3810156,237.161157 40.9739159,250.969776 L34,266 L34,266 Z" id="Path-43-Copy" fill="#9BE8C7"></path>
            <path d="M0,40 L374,40 C352.067275,39.2739086 336.647688,37.8386821 327.74124,35.6943204 C319.273905,33.655682 303.235426,33.5551713 279.625802,35.3927882 C277.044059,35.5937338 274.455484,35.6943204 271.865933,35.6943204 L237.328341,35.6943204 C233.168951,35.6943204 229.013613,35.4348128 224.886542,34.9173099 L192.758547,30.8887066 C188.922743,30.4077264 185.118057,29.7047217 181.363647,28.7832327 L162.20428,24.080723 C158.327559,23.1292135 154.397342,22.410683 150.434728,21.9289886 L125.847866,18.9402156 C115.866602,17.7268956 106.125405,15.0151771 96.952911,10.8965449 L91.6031562,8.49439853 C79.5659831,3.08946826 65.7960795,3.06943088 53.7432273,8.43930636 L42.0447101,13.6513159 C37.265267,15.7806886 32.1033903,16.9179421 26.8716137,16.9942197 C21.8404639,17.0675721 17.094379,19.342867 13.8864708,23.2193569 L0,40 L0,40 Z" id="Path-43-Copy-2" fill="#9BE8C7"></path>
            <path d="M123,194.354839 L127.382922,182.091084 C133.189395,165.844124 148.580817,155 165.834188,155 L180.632739,155 C189.87333,155 199.040745,156.638254 207.709402,159.83871 C216.378059,163.039165 225.545473,164.677419 234.786065,164.677419 L254.242942,164.677419 C259.228417,164.677419 264.206912,165.050243 269.13678,165.792772 L345.313786,177.266423 C346.704441,177.475881 348.090522,177.714652 349.471105,177.982576 L393.908874,186.606431 C396.146748,187.040726 398.398818,187.398372 400.661137,187.678741 L430.114679,191.328912 C432.509237,191.625669 434.913751,191.835662 437.323499,191.95848 L497,195 L497,195 L123,194.354839 Z" id="Path-19" fill="#9BE8C7"></path>
            <path d="M187,126.354839 L187.719829,111.584497 C188.390762,97.8174625 199.74825,87 213.531624,87 L238.145299,87 L269.647304,87 C279.701855,87 289.698911,88.5163615 299.301216,91.4979293 L314.769366,96.3008739 C322.475423,98.6936464 330.44276,100.144934 338.497575,100.623079 L401.609677,104.369498 C402.169598,104.402735 402.729788,104.431261 403.290188,104.455073 L446.259974,106.280868 C457.457108,106.756637 468.485252,109.183305 478.847863,113.451613 L481.274165,114.450994 C490.054039,118.06738 499.30424,120.414826 508.746104,121.422616 L561,127 L561,127 L187,126.354839 Z" id="Path-19-Copy" fill="#9BE8C7"></path>
            <path d="M0,40 L374,40 C352.067275,39.2739086 336.647688,37.8386821 327.74124,35.6943204 C318.834792,33.5499588 301.551562,33.5499588 275.891552,35.6943204 L275.891552,35.6943204 L251.541515,26.7908378 C244.017764,24.0398118 236.1907,22.2028237 228.228634,21.3193758 L191.342346,17.2265792 C188.931709,16.9591019 186.531601,16.6040106 184.146785,16.1620099 L158.352881,11.3813809 C152.342299,10.2673826 146.242231,9.7068637 140.129286,9.7068637 L124.296486,9.7068637 C116.255566,9.7068637 108.243996,8.73703062 100.435337,6.81837488 L84.4412548,2.88848882 C76.6325963,0.969833077 68.6210262,1.83264018e-13 60.5801066,0 L48.9711457,0 C41.0719477,8.5564865e-15 33.481359,3.06717835 27.7996255,8.55491329 L22.955059,13.2340658 C20.2819547,15.815899 17.754854,18.5447381 15.3855184,21.4078828 L0,40 L0,40 Z" id="Path-43-Copy-2" stroke="#21978D" transform="translate(187.000000, 20.000000) scale(-1, 1) translate(-187.000000, -20.000000) "></path>
            <path d="M187,125.368421 L193.869769,106.365864 C197.327408,96.8016408 206.960207,90.9186931 217.047863,92.2105263 L223.99831,93.1006061 C230.8539,93.9785384 237.600002,95.5648442 244.128434,97.8340853 L251.57094,100.421053 C262.90886,104.362041 275.034307,105.490404 286.904727,103.709124 L300.533037,101.664055 C312.689715,99.8398188 325.10231,102.30322 335.641026,108.631579 C346.186281,114.963865 358.591361,117.469268 370.767612,115.72595 L384.134826,113.812119 C392.053938,112.678311 400.080494,112.498865 408.042364,113.277629 L456.70084,118.036994 C459.317496,118.292934 461.943227,118.44558 464.571914,118.494578 L490.235553,118.972937 C493.084623,119.026042 495.930122,119.200903 498.764257,119.497039 L561,126 L561,126 L187,125.368421 Z" id="Path-19-Copy" stroke="#21978D" transform="translate(374.000000, 108.000000) scale(-1, 1) translate(-374.000000, -108.000000) "></path>
            <path d="M123,193.361702 C123,179.601445 134.154892,168.446553 147.915149,168.446553 C149.273632,168.446553 150.629839,168.557659 151.970209,168.778758 L194.157574,175.737742 C195.73321,175.99765 197.314846,176.219778 198.901122,176.403934 L222.530644,179.147177 C223.518137,179.261818 224.503865,179.391179 225.487501,179.535216 L267.618939,185.704651 C270.512043,186.128297 273.422337,186.424849 276.34143,186.593453 L348.966231,190.788196 C349.200709,190.801739 349.435138,190.816108 349.669514,190.831303 L395.313901,193.790503 C397.467602,193.930131 399.625259,194 401.783482,194 L433.707692,194 L497,194 L497,194 L123,193.361702 Z" id="Path-19" stroke="#21978D" transform="translate(310.000000, 179.000000) scale(-1, 1) translate(-310.000000, -179.000000) "></path>
            <path d="M34,265 L408,265 L362.901339,259.266062 C358.718157,258.734204 354.505521,258.467476 350.288664,258.467476 L337.096635,258.467476 C324.313294,258.467476 311.76209,255.052037 300.741424,248.574481 L298.134413,247.042172 C286.00565,239.913316 271.099297,239.383213 258.494778,245.632499 L249.303661,250.18943 C239.0935,255.251599 226.887695,254.028945 217.884476,247.042172 C208.341414,239.636465 196.605329,235.616869 184.52582,235.616869 L148.111439,235.616869 L108.397595,235.616869 C103.301711,235.616869 98.2132819,235.227349 93.1767733,234.451714 L76.0129085,231.808434 C61.3570677,229.551397 46.9695337,237.234775 40.6937888,250.669913 L34,265 L34,265 Z" id="Path-43-Copy" stroke="#21978D" transform="translate(221.000000, 246.500000) scale(-1, 1) translate(-221.000000, -246.500000) "></path>
        </g>
    </g>
</svg>
