<?xml version="1.0" encoding="UTF-8"?>
<svg width="320px" height="350px" viewBox="0 0 320 350" version="1.1" xmlns="http://www.w3.org/2000/svg" xmlns:xlink="http://www.w3.org/1999/xlink">
    <!-- Generator: Sketch 61 (89581) - https://sketch.com -->
    <title>transition-path-2-MOB</title>
    <desc>Created with Sketch.</desc>
    <g id="transition-path-2-MOB" stroke="none" stroke-width="1" fill="none" fill-rule="evenodd">
        <g id="Group-28" transform="translate(30.000000, 67.000000)" stroke="#025F58">
            <circle id="Oval-5" fill="#9BE8C7" cx="3.88088235" cy="6.5" r="3.5"></circle>
            <circle id="Oval-5-Copy-21" cx="3.88088235" cy="130.5" r="3.5"></circle>
            <circle id="Oval-5-Copy-7" cx="3.88088235" cy="47.5" r="3.5"></circle>
            <circle id="Oval-5-Copy-22" cx="3.88088235" cy="172.5" r="3.5"></circle>
            <circle id="Oval-5-Copy-14" cx="3.88088235" cy="89.5" r="3.5"></circle>
            <circle id="Oval-5-Copy-23" cx="3.88088235" cy="213.5" r="3.5"></circle>
            <circle id="Oval-5-Copy" cx="45.8808824" cy="6.5" r="3.5"></circle>
            <circle id="Oval-5-Copy-24" cx="45.8808824" cy="130.5" r="3.5"></circle>
            <circle id="Oval-5-Copy-8" cx="45.8808824" cy="47.5" r="6.5"></circle>
            <circle id="Oval-5-Copy-25" cx="45.8808824" cy="172.5" r="3.5"></circle>
            <circle id="Oval-5-Copy-15" cx="45.8808824" cy="89.5" r="3.5"></circle>
            <circle id="Oval-5-Copy-26" cx="45.8808824" cy="213.5" r="3.5"></circle>
            <circle id="Oval-5-Copy-2" fill="#9BE8C7" cx="87.8808824" cy="6.5" r="3.5"></circle>
            <circle id="Oval-5-Copy-27" cx="87.8808824" cy="130.5" r="3.5"></circle>
            <circle id="Oval-5-Copy-9" cx="88.3808824" cy="48" r="7"></circle>
            <circle id="Oval-5-Copy-28" cx="87.8808824" cy="172.5" r="3.5"></circle>
            <circle id="Oval-5-Copy-16" cx="87.8808824" cy="89.5" r="3.5"></circle>
            <circle id="Oval-5-Copy-29" cx="87.8808824" cy="213.5" r="3.5"></circle>
            <circle id="Oval-5-Copy-3" cx="129.880882" cy="6.5" r="3.5"></circle>
            <circle id="Oval-5-Copy-30" cx="129.880882" cy="130.5" r="3.5"></circle>
            <circle id="Oval-5-Copy-10" cx="129.880882" cy="47.5" r="3.5"></circle>
            <circle id="Oval-5-Copy-31" cx="129.880882" cy="172.5" r="3.5"></circle>
            <circle id="Oval-5-Copy-17" cx="129.880882" cy="89.5" r="3.5"></circle>
            <circle id="Oval-5-Copy-32" cx="129.880882" cy="213.5" r="3.5"></circle>
            <circle id="Oval-5-Copy-4" cx="172.880882" cy="6.5" r="6.5"></circle>
            <circle id="Oval-5-Copy-33" cx="171.880882" cy="130.5" r="3.5"></circle>
            <circle id="Oval-5-Copy-11" fill="#9BE8C7" cx="171.880882" cy="47.5" r="3.5"></circle>
            <circle id="Oval-5-Copy-34" cx="171.880882" cy="172.5" r="3.5"></circle>
            <circle id="Oval-5-Copy-18" cx="171.880882" cy="89.5" r="3.5"></circle>
            <circle id="Oval-5-Copy-35" fill="#9BE8C7" cx="171.880882" cy="213.5" r="3.5"></circle>
            <circle id="Oval-5-Copy-5" cx="213.880882" cy="6.5" r="3.5"></circle>
            <circle id="Oval-5-Copy-36" cx="213.880882" cy="130.5" r="3.5"></circle>
            <circle id="Oval-5-Copy-12" cx="213.880882" cy="47.5" r="3.5"></circle>
            <circle id="Oval-5-Copy-37" cx="214.880882" cy="172.5" r="9.5"></circle>
            <circle id="Oval-5-Copy-19" fill="#9BE8C7" cx="214.880882" cy="89.5" r="7.5"></circle>
            <circle id="Oval-5-Copy-38" cx="213.880882" cy="213.5" r="3.5"></circle>
            <circle id="Oval-5-Copy-6" fill="#9BE8C7" cx="255.880882" cy="6.5" r="3.5"></circle>
            <circle id="Oval-5-Copy-39" cx="255.880882" cy="130.5" r="3.5"></circle>
            <circle id="Oval-5-Copy-13" cx="255.880882" cy="47.5" r="3.5"></circle>
            <circle id="Oval-5-Copy-40" cx="255.880882" cy="172.5" r="3.5"></circle>
            <circle id="Oval-5-Copy-20" cx="255.880882" cy="89.5" r="3.5"></circle>
            <circle id="Oval-5-Copy-41" cx="255.880882" cy="213.5" r="3.5"></circle>
        </g>
    </g>
</svg>