<?xml version="1.0" encoding="UTF-8"?>
<svg width="1024px" height="507px" viewBox="0 0 1024 507" version="1.1" xmlns="http://www.w3.org/2000/svg" xmlns:xlink="http://www.w3.org/1999/xlink">
    <!-- Generator: Sketch 61 (89581) - https://sketch.com -->
    <title>transition-path-1</title>
    <desc>Created with Sketch.</desc>
    <g id="transition-path-1" stroke="none" stroke-width="1" fill="none" fill-rule="evenodd">
        <g id="Group" transform="translate(303.000000, 165.000000)" stroke-width="2">
            <path d="M0,141.421229 L584.265807,141.421229 L532.65222,89.8076417 C523.150421,80.3058427 507.744961,80.3058427 498.243162,89.8076417 C488.741363,99.3094407 473.335903,99.3094407 463.834104,89.8076417 L414.973241,40.9467792 C392.358959,18.3324975 355.693964,18.3324975 333.079683,40.9467792 L315.531063,58.4953988 C302.608616,71.4178455 281.657191,71.4178455 268.734744,58.4953988 C255.812297,45.5729521 234.860872,45.5729521 221.938425,58.4953988 L202.841398,77.5924261 C186.403285,94.0305384 159.751839,94.0305384 143.313727,77.5924261 L143.141682,77.4203808 C126.798587,61.0772865 100.301196,61.0772865 83.9581018,77.4203808 L66.9256181,94.4528646 C59.9893048,101.389178 48.7433189,101.389178 41.8070056,94.4528646 C36.8441827,89.4900416 28.7978569,89.4900416 23.8350339,94.4528646 C22.8482141,95.4396844 22.030681,96.5823135 21.4152647,97.8348667 L0,141.421229 L0,141.421229 Z" id="Path-43" stroke="#427660"></path>
            <path d="M0,141.421229 L584.265807,141.421229 L542.634559,126.667228 C528.39664,121.621349 513.200592,119.866601 498.18738,121.534736 L460.573275,125.714081 C441.275838,127.85824 421.771557,124.338209 404.441067,115.583632 L364.926293,95.6225604 C346.472565,86.3005741 324.119157,89.8808429 309.5,104.5 C294.672351,119.327649 272.3677,123.752737 253.002471,115.708719 L243.047616,111.573625 C228.223119,105.415757 211.629313,105.036227 196.538781,110.509885 L181.589932,115.932151 C175.926604,117.986361 170.089232,119.524601 164.149028,120.528105 L130.766799,126.167511 C119.668587,128.042381 108.333491,128.030158 97.2393488,126.131358 L82.9184527,123.680288 C64.2670736,120.488041 45.0927476,122.653231 27.6229036,129.924333 L0,141.421229 L0,141.421229 Z" id="Path-43" stroke="#0BBFB0"></path>
        </g>
        <g id="Group-2" transform="translate(164.000000, 355.000000)" stroke-width="2">
            <path d="M0,63.2916688 L584.265807,63.2916688 L524.608347,45.8145869 C513.538068,42.5714692 503.112395,37.437384 493.792645,30.639506 L468.727772,12.3570468 C451.088642,-0.509034183 428.127731,-3.55022723 407.747339,4.28013414 L388.140154,11.8134211 C379.461608,15.1478097 370.36047,17.2556629 361.099682,18.0760829 L304.182638,23.1184051 C296.178657,23.8274836 288.118386,23.5692709 280.176201,22.3493533 L268.218608,20.5126701 C252.50593,18.0992068 236.443371,19.4963439 221.383361,24.5864458 L202.366478,31.0139227 C183.286347,37.4627768 162.703242,37.9980307 143.313727,32.5495614 L140.496979,31.7580529 C122.870986,26.8051348 104.223508,26.7862369 86.5875127,31.7034194 L66.2989587,37.3601755 C58.3782942,39.5685767 50.2014796,40.7251784 41.9790509,40.8002005 C33.9348261,40.8735968 26.1276171,43.5329633 19.7112336,48.3852785 L0,63.2916688 L0,63.2916688 Z" id="Path-43-Copy" stroke="#427660"></path>
            <path d="M0,63.2916688 L584.265807,63.2916688 L519.933886,51.6785534 C511.926361,50.2330454 504.125197,47.8156018 496.703428,44.4798432 L471.075639,32.9612802 C451.206608,24.0310253 428.945034,21.910542 407.747339,26.9290654 L383.739,32.6130048 C377.963622,33.9803172 372.077984,34.8307617 366.151781,35.1542681 L299.580665,38.7883287 C294.622377,39.0589974 289.650816,38.9599725 284.707239,38.492076 L259.335192,36.0906784 C249.371069,35.1476003 239.321823,35.7057305 229.523417,37.7464095 L191.742281,45.6149516 C179.410198,48.1833106 166.703886,48.398576 154.29188,46.2494216 L130.544786,42.1375826 C119.297888,40.1901684 107.800599,40.1826498 96.5511639,42.1153528 L62.4919303,47.9668808 C57.0840258,48.8959828 51.6088241,49.3784014 46.1217748,49.4092508 L41.9790509,49.432542 C33.8172532,49.4784294 25.7616936,51.2869731 18.3635765,54.7344229 L0,63.2916688 L0,63.2916688 Z" id="Path-43-Copy" stroke="#0BBFB0"></path>
        </g>
        <g id="Group-3" transform="translate(70.000000, 90.000000)" stroke-width="2">
            <path d="M0,74.6535593 L584.265807,74.6535593 C550.002327,60.1981982 525.913725,51.3136784 512,48 C500.94728,45.3676956 481.636699,47.1402136 454.068257,53.3175542 C438.23496,56.8653668 421.776154,56.5070687 406.112251,52.2735815 L385.255235,46.6365501 C366.805431,41.6501164 347.313103,42.0550959 329.08633,47.8035353 L315.602361,52.0561682 C300.248715,56.898468 283.863266,57.4503234 268.218608,53.6520341 L250.069151,49.2456167 C246.229301,48.3133584 242.33757,47.6095111 238.414431,47.1377772 L187.99755,41.0754516 C178.106421,39.8861031 168.448541,37.225389 159.343843,33.1814499 L143.10388,25.9683145 C124.281195,17.6080384 102.804863,17.5770139 83.9581018,25.882873 L65.7027894,33.928078 C58.2214802,37.2251273 50.1538062,38.9848709 41.9790509,39.102766 C34.1144275,39.2161884 26.6895157,42.7506075 21.642617,48.7833497 L0,74.6535593 L0,74.6535593 Z" id="Path-43-Copy-2" stroke="#427660"></path>
            <path d="M0,74.6535593 L584.265807,74.6535593 C547.254126,41.8961353 521.791423,24.4692118 507.877698,22.3727891 C500.195538,21.2152949 489.272441,23.7124467 475.108409,29.8642445 C448.799389,41.2909091 418.151056,35.010473 398.456893,14.1568599 C381.327394,-3.98110045 352.73747,-4.79862019 334.59951,12.3308784 C333.038194,13.8053858 331.584014,15.3893551 330.248034,17.0707346 L307.184486,46.097054 C297.877156,57.8106687 283.006304,63.6381778 268.218608,61.3667914 L248.08591,58.2744141 C245.565767,57.8873207 243.031741,57.5967531 240.489389,57.4033481 L182.981897,53.0285681 C176.395214,52.5274979 169.874386,51.3750184 163.514976,49.5880191 L140.496979,43.1199433 C122.870986,38.1670253 104.223508,38.1481274 86.5875127,43.0653099 L66.2989587,48.722066 C58.3782942,50.9304671 50.2014796,52.0870689 41.9790509,52.162091 C33.9348261,52.2354872 26.1276171,54.8948538 19.7112336,59.7471689 L0,74.6535593 L0,74.6535593 Z" id="Path-43-Copy-2" stroke="#0BBFB0"></path>
        </g>
        <line x1="248.5" y1="387.5" x2="171.5" y2="321.5" id="line1" stroke="#524DFF" stroke-width="0.5"></line>
        <line x1="700.75" y1="195.5" x2="801.75" y2="95.5" id="line3" stroke="#524DFF" stroke-width="0.5"></line>
        <text id="Declining-C02-values" font-family="IBMPlexMono, IBM Plex Mono" font-size="10" font-weight="normal" letter-spacing="0.5558032" fill="#524DFF">
            <tspan x="63.941968" y="303">Declining C02 values</tspan>
        </text>
        <text id="Electrification-Rate" font-family="IBMPlexMono, IBM Plex Mono" font-size="10" font-weight="normal" letter-spacing="0.5558032" fill="#524DFF">
            <tspan x="801.25" y="69">Electrification </tspan>
            <tspan x="801.25" y="82">Rate</tspan>
        </text>
    </g>
</svg>