<?xml version="1.0" encoding="UTF-8"?>
<svg width="1200px" height="560px" viewBox="0 0 1200 560" version="1.1" xmlns="http://www.w3.org/2000/svg" xmlns:xlink="http://www.w3.org/1999/xlink">
    <title>earth</title>
    <g id="earth" stroke="none" stroke-width="1" fill="none" fill-rule="evenodd" transform="translate(0.000000, 0.000000)">
        <g id="globe" transform="translate(240.000000, 18.000000)">
            <path d="M58.9784082,101.392606 L57.2616412,103.67912 L55.5448741,104.250748 L56.1171298,102.535863 L54.4003628,105.965633 L53.2558514,107.10889 L54.9726184,104.250748 L53.8281071,105.394005 L52.1113401,106.537262 L51.5390844,108.252147 L49.2500617,111.681918 L48.677806,113.396803 L46.3887833,116.826573 L42.9552492,117.96983 L40.0939708,119.113087 L30.3656243,138.548453 L22.3540448,161.41359 L17.2037437,181.420585 L18.3482551,182.563842 L18.3482551,180.277328 L18.9205108,178.562443 L18.9205108,176.275929 L20.0650221,177.419186 L21.7817892,179.7057 L22.3540448,181.992213 L22.9263005,184.278727 L22.9263005,188.280126 L21.7817892,189.423383 L21.7817892,187.708498 L20.0650221,187.136869 L18.9205108,185.421984 L17.7759994,187.708498 L18.3482551,185.421984 L17.7759994,183.707099 L16.6314881,181.992213 L16.0592324,184.278727 L12.6256983,208.287121 L12.6256983,210.002006 L13.197954,214.003405 L13.7702097,211.145263 L14.3424654,215.71829 L14.3424654,219.719689 L15.4869767,221.434574 L17.2037437,222.577831 L17.7759994,225.435973 L18.9205108,227.150859 L20.6372778,226.007602 L24.0708119,229.437372 L22.3540448,229.437372 L22.3540448,231.723886 L23.4985562,233.438771 L24.6430675,236.296913 L25.2153232,240.298312 L25.7875789,242.013198 L26.9320903,244.299711 L27.5043459,247.729482 L28.6488573,250.587624 L29.221113,253.445766 L29.7933686,255.160651 L32.0823914,256.875537 L33.7991584,258.018793 L36.6604368,261.448564 L38.3772038,264.306706 L40.6662265,268.879733 L41.2384822,270.594619 L41.8107379,272.881132 L43.5275049,280.88393 L44.6720163,282.027187 L44.6720163,284.885329 L42.9552492,287.171843 L43.5275049,288.886728 L47.5332946,291.74487 L47.5332946,295.746269 L49.2500617,294.603012 L52.6835957,297.461154 L57.2616412,302.034182 L58.4061525,304.892324 L57.8338968,306.607209 L60.6951752,306.607209 L66.417732,311.180237 L70.4235217,312.895122 L75.5738228,316.324892 L79.5796126,322.041177 L81.8686353,323.756062 L84.7299137,324.899319 L85.874425,326.614204 L87.0189364,331.75886 L87.591192,334.045373 L87.0189364,339.761658 L85.874425,341.476543 L82.440891,344.906313 L81.2963796,348.336084 L79.0073569,350.622598 L78.4351012,352.909111 L80.1518682,359.768652 L80.7241239,364.913308 L80.1518682,368.343079 L80.7241239,372.344478 L79.0073569,375.774248 L79.5796126,379.204019 L77.8628455,379.775647 L77.8628455,381.490532 L75.0015671,380.347275 L70.4235217,380.347275 L68.134499,379.775647 L66.417732,380.918904 L65.8454763,383.205418 L66.417732,385.491931 L67.5622433,387.206817 L68.7067547,390.064959 L84.157658,406.070554 L101.897584,421.504522 L121.354277,435.223604 L141.955481,446.084544 L159.005736,452.996695 C66.8992767,423.790219 0,335.945385 0,232.115243 C0,112.059172 89.4422656,13.3749607 203.874891,2.00006384 L189.452703,6.50228814 L183.730146,6.50228814 L181.954698,7.07374709 L180.296612,7.07391656 L179.724356,7.64554498 L178.007589,8.2171734 L177.816698,8.40674709 L167.287698,11.7997471 L167.134731,11.6469439 L165.417964,11.6469439 L164.273453,12.7902008 L163.701197,13.3618292 L163.128941,13.3618292 L161.412174,14.505086 L161.98443,13.3618292 L159.695407,13.3618292 L157.97864,13.9334576 L154.545106,15.0767145 L153.972851,15.6483429 L154.927698,15.4567471 L153.021698,16.4087471 L155.689618,15.6483429 L157.406385,16.2199713 L156.261698,16.9817471 L153.972851,17.3632281 L150.539317,18.506485 L149.967061,19.6497418 L148.250294,19.6497418 L147.105782,20.2213702 L146.579698,21.2687471 L144.244504,21.9362555 L146.150698,21.9357471 L145.389015,23.0795123 L145.344698,23.2557471 L144.81676,23.6511408 L141.955481,24.2227692 L139.666459,25.9376545 L142.527737,25.366026 L144.916698,24.9677471 L144.81676,25.366026 L145.389015,26.5092829 L146.533527,25.9376545 L145.389015,27.0809113 L145.389015,27.6525397 L145.197698,27.8427471 L143.672248,28.2241681 L141.955481,29.367425 L140.238714,29.9390534 L136.80518,29.367425 L137.949692,28.2241681 L136.232925,28.7957966 L133.371646,29.367425 L131.654879,29.9390534 L129.365856,29.9390534 L129.021698,29.5957471 L129.365856,29.367425 L129.365856,28.7957966 L128.547698,29.1227471 L128.221345,28.7957966 L125.932322,29.367425 L121.354277,31.6539387 L103.614351,43.6581355 L101.897584,45.3730208 L100.753073,47.087906 L99.6085613,48.8027913 L99.6085613,51.6609334 L96.7472829,53.3758187 L93.3137488,56.2339608 L89.8802148,59.6637313 L88.1634477,63.6651302 L91.5969818,61.3786166 L96.7472829,56.8055892 L98.4640499,55.0907039 L100.180817,55.6623323 L102.46984,55.0907039 L104.758862,53.9474471 L107.047885,52.2325618 L109.909163,49.3744197 L112.198186,46.5162776 L116.203976,45.3730208 L119.63751,41.3716218 L125.791698,38.0177471 L125.867698,38.1317471 L125.360067,39.6567366 L126.312698,40.6087471 L125.360067,42.5148787 L124.215555,42.5148787 L123.071044,44.8013923 L121.926533,47.6595344 L122.109698,48.5777471 L120.782021,49.3744197 L116.776232,53.9474471 L115.059465,56.2339608 L117.920743,56.2339608 L121.926533,54.5190755 L123.6433,53.9474471 L121.354277,56.8055892 L118.492999,61.3786166 L115.63172,65.3800155 L113.342698,66.5232723 L112.770442,69.3814144 L112.198186,71.6679281 L113.342698,73.9544418 L113.342698,75.6693271 L111.62593,78.5274692 L111.053675,80.8139829 L110.481419,82.5288681 L107.620141,85.9586387 L104.186607,87.1018955 L101.325328,86.5302671 L97.3195386,87.6735239 L95.0305159,86.5302671 L93.3137488,83.672125 L91.0247261,81.3856113 L88.1634477,82.5288681 L85.874425,82.5288681 L80.7241239,84.8153818 L78.4351012,87.1018955 L83.5854023,84.8153818 L85.8096983,84.4977471 L85.3021693,86.5302671 L85.874425,88.8167808 L83.0131466,92.2465513 L81.2963796,95.1046934 L81.2963796,97.9628355 L83.5854023,99.1060923 L86.0276983,97.3627471 L86.4916983,97.7107471 L85.874425,98.5344639 L85.874425,100.249349 L82.440891,100.820978 L78.4351012,100.249349 L72.7125444,100.249349 L75.0015671,97.3912071 L76.7176983,97.1457471 L76.7183342,97.9628355 L77.2905899,98.5344639 L79.0073569,97.3912071 L78.1166983,96.9457471 L79.0073569,96.8195787 L77.8628455,95.6763218 L78.4351012,93.3898081 L77.2905899,93.9614365 L76.8606983,95.2467471 L75.5738228,95.6763218 L73.2848001,96.2479502 L69.8512661,96.2479502 L67.5622433,97.9628355 L66.417732,99.6777208 L65.2732206,102.535863 L66.417732,101.392606 L65.2732206,103.107491 L61.8396866,100.820978 L60.1229195,100.249349 L61.8396866,102.535863 L60.1229195,101.964234 L60.1229195,100.249349 L58.9784082,101.392606 Z M281.66788,7.97290773 C379.565156,33.3422938 452,124.074765 452,232.115243 C452,272.728369 441.76454,310.895773 423.78869,344.064878 L431.516854,327.757461 L439.528434,304.892324 L445.25099,281.455559 L448.684524,257.447165 L450.973547,231.152258 L450.973547,226.57923 L449.25678,224.292717 L445.823246,215.146662 L444.106479,212.28852 L442.961968,207.715492 L442.389712,205.428979 L439.528434,201.42758 L436.667155,194.568039 L433.233621,185.421984 L431.516854,181.992213 L429.227831,187.136869 L425.794297,184.278727 L425.794297,181.992213 L424.649786,180.848957 L421.788508,179.134071 L420.071741,179.134071 L418.354974,176.847558 L416.065951,175.132672 L413.204672,178.562443 L410.343394,180.848957 L408.054371,183.13547 L404.048582,184.278727 L401.187303,184.850355 L398.326025,185.993612 L394.320235,181.420585 L392.603468,183.13547 L390.886701,185.993612 L387.453167,185.993612 L384.019633,184.278727 L381.158354,184.278727 L378.297076,181.420585 L374.863542,176.847558 L373.719031,177.990814 L371.430008,177.419186 L370.857752,179.134071 L369.140985,179.7057 L370.285497,182.563842 L372.002264,185.421984 L374.291286,188.280126 L376.008053,188.851754 L377.152565,189.995011 L379.441587,191.138268 L380.586099,192.853153 L380.586099,194.568039 L382.302866,196.282924 L383.447377,197.997809 L382.302866,195.139667 L382.875122,191.709897 L384.019633,192.853153 L385.164144,195.139667 L386.880911,200.284323 L388.597678,198.569438 L390.886701,197.426181 L392.603468,196.854552 L393.175724,193.424782 L394.320235,186.565241 L394.892491,184.850355 L395.464746,187.708498 L396.609258,190.56664 L398.326025,192.853153 L400.042792,193.424782 L401.759559,192.853153 L403.476326,192.853153 L405.193093,194.568039 L406.337604,195.711295 L407.482116,196.854552 L407.482116,200.855951 L406.90986,202.570837 L406.90986,206.000607 L405.765349,207.715492 L405.765349,210.002006 L407.482116,212.28852 L406.337604,213.431777 L405.193093,215.71829 L404.620837,219.148061 L402.90407,219.719689 L402.331815,221.434574 L403.476326,223.14946 L402.331815,224.864345 L400.615048,225.435973 L398.326025,228.294115 L396.609258,230.009001 L396.609258,233.438771 L394.320235,236.296913 L390.314445,240.298312 L388.597678,244.299711 L386.308656,244.87134 L385.164144,247.157853 L383.447377,248.872739 L381.158354,250.015995 L380.013843,251.730881 L378.869332,253.445766 L377.152565,254.017394 L376.008053,255.160651 L373.719031,255.73228 L373.719031,254.017394 L373.146775,250.587624 L372.002264,247.729482 L371.430008,246.014597 L370.857752,243.156454 L369.713241,239.726684 L368.56873,238.583427 L367.996474,236.868542 L366.279707,235.725285 L363.990684,232.867143 L362.273917,230.009001 L359.412639,227.722487 L357.695872,227.722487 L354.834593,224.292717 L353.690082,221.434574 L353.117826,219.148061 L350.256548,215.146662 L348.539781,214.003405 L346.823014,213.431777 L345.106247,210.002006 L342.817224,207.143864 L341.100457,204.285722 L338.239179,201.42758 L335.950156,199.141066 L334.233389,199.712694 L334.233389,193.424782 L333.661133,195.139667 L333.661133,198.569438 L331.944366,201.999208 L330.799855,200.855951 L329.083088,199.141066 L325.649554,193.99641 L327.938577,197.997809 L330.227599,202.570837 L334.233389,208.287121 L335.950156,210.002006 L337.666923,210.573634 L341.100457,215.71829 L341.672713,218.576432 L346.823014,222.006203 L347.967525,227.150859 L349.112037,231.152258 L352.545571,236.296913 L354.262338,237.44017 L357.123616,242.013198 L358.840383,245.442968 L361.129406,247.157853 L365.707451,250.015995 L367.424218,252.302509 L369.713241,254.017394 L370.857752,255.160651 L373.146775,256.875537 L373.146775,258.590422 L371.430008,260.305307 L374.291286,261.448564 L374.863542,263.163449 L376.580309,264.306706 L378.297076,263.735078 L381.158354,261.448564 L384.019633,259.16205 L387.453167,256.303908 L388.597678,255.160651 L391.458957,254.017394 L392.603468,252.874138 L393.747979,251.730881 L394.892491,250.587624 L394.892491,252.874138 L395.464746,255.160651 L394.892491,256.875537 L394.892491,261.448564 L394.320235,266.59322 L393.175724,272.309504 L391.458957,279.169045 L389.169934,284.885329 L385.7364,291.74487 L382.875122,296.317898 L378.297076,302.034182 L375.435798,306.035581 L372.002264,311.751865 L370.857752,315.181635 L368.56873,317.468149 L366.851963,319.754663 L366.279707,322.612805 L365.135196,324.32769 L364.56294,327.185832 L363.418428,328.900718 L361.701661,334.045373 L361.701661,336.331887 L363.418428,338.046772 L362.273917,341.476543 L362.273917,343.191428 L361.129406,345.477942 L363.418428,349.479341 L363.990684,351.194226 L363.418428,354.623997 L363.418428,357.482139 L362.846173,363.198423 L362.846173,364.913308 L361.701661,367.77145 L359.984894,370.629592 L357.695872,373.487734 L354.834593,375.774248 L350.828804,378.63239 L346.250758,383.205418 L345.106247,384.348674 L342.244968,387.206817 L340.528201,388.350073 L339.955946,390.636587 L341.100457,392.923101 L341.672713,395.209614 L340.528201,398.067757 L339.38369,399.782642 L339.38369,401.497527 L337.666923,402.640784 L334.805645,404.355669 L330.799855,406.642183 L329.655344,408.928697 L329.083088,410.643582 L327.366321,412.930095 L326.221809,415.216609 L325.077298,416.359866 L321.643764,418.64638 L319.926997,420.361265 L318.782486,422.07615 L316.493463,424.362664 L311.915418,427.792434 L306.192861,431.222205 L302.759327,432.93709 L300.470304,434.080347 L298.753537,434.080347 L297.03677,434.651975 L293.603236,434.651975 L290.741957,435.223604 L287.308423,436.366861 L284.447145,436.938489 L282.158122,438.081746 L279.296844,437.510118 L277.007821,436.938489 L277.580077,435.223604 L278.152333,432.93709 L278.724588,431.222205 L277.007821,428.935691 L275.86331,426.649178 L274.146543,423.219407 L271.85752,421.504522 L270.713009,419.789637 L270.140753,416.931494 L269.568497,415.216609 L268.996242,410.643582 L268.996242,407.213811 L268.423986,405.498926 L267.279475,404.355669 L265.562708,402.069155 L263.845941,398.639385 L263.273685,396.9245 L260.412407,394.066358 L260.412407,389.49333 L260.984662,386.635188 L262.701429,383.205418 L262.701429,381.490532 L263.845941,378.060762 L264.990452,376.345877 L267.279475,373.487734 L268.423986,371.772849 L268.996242,368.914707 L268.996242,367.199822 L267.85173,366.056565 L266.707219,363.770051 L265.562708,360.911909 L266.707219,359.197024 L265.562708,355.767253 L264.990452,353.48074 L263.273685,351.194226 L263.273685,349.479341 L262.129174,346.621199 L258.69564,342.6198 L254.68985,339.190029 L251.828571,336.331887 L249.539549,331.187231 L250.68406,330.043974 L252.400827,327.185832 L252.400827,323.756062 L253.545338,319.183034 L254.68985,314.610007 L252.973083,311.751865 L251.256316,311.180237 L250.68406,309.465351 L249.539549,307.750466 L245.533759,309.465351 L243.816992,309.465351 L242.100225,310.608608 L238.666691,310.608608 L236.377668,308.322094 L235.233157,305.463952 L232.371878,302.60581 L226.077066,302.60581 L219.209998,303.749067 L212.915185,306.035581 L210.626163,307.178838 L207.192629,308.322094 L203.759095,307.178838 L202.042328,307.178838 L199.181049,306.035581 L196.892026,306.035581 L192.313981,306.607209 L189.452703,307.750466 L185.446913,308.893723 L183.730146,308.893723 L179.724356,306.607209 L176.290822,303.177439 L172.857288,300.319297 L169.423754,296.889526 L166.562476,295.174641 L164.845708,292.888127 L164.273453,291.173242 L163.701197,288.3151 L161.98443,285.456958 L159.695407,283.170444 L158.550896,282.027187 L157.97864,280.312302 L156.261873,278.597417 L154.545106,276.882531 L152.828339,276.310903 L152.256084,274.596018 L151.111572,272.309504 L150.539317,268.879733 L151.111572,266.59322 L149.394805,262.020192 L151.683828,259.16205 L152.828339,256.875537 L152.828339,254.589023 L153.972851,252.874138 L154.545106,248.872739 L154.545106,242.584826 L155.117362,240.298312 L154.545106,238.011799 L152.828339,235.725285 L153.972851,232.295514 L155.689618,231.152258 L156.834129,228.865744 L156.834129,227.150859 L158.550896,224.292717 L161.98443,221.434574 L163.128941,219.148061 L163.701197,216.861547 L165.417964,214.575033 L167.706987,213.431777 L170.568265,209.430378 L172.285032,208.287121 L175.718566,208.287121 L178.579845,205.428979 L180.296612,204.285722 L183.730146,200.855951 L183.730146,195.711295 L185.446913,192.281525 L186.019169,189.995011 L188.308191,187.136869 L191.741725,185.993612 L194.603004,184.278727 L197.464282,180.277328 L198.608793,177.990814 L200.897816,177.990814 L202.614583,179.7057 L205.475862,179.7057 L210.053907,180.848957 L213.487441,178.562443 L216.920975,177.990814 L219.209998,176.275929 L222.643532,175.132672 L228.366089,174.561044 L233.51639,173.989415 L235.233157,174.561044 L238.094435,172.846159 L241.527969,172.846159 L242.672481,173.989415 L244.961503,173.417787 L248.395037,171.702902 L250.68406,172.27453 L250.68406,174.561044 L254.117594,173.417787 L252.400827,175.704301 L252.400827,177.419186 L253.545338,178.562443 L253.545338,181.992213 L251.256316,184.278727 L251.828571,186.565241 L253.545338,186.565241 L256.406617,189.423383 L261.556918,189.995011 L264.418196,190.56664 L268.996242,192.281525 L270.713009,195.711295 L273.002031,196.282924 L278.152333,197.426181 L282.158122,199.141066 L283.874889,197.997809 L285.019401,195.711295 L283.874889,192.853153 L284.447145,190.56664 L286.736168,188.280126 L289.02519,187.708498 L293.603236,187.708498 L294.175492,189.423383 L296.464514,189.995011 L299.898048,189.995011 L301.04256,191.138268 L305.048349,190.56664 L308.481883,191.138268 L311.915418,191.709897 L313.632185,192.281525 L315.921207,190.56664 L317.065719,188.851754 L319.926997,187.708498 L322.21602,187.708498 L323.360531,189.995011 L323.932787,188.280126 L326.794065,188.851754 L329.083088,188.280126 L330.227599,187.136869 L330.799855,185.421984 L330.799855,175.132672 L331.372111,171.702902 L330.227599,168.84476 L330.227599,167.129874 L328.510832,165.414989 L329.083088,163.700104 L327.366321,164.271732 L324.505042,163.700104 L323.360531,166.558246 L319.354741,168.273131 L316.493463,166.558246 L313.632185,167.129874 L313.632185,168.84476 L311.915418,169.988017 L308.481883,168.273131 L305.048349,168.84476 L302.187071,164.843361 L299.325793,163.128475 L300.470304,160.270333 L298.181281,158.555448 L300.470304,153.982421 L304.476094,152.839164 L304.476094,149.981022 L309.626395,149.409393 L311.915418,145.979623 L314.776696,144.264738 L318.782486,143.121481 L324.505042,144.836366 L328.510832,145.407994 L331.372111,143.693109 L333.661133,143.121481 L335.950156,140.263339 L335.3779,138.548453 L333.661133,136.26194 L331.944366,135.118683 L330.227599,135.118683 L329.083088,133.975426 L324.505042,131.688912 L321.071508,131.117284 L318.21023,129.402399 L319.926997,128.259142 L320.499253,124.829371 L318.782486,123.686114 L321.071508,120.827972 L319.354741,121.971229 L317.637974,122.542858 L316.493463,124.257743 L314.20444,123.686114 L312.487673,125.401 L313.632185,127.687513 L315.348952,128.259142 L317.637974,127.115885 L317.637974,128.83077 L315.348952,129.974027 L313.059929,132.832169 L311.343162,132.260541 L311.343162,130.545655 L308.481883,129.402399 L309.054139,127.115885 L304.476094,125.972628 L302.187071,127.115885 L302.187071,129.402399 L301.614815,133.975426 L299.325793,135.118683 L299.898048,140.263339 L298.753537,141.978224 L298.753537,144.836366 L300.470304,147.12288 L301.04256,148.837765 L303.903838,150.55265 L300.470304,151.124279 L299.325793,152.839164 L297.609026,154.554049 L296.464514,152.267535 L293.03098,152.267535 L289.597446,153.982421 L291.886469,155.697306 L290.741957,156.840563 L289.02519,156.840563 L286.736168,156.268934 L287.880679,158.555448 L289.597446,160.270333 L288.452935,161.41359 L290.741957,163.128475 L292.458725,164.271732 L291.314213,167.129874 L288.452935,166.558246 L289.597446,168.273131 L287.880679,168.84476 L289.597446,172.27453 L287.308423,172.846159 L284.447145,171.131273 L282.730378,168.273131 L281.585867,165.414989 L279.8691,163.700104 L278.152333,161.41359 L277.007821,159.127077 L275.291054,157.98382 L274.718799,156.268934 L274.718799,153.410792 L273.574287,151.695907 L271.285264,149.981022 L268.423986,148.837765 L266.707219,147.694508 L263.845941,146.551251 L261.556918,143.121481 L259.840151,140.263339 L258.123384,139.69171 L257.551128,141.406595 L256.406617,140.263339 L256.978873,138.548453 L254.68985,137.976825 L252.400827,139.69171 L252.973083,142.549852 L254.117594,144.264738 L256.978873,145.979623 L258.69564,149.409393 L262.129174,152.267535 L264.418196,152.267535 L264.418196,153.982421 L267.279475,155.125678 L269.568497,156.268934 L273.002031,158.555448 L272.429776,160.270333 L270.713009,158.555448 L267.85173,157.98382 L266.707219,160.841962 L268.996242,161.985219 L267.85173,164.843361 L265.562708,167.701503 L266.707219,164.271732 L264.990452,161.985219 L262.701429,159.698705 L261.556918,157.98382 L259.267895,157.412191 L257.551128,155.697306 L255.262105,155.697306 L252.973083,153.982421 L250.111804,151.695907 L247.822782,149.409393 L246.67827,145.407994 L244.961503,144.836366 L241.527969,144.264738 L238.666691,146.551251 L236.377668,148.837765 L230.655111,147.694508 L226.649322,148.837765 L226.077066,151.124279 L226.077066,153.410792 L223.215788,156.268934 L218.637742,157.98382 L216.920975,160.270333 L215.776464,163.700104 L216.920975,165.986618 L215.204208,167.701503 L214.631952,170.559645 L212.34293,171.131273 L210.053907,173.989415 L203.186839,173.989415 L200.897816,175.132672 L199.753305,176.847558 L198.036538,176.275929 L196.892026,174.561044 L196.319771,172.27453 L193.458492,171.131273 L192.313981,172.27453 L190.597214,171.702902 L188.880447,172.27453 L190.024958,168.84476 L188.880447,165.986618 L188.308191,164.271732 L189.452703,161.41359 L190.597214,160.270333 L191.16947,158.555448 L192.886237,156.268934 L192.886237,154.554049 L192.313981,151.695907 L192.886237,148.837765 L191.741725,147.12288 L196.319771,144.836366 L199.753305,145.407994 L203.759095,145.407994 L206.620373,146.551251 L208.909396,146.551251 L213.487441,147.12288 L214.631952,144.836366 L215.776464,136.833568 L213.487441,132.832169 L211.770674,130.545655 L207.764884,128.83077 L207.764884,125.972628 L211.198418,125.972628 L215.776464,127.115885 L215.204208,122.542858 L217.493231,124.257743 L223.788043,120.827972 L226.077066,117.398202 L228.366089,116.826573 L229.5106,115.683317 L231.799623,109.967032 L235.233157,108.252147 L237.522179,107.680519 L239.811202,108.252147 L240.955714,105.394005 L240.955714,103.107491 L240.702698,102.727747 L243.244736,104.250748 L243.653698,102.208747 L244.961503,104.822377 L247.250526,106.537262 L249.539549,105.965633 L250.68406,104.822377 L253.545338,105.965633 L254.68985,107.10889 L255.834361,105.394005 L259.267895,103.67912 L262.129174,101.964234 L264.990452,103.107491 L267.279475,103.107491 L267.279475,101.392606 L268.996242,100.820978 L267.85173,97.9628355 L267.279475,95.1046934 L267.85173,92.8181797 L269.568497,91.1032944 L271.85752,93.3898081 L273.574287,92.8181797 L273.002031,89.9600376 L271.85752,88.2451523 L270.140753,87.1018955 L269.568497,85.3870102 L271.85752,84.2437534 L274.146543,83.672125 L276.435566,83.672125 L279.296844,83.1004965 L280.441355,80.8139829 L277.580077,79.670726 L274.146543,80.2423544 L271.285264,81.9572397 L268.423986,83.1004965 L266.707219,81.3856113 L264.418196,80.8139829 L263.845941,77.3842123 L262.129174,74.5260702 L262.129174,72.811185 L263.273685,71.0962997 L265.562708,67.0949008 L264.990452,64.8083871 L262.129174,63.6651302 L259.840151,64.8083871 L259.267895,67.0949008 L259.840151,69.3814144 L258.123384,72.2395566 L255.262105,75.0976987 L255.262105,79.670726 L256.978873,81.9572397 L259.267895,83.672125 L258.69564,87.6735239 L256.978873,88.8167808 L257.551128,94.533065 L256.978873,97.9628355 L254.117594,97.9628355 L253.545338,100.820978 L250.68406,101.392606 L249.539549,97.9628355 L247.250526,93.9614365 L244.961503,89.3884092 L243.244736,87.1018955 L239.811202,91.1032944 L236.949924,92.2465513 L234.088645,90.531666 L233.51639,87.1018955 L232.944134,79.0990976 L234.660901,76.8125839 L239.238947,73.9544418 L242.100225,70.5246713 L244.961503,65.9516439 L247.250526,59.6637313 L248.967293,57.3772176 L251.828571,53.3758187 L254.117594,51.6609334 L256.406617,51.6609334 L256.978873,48.8027913 L259.267895,48.8027913 L260.984662,47.6595344 L266.134963,48.8027913 L264.990452,49.9460481 L268.423986,49.9460481 L271.285264,51.089305 L275.291054,51.089305 L282.158122,52.8041902 L283.302634,55.0907039 L285.019401,56.8055892 L285.019401,58.5204744 L283.302634,59.6637313 L275.291054,59.6637313 L278.724588,61.3786166 L279.8691,62.5218734 L282.158122,65.3800155 L283.874889,64.8083871 L285.591656,65.3800155 L285.019401,63.6651302 L283.302634,61.3786166 L288.452935,60.8069881 L286.163912,59.0921029 L288.452935,55.6623323 L290.169702,56.2339608 L289.02519,53.9474471 L286.736168,52.8041902 L286.163912,51.089305 L283.874889,49.9460481 L287.880679,49.9460481 L290.741957,51.089305 L289.597446,52.2325618 L290.741957,53.9474471 L292.458725,54.5190755 L293.603236,53.3758187 L292.458725,51.6609334 L293.603236,49.3744197 L295.320003,45.3730208 L295.892259,47.087906 L297.03677,45.3730208 L298.753537,44.2297639 L298.753537,42.5148787 L301.614815,43.0865071 L300.470304,40.7999934 L297.03677,39.0851081 L300.470304,38.5134797 L302.187071,38.5134797 L307.909628,39.6567366 L306.765116,37.9418513 L304.476094,37.3702229 L302.759327,37.3702229 L301.614815,36.226966 L297.609026,34.5120808 L295.320003,31.6539387 L291.886469,29.367425 L294.175492,28.7957966 L296.464514,29.9390534 L299.898048,31.6539387 L302.759327,32.7971955 L307.337372,35.6553376 L310.198651,36.226966 L312.487673,37.9418513 L317.637974,41.3716218 L316.493463,39.0851081 L314.776696,37.9418513 L313.632185,36.226966 L311.343162,35.6553376 L308.481883,34.5120808 L306.192861,33.3688239 L302.759327,31.0823102 L299.325793,30.5106818 L297.609026,28.2241681 L294.747747,27.0809113 L297.03677,27.6525397 L301.614815,29.367425 L298.753537,28.2241681 L298.753537,25.366026 L301.614815,25.366026 L298.181281,24.7943976 L293.603236,21.9362555 L294.175492,19.6497418 L291.886469,19.0781134 L289.597446,17.3632281 L287.308423,15.0767145 L286.163912,13.3618292 L283.874889,11.6469439 L280.441355,10.5036871 L279.8691,8.78880182 L281.585867,8.2171734 Z M446.395502,192.853153 L446.967757,197.426181 L446.967757,196.854552 L446.395502,192.853153 Z M349.112037,111.681918 L347.39527,112.825174 L345.106247,112.825174 L343.961735,115.111688 L342.817224,116.826573 L343.38948,119.113087 L341.672713,120.256344 L341.672713,124.829371 L345.678503,127.687513 L346.823014,129.974027 L351.401059,132.832169 L353.690082,134.547054 L355.979105,136.833568 L357.123616,136.833568 L358.268127,137.405197 L356.55136,138.548453 L358.268127,141.978224 L358.268127,143.693109 L357.695872,144.836366 L358.840383,146.551251 L360.55715,148.837765 L362.846173,148.837765 L365.135196,149.981022 L368.56873,149.409393 L371.430008,146.551251 L372.002264,145.979623 L370.285497,143.693109 L368.56873,139.69171 L366.279707,139.120082 L365.707451,136.26194 L363.990684,136.833568 L362.846173,133.403798 L365.135196,133.403798 L366.279707,131.117284 L363.418428,129.402399 L361.701661,127.687513 L360.55715,129.402399 L361.701661,132.260541 L359.984894,129.974027 L359.412639,129.402399 L358.840383,127.687513 L357.695872,126.544257 L354.834593,126.544257 L351.973315,123.686114 L350.256548,123.114486 L349.684292,121.971229 L351.973315,121.399601 L350.256548,118.541459 L350.828804,117.398202 L352.545571,117.398202 L350.828804,113.968431 L349.112037,111.681918 Z M53.2558514,107.10889 L53.2558514,108.823775 L50.9668287,110.538661 L52.6835957,108.823775 L53.2558514,107.10889 Z M244.389248,93.3898081 L243.816992,96.2479502 L244.389248,98.5344639 L243.556698,100.612747 L243.244736,99.6777208 L239.811202,101.392606 L239.238947,97.9628355 L240.383458,95.6763218 L242.672481,94.533065 L244.389248,93.3898081 Z M87.591192,84.2437534 L89.3079591,85.3870102 L88.7357034,87.6735239 L87.0186983,88.3587471 L87.0189364,86.5302671 L86.4846983,84.4017471 L87.591192,84.2437534 Z M149.967061,17.9348566 L147.678038,18.506485 L144.244504,20.2213702 L147.678038,19.0781134 L149.967061,17.9348566 Z M153.021698,16.4087471 L151.683828,16.7915997 L149.967061,17.9348566 L153.021698,16.4087471 Z M172.285032,8.78880182 L169.423754,9.36043024 L168.851498,9.93205866 L167.134731,9.93205866 L165.99022,10.5036871 L165.99022,11.0753155 L168.851498,11.0753155 L170.568265,10.5036871 L172.857288,9.93205866 L172.285032,9.93205866 L172.857288,9.36043024 L171.712777,9.36043024 L172.285032,8.78880182 Z" id="Combined-Shape" stroke="#0BBFB0" stroke-width="0.5" fill="#9BE8C7"></path>
            <g id="Group" transform="translate(13.000000, 0.000000)"></g>
            <path d="M60.45953,102.223039 L62.1749347,102.794118 L60.45953,100.509804 L62.1749347,101.080882 L63.8903394,102.223039 L65.6057441,103.365196 L66.7493473,101.651961 L65.6057441,102.794118 L66.7493473,99.9387255 L67.8929504,98.2254902 L70.1801567,96.5122549 L73.6109661,96.5122549 L75.8981723,95.9411765 L77.184,95.513 L77.613577,94.2279412 L78.7571802,93.6568627 L78.1853786,95.9411765 L79.3289817,97.0833333 L78.439,97.21 L79.3289817,97.6544118 L77.613577,98.7965686 L77.0417755,98.2254902 L77.041,97.409 L75.3263708,97.6544118 L73.0391645,100.509804 L78.7571802,100.509804 L82.7597911,101.080882 L86.1906005,100.509804 L86.1906005,98.7965686 L86.808,97.974 L86.344,97.626 L83.9033943,99.3676471 L81.616188,98.2254902 L81.616188,95.370098 L83.3315927,92.5147059 L86.1906005,89.0882353 L85.618799,86.8039216 L86.126,84.773 L83.9033943,85.0906863 L78.7571802,87.375 L81.0443864,85.0906863 L86.1906005,82.8063725 L88.4778068,82.8063725 L91.3368146,81.6642157 L93.6240209,83.9485294 L95.3394256,86.8039216 L97.6266319,87.9460784 L101.629243,86.8039216 L104.488251,87.375 L106.203655,86.8039216 L107.91906,86.2328431 L110.778068,82.8063725 L111.349869,81.0931373 L111.921671,78.8088235 L113.637076,75.9534314 L113.637076,74.2401961 L112.493473,71.9558824 L113.065274,69.6715686 L113.637076,66.8161765 L115.924282,65.6740196 L118.78329,61.6764706 L121.642298,57.1078431 L123.929504,54.252451 L122.214099,54.8235294 L118.211488,56.5367647 L115.35248,56.5367647 L117.067885,54.252451 L121.070496,49.6838235 L122.398,48.888 L122.214099,47.9705882 L123.357702,45.1151961 L124.501305,42.8308824 L125.644909,42.8308824 L126.597,40.927 L125.644909,39.9754902 L126.152,38.452 L126.076,38.338 L119.926893,41.6887255 L116.496084,45.6862745 L112.493473,46.8284314 L110.206266,49.6838235 L107.347258,52.5392157 L105.060052,54.252451 L102.772846,55.3946078 L100.48564,55.9656863 L98.770235,55.3946078 L97.0548303,57.1078431 L91.9086162,61.6764706 L88.4778068,63.9607843 L90.1932115,59.9632353 L93.6240209,56.5367647 L97.0548303,53.6813725 L99.9138381,51.9681373 L99.9138381,49.1127451 L102.201044,45.6862745 L103.916449,43.9730392 L121.642298,31.9803922 L126.21671,29.6960784 L128.503916,29.125 L128.83,29.451 L129.64752,29.125 L129.64752,29.6960784 L129.304,29.924 L129.64752,30.2671569 L131.934726,30.2671569 L133.650131,29.6960784 L136.509138,29.125 L138.224543,28.5539216 L137.08094,29.6960784 L140.511749,30.2671569 L142.227154,29.6960784 L143.942559,28.5539216 L145.467,28.172 L145.657963,27.9828431 L145.657963,27.4117647 L146.801567,26.2696078 L145.657963,26.8406863 L145.086162,25.6985294 L145.185,25.301 L142.798956,25.6985294 L139.939948,26.2696078 L142.227154,24.5563725 L145.086162,23.9852941 L145.613,23.59 L145.657963,23.4142157 L146.419,22.272 L144.51436,22.2720588 L146.848,21.605 L147.373368,20.5588235 L148.516971,19.9877451 L150.232376,19.9877451 L150.804178,18.8455882 L154.234987,17.7034314 L156.522,17.322 L157.665796,16.5612745 L155.950392,15.9901961 L153.281,16.751 L155.186,15.8 L154.234987,15.9901961 L154.806789,15.4191176 L158.237598,14.2769608 L159.953003,13.7058824 L162.240209,13.7058824 L161.668407,14.8480392 L163.383812,13.7058824 L163.955614,13.7058824 L165.671018,11.9926471 L167.386423,11.9926471 L167.539,12.145 L178.06,8.755 L178.250653,8.56617647 L179.966057,7.99509804 L180.537859,7.42401961 L182.193,7.424 L183.968668,6.85294118 L189.686684,6.85294118 L207.984334,1.14215686 L230.856397,0 L253.72846,1.14215686 L276.028721,5.13970588 L282.318538,6.85294118 L281.746736,8.56617647 L280.031332,9.1372549 L280.603133,10.8504902 L284.033943,11.9926471 L286.321149,13.7058824 L287.464752,15.4191176 L289.751958,17.7034314 L292.039164,19.4166667 L294.326371,19.9877451 L293.754569,22.2720588 L298.328982,25.127451 L301.759791,25.6985294 L298.900783,25.6985294 L298.900783,28.5539216 L301.759791,29.6960784 L297.185379,27.9828431 L294.898172,27.4117647 L297.75718,28.5539216 L299.472585,30.8382353 L302.903394,31.4093137 L306.334204,33.6936275 L308.62141,34.8357843 L311.480418,35.9779412 L313.767624,36.5490196 L314.911227,38.2622549 L316.626632,39.4044118 L317.770235,41.6887255 L312.624021,38.2622549 L310.336815,36.5490196 L307.477807,35.9779412 L302.903394,33.122549 L300.044386,31.9803922 L296.613577,30.2671569 L294.326371,29.125 L292.039164,29.6960784 L295.469974,31.9803922 L297.75718,34.8357843 L301.759791,36.5490196 L302.903394,37.6911765 L304.618799,37.6911765 L306.906005,38.2622549 L308.049608,39.9754902 L302.331593,38.8333333 L300.616188,38.8333333 L297.185379,39.4044118 L300.616188,41.1176471 L301.759791,43.4019608 L298.900783,42.8308824 L298.900783,44.5441176 L297.185379,45.6862745 L296.041775,47.3995098 L295.469974,45.6862745 L293.754569,49.6838235 L292.610966,51.9681373 L293.754569,53.6813725 L292.610966,54.8235294 L290.895561,54.252451 L289.751958,52.5392157 L290.895561,51.3970588 L288.036554,50.254902 L284.033943,50.254902 L286.321149,51.3970588 L286.89295,53.1102941 L289.180157,54.252451 L290.32376,56.5367647 L288.608355,55.9656863 L286.321149,59.3921569 L288.608355,61.1053922 L283.462141,61.6764706 L285.177546,63.9607843 L285.749347,65.6740196 L284.033943,65.1029412 L282.318538,65.6740196 L280.031332,62.8186275 L278.887728,61.6764706 L275.456919,59.9632353 L283.462141,59.9632353 L285.177546,58.8210784 L285.177546,57.1078431 L283.462141,55.3946078 L282.318538,53.1102941 L275.456919,51.3970588 L271.454308,51.3970588 L268.5953,50.254902 L265.164491,50.254902 L266.308094,49.1127451 L261.16188,47.9705882 L259.446475,49.1127451 L257.159269,49.1127451 L256.587467,51.9681373 L254.300261,51.9681373 L252.013055,53.6813725 L249.154047,57.6789216 L247.438642,59.9632353 L245.151436,66.245098 L242.292428,70.8137255 L239.43342,74.2401961 L234.859008,77.0955882 L233.143603,79.379902 L233.715405,87.375 L234.287206,90.8014706 L237.146214,92.5147059 L240.005222,91.372549 L243.436031,87.375 L245.151436,89.6593137 L247.438642,94.2279412 L249.725849,98.2254902 L250.869452,101.651961 L253.72846,101.080882 L254.300261,98.2254902 L257.159269,98.2254902 L257.73107,94.7990196 L257.159269,89.0882353 L258.874674,87.9460784 L259.446475,83.9485294 L257.159269,82.2352941 L255.443864,79.9509804 L255.443864,75.3823529 L258.302872,72.5269608 L260.018277,69.6715686 L259.446475,67.3872549 L260.018277,65.1029412 L262.305483,63.9607843 L265.164491,65.1029412 L265.736292,67.3872549 L263.449086,71.3848039 L262.305483,73.0980392 L262.305483,74.8112745 L264.020888,77.6666667 L264.592689,81.0931373 L266.879896,81.6642157 L268.5953,83.377451 L271.454308,82.2352941 L274.313316,80.5220588 L277.744125,79.9509804 L280.603133,81.0931373 L279.45953,83.377451 L276.600522,83.9485294 L274.313316,83.9485294 L272.02611,84.5196078 L269.738903,85.6617647 L270.310705,87.375 L272.02611,88.5171569 L273.169713,90.2303922 L273.741514,93.0857843 L272.02611,93.6568627 L269.738903,91.372549 L268.023499,93.0857843 L267.451697,95.370098 L268.023499,98.2254902 L269.167102,101.080882 L267.451697,101.651961 L267.451697,103.365196 L265.164491,103.365196 L262.305483,102.223039 L259.446475,103.936275 L256.015666,105.64951 L254.872063,107.362745 L253.72846,106.220588 L250.869452,105.078431 L249.725849,106.220588 L247.438642,106.791667 L245.151436,105.078431 L243.844,102.466 L243.436031,104.507353 L240.894,102.984 L241.148825,103.365196 L241.148825,105.64951 L240.005222,108.504902 L237.718016,107.933824 L235.430809,108.504902 L232,110.218137 L229.712794,115.928922 L228.569191,117.071078 L226.281984,117.642157 L223.994778,121.068627 L217.704961,124.495098 L215.417755,122.781863 L215.989556,127.35049 L211.415144,126.208333 L207.984334,126.208333 L207.984334,129.063725 L211.986945,130.776961 L213.70235,133.061275 L215.989556,137.058824 L214.845953,145.053922 L213.70235,147.338235 L209.127937,146.767157 L206.840731,146.767157 L203.981723,145.625 L199.979112,145.625 L196.548303,145.053922 L191.97389,147.338235 L193.117493,149.051471 L192.545692,151.906863 L193.117493,154.762255 L193.117493,156.47549 L191.402089,158.759804 L190.830287,160.473039 L189.686684,161.615196 L188.543081,164.470588 L189.114883,166.183824 L190.258486,169.039216 L189.114883,172.465686 L190.830287,171.894608 L192.545692,172.465686 L193.689295,171.323529 L196.548303,172.465686 L197.120104,174.75 L198.263708,176.463235 L199.979112,177.034314 L201.122715,175.321078 L203.409922,174.178922 L210.27154,174.178922 L212.558747,171.323529 L214.845953,170.752451 L215.417755,167.897059 L217.133159,166.183824 L215.989556,163.89951 L217.133159,160.473039 L218.848564,158.188725 L223.422977,156.47549 L226.281984,153.620098 L226.281984,151.335784 L226.853786,149.051471 L230.856397,147.909314 L236.574413,149.051471 L238.861619,146.767157 L241.720627,144.482843 L245.151436,145.053922 L246.866841,145.625 L248.010444,149.622549 L250.29765,151.906863 L253.156658,154.191176 L255.443864,155.904412 L257.73107,155.904412 L259.446475,157.617647 L261.733681,158.188725 L262.877285,159.901961 L265.164491,162.186275 L266.879896,164.470588 L265.736292,167.897059 L268.023499,165.041667 L269.167102,162.186275 L266.879896,161.044118 L268.023499,158.188725 L270.882507,158.759804 L272.597911,160.473039 L273.169713,158.759804 L269.738903,156.47549 L267.451697,155.333333 L264.592689,154.191176 L264.592689,152.477941 L262.305483,152.477941 L258.874674,149.622549 L257.159269,146.196078 L254.300261,144.482843 L253.156658,142.769608 L252.584856,139.914216 L254.872063,138.20098 L257.159269,138.772059 L256.587467,140.485294 L257.73107,141.627451 L258.302872,139.914216 L260.018277,140.485294 L261.733681,143.340686 L264.020888,146.767157 L266.879896,147.909314 L268.5953,149.051471 L271.454308,150.193627 L273.741514,151.906863 L274.885117,153.620098 L274.885117,156.47549 L275.456919,158.188725 L277.172324,159.330882 L278.315927,161.615196 L280.031332,163.89951 L281.746736,165.612745 L282.890339,168.468137 L284.605744,171.323529 L287.464752,173.036765 L289.751958,172.465686 L288.036554,169.039216 L289.751958,168.468137 L288.608355,166.754902 L291.467363,167.32598 L292.610966,164.470588 L290.895561,163.328431 L288.608355,161.615196 L289.751958,160.473039 L288.036554,158.759804 L286.89295,156.47549 L289.180157,157.046569 L290.895561,157.046569 L292.039164,155.904412 L289.751958,154.191176 L293.182768,152.477941 L296.613577,152.477941 L297.75718,154.762255 L299.472585,153.04902 L300.616188,151.335784 L304.046997,150.764706 L301.18799,149.051471 L300.616188,147.338235 L298.900783,145.053922 L298.900783,142.198529 L300.044386,140.485294 L299.472585,135.345588 L301.759791,134.203431 L302.331593,129.634804 L302.331593,127.35049 L304.618799,126.208333 L309.193211,127.35049 L308.62141,129.634804 L311.480418,130.776961 L311.480418,132.490196 L313.195822,133.061275 L315.483029,130.205882 L317.770235,129.063725 L317.770235,127.35049 L315.483029,128.492647 L313.767624,127.921569 L312.624021,125.637255 L314.339426,123.92402 L316.626632,124.495098 L317.770235,122.781863 L319.48564,122.210784 L321.201044,121.068627 L318.913838,123.92402 L320.629243,125.066176 L320.057441,128.492647 L318.342037,129.634804 L321.201044,131.348039 L324.631854,131.919118 L329.206266,134.203431 L330.349869,135.345588 L332.065274,135.345588 L333.780679,136.487745 L335.496084,138.772059 L336.067885,140.485294 L333.780679,143.340686 L331.493473,143.911765 L328.634465,145.625 L324.631854,145.053922 L318.913838,143.340686 L314.911227,144.482843 L312.052219,146.196078 L309.765013,149.622549 L304.618799,150.193627 L304.618799,153.04902 L300.616188,154.191176 L298.328982,158.759804 L300.616188,160.473039 L299.472585,163.328431 L302.331593,165.041667 L305.190601,169.039216 L308.62141,168.468137 L312.052219,170.181373 L313.767624,169.039216 L313.767624,167.32598 L316.626632,166.754902 L319.48564,168.468137 L323.488251,166.754902 L324.631854,163.89951 L327.490862,164.470588 L329.206266,163.89951 L328.634465,165.612745 L330.349869,167.32598 L330.349869,169.039216 L331.493473,171.894608 L330.921671,175.321078 L330.921671,185.60049 L330.349869,187.313725 L329.206266,188.455882 L326.91906,189.026961 L324.060052,188.455882 L323.488251,190.169118 L322.344648,187.884804 L320.057441,187.884804 L317.198433,189.026961 L316.05483,190.740196 L313.767624,192.453431 L312.052219,191.882353 L305.190601,190.740196 L301.18799,191.311275 L300.044386,190.169118 L296.613577,190.169118 L294.326371,189.598039 L293.754569,187.884804 L289.180157,187.884804 L286.89295,188.455882 L284.605744,190.740196 L284.033943,193.02451 L285.177546,195.879902 L284.033943,198.164216 L282.318538,199.306373 L278.315927,197.593137 L273.169713,196.45098 L270.882507,195.879902 L269.167102,192.453431 L264.592689,190.740196 L261.733681,190.169118 L256.587467,189.598039 L253.72846,186.742647 L252.013055,186.742647 L251.441253,184.458333 L253.72846,182.17402 L253.72846,178.747549 L252.584856,177.605392 L252.584856,175.892157 L254.300261,173.607843 L250.869452,174.75 L250.869452,172.465686 L248.582245,171.894608 L245.151436,173.607843 L242.86423,174.178922 L241.720627,173.036765 L238.289817,173.036765 L235.430809,174.75 L233.715405,174.178922 L228.569191,174.75 L222.851175,175.321078 L219.420366,176.463235 L217.133159,178.176471 L213.70235,178.747549 L210.27154,181.031863 L205.697128,179.889706 L202.83812,179.889706 L201.122715,178.176471 L198.835509,178.176471 L197.691906,180.460784 L194.832898,184.458333 L191.97389,186.171569 L188.543081,187.313725 L186.255875,190.169118 L185.684073,192.453431 L183.968668,195.879902 L183.968668,201.019608 L180.537859,204.446078 L178.822454,205.588235 L175.963446,208.443627 L172.532637,208.443627 L170.817232,209.585784 L167.958225,213.583333 L165.671018,214.72549 L163.955614,217.009804 L163.383812,219.294118 L162.240209,221.578431 L158.809399,224.433824 L157.093995,227.289216 L157.093995,229.002451 L155.950392,231.286765 L154.234987,232.428922 L153.663185,234.142157 L153.091384,235.855392 L154.806789,238.139706 L155.37859,240.42402 L154.806789,242.708333 L154.806789,248.990196 L154.234987,252.987745 L153.091384,254.70098 L153.091384,256.985294 L151.947781,259.269608 L149.660574,262.125 L151.375979,266.693627 L150.804178,268.977941 L151.375979,272.404412 L152.519582,274.688725 L153.091384,276.401961 L154.806789,276.973039 L156.522193,278.686275 L158.237598,280.39951 L158.809399,282.112745 L159.953003,283.254902 L162.240209,285.539216 L163.955614,288.394608 L164.527415,291.25 L165.099217,292.963235 L166.814621,295.247549 L169.673629,296.960784 L173.104439,300.387255 L176.535248,303.242647 L179.966057,306.669118 L183.968668,308.953431 L185.684073,308.953431 L189.686684,307.811275 L192.545692,306.669118 L197.120104,306.098039 L199.407311,306.098039 L202.266319,307.240196 L203.981723,307.240196 L207.412533,308.382353 L210.843342,307.240196 L213.130548,306.098039 L219.420366,303.813725 L222.851175,303.242647 L226.281984,302.671569 L232.571802,302.671569 L235.430809,305.526961 L236.574413,308.382353 L238.861619,310.666667 L242.292428,310.666667 L244.007833,309.52451 L245.723238,309.52451 L249.725849,307.811275 L250.869452,309.52451 L251.441253,311.237745 L253.156658,311.808824 L254.872063,314.664216 L253.72846,319.232843 L252.584856,323.801471 L252.584856,327.227941 L250.869452,330.083333 L249.725849,331.22549 L252.013055,336.365196 L254.872063,339.220588 L258.874674,342.647059 L262.305483,346.644608 L263.449086,349.5 L263.449086,351.213235 L265.164491,353.497549 L265.736292,355.781863 L266.879896,359.208333 L265.736292,360.921569 L266.879896,363.776961 L268.023499,366.061275 L269.167102,367.203431 L269.167102,368.916667 L268.5953,371.772059 L267.451697,373.485294 L265.164491,376.340686 L264.020888,378.053922 L262.877285,381.480392 L262.877285,383.193627 L261.16188,386.620098 L260.590078,389.47549 L260.590078,394.044118 L263.449086,396.89951 L264.020888,398.612745 L265.736292,402.039216 L267.451697,404.323529 L268.5953,405.465686 L269.167102,407.178922 L269.167102,410.605392 L269.738903,415.17402 L270.310705,416.887255 L270.882507,419.742647 L272.02611,421.455882 L274.313316,423.169118 L276.028721,426.595588 L277.172324,428.879902 L278.887728,431.164216 L278.315927,432.877451 L277.744125,435.161765 L277.172324,436.875 L279.45953,437.446078 L282.318538,438.017157 L284.605744,436.875 L287.464752,436.303922 L290.895561,435.161765 L293.754569,434.590686 L297.185379,434.590686 L298.900783,434.019608 L300.616188,434.019608 L302.903394,432.877451 L306.334204,431.164216 L309.193211,429.45098 L312.052219,427.737745 L316.626632,424.311275 L318.913838,422.026961 L320.057441,420.313725 L321.772846,418.60049 L325.203655,416.316176 L326.347258,415.17402 L327.490862,412.889706 L329.206266,410.605392 L329.778068,408.892157 L330.921671,406.607843 L334.924282,404.323529 L337.78329,402.610294 L339.498695,401.468137 L339.498695,399.754902 L340.642298,398.041667 L341.785901,395.186275 L341.214099,392.901961 L340.070496,390.617647 L340.642298,388.333333 L342.357702,387.191176 L345.21671,384.335784 L346.360313,383.193627 L350.934726,378.625 L354.937337,375.769608 L357.796345,373.485294 L360.083551,370.629902 L361.798956,367.77451 L362.942559,364.919118 L362.942559,363.205882 L363.51436,357.495098 L363.51436,354.639706 L364.086162,351.213235 L363.51436,349.5 L361.227154,345.502451 L362.370757,343.218137 L362.370757,341.504902 L363.51436,338.078431 L361.798956,336.365196 L361.798956,334.080882 L363.51436,328.941176 L364.657963,327.227941 L365.229765,324.372549 L366.373368,322.659314 L366.94517,319.803922 L368.660574,317.519608 L370.947781,315.235294 L372.091384,311.808824 L375.522193,306.098039 L378.381201,302.10049 L382.955614,296.389706 L385.814621,291.821078 L389.245431,284.968137 L391.532637,279.257353 L393.248042,272.404412 L394.391645,266.693627 L394.963446,261.553922 L394.963446,256.985294 L395.535248,255.272059 L394.963446,252.987745 L394.963446,250.703431 L393.819843,251.845588 L392.67624,252.987745 L391.532637,254.129902 L388.673629,255.272059 L387.530026,256.414216 L384.099217,259.269608 L381.240209,261.553922 L378.381201,263.838235 L376.665796,264.409314 L374.950392,263.267157 L374.37859,261.553922 L371.519582,260.411765 L373.234987,258.698529 L373.234987,256.985294 L370.947781,255.272059 L369.804178,254.129902 L367.516971,252.416667 L365.801567,250.132353 L361.227154,247.276961 L358.939948,245.563725 L357.224543,242.137255 L354.365535,237.568627 L352.650131,236.426471 L349.219321,231.286765 L348.075718,227.289216 L346.932115,222.14951 L341.785901,218.723039 L341.214099,215.867647 L337.78329,210.727941 L336.067885,210.156863 L334.35248,208.443627 L330.349869,202.732843 L328.062663,198.164216 L325.775457,194.166667 L329.206266,199.306373 L330.921671,201.019608 L332.065274,202.161765 L333.780679,198.735294 L333.780679,195.308824 L334.35248,193.595588 L334.35248,199.877451 L336.067885,199.306373 L338.355091,201.590686 L341.214099,204.446078 L342.929504,207.301471 L345.21671,210.156863 L346.932115,213.583333 L348.64752,214.154412 L350.362924,215.296569 L353.221932,219.294118 L353.793734,221.578431 L354.937337,224.433824 L357.796345,227.860294 L359.511749,227.860294 L362.370757,230.144608 L364.086162,233 L366.373368,235.855392 L368.088773,236.997549 L368.660574,238.710784 L369.804178,239.852941 L370.375979,241.566176 L370.947781,243.279412 L371.519582,246.134804 L372.091384,247.848039 L373.234987,250.703431 L373.806789,254.129902 L373.806789,255.843137 L376.093995,255.272059 L377.237598,254.129902 L378.953003,253.558824 L380.096606,251.845588 L381.240209,250.132353 L383.527415,248.990196 L385.24282,247.276961 L386.386423,244.992647 L388.673629,244.421569 L390.389034,240.42402 L394.391645,236.426471 L396.678851,233.571078 L396.678851,230.144608 L398.394256,228.431373 L400.681462,225.57598 L402.396867,225.004902 L403.54047,223.291667 L402.396867,221.578431 L402.968668,219.865196 L404.684073,219.294118 L405.255875,215.867647 L406.399478,213.583333 L407.543081,212.441176 L405.827676,210.156863 L405.827676,207.872549 L406.971279,206.159314 L406.971279,202.732843 L407.543081,201.019608 L407.543081,197.022059 L406.399478,195.879902 L405.255875,194.737745 L403.54047,193.02451 L401.825065,193.02451 L400.109661,193.595588 L398.394256,193.02451 L396.678851,190.740196 L395.535248,187.884804 L394.963446,185.029412 L394.391645,186.742647 L393.819843,190.169118 L393.248042,193.595588 L392.67624,197.022059 L390.960836,197.593137 L388.673629,198.735294 L386.958225,200.448529 L386.386423,198.735294 L385.24282,195.308824 L384.099217,193.02451 L382.955614,191.882353 L382.383812,195.308824 L383.527415,198.164216 L382.383812,196.45098 L380.668407,194.737745 L380.668407,193.02451 L379.524804,191.311275 L377.237598,190.169118 L376.093995,189.026961 L374.37859,188.455882 L372.091384,185.60049 L370.375979,182.745098 L369.232376,179.889706 L370.947781,179.318627 L371.519582,177.605392 L373.806789,178.176471 L374.950392,177.034314 L378.381201,181.602941 L381.240209,184.458333 L384.099217,184.458333 L387.530026,186.171569 L390.960836,186.171569 L392.67624,183.316176 L394.391645,181.602941 L398.394256,186.171569 L401.253264,185.029412 L404.112272,184.458333 L408.114883,183.316176 L410.402089,181.031863 L413.261097,178.747549 L416.120104,175.321078 L418.407311,177.034314 L420.122715,179.318627 L421.83812,179.318627 L424.697128,181.031863 L425.840731,182.17402 L425.840731,184.458333 L429.27154,187.313725 L431.558747,182.17402 L433.274151,185.60049 L434.989556,190.169118 L436.704961,194.737745 L439.563969,201.590686 L442.422977,205.588235 L442.994778,207.872549 L444.138381,212.441176 L445.853786,215.296569 L447.569191,219.865196 L449.284595,224.433824 L451,226.718137 L451,231.286765 L448.712794,257.556373 L445.281984,281.541667 L439.563969,304.955882 L431.558747,327.79902 L421.266319,349.5 L408.114883,370.058824 L393.819843,388.904412 L377.809399,406.036765 L359.511749,421.455882 L340.070496,434.590686 L319.48564,445.441176 L298.328982,454.007353 L276.028721,460.289216 L253.72846,464.857843 L230.856397,466 L207.984334,464.857843 L185.684073,460.860294 L163.383812,454.578431 L142.227154,446.012255 L121.642298,435.161765 L102.201044,421.455882 L84.4751958,406.036765 L69.0365535,390.046569 L67.8929504,387.191176 L66.7493473,385.477941 L66.1775457,383.193627 L66.7493473,380.909314 L68.464752,379.767157 L70.7519582,380.338235 L75.3263708,380.338235 L78.1853786,381.480392 L78.1853786,379.767157 L79.9007833,379.196078 L79.3289817,375.769608 L81.0443864,372.343137 L80.4725849,368.345588 L81.0443864,364.919118 L80.4725849,359.779412 L78.7571802,352.926471 L79.3289817,350.642157 L81.616188,348.357843 L82.7597911,344.931373 L86.1906005,341.504902 L87.3342037,339.791667 L87.9060052,334.080882 L87.3342037,331.796569 L86.1906005,326.656863 L85.0469974,324.943627 L82.1879896,323.801471 L79.9007833,322.088235 L75.8981723,316.377451 L70.7519582,312.95098 L66.7493473,311.237745 L61.0313316,306.669118 L58.1723238,306.669118 L58.7441253,304.955882 L57.6005222,302.10049 L53.0261097,297.531863 L49.5953003,294.676471 L47.8798956,295.818627 L47.8798956,291.821078 L43.8772846,288.965686 L43.305483,287.252451 L45.0208877,284.968137 L45.0208877,282.112745 L43.8772846,280.970588 L42.1618799,272.97549 L41.5900783,270.691176 L41.0182768,268.977941 L38.7310705,264.409314 L37.0156658,261.553922 L34.156658,258.127451 L32.4412533,256.985294 L30.154047,255.272059 L29.5822454,253.558824 L29.0104439,250.703431 L27.8668407,247.848039 L27.2950392,244.421569 L26.151436,242.137255 L25.5796345,240.42402 L25.0078329,236.426471 L23.8642298,233.571078 L22.7206266,231.857843 L22.7206266,229.573529 L24.4360313,229.573529 L22.7206266,227.860294 L21.0052219,226.147059 L19.2898172,227.289216 L18.1462141,225.57598 L17.5744125,222.720588 L15.8590078,221.578431 L14.7154047,219.865196 L14.7154047,215.867647 L14.1436031,211.29902 L13.5718016,214.154412 L13,210.156863 L13,208.443627 L16.4308094,184.458333 L17.002611,182.17402 L18.1462141,183.887255 L18.7180157,185.60049 L18.1462141,187.884804 L19.2898172,185.60049 L20.4334204,187.313725 L22.1488251,187.884804 L22.1488251,189.598039 L23.2924282,188.455882 L23.2924282,184.458333 L22.7206266,182.17402 L22.1488251,179.889706 L20.4334204,177.605392 L19.2898172,176.463235 L19.2898172,178.747549 L18.7180157,180.460784 L18.7180157,182.745098 L17.5744125,181.602941 L22.7206266,161.615196 L30.7258486,138.772059 L40.4464752,119.355392 L43.305483,118.213235 L46.7362924,117.071078 L49.0234987,113.644608 L49.5953003,111.931373 L51.8825065,108.504902 L52.4543081,106.791667 L54.1697128,105.64951 L55.3133159,104.507353 L53.5979112,107.362745 L54.7415144,106.220588 L56.4569191,102.794118 L55.8851175,104.507353 L57.6005222,103.936275 L59.3159269,101.651961 L60.45953,100.509804 L60.45953,102.223039 Z M446.425587,193.02451 L446.997389,197.022059 L446.997389,197.593137 L446.425587,193.02451 Z M349.219321,111.931373 L350.934726,114.215686 L352.650131,117.642157 L350.934726,117.642157 L350.362924,118.784314 L352.078329,121.639706 L349.791123,122.210784 L350.362924,123.352941 L352.078329,123.92402 L354.937337,126.779412 L357.796345,126.779412 L358.939948,127.921569 L359.511749,129.634804 L360.083551,130.205882 L361.798956,132.490196 L360.655352,129.634804 L361.798956,127.921569 L363.51436,129.634804 L366.373368,131.348039 L365.229765,133.632353 L362.942559,133.632353 L364.086162,137.058824 L365.801567,136.487745 L366.373368,139.343137 L368.660574,139.914216 L370.375979,143.911765 L372.091384,146.196078 L371.519582,146.767157 L368.660574,149.622549 L365.229765,150.193627 L362.942559,149.051471 L360.655352,149.051471 L358.939948,146.767157 L357.796345,145.053922 L358.368146,143.911765 L358.368146,142.198529 L356.652742,138.772059 L358.368146,137.629902 L357.224543,137.058824 L356.08094,137.058824 L353.793734,134.77451 L351.506527,133.061275 L346.932115,130.205882 L345.788512,127.921569 L341.785901,125.066176 L341.785901,120.497549 L343.501305,119.355392 L342.929504,117.071078 L344.073107,115.357843 L345.21671,113.073529 L347.503916,113.073529 L349.219321,111.931373 Z M53.5979112,107.362745 L53.0261097,109.07598 L51.310705,110.789216 L53.5979112,109.07598 L53.5979112,107.362745 Z M244.579634,93.6568627 L242.86423,94.7990196 L240.577023,95.9411765 L239.43342,98.2254902 L240.005222,101.651961 L243.436031,99.9387255 L243.748,100.873 L244.579634,98.7965686 L244.007833,96.5122549 L244.579634,93.6568627 Z M87.9060052,84.5196078 L86.801,84.677 L87.3342037,86.8039216 L87.334,88.631 L89.0496084,87.9460784 L89.6214099,85.6617647 L87.9060052,84.5196078 Z M150.232376,18.2745098 L147.94517,19.4166667 L144.51436,20.5588235 L147.94517,18.8455882 L150.232376,18.2745098 Z M153.281,16.751 L150.232376,18.2745098 L151.947781,17.1323529 L153.281,16.751 Z M172.532637,9.1372549 L171.960836,9.70833333 L173.104439,9.70833333 L172.532637,10.2794118 L173.104439,10.2794118 L170.817232,10.8504902 L169.101828,11.4215686 L166.24282,11.4215686 L166.24282,10.8504902 L167.386423,10.2794118 L169.101828,10.2794118 L169.673629,9.70833333 L172.532637,9.1372549 Z M290.32376,8.56617647 L291.467363,9.1372549 L289.751958,8.56617647 L290.32376,8.56617647 Z" id="Combined-Shape" stroke="#00413C" stroke-width="0.25" fill-rule="nonzero"></path>
        </g>
    </g>
</svg>