<svg width="814" height="385" viewBox="0 0 814 385" fill="none" xmlns="http://www.w3.org/2000/svg">
<g clip-path="url(#clip0)">
<path d="M10 205H75.8357C86.3291 205 94.8357 196.493 94.8357 186V142C94.8357 131.507 103.342 123 113.836 123L144.66 123H705" stroke="url(#paint0_linear)"/>
<path d="M157 123H235.413V123C247.011 123 256.513 132.402 256.513 144V144C256.513 155.598 265.915 165 277.513 165H315.547C327.145 165 336.547 155.598 336.547 144V144C336.547 132.402 345.949 123 357.547 123H386.123C397.721 123 407.123 132.402 407.123 144V144C407.123 155.598 416.525 165 428.123 165H565.11C576.708 165 586.11 155.598 586.11 144V144C586.11 132.402 595.512 123 607.11 123H682" stroke="#0BBFB0"/>
<path d="M9 215C14.5228 215 19 210.523 19 205C19 199.477 14.5228 195 9 195C3.47715 195 -1 199.477 -1 205C-1 210.523 3.47715 215 9 215Z" fill="#5263FF" stroke="white" stroke-width="2"/>
<path d="M234 133C239.523 133 244 128.523 244 123C244 117.477 239.523 113 234 113C228.477 113 224 117.477 224 123C224 128.523 228.477 133 234 133Z" fill="#0BBFB0" stroke="white" stroke-width="2"/>
<path d="M291 175C296.523 175 301 170.523 301 165C301 159.477 296.523 155 291 155C285.477 155 281 159.477 281 165C281 170.523 285.477 175 291 175Z" fill="#0BBFB0" stroke="white" stroke-width="2"/>
<path d="M365 133C370.523 133 375 128.523 375 123C375 117.477 370.523 113 365 113C359.477 113 355 117.477 355 123C355 128.523 359.477 133 365 133Z" fill="#0BBFB0" stroke="white" stroke-width="2"/>
<path d="M455 175C460.523 175 465 170.523 465 165C465 159.477 460.523 155 455 155C449.477 155 445 159.477 445 165C445 170.523 449.477 175 455 175Z" fill="#0BBFB0" stroke="white" stroke-width="2"/>
<path d="M528 175C533.523 175 538 170.523 538 165C538 159.477 533.523 155 528 155C522.477 155 518 159.477 518 165C518 170.523 522.477 175 528 175Z" fill="#0BBFB0" stroke="white" stroke-width="2"/>
<path d="M484 207C487.866 207 491 203.866 491 200C491 196.134 487.866 193 484 193C480.134 193 477 196.134 477 200C477 203.866 480.134 207 484 207Z" fill="#0BBFB0" stroke="white" stroke-width="2"/>
<path d="M698 133C703.523 133 708 128.523 708 123C708 117.477 703.523 113 698 113C692.477 113 688 117.477 688 123C688 128.523 692.477 133 698 133Z" fill="#0BBFB0" stroke="white" stroke-width="2"/>
<path d="M20.9709 184L14.0611 177.09L16.8131 174.338C17.4335 173.717 18.0869 173.42 18.7732 173.447C19.4596 173.46 20.1096 173.773 20.7234 174.387C21.3372 175.001 21.654 175.654 21.6738 176.347C21.6936 177.027 21.3933 177.677 20.7729 178.297L18.8524 180.218L21.8025 183.168L20.9709 184ZM18.1199 179.485L20.0404 177.565C20.3703 177.235 20.5386 176.895 20.5452 176.545C20.5584 176.189 20.4066 175.852 20.0898 175.536L19.5751 175.021C19.2583 174.704 18.9217 174.552 18.5653 174.565C18.2155 174.572 17.8757 174.74 17.5457 175.07L15.6252 176.991L18.1199 179.485ZM28.3562 176.614L27.5246 177.446L20.6148 170.536L23.3668 167.784C23.974 167.177 24.6142 166.873 25.2873 166.873C25.9671 166.867 26.6238 167.18 27.2573 167.814C27.7655 168.322 28.0658 168.86 28.1582 169.427C28.2506 169.982 28.1219 170.539 27.7721 171.1L32.4051 172.565L31.4646 173.506L27 172.031L25.3863 173.644L28.3562 176.614ZM26.5941 171.011C26.9241 170.681 27.0923 170.341 27.0989 169.992C27.1121 169.635 26.9604 169.299 26.6436 168.982L26.1288 168.467C25.812 168.15 25.4754 167.998 25.119 168.012C24.7693 168.018 24.4294 168.187 24.0994 168.517L22.1789 170.437L24.6736 172.932L26.5941 171.011ZM34.0804 170.89L33.3874 170.197L34.3575 169.227L28.8336 163.703L27.8635 164.673L27.1705 163.98L29.9424 161.208L30.6353 161.901L29.6652 162.872L35.1891 168.395L36.1592 167.425L36.8522 168.118L34.0804 170.89ZM38.4853 154.843L38.4358 154.893L39.01 156.635L40.3662 161.298L35.7036 159.942L33.9613 159.367L33.9118 159.417L39.7327 165.238L38.9209 166.05L32.0111 159.14L33.1198 158.031L38.8219 159.773L38.8714 159.724L37.139 154.012L38.2082 152.943L45.118 159.852L44.3062 160.664L38.4853 154.843ZM47.5048 157.466L40.595 150.556L44.8121 146.339L45.5447 147.071L42.1591 150.457L44.4756 152.773L47.6632 149.586L48.3958 150.318L45.2081 153.506L47.6038 155.902L50.9894 152.516L51.722 153.249L47.5048 157.466ZM54.6581 150.312L53.8265 151.144L46.9167 144.234L49.6687 141.482C50.2759 140.875 50.9161 140.571 51.5892 140.571C52.269 140.565 52.9257 140.878 53.5592 141.512C54.0674 142.02 54.3677 142.558 54.4601 143.125C54.5525 143.68 54.4238 144.237 54.074 144.798L58.707 146.264L57.7665 147.204L53.3018 145.729L51.6882 147.343L54.6581 150.312ZM52.896 144.709C53.2259 144.379 53.3942 144.039 53.4008 143.69C53.414 143.333 53.2622 142.997 52.9455 142.68L52.4307 142.165C52.1139 141.848 51.7773 141.697 51.4209 141.71C51.0711 141.716 50.7313 141.885 50.4013 142.215L48.4808 144.135L50.9755 146.63L52.896 144.709Z" fill="#5263FF"/>
<path d="M238.727 101.403L241.568 98.5623C242.142 97.9881 242.752 97.7011 243.399 97.7011C244.052 97.6945 244.65 97.9617 245.191 98.5029C245.448 98.7603 245.63 99.0144 245.735 99.2652C245.841 99.516 245.897 99.7569 245.904 99.9878C245.904 100.212 245.867 100.42 245.795 100.612C245.716 100.796 245.63 100.955 245.537 101.087L245.597 101.146C245.729 101.027 245.9 100.922 246.112 100.829C246.329 100.73 246.574 100.678 246.844 100.671C247.108 100.658 247.389 100.707 247.686 100.819C247.983 100.918 248.273 101.11 248.557 101.394C248.841 101.677 249.058 101.988 249.21 102.324C249.368 102.654 249.458 102.987 249.477 103.324C249.497 103.661 249.451 103.991 249.339 104.314C249.22 104.631 249.032 104.918 248.775 105.175L245.636 108.313L238.727 101.403ZM245.735 106.749L247.785 104.7C248.141 104.344 248.332 103.974 248.359 103.591C248.379 103.202 248.214 102.832 247.864 102.483L247.527 102.146C247.177 101.796 246.811 101.634 246.428 101.661C246.039 101.681 245.666 101.869 245.31 102.225L243.26 104.274L245.735 106.749ZM242.548 103.562L244.458 101.651C244.788 101.321 244.963 100.981 244.983 100.631C245.003 100.282 244.858 99.9515 244.547 99.6414L244.211 99.3048C243.901 98.9946 243.571 98.8494 243.221 98.8692C242.871 98.889 242.531 99.0639 242.201 99.3939L240.291 101.304L242.548 103.562ZM246.526 93.6036L250.803 97.8802C251.463 98.5402 252.087 98.9197 252.674 99.0187C253.255 99.1111 253.852 98.8504 254.466 98.2366C255.08 97.6228 255.34 97.0256 255.248 96.4448C255.149 95.8574 254.769 95.2338 254.109 94.5738L249.833 90.2972L250.664 89.4657L254.743 93.5443C255.244 94.0458 255.634 94.5276 255.911 94.9896C256.195 95.445 256.36 95.8937 256.406 96.3359C256.452 96.7781 256.373 97.2203 256.168 97.6624C255.97 98.098 255.64 98.5468 255.179 99.0088C254.717 99.4707 254.268 99.8007 253.832 99.9987C253.403 100.19 252.971 100.259 252.535 100.207C252.1 100.154 251.654 99.9855 251.199 99.7017C250.75 99.4114 250.275 99.0154 249.773 98.5138L245.695 94.4352L246.526 93.6036ZM253.004 87.1263L255.32 84.8098C255.749 84.3808 256.211 84.064 256.706 83.8594C257.201 83.6548 257.716 83.5756 258.25 83.6218C258.785 83.6548 259.336 83.8231 259.904 84.1267C260.465 84.4237 261.032 84.8593 261.606 85.4334C262.181 86.0076 262.619 86.5785 262.923 87.1461C263.22 87.707 263.388 88.2581 263.428 88.7993C263.467 89.3273 263.385 89.8387 263.18 90.3337C262.976 90.8287 262.659 91.2907 262.23 91.7196L259.914 94.0361L253.004 87.1263ZM261.497 90.9871C261.781 90.7033 261.996 90.3964 262.141 90.0664C262.28 89.7298 262.342 89.3833 262.329 89.027C262.316 88.6706 262.223 88.3142 262.052 87.9578C261.88 87.5882 261.623 87.2319 261.28 86.8887L260.151 85.7601C259.808 85.417 259.455 85.1629 259.092 84.9979C258.729 84.8197 258.369 84.724 258.013 84.7108C257.656 84.6976 257.313 84.7636 256.983 84.9088C256.647 85.0474 256.337 85.2586 256.053 85.5423L254.568 87.0273L260.013 92.472L261.497 90.9871ZM270.57 81.36L270.54 81.3897C270.778 81.7989 270.837 82.2807 270.719 82.835C270.6 83.3762 270.276 83.9108 269.749 84.4388C269.326 84.8611 268.861 85.1746 268.353 85.3792C267.845 85.5706 267.317 85.6432 266.769 85.597C266.214 85.5442 265.644 85.3693 265.056 85.0723C264.469 84.7621 263.885 84.3167 263.304 83.7359C262.73 83.1617 262.291 82.5843 261.987 82.0035C261.677 81.4161 261.502 80.8452 261.463 80.2909C261.416 79.7299 261.496 79.1887 261.7 78.6674C261.905 78.146 262.228 77.6642 262.67 77.222C263.291 76.6017 263.947 76.2222 264.64 76.0836C265.333 75.945 266.02 75.9912 266.699 76.2222L266.432 77.321C265.904 77.1098 265.376 77.057 264.848 77.1626C264.327 77.2616 263.848 77.5289 263.413 77.9645C263.109 78.2681 262.888 78.6014 262.75 78.9643C262.604 79.3207 262.538 79.6903 262.552 80.0731C262.571 80.4493 262.67 80.8254 262.849 81.2016C263.027 81.5778 263.287 81.9375 263.631 82.2807L264.749 83.3993C265.092 83.7425 265.455 84.0065 265.838 84.1913C266.214 84.3695 266.591 84.4685 266.967 84.4883C267.35 84.5015 267.729 84.4322 268.105 84.2804C268.475 84.122 268.825 83.8778 269.155 83.5478C269.392 83.3102 269.587 83.0561 269.739 82.7855C269.89 82.5018 269.983 82.218 270.016 81.9342C270.055 81.6438 270.029 81.36 269.937 81.0828C269.838 80.799 269.659 80.5285 269.402 80.2711L268.719 79.588L267.194 81.1125L266.462 80.38L268.798 78.0437L272.352 81.5976L271.58 82.3698L270.57 81.36ZM274.539 79.4109L267.629 72.501L271.846 68.2838L272.579 69.0164L269.193 72.402L271.51 74.7185L274.697 71.5309L275.43 72.2634L272.242 75.4511L274.638 77.8468L278.023 74.4611L278.756 75.1937L274.539 79.4109ZM277.01 64.5855L283.187 70.7628L282.355 71.5944L276.178 65.4171L273.98 67.6148L273.248 66.8822L278.475 61.6553L279.207 62.3878L277.01 64.5855Z" fill="#0BBFB0"/>
<path d="M362.865 99.7301L369.042 105.907L368.211 106.739L362.034 100.562L359.836 102.759L359.103 102.027L364.33 96.7998L365.063 97.5324L362.865 99.7301ZM373.763 101.187L372.931 102.018L366.022 95.1085L368.774 92.3565C369.381 91.7493 370.021 91.4457 370.694 91.4457C371.374 91.4391 372.031 91.7526 372.664 92.3862C373.172 92.8943 373.473 93.4322 373.565 93.9998C373.657 94.5541 373.529 95.1118 373.179 95.6728L377.812 97.1379L376.871 98.0784L372.407 96.6033L370.793 98.217L373.763 101.187ZM372.001 95.5837C372.331 95.2537 372.499 94.9138 372.506 94.564C372.519 94.2077 372.367 93.8711 372.05 93.5543L371.536 93.0395C371.219 92.7227 370.882 92.5709 370.526 92.5841C370.176 92.5907 369.836 92.759 369.506 93.089L367.586 95.0095L370.08 97.5042L372.001 95.5837ZM384.14 90.8099L381.408 89.4635L378.616 92.2552L379.962 94.9875L379.121 95.8289L374.627 86.5036L375.686 85.4443L385.011 89.9387L384.14 90.8099ZM375.933 86.7412L375.884 86.7907L378.081 91.3246L380.467 88.9389L375.933 86.7412ZM384.162 82.3537L381.796 81.6508L381.766 81.6805L387.518 87.4321L386.706 88.2439L379.796 81.334L380.756 80.3738L387.498 82.0666L389.864 82.7695L389.894 82.7398L384.142 76.9881L384.954 76.1764L391.864 83.0862L390.903 84.0465L384.162 82.3537ZM396.314 78.8729C395.754 79.4339 395.169 79.8067 394.562 79.9915C393.949 80.1697 393.315 80.2093 392.662 80.1103L392.761 78.9818C393.328 79.061 393.846 79.0379 394.315 78.9125C394.777 78.7805 395.209 78.5132 395.612 78.1106C396.107 77.6157 396.364 77.1207 396.384 76.6257C396.41 76.1241 396.225 75.6754 395.829 75.2794C395.499 74.9494 395.146 74.7943 394.77 74.8141C394.394 74.8339 393.925 75.0187 393.364 75.3685L392.671 75.8041C391.893 76.2924 391.19 76.5597 390.563 76.6059C389.936 76.6389 389.355 76.3881 388.821 75.8535C388.517 75.55 388.303 75.2233 388.177 74.8735C388.052 74.5237 388.009 74.1706 388.048 73.8143C388.095 73.4513 388.217 73.0916 388.415 72.7352C388.613 72.3656 388.88 72.0125 389.217 71.676C389.738 71.1546 390.279 70.8048 390.84 70.6266C391.408 70.4418 392.005 70.4055 392.632 70.5177L392.464 71.5968C392.008 71.5242 391.569 71.5473 391.147 71.6661C390.725 71.7849 390.312 72.0455 389.91 72.4481C389.467 72.8903 389.213 73.3358 389.147 73.7846C389.081 74.2201 389.236 74.626 389.613 75.0022C389.943 75.3322 390.299 75.4774 390.682 75.4378C391.064 75.385 391.523 75.1903 392.058 74.8537L392.751 74.4181C393.582 73.8901 394.305 73.6295 394.919 73.6361C395.532 73.6427 396.097 73.9033 396.611 74.4181C396.928 74.7349 397.159 75.0781 397.304 75.4477C397.456 75.8107 397.519 76.1835 397.493 76.5663C397.466 76.9491 397.354 77.3385 397.156 77.7345C396.965 78.1238 396.684 78.5033 396.314 78.8729ZM400.231 74.7187L399.538 74.0258L400.508 73.0556L394.984 67.5317L394.014 68.5018L393.321 67.8089L396.093 65.037L396.786 65.73L395.816 66.7001L401.34 72.224L402.31 71.2539L403.003 71.9469L400.231 74.7187ZM401.153 61.4422L407.33 67.6194L406.499 68.451L400.322 62.2737L398.124 64.4714L397.391 63.7388L402.618 58.5119L403.351 59.2445L401.153 61.4422ZM410.825 64.1248L410.132 63.4319L411.102 62.4617L405.578 56.9378L404.608 57.9079L403.915 57.215L406.687 54.4431L407.38 55.1361L406.41 56.1062L411.934 61.6302L412.904 60.66L413.597 61.353L410.825 64.1248ZM418.368 56.8193C417.919 57.2681 417.438 57.598 416.923 57.8092C416.408 58.0072 415.873 58.0864 415.319 58.0468C414.765 57.994 414.197 57.8158 413.616 57.5122C413.029 57.2021 412.445 56.7566 411.864 56.1758C411.283 55.595 410.841 55.0143 410.538 54.4335C410.234 53.8527 410.056 53.2852 410.003 52.7308C409.957 52.1698 410.036 51.6352 410.241 51.1271C410.445 50.6057 410.772 50.1206 411.221 49.6718C411.663 49.2297 412.145 48.9063 412.666 48.7017C413.181 48.4905 413.715 48.4113 414.27 48.4641C414.831 48.5103 415.402 48.6852 415.982 48.9888C416.563 49.2924 417.144 49.7345 417.725 50.3153C418.305 50.8961 418.751 51.4802 419.061 52.0675C419.365 52.6483 419.54 53.2192 419.586 53.7801C419.632 54.3279 419.553 54.8625 419.348 55.3839C419.137 55.8986 418.81 56.3771 418.368 56.8193ZM417.626 56.0768C417.923 55.7798 418.144 55.4532 418.289 55.0968C418.434 54.7404 418.497 54.3741 418.477 53.9979C418.464 53.6151 418.368 53.2357 418.19 52.8595C418.012 52.4833 417.751 52.1236 417.408 51.7804L416.26 50.6321C415.916 50.2889 415.557 50.0282 415.18 49.85C414.804 49.6718 414.425 49.5762 414.042 49.563C413.666 49.5432 413.3 49.6059 412.943 49.751C412.587 49.8962 412.26 50.1173 411.963 50.4143C411.666 50.7113 411.445 51.038 411.3 51.3944C411.155 51.7507 411.089 52.1203 411.102 52.5031C411.122 52.8793 411.221 53.2555 411.399 53.6316C411.577 54.0078 411.838 54.3675 412.181 54.7107L413.329 55.859C413.672 56.2022 414.032 56.4629 414.408 56.6411C414.784 56.8193 415.161 56.9183 415.537 56.9381C415.92 56.9513 416.289 56.8853 416.646 56.7401C417.002 56.5949 417.329 56.3738 417.626 56.0768ZM420.681 45.8349L418.315 45.1321L418.285 45.1618L424.036 50.9134L423.225 51.7251L416.315 44.8153L417.275 43.855L424.017 45.5478L426.383 46.2507L426.412 46.221L420.661 40.4694L421.472 39.6576L428.382 46.5675L427.422 47.5277L420.681 45.8349ZM432.833 42.3542C432.272 42.9151 431.688 43.288 431.081 43.4728C430.467 43.651 429.834 43.6906 429.18 43.5916L429.279 42.463C429.847 42.5422 430.365 42.5191 430.834 42.3937C431.296 42.2618 431.728 41.9945 432.13 41.5919C432.625 41.0969 432.883 40.6019 432.903 40.107C432.929 39.6054 432.744 39.1566 432.348 38.7606C432.018 38.4307 431.665 38.2756 431.289 38.2954C430.913 38.3152 430.444 38.4999 429.883 38.8497L429.19 39.2853C428.411 39.7737 427.709 40.041 427.082 40.0872C426.455 40.1202 425.874 39.8694 425.339 39.3348C425.036 39.0312 424.821 38.7045 424.696 38.3548C424.57 38.005 424.528 37.6519 424.567 37.2955C424.613 36.9325 424.735 36.5728 424.933 36.2165C425.131 35.8469 425.399 35.4938 425.735 35.1572C426.257 34.6358 426.798 34.2861 427.359 34.1079C427.926 33.9231 428.524 33.8868 429.151 33.999L428.982 35.078C428.527 35.0054 428.088 35.0285 427.666 35.1473C427.243 35.2661 426.831 35.5268 426.428 35.9294C425.986 36.3716 425.732 36.817 425.666 37.2658C425.6 37.7014 425.755 38.1073 426.131 38.4834C426.461 38.8134 426.818 38.9586 427.2 38.919C427.583 38.8662 428.042 38.6715 428.576 38.335L429.269 37.8994C430.101 37.3714 430.824 37.1107 431.437 37.1173C432.051 37.1239 432.615 37.3846 433.13 37.8994C433.447 38.2162 433.678 38.5593 433.823 38.9289C433.975 39.2919 434.038 39.6648 434.011 40.0476C433.985 40.4303 433.873 40.8197 433.675 41.2157C433.483 41.6051 433.203 41.9846 432.833 42.3542Z" fill="#0BBFB0"/>
<path d="M712.176 99.6668L705.266 92.757L709.484 88.5398L710.216 89.2724L706.83 92.658L709.147 94.9745L712.335 91.7868L713.067 92.5194L709.88 95.707L712.275 98.1027L715.661 94.7171L716.393 95.4496L712.176 99.6668ZM723.408 88.435L722.408 89.4348L717.696 88.3459L717.676 88.3657L718.765 93.0778L717.815 94.0282L716.558 88.2568L710.964 87.059L711.964 86.0591L716.449 87.0787L716.469 87.059L715.488 82.5349L716.439 81.5845L717.587 87.1678L723.408 88.435ZM721.268 78.2201L727.446 84.3974L726.614 85.2289L720.437 79.0516L718.239 81.2493L717.507 80.5168L722.734 75.2898L723.466 76.0224L721.268 78.2201ZM732.166 79.6768L731.335 80.5084L724.425 73.5985L727.177 70.8465C727.784 70.2393 728.424 69.9357 729.097 69.9357C729.777 69.9291 730.434 70.2426 731.067 70.8762C731.576 71.3843 731.876 71.9222 731.968 72.4898C732.061 73.0442 731.932 73.6018 731.582 74.1628L736.215 75.6279L735.275 76.5684L730.81 75.0934L729.196 76.707L732.166 79.6768ZM730.404 74.0737C730.734 73.7437 730.902 73.4038 730.909 73.0541C730.922 72.6977 730.77 72.3611 730.454 72.0443L729.939 71.5295C729.622 71.2128 729.285 71.061 728.929 71.0742C728.579 71.0808 728.239 71.2491 727.909 71.579L725.989 73.4995L728.484 75.9942L730.404 74.0737ZM738.217 73.626L731.307 66.7161L735.524 62.4989L736.257 63.2315L732.871 66.6171L735.188 68.9336L738.375 65.746L739.108 66.4785L735.92 69.6662L738.316 72.0618L741.702 68.6762L742.434 69.4088L738.217 73.626ZM744.103 56.098L744.054 56.1475L744.628 57.8898L745.984 62.5525L741.321 61.1963L739.579 60.6221L739.53 60.6716L745.351 66.4925L744.539 67.3043L737.629 60.3944L738.738 59.2857L744.44 61.028L744.489 60.9785L742.757 55.2665L743.826 54.1973L750.736 61.1072L749.924 61.9189L744.103 56.098ZM753.123 58.7204L746.213 51.8105L750.43 47.5933L751.163 48.3259L747.777 51.7115L750.093 54.028L753.281 50.8404L754.014 51.5729L750.826 54.7606L753.222 57.1563L756.607 53.7706L757.34 54.5032L753.123 58.7204ZM724.904 112.395L717.994 105.485L722.211 101.268L722.944 102L719.558 105.386L721.875 107.702L725.063 104.515L725.795 105.247L722.607 108.435L725.003 110.831L728.389 107.445L729.121 108.178L724.904 112.395ZM732.703 104.596L723.497 99.9825L724.388 99.0916L729.011 101.438L732.367 103.269L732.416 103.22L730.605 99.8439L728.268 95.211L729.129 94.3497L733.713 103.586L732.703 104.596ZM737.712 99.587L730.802 92.6772L735.019 88.46L735.752 89.1925L732.366 92.5782L734.683 94.8946L737.87 91.707L738.603 92.4396L735.415 95.6272L737.811 98.0229L741.197 94.6373L741.929 95.3698L737.712 99.587ZM741.489 87.3751L739.123 86.6722L739.094 86.7019L744.845 92.4535L744.034 93.2653L737.124 86.3555L738.084 85.3952L744.826 87.088L747.192 87.7909L747.221 87.7612L741.47 82.0096L742.281 81.1978L749.191 88.1077L748.231 89.0679L741.489 87.3751ZM747.732 77.2122L753.909 83.3895L753.078 84.221L746.901 78.0437L744.703 80.2414L743.97 79.5089L749.197 74.2819L749.93 75.0145L747.732 77.2122ZM759.751 77.7853C759.19 78.3463 758.606 78.7192 757.999 78.904C757.385 79.0821 756.752 79.1217 756.098 79.0228L756.197 77.8942C756.765 77.9734 757.283 77.9503 757.751 77.8249C758.213 77.6929 758.646 77.4256 759.048 77.0231C759.543 76.5281 759.801 76.0331 759.82 75.5381C759.847 75.0366 759.662 74.5878 759.266 74.1918C758.936 73.8618 758.583 73.7067 758.207 73.7265C757.831 73.7463 757.362 73.9311 756.801 74.2809L756.108 74.7165C755.329 75.2048 754.627 75.4721 754 75.5183C753.373 75.5513 752.792 75.3005 752.257 74.766C751.954 74.4624 751.739 74.1357 751.614 73.7859C751.488 73.4361 751.445 73.0831 751.485 72.7267C751.531 72.3637 751.653 72.004 751.851 71.6476C752.049 71.278 752.317 70.925 752.653 70.5884C753.175 70.067 753.716 69.7172 754.277 69.539C754.844 69.3542 755.442 69.3179 756.069 69.4301L755.9 70.5092C755.445 70.4366 755.006 70.4597 754.584 70.5785C754.161 70.6973 753.749 70.958 753.346 71.3605C752.904 71.8027 752.65 72.2482 752.584 72.697C752.518 73.1326 752.673 73.5384 753.049 73.9146C753.379 74.2446 753.736 74.3898 754.118 74.3502C754.501 74.2974 754.96 74.1027 755.494 73.7661L756.187 73.3305C757.019 72.8026 757.742 72.5419 758.355 72.5485C758.969 72.5551 759.533 72.8158 760.048 73.3305C760.365 73.6473 760.596 73.9905 760.741 74.3601C760.893 74.7231 760.956 75.096 760.929 75.4787C760.903 75.8615 760.791 76.2509 760.593 76.6469C760.401 77.0363 760.121 77.4157 759.751 77.7853Z" fill="#0BBFB0"/>
<path d="M455 164V187C455 194.18 460.82 200 468 200H484" stroke="#0BBFB0" stroke-dasharray="2"/>
<path d="M698.667 163.816V287" stroke="url(#paint1_linear)" stroke-dasharray="2"/>
<path d="M699 123V146C699 153.18 704.82 159 712 159H743" stroke="#0BBFB0" stroke-dasharray="2"/>
<path d="M699 146V167C699 174.18 704.82 180 712 180H743" stroke="#0BBFB0" stroke-dasharray="2"/>
<path d="M741.5 166C745.09 166 748 163.09 748 159.5C748 155.91 745.09 153 741.5 153C737.91 153 735 155.91 735 159.5C735 163.09 737.91 166 741.5 166Z" fill="#0BBFB0" stroke="white" stroke-width="2"/>
<path d="M741.5 189C745.09 189 748 186.09 748 182.5C748 178.91 745.09 176 741.5 176C737.91 176 735 178.91 735 182.5C735 186.09 737.91 189 741.5 189Z" fill="#0BBFB0" stroke="white" stroke-width="2"/>
<path d="M365 124V219.366C365 229.86 356.493 238.366 346 238.366H169C158.507 238.366 150 246.873 150 257.366V356" stroke="url(#paint2_linear)" stroke-dasharray="2"/>
<path d="M529 165V248.407C529 257.244 536.163 264.407 545 264.407H683C691.837 264.407 699 271.571 699 280.407V385" stroke="url(#paint3_linear)" stroke-dasharray="2"/>
</g>
<defs>
<linearGradient id="paint0_linear" x1="17.4001" y1="210.479" x2="110.278" y2="210.479" gradientUnits="userSpaceOnUse">
<stop stop-color="#5263FF"/>
<stop offset="1" stop-color="#0BBFB0"/>
</linearGradient>
<linearGradient id="paint1_linear" x1="697" y1="163" x2="697" y2="287" gradientUnits="userSpaceOnUse">
<stop stop-color="#0BBFB0"/>
<stop offset="1" stop-color="white"/>
</linearGradient>
<linearGradient id="paint2_linear" x1="324.691" y1="269.007" x2="324.691" y2="124" gradientUnits="userSpaceOnUse">
<stop stop-color="white"/>
<stop offset="1" stop-color="#0BBFB0"/>
</linearGradient>
<linearGradient id="paint3_linear" x1="618.281" y1="217.23" x2="529" y2="217.23" gradientUnits="userSpaceOnUse">
<stop stop-color="white"/>
<stop offset="1" stop-color="#0BBFB0"/>
</linearGradient>
<clipPath id="clip0">
<rect width="814" height="385" fill="white"/>
</clipPath>
</defs>
</svg>
