<?xml version="1.0" encoding="UTF-8"?>
<svg width="707px" height="386px" viewBox="0 0 707 386" version="1.1" xmlns="http://www.w3.org/2000/svg" xmlns:xlink="http://www.w3.org/1999/xlink">
    <defs>
        <linearGradient x1="1.06476259%" y1="106.681707%" x2="98.7268548%" y2="106.681707%" id="linearGradient-1">
            <stop stop-color="#5263FF" offset="0%"></stop>
            <stop stop-color="#0BBFB0" offset="22.9888091%"></stop>
            <stop stop-color="#0BBFB0" offset="82.5195312%"></stop>
            <stop stop-color="#B40BBF" offset="100%"></stop>
        </linearGradient>
        <linearGradient x1="81.2516279%" y1="62.5030172%" x2="81.2516279%" y2="0%" id="linearGradient-2">
            <stop stop-color="#FFFFFF" offset="0%"></stop>
            <stop stop-color="#0BBFB0" offset="100%"></stop>
        </linearGradient>
        <linearGradient x1="52.5182353%" y1="23.7409091%" x2="0%" y2="23.7409091%" id="linearGradient-3">
            <stop stop-color="#FFFFFF" offset="0%"></stop>
            <stop stop-color="#0BBFB0" offset="100%"></stop>
        </linearGradient>
    </defs>
    <g id="Page-1" stroke="none" stroke-width="1" fill="none" fill-rule="evenodd">
        <g id="Group-2" transform="translate(1.000000, 0.000000)">
          <path d="M239.727,103.403 L242.568,100.5623 C243.142,99.9881 243.752,99.7011 244.399,99.7011 C245.052,99.6945 245.65,99.9617 246.191,100.5029 C246.448,100.7603 246.63,101.0144 246.735,101.2652 C246.841,101.516 246.897,101.7569 246.904,101.9878 C246.904,102.212 246.867,102.42 246.795,102.612 C246.716,102.796 246.63,102.955 246.537,103.087 L246.597,103.146 C246.729,103.027 246.9,102.922 247.112,102.829 C247.329,102.73 247.574,102.678 247.844,102.671 C248.108,102.658 248.389,102.707 248.686,102.819 C248.983,102.918 249.273,103.11 249.557,103.394 C249.841,103.677 250.058,103.988 250.21,104.324 C250.368,104.654 250.458,104.987 250.477,105.324 C250.497,105.661 250.451,105.991 250.339,106.314 C250.22,106.631 250.032,106.918 249.775,107.175 L246.636,110.313 L239.727,103.403 Z M246.735,108.749 L248.785,106.7 C249.141,106.344 249.332,105.974 249.359,105.591 C249.379,105.202 249.214,104.832 248.864,104.483 L248.527,104.146 C248.177,103.796 247.811,103.634 247.428,103.661 C247.039,103.681 246.666,103.869 246.31,104.225 L244.26,106.274 L246.735,108.749 Z M243.548,105.562 L245.458,103.651 C245.788,103.321 245.963,102.981 245.983,102.631 C246.003,102.282 245.858,101.9515 245.547,101.6414 L245.211,101.3048 C244.901,100.9946 244.571,100.8494 244.221,100.8692 C243.871,100.889 243.531,101.0639 243.201,101.3939 L241.291,103.304 L243.548,105.562 Z M247.526,95.6036 L251.803,99.8802 C252.463,100.5402 253.087,100.9197 253.674,101.0187 C254.255,101.1111 254.852,100.8504 255.466,100.2366 C256.08,99.6228 256.34,99.0256 256.248,98.4448 C256.149,97.8574 255.769,97.2338 255.109,96.5738 L250.833,92.2972 L251.664,91.4657 L255.743,95.5443 C256.244,96.0458 256.634,96.5276 256.911,96.9896 C257.195,97.445 257.36,97.8937 257.406,98.3359 C257.452,98.7781 257.373,99.2203 257.168,99.6624 C256.97,100.098 256.64,100.5468 256.179,101.0088 C255.717,101.4707 255.268,101.8007 254.832,101.9987 C254.403,102.19 253.971,102.259 253.535,102.207 C253.1,102.154 252.654,101.9855 252.199,101.7017 C251.75,101.4114 251.275,101.0154 250.773,100.5138 L246.695,96.4352 L247.526,95.6036 Z M254.004,89.1263 L256.32,86.8098 C256.749,86.3808 257.211,86.064 257.706,85.8594 C258.201,85.6548 258.716,85.5756 259.25,85.6218 C259.785,85.6548 260.336,85.8231 260.904,86.1267 C261.465,86.4237 262.032,86.8593 262.606,87.4334 C263.181,88.0076 263.619,88.5785 263.923,89.1461 C264.22,89.707 264.388,90.2581 264.428,90.7993 C264.467,91.3273 264.385,91.8387 264.18,92.3337 C263.976,92.8287 263.659,93.2907 263.23,93.7196 L260.914,96.0361 L254.004,89.1263 Z M262.497,92.9871 C262.781,92.7033 262.996,92.3964 263.141,92.0664 C263.28,91.7298 263.342,91.3833 263.329,91.027 C263.316,90.6706 263.223,90.3142 263.052,89.9578 C262.88,89.5882 262.623,89.2319 262.28,88.8887 L261.151,87.7601 C260.808,87.417 260.455,87.1629 260.092,86.9979 C259.729,86.8197 259.369,86.724 259.013,86.7108 C258.656,86.6976 258.313,86.7636 257.983,86.9088 C257.647,87.0474 257.337,87.2586 257.053,87.5423 L255.568,89.0273 L261.013,94.472 L262.497,92.9871 Z M271.57,83.36 L271.54,83.3897 C271.778,83.7989 271.837,84.2807 271.719,84.835 C271.6,85.3762 271.276,85.9108 270.749,86.4388 C270.326,86.8611 269.861,87.1746 269.353,87.3792 C268.845,87.5706 268.317,87.6432 267.769,87.597 C267.214,87.5442 266.644,87.3693 266.056,87.0723 C265.469,86.7621 264.885,86.3167 264.304,85.7359 C263.73,85.1617 263.291,84.5843 262.987,84.0035 C262.677,83.4161 262.502,82.8452 262.463,82.2909 C262.416,81.7299 262.496,81.1887 262.7,80.6674 C262.905,80.146 263.228,79.6642 263.67,79.222 C264.291,78.6017 264.947,78.2222 265.64,78.0836 C266.333,77.945 267.02,77.9912 267.699,78.2222 L267.432,79.321 C266.904,79.1098 266.376,79.057 265.848,79.1626 C265.327,79.2616 264.848,79.5289 264.413,79.9645 C264.109,80.2681 263.888,80.6014 263.75,80.9643 C263.604,81.3207 263.538,81.6903 263.552,82.0731 C263.571,82.4493 263.67,82.8254 263.849,83.2016 C264.027,83.5778 264.287,83.9375 264.631,84.2807 L265.749,85.3993 C266.092,85.7425 266.455,86.0065 266.838,86.1913 C267.214,86.3695 267.591,86.4685 267.967,86.4883 C268.35,86.5015 268.729,86.4322 269.105,86.2804 C269.475,86.122 269.825,85.8778 270.155,85.5478 C270.392,85.3102 270.587,85.0561 270.739,84.7855 C270.89,84.5018 270.983,84.218 271.016,83.9342 C271.055,83.6438 271.029,83.36 270.937,83.0828 C270.838,82.799 270.659,82.5285 270.402,82.2711 L269.719,81.588 L268.194,83.1125 L267.462,82.38 L269.798,80.0437 L273.352,83.5976 L272.58,84.3698 L271.57,83.36 Z M275.539,81.4109 L268.629,74.501 L272.846,70.2838 L273.579,71.0164 L270.193,74.402 L272.51,76.7185 L275.697,73.5309 L276.43,74.2634 L273.242,77.4511 L275.638,79.8468 L279.023,76.4611 L279.756,77.1937 L275.539,81.4109 Z M278.01,66.5855 L284.187,72.7628 L283.355,73.5944 L277.178,67.4171 L274.98,69.6148 L274.248,68.8822 L279.475,63.6553 L280.207,64.3878 L278.01,66.5855 Z" id="Shape" fill="#0BBFB0" fill-rule="nonzero"></path>
          <path d="M363.865,101.7301 L370.042,107.907 L369.211,108.739 L363.034,102.562 L360.836,104.759 L360.103,104.027 L365.33,98.7998 L366.063,99.5324 L363.865,101.7301 Z M374.763,103.187 L373.931,104.018 L367.022,97.1085 L369.774,94.3565 C370.381,93.7493 371.021,93.4455979 371.694,93.4455979 C372.374,93.4391 373.031,93.7526 373.664,94.3862 C374.172,94.8943 374.473,95.4322 374.565,95.9998 C374.657,96.5541 374.529,97.1118 374.179,97.6728 L378.812,99.1379 L377.871,100.0784 L373.407,98.6033 L371.793,100.217 L374.763,103.187 Z M373.001,97.5837 C373.331,97.2537 373.499,96.9138 373.506,96.564 C373.519,96.2077 373.367,95.8711 373.05,95.5543 L372.536,95.0395 C372.219,94.7227 371.882,94.5709 371.526,94.5841 C371.176,94.5907 370.836,94.759 370.506,95.089 L368.586,97.0095 L371.08,99.5042 L373.001,97.5837 Z M385.14,92.8099 L382.408,91.4635 L379.616,94.2552 L380.962,96.9875 L380.121,97.8289 L375.627,88.5036 L376.686,87.4443 L386.011,91.9387 L385.14,92.8099 Z M376.933,88.7412 L376.884,88.7907 L379.081,93.3246 L381.467,90.9389 L376.933,88.7412 Z M385.162,84.3537 L382.796,83.6508 L382.766,83.6805 L388.518,89.4321 L387.706,90.2439 L380.796,83.334 L381.756,82.3738 L388.498,84.0666 L390.864,84.7695 L390.894,84.7398 L385.142,78.9881 L385.954,78.1764 L392.864,85.0862 L391.903,86.0465 L385.162,84.3537 Z M397.314,80.8729 C396.754,81.4339 396.169,81.8067 395.562,81.9915 C394.949,82.1697 394.315,82.2093 393.662,82.1103 L393.761,80.9818 C394.328,81.061 394.846,81.0379 395.315,80.9125 C395.777,80.7805 396.209,80.5132 396.612,80.1106 C397.107,79.6157 397.364,79.1207 397.384,78.6257 C397.41,78.1241 397.225,77.6754 396.829,77.2794 C396.499,76.9494 396.146,76.7943 395.77,76.8141 C395.394,76.8339 394.925,77.0187 394.364,77.3685 L393.671,77.8041 C392.893,78.2924 392.19,78.5597 391.563,78.6059 C390.936,78.6389 390.355,78.3881 389.821,77.8535 C389.517,77.55 389.303,77.2233 389.177,76.8735 C389.052,76.5237 389.009,76.1706 389.048,75.8143 C389.095,75.4513 389.217,75.0916 389.415,74.7352 C389.613,74.3656 389.88,74.0125 390.217,73.676 C390.738,73.1546 391.279,72.8048 391.84,72.6266 C392.408,72.4418 393.005,72.4055 393.632,72.5177 L393.464,73.5968 C393.008,73.5242 392.569,73.5473 392.147,73.6661 C391.725,73.7849 391.312,74.0455 390.91,74.4481 C390.467,74.8903 390.213,75.3358 390.147,75.7846 C390.081,76.2201 390.236,76.626 390.613,77.0022 C390.943,77.3322 391.299,77.4774 391.682,77.4378 C392.064,77.385 392.523,77.1903 393.058,76.8537 L393.751,76.4181 C394.582,75.8901 395.305,75.6295 395.919,75.6361 C396.532,75.6427 397.097,75.9033 397.611,76.4181 C397.928,76.7349 398.159,77.0781 398.304,77.4477 C398.456,77.8107 398.519,78.1835 398.493,78.5663 C398.466,78.9491 398.354,79.3385 398.156,79.7345 C397.965,80.1238 397.684,80.5033 397.314,80.8729 Z M401.231,76.7187 L400.538,76.0258 L401.508,75.0556 L395.984,69.5317 L395.014,70.5018 L394.321,69.8089 L397.093,67.037 L397.786,67.73 L396.816,68.7001 L402.34,74.224 L403.31,73.2539 L404.003,73.9469 L401.231,76.7187 Z M402.153,63.4422 L408.33,69.6194 L407.499,70.451 L401.322,64.2737 L399.124,66.4714 L398.391,65.7388 L403.618,60.5119 L404.351,61.2445 L402.153,63.4422 Z M411.825,66.1248 L411.132,65.4319 L412.102,64.4617 L406.578,58.9378 L405.608,59.9079 L404.915,59.215 L407.687,56.4431 L408.38,57.1361 L407.41,58.1062 L412.934,63.6302 L413.904,62.66 L414.597,63.353 L411.825,66.1248 Z M419.368,58.8193 C418.919,59.2681 418.438,59.598 417.923,59.8092 C417.408,60.0072 416.873,60.0864 416.319,60.0468 C415.765,59.994 415.197,59.8158 414.616,59.5122 C414.029,59.2021 413.445,58.7566 412.864,58.1758 C412.283,57.595 411.841,57.0143 411.538,56.4335 C411.234,55.8527 411.056,55.2852 411.003,54.7308 C410.957,54.1698 411.036,53.6352 411.241,53.1271 C411.445,52.6057 411.772,52.1206 412.221,51.6718 C412.663,51.2297 413.145,50.9063 413.666,50.7017 C414.181,50.4905 414.715,50.4113 415.27,50.4641 C415.831,50.5103 416.402,50.6852 416.982,50.9888 C417.563,51.2924 418.144,51.7345 418.725,52.3153 C419.305,52.8961 419.751,53.4802 420.061,54.0675 C420.365,54.6483 420.54,55.2192 420.586,55.7801 C420.632,56.3279 420.553,56.8625 420.348,57.3839 C420.137,57.8986 419.81,58.3771 419.368,58.8193 Z M418.626,58.0768 C418.923,57.7798 419.144,57.4532 419.289,57.0968 C419.434,56.7404 419.497,56.3741 419.477,55.9979 C419.464,55.6151 419.368,55.2357 419.19,54.8595 C419.012,54.4833 418.751,54.1236 418.408,53.7804 L417.26,52.6321 C416.916,52.2889 416.557,52.0282 416.18,51.85 C415.804,51.6718 415.425,51.5762 415.042,51.563 C414.666,51.5432 414.3,51.6059 413.943,51.751 C413.587,51.8962 413.26,52.1173 412.963,52.4143 C412.666,52.7113 412.445,53.038 412.3,53.3944 C412.155,53.7507 412.089,54.1203 412.102,54.5031 C412.122,54.8793 412.221,55.2555 412.399,55.6316 C412.577,56.0078 412.838,56.3675 413.181,56.7107 L414.329,57.859 C414.672,58.2022 415.032,58.4629 415.408,58.6411 C415.784,58.8193 416.161,58.9183 416.537,58.9381 C416.92,58.9513 417.289,58.8853 417.646,58.7401 C418.002,58.5949 418.329,58.3738 418.626,58.0768 Z M421.681,47.8349 L419.315,47.1321 L419.285,47.1618 L425.036,52.9134 L424.225,53.7251 L417.315,46.8153 L418.275,45.855 L425.017,47.5478 L427.383,48.2507 L427.412,48.221 L421.661,42.4694 L422.472,41.6576 L429.382,48.5675 L428.422,49.5277 L421.681,47.8349 Z M433.833,44.3542 C433.272,44.9151 432.688,45.288 432.081,45.4728 C431.467,45.651 430.834,45.6906 430.18,45.5916 L430.279,44.463 C430.847,44.5422 431.365,44.5191 431.834,44.3937 C432.296,44.2618 432.728,43.9945 433.13,43.5919 C433.625,43.0969 433.883,42.6019 433.903,42.107 C433.929,41.6054 433.744,41.1566 433.348,40.7606 C433.018,40.4307 432.665,40.2756 432.289,40.2954 C431.913,40.3152 431.444,40.4999 430.883,40.8497 L430.19,41.2853 C429.411,41.7737 428.709,42.041 428.082,42.0872 C427.455,42.1202 426.874,41.8694 426.339,41.3348 C426.036,41.0312 425.821,40.7045 425.696,40.3548 C425.57,40.005 425.528,39.6519 425.567,39.2955 C425.613,38.9325 425.735,38.5728 425.933,38.2165 C426.131,37.8469 426.399,37.4938 426.735,37.1572 C427.257,36.6358 427.798,36.2861 428.359,36.1079 C428.926,35.9231 429.524,35.8868 430.151,35.999 L429.982,37.078 C429.527,37.0054 429.088,37.0285 428.666,37.1473 C428.243,37.2661 427.831,37.5268 427.428,37.9294 C426.986,38.3716 426.732,38.817 426.666,39.2658 C426.6,39.7014 426.755,40.1073 427.131,40.4834 C427.461,40.8134 427.818,40.9586 428.2,40.919 C428.583,40.8662 429.042,40.6715 429.576,40.335 L430.269,39.8994 C431.101,39.3714 431.824,39.1107 432.437,39.1173 C433.051,39.1239 433.615,39.3846 434.13,39.8994 C434.447,40.2162 434.678,40.5593 434.823,40.9289 C434.975,41.2919 435.038,41.6648 435.011,42.0476 C434.985,42.4303 434.873,42.8197 434.675,43.2157 C434.483,43.6051 434.203,43.9846 433.833,44.3542 Z" id="Shape" fill="#0BBFB0" fill-rule="nonzero"></path>
          <path d="M630.91,52.0735 L624,45.1637 L628.218,40.9465 L628.95,41.6791 L625.564,45.0647 L627.881,47.3812 L631.069,44.1935 L631.801,44.9261 L628.614,48.1137 L631.009,50.5094 L634.395,47.1238 L635.127,47.8563 L630.91,52.0735 Z M642.142,40.8417 L641.142,41.8415 L636.43,40.7526 L636.41,40.7724 L637.499,45.4845 L636.549,46.4349 L635.292,40.6635 L629.698,39.4657 L630.698,38.4658 L635.183,39.4854 L635.203,39.4657 L634.222,34.9416 L635.173,33.9912 L636.321,39.5745 L642.142,40.8417 Z M640.002,30.6268 L646.18,36.8041 L645.348,37.6356 L639.171,31.4583 L636.973,33.656 L636.241,32.9235 L641.468,27.6965 L642.2,28.4291 L640.002,30.6268 Z M650.9,32.0835 L650.069,32.9151 L643.159,26.0052 L645.911,23.2532 C646.518,22.646 647.158,22.3422979 647.831,22.3422979 C648.511,22.3358 649.168,22.6493 649.801,23.2829 C650.31,23.791 650.61,24.3289 650.702,24.8965 C650.795,25.4509 650.666,26.0085 650.316,26.5695 L654.949,28.0346 L654.009,28.9751 L649.544,27.5001 L647.93,29.1137 L650.9,32.0835 Z M649.138,26.4804 C649.468,26.1504 649.636,25.8105 649.643,25.4608 C649.656,25.1044 649.504,24.7678 649.188,24.451 L648.673,23.9362 C648.356,23.6195 648.019,23.4677 647.663,23.4809 C647.313,23.4875 646.973,23.6558 646.643,23.9857 L644.723,25.9062 L647.218,28.4009 L649.138,26.4804 Z M656.951,26.0327 L650.041,19.1228 L654.258,14.9056 L654.991,15.6382 L651.605,19.0238 L653.922,21.3403 L657.109,18.1527 L657.842,18.8852 L654.654,22.0729 L657.05,24.4685 L660.436,21.0829 L661.168,21.8155 L656.951,26.0327 Z M662.837,8.5047 L662.788,8.5542 L663.362,10.2965 L664.718,14.9592 L660.055,13.603 L658.313,13.0288 L658.264,13.0783 L664.085,18.8992 L663.273,19.711 L656.363,12.8011 L657.472,11.6924 L663.174,13.4347 L663.223,13.3852 L661.491,7.6732 L662.56,6.604 L669.47,13.5139 L668.658,14.3256 L662.837,8.5047 Z M671.857,11.1271 L664.947,4.2172 L669.164,0 L669.897,0.7326 L666.511,4.1182 L668.827,6.4347 L672.015,3.2471 L672.748,3.9796 L669.56,7.1673 L671.956,9.563 L675.341,6.1773 L676.074,6.9099 L671.857,11.1271 Z M643.638,64.8017 L636.728,57.8917 L640.945,53.6747 L641.678,54.4067 L638.292,57.7927 L640.609,60.1087 L643.797,56.9217 L644.529,57.6537 L641.341,60.8417 L643.737,63.2377 L647.123,59.8517 L647.855,60.5847 L643.638,64.8017 Z M651.437,57.0027 L642.231,52.3892 L643.122,51.4983 L647.745,53.8447 L651.101,55.6757 L651.15,55.6267 L649.339,52.2506 L647.002,47.6177 L647.863,46.7564 L652.447,55.9927 L651.437,57.0027 Z M656.446,51.9937 L649.536,45.0839 L653.753,40.8667 L654.486,41.5992 L651.1,44.9849 L653.417,47.3013 L656.604,44.1137 L657.337,44.8463 L654.149,48.0339 L656.545,50.4296 L659.931,47.044 L660.663,47.7765 L656.446,51.9937 Z M660.223,39.7818 L657.857,39.0789 L657.828,39.1086 L663.579,44.8602 L662.768,45.672 L655.858,38.7622 L656.818,37.8019 L663.56,39.4947 L665.926,40.1976 L665.955,40.1679 L660.204,34.4163 L661.015,33.6045 L667.925,40.5144 L666.965,41.4746 L660.223,39.7818 Z M666.466,29.6189 L672.643,35.7962 L671.812,36.6277 L665.635,30.4504 L663.437,32.6481 L662.704,31.9156 L667.931,26.6886 L668.664,27.4212 L666.466,29.6189 Z M678.485,30.192 C677.924,30.753 677.34,31.1259 676.733,31.3107 C676.119,31.4888 675.486,31.5284 674.832,31.4295 L674.931,30.3009 C675.499,30.3801 676.017,30.357 676.485,30.2316 C676.947,30.0996 677.38,29.8323 677.782,29.4298 C678.277,28.9348 678.535,28.4398 678.554,27.9448 C678.581,27.4433 678.396,26.9945 678,26.5985 C677.67,26.2685 677.317,26.1134 676.941,26.1332 C676.565,26.153 676.096,26.3378 675.535,26.6876 L674.842,27.1232 C674.063,27.6115 673.361,27.8788 672.734,27.925 C672.107,27.958 671.526,27.7072 670.991,27.1727 C670.688,26.8691 670.473,26.5424 670.348,26.1926 C670.222,25.8428 670.179,25.4898 670.219,25.1334 C670.265,24.7704 670.387,24.4107 670.585,24.0543 C670.783,23.6847 671.051,23.3317 671.387,22.9951 C671.909,22.4737 672.45,22.1239 673.011,21.9457 C673.578,21.7609 674.176,21.7246 674.803,21.8368 L674.634,22.9159 C674.179,22.8433 673.74,22.8664 673.318,22.9852 C672.895,23.104 672.483,23.3647 672.08,23.7672 C671.638,24.2094 671.384,24.6549 671.318,25.1037 C671.252,25.5393 671.407,25.9451 671.783,26.3213 C672.113,26.6513 672.47,26.7965 672.852,26.7569 C673.235,26.7041 673.694,26.5094 674.228,26.1728 L674.921,25.7372 C675.753,25.2093 676.476,24.9486 677.089,24.9552 C677.703,24.9618 678.267,25.2225 678.782,25.7372 C679.099,26.054 679.33,26.3972 679.475,26.7668 C679.627,27.1298 679.69,27.5027 679.663,27.8854 C679.637,28.2682 679.525,28.6576 679.327,29.0536 C679.135,29.443 678.855,29.8224 678.485,30.192 Z" id="Shape" fill="#0BBFB0" fill-rule="nonzero"></path>
          <path d="M456,166 L456,189 C456,196.18 461.82,202 469,202 L485,202" id="Path" stroke="#0BBFB0" stroke-dasharray="2"></path>
          <path d="M366,126 L366,221.366 C366,231.86 357.493,240.366 347,240.366 L170,240.366 C159.507,240.366 151,248.873 151,259.366 L151,358" id="Path" stroke="url(#linearGradient-2)" stroke-dasharray="2"></path>
          <path d="M530,167 L530,250.407 C530,259.244 537.163,266.407 546,266.407 L684,266.407 C692.837,266.407 700,273.571 700,282.407 L700,387" id="Path" stroke="url(#linearGradient-3)" stroke-dasharray="2"></path>

            <path d="M11,207 L76.8357,207 C87.3291,207 95.8357,198.493 95.8357,188 L95.8357,144 C95.8357,133.507 104.342,125 114.836,125 L145.66,125 L706,125" id="Path" stroke="url(#linearGradient-1)"></path>
            <g id="Group" transform="translate(634.500000, 100.400000) rotate(-90.000000) translate(-634.500000, -100.400000) translate(610.000000, 55.400000)">
                <path d="M0,0 L0,23 C0,30.18 5.82,36 13,36 L44,36" id="Path" stroke="#0BBFB0" stroke-dasharray="2"></path>
                <path d="M0,25.5 L0,46.5 C0,53.68 5.82,59.5 13,59.5 L44,59.5" id="Path" stroke="#0BBFB0" stroke-dasharray="2"></path>
                <path d="M-4.26325641e-14,48.5 L-4.26325641e-14,69.5 C-4.26325641e-14,76.68 5.82,82.5 13,82.5 L44,82.5" id="Path-Copy" stroke="#0BBFB0" stroke-dasharray="2"></path>
                <path d="M42.5,43 C46.09,43 49,40.09 49,36.5 C49,32.91 46.09,30 42.5,30 C38.91,30 36,32.91 36,36.5 C36,40.09 38.91,43 42.5,43 Z" id="Path" stroke="#FFFFFF" stroke-width="2" fill="#0BBFB0" fill-rule="nonzero"></path>
                <path d="M42.5,66 C46.09,66 49,63.09 49,59.5 C49,55.91 46.09,53 42.5,53 C38.91,53 36,55.91 36,59.5 C36,63.09 38.91,66 42.5,66 Z" id="Path" stroke="#FFFFFF" stroke-width="2" fill="#0BBFB0" fill-rule="nonzero"></path>
                <path d="M42.5,89.5 C46.09,89.5 49,86.59 49,83 C49,79.41 46.09,76.5 42.5,76.5 C38.91,76.5 36,79.41 36,83 C36,86.59 38.91,89.5 42.5,89.5 Z" id="Path-Copy-2" stroke="#FFFFFF" stroke-width="2" fill="#0BBFB0" fill-rule="nonzero"></path>
            </g>
            <g id="home">
                <path d="M158,125 L236.413,125 C248.011,125 257.513,134.402 257.513,146 C257.513,157.598 266.915,167 278.513,167 L316.547,167 C328.145,167 337.547,157.598 337.547,146 C337.547,134.402 346.949,125 358.547,125 L387.123,125 C398.721,125 408.123,134.402 408.123,146 C408.123,157.598 417.525,167 429.123,167 L566.11,167 C577.708,167 587.11,157.598 587.11,146 C587.11,134.402 596.512,125 608.11,125" id="Path" stroke="#0BBFB0"></path>
                <path d="M10,217 C15.5228,217 20,212.523 20,207 C20,201.477 15.5228,197 10,197 C4.47715,197 0,201.477 0,207 C0,212.523 4.47715,217 10,217 Z" id="Path" stroke="#FFFFFF" stroke-width="2" fill="#5263FF" fill-rule="nonzero"></path>
                <path d="M235,135 C240.523,135 245,130.523 245,125 C245,119.477 240.523,115 235,115 C229.477,115 225,119.477 225,125 C225,130.523 229.477,135 235,135 Z" id="Path" stroke="#FFFFFF" stroke-width="2" fill="#0BBFB0" fill-rule="nonzero"></path>
                <path d="M292,177 C297.523,177 302,172.523 302,167 C302,161.477 297.523,157 292,157 C286.477,157 282,161.477 282,167 C282,172.523 286.477,177 292,177 Z" id="Path" stroke="#FFFFFF" stroke-width="2" fill="#0BBFB0" fill-rule="nonzero"></path>
                <path d="M366,135 C371.523,135 376,130.523 376,125 C376,119.477 371.523,115 366,115 C360.477,115 356,119.477 356,125 C356,130.523 360.477,135 366,135 Z" id="Path" stroke="#FFFFFF" stroke-width="2" fill="#0BBFB0" fill-rule="nonzero"></path>
                <path d="M456,177 C461.523,177 466,172.523 466,167 C466,161.477 461.523,157 456,157 C450.477,157 446,161.477 446,167 C446,172.523 450.477,177 456,177 Z" id="Path" stroke="#FFFFFF" stroke-width="2" fill="#0BBFB0" fill-rule="nonzero"></path>
                <path d="M529,177 C534.523,177 539,172.523 539,167 C539,161.477 534.523,157 529,157 C523.477,157 519,161.477 519,167 C519,172.523 523.477,177 529,177 Z" id="Path" stroke="#FFFFFF" stroke-width="2" fill="#0BBFB0" fill-rule="nonzero"></path>
                <path d="M485,209 C488.866,209 492,205.866 492,202 C492,198.134 488.866,195 485,195 C481.134,195 478,198.134 478,202 C478,205.866 481.134,209 485,209 Z" id="Path" stroke="#FFFFFF" stroke-width="2" fill="#0BBFB0" fill-rule="nonzero"></path>
                <path d="M603,135 C608.523,135 613,130.523 613,125 C613,119.477 608.523,115 603,115 C597.477,115 593,119.477 593,125 C593,130.523 597.477,135 603,135 Z" id="Path" stroke="#FFFFFF" stroke-width="2" fill="#0BBFB0" fill-rule="nonzero"></path>
                <path d="M21.9709,186 L15.0611,179.09 L17.8131,176.338 C18.4335,175.717 19.0869,175.42 19.7732,175.447 C20.4596,175.46 21.1096,175.773 21.7234,176.387 C22.3372,177.001 22.654,177.654 22.6738,178.347 C22.6936,179.027 22.3933,179.677 21.7729,180.297 L19.8524,182.218 L22.8025,185.168 L21.9709,186 Z M19.1199,181.485 L21.0404,179.565 C21.3703,179.235 21.5386,178.895 21.5452,178.545 C21.5584,178.189 21.4066,177.852 21.0898,177.536 L20.5751,177.021 C20.2583,176.704 19.9217,176.552 19.5653,176.565 C19.2155,176.572 18.8757,176.74 18.5457,177.07 L16.6252,178.991 L19.1199,181.485 Z M29.3562,178.614 L28.5246,179.446 L21.6148,172.536 L24.3668,169.784 C24.974,169.177 25.6142,168.872915 26.2873,168.872915 C26.9671,168.867 27.6238,169.18 28.2573,169.814 C28.7655,170.322 29.0658,170.86 29.1582,171.427 C29.2506,171.982 29.1219,172.539 28.7721,173.1 L33.4051,174.565 L32.4646,175.506 L28,174.031 L26.3863,175.644 L29.3562,178.614 Z M27.5941,173.011 C27.9241,172.681 28.0923,172.341 28.0989,171.992 C28.1121,171.635 27.9604,171.299 27.6436,170.982 L27.1288,170.467 C26.812,170.15 26.4754,169.998 26.119,170.012 C25.7693,170.018 25.4294,170.187 25.0994,170.517 L23.1789,172.437 L25.6736,174.932 L27.5941,173.011 Z M35.0804,172.89 L34.3874,172.197 L35.3575,171.227 L29.8336,165.703 L28.8635,166.673 L28.1705,165.98 L30.9424,163.208 L31.6353,163.901 L30.6652,164.872 L36.1891,170.395 L37.1592,169.425 L37.8522,170.118 L35.0804,172.89 Z M39.4853,156.843 L39.4358,156.893 L40.01,158.635 L41.3662,163.298 L36.7036,161.942 L34.9613,161.367 L34.9118,161.417 L40.7327,167.238 L39.9209,168.05 L33.0111,161.14 L34.1198,160.031 L39.8219,161.773 L39.8714,161.724 L38.139,156.012 L39.2082,154.943 L46.118,161.852 L45.3062,162.664 L39.4853,156.843 Z M48.5048,159.466 L41.595,152.556 L45.8121,148.339 L46.5447,149.071 L43.1591,152.457 L45.4756,154.773 L48.6632,151.586 L49.3958,152.318 L46.2081,155.506 L48.6038,157.902 L51.9894,154.516 L52.722,155.249 L48.5048,159.466 Z M55.6581,152.312 L54.8265,153.144 L47.9167,146.234 L50.6687,143.482 C51.2759,142.875 51.9161,142.570915 52.5892,142.570915 C53.269,142.565 53.9257,142.878 54.5592,143.512 C55.0674,144.02 55.3677,144.558 55.4601,145.125 C55.5525,145.68 55.4238,146.237 55.074,146.798 L59.707,148.264 L58.7665,149.204 L54.3018,147.729 L52.6882,149.343 L55.6581,152.312 Z M53.896,146.709 C54.2259,146.379 54.3942,146.039 54.4008,145.69 C54.414,145.333 54.2622,144.997 53.9455,144.68 L53.4307,144.165 C53.1139,143.848 52.7773,143.697 52.4209,143.71 C52.0711,143.716 51.7313,143.885 51.4013,144.215 L49.4808,146.135 L51.9755,148.63 L53.896,146.709 Z" id="Shape" fill="#5263FF" fill-rule="nonzero"></path>
            </g>
        </g>
    </g>
</svg>
