<?xml version="1.0" encoding="UTF-8"?>
<svg width="1024px" height="507px" viewBox="0 0 1024 507" version="1.1" xmlns="http://www.w3.org/2000/svg" xmlns:xlink="http://www.w3.org/1999/xlink">
    <g id="land-affected" stroke="none" stroke-width="1" fill="none" fill-rule="evenodd">
        <g id="axis" transform="translate(179.178856, 81.999273)" stroke="#0BBFB0">
            <line x1="-6.49638123" y1="9.60976899" x2="10.5" y2="10" id="baseline-copy" transform="translate(2.000000, 10.000000) rotate(89.534191) translate(-2.000000, -10.000000) "></line>
            <line x1="126.324763" y1="9.61049604" x2="143.321144" y2="10.000727" id="baseline-copy-2" transform="translate(134.821144, 10.000727) rotate(89.534191) translate(-134.821144, -10.000727) "></line>
            <line x1="258.324763" y1="9.61049604" x2="275.321144" y2="10.000727" id="baseline-copy-3" transform="translate(266.821144, 10.000727) rotate(89.534191) translate(-266.821144, -10.000727) "></line>
            <line x1="390.324763" y1="9.61049604" x2="407.321144" y2="10.000727" id="baseline-copy-4" transform="translate(398.821144, 10.000727) rotate(89.534191) translate(-398.821144, -10.000727) "></line>
            <line x1="523.324763" y1="9.61049604" x2="540.321144" y2="10.000727" id="baseline-copy-5" transform="translate(531.821144, 10.000727) rotate(89.534191) translate(-531.821144, -10.000727) "></line>
            <line x1="656.324763" y1="9.61049604" x2="673.321144" y2="10.000727" id="baseline-copy-6" transform="translate(664.821144, 10.000727) rotate(89.534191) translate(-664.821144, -10.000727) "></line>
        </g>
        <g id="Group-3" transform="translate(433.000000, 275.000000)" stroke-width="2">
            <line x1="1" y1="0" x2="1.5" y2="57" id="Path-2-Copy-8" stroke="#0BBFB0"></line>
            <line x1="17" y1="27" x2="17.5" y2="79" id="Path-2-Copy-9" stroke="#0BBFB0"></line>
            <line x1="9.5" y1="8" x2="9" y2="55" id="Path-2-Copy-10" stroke="#0BBFB0"></line>
            <line x1="25" y1="57" x2="25.5" y2="99" id="Path-2-Copy-11" stroke="#0BBFB0"></line>
            <line x1="1.3" y1="27" x2="1.3" y2="30" id="Path-2-Copy-8" stroke="#006F65"></line>
            <line x1="17.3" y1="51" x2="17.3" y2="55" id="Path-2-Copy-9" stroke="#006F65"></line>
            <line x1="9.3" y1="30" x2="9.3" y2="34" id="Path-2-Copy-10" stroke="#006F65"></line>
            <line x1="25.3" y1="77" x2="25.3" y2="80" id="Path-2-Copy-11" stroke="#006F65"></line>
        </g>
        <g id="slice1" transform="translate(167.000000, 172.000000)" stroke-width="2">
            <line x1="1" y1="48" x2="1.5" y2="105" id="Path-2-Copy-12" stroke="#9BE8C7"></line>
            <line x1="17" y1="0" x2="17.5" y2="88" id="Path-2-Copy-13" stroke="#9BE8C7"></line>
            <line x1="9.5" y1="76" x2="9" y2="123" id="Path-2-Copy-14" stroke="#9BE8C7"></line>
            <line x1="25" y1="66" x2="25" y2="215" id="Path-2-Copy-15" stroke="#9BE8C7"></line>
            <line x1="17.3" y1="60" x2="17.3" y2="64" id="Path-2-Copy-17" stroke="#006F65"></line>
            <line x1="25" y1="86" x2="25" y2="89" id="Path-2-Copy-19" stroke="#006F65"></line>
            <line x1="9.3" y1="98" x2="9.3" y2="102" id="Path-2-Copy-18" stroke="#006F65"></line>
            <line x1="1.3" y1="75" x2="1.3" y2="78" id="Path-2-Copy-16" stroke="#006F65"></line>
        </g>
        <g id="slice2" transform="translate(303.000000, 173.000000)" stroke-width="2">
            <line x1="17" y1="142" x2="17.5" y2="194" id="Path-2-Copy-21" stroke="#0BBFB0"></line>
            <line x1="8.5" y1="8" x2="8" y2="195" id="Path-2-Copy-22" stroke="#0BBFB0"></line>
            <line x1="25" y1="161" x2="25.5" y2="203" id="Path-2-Copy-23" stroke="#0BBFB0"></line>
            <line x1="1" y1="0" x2="1" y2="174" id="Path-2-Copy-20" stroke="#0BBFB0"></line>
            <line x1="1" y1="76" x2="1" y2="79" id="Path-2-Copy-24" stroke="#006F65"></line>
            <line x1="8.5" y1="80" x2="8.5" y2="84" id="Path-2-Copy-26" stroke="#006F65"></line>
            <line x1="17.3" y1="166" x2="17.3" y2="170" id="Path-2-Copy-25" stroke="#006F65"></line>
            <line x1="25.3" y1="181" x2="25.3" y2="184" id="Path-2-Copy-27" stroke="#006F65"></line>
        </g>
        <g id="alice3" transform="translate(572.000000, 131.000000)" stroke-width="2">
            <line x1="15.1009684" y1="117" x2="15.8990316" y2="199.998567" id="Path-2-Copy-29" stroke="#9BE8C7"></line>
            <line x1="7.6657757" y1="70" x2="7.3342243" y2="194.000225" id="Path-2-Copy-30" stroke="#9BE8C7"></line>
            <line x1="26.1785765" y1="128" x2="26.8214235" y2="181.99915" id="Path-2-Copy-31" stroke="#9BE8C7"></line>
            <line x1="7.5" y1="130" x2="7.5" y2="134" id="Path-2-Copy-33" stroke="#006F65"></line>
            <line x1="0.5" y1="0" x2="0.5" y2="123" id="Path-2-Copy-28" stroke="#9BE8C7"></line>
            <line x1="0.5" y1="60" x2="0.5" y2="63" id="Path-2-Copy-32" stroke="#006F65"></line>
            <line x1="26.5" y1="153" x2="26.5" y2="156" id="Path-2-Copy-35" stroke="#006F65"></line>
            <line x1="15.5" y1="156" x2="15.5" y2="160" id="Path-2-Copy-34" stroke="#006F65"></line>
        </g>
        <g id="slice4" transform="translate(702.000000, 127.000000)" stroke-width="2">
            <line x1="17.3990316" y1="58" x2="17.6009684" y2="79.0014332" id="Path-2-Copy-36" stroke="#0BBFB0"></line>
            <line x1="10.5922466" y1="-1.49213975e-13" x2="10.4077534" y2="69.0004214" id="Path-2-Copy-37" stroke="#0BBFB0"></line>
            <line x1="23" y1="34" x2="23.5" y2="76" id="Path-2-Copy-38" stroke="#0BBFB0"></line>
            <line x1="0.5" y1="56" x2="0.5" y2="115" id="Path-2-Copy-39" stroke="#0BBFB0"></line>
            <line x1="0.5" y1="84" x2="0.5" y2="87" id="Path-2-Copy-40" stroke="#006F65"></line>
            <line x1="10.5" y1="33" x2="10.5" y2="37" id="Path-2-Copy-41" stroke="#006F65"></line>
            <line x1="23.3" y1="54" x2="23.3" y2="57" id="Path-2-Copy-43" stroke="#006F65"></line>
            <line x1="17.5" y1="67" x2="17.5" y2="71" id="Path-2-Copy-42" stroke="#006F65"></line>
        </g>
        <g id="slice5" transform="translate(831.000000, 228.000000)" stroke-width="2">
            <line x1="17" y1="59" x2="17.5" y2="111" id="Path-2-Copy-44" stroke="#9BE8C7"></line>
            <line x1="8.61229996" y1="20" x2="8.38770004" y2="104.000368" id="Path-2-Copy-45" stroke="#9BE8C7"></line>
            <line x1="25.0238256" y1="-3.26787208e-14" x2="25.9761744" y2="79.9973075" id="Path-2-Copy-46" stroke="#9BE8C7"></line>
            <line x1="1" y1="12" x2="1" y2="186" id="Path-2-Copy-47" stroke="#9BE8C7"></line>
            <line x1="1" y1="88" x2="1" y2="91" id="Path-2-Copy-48" stroke="#006F65"></line>
            <line x1="8.5" y1="60" x2="8.5" y2="64" id="Path-2-Copy-49" stroke="#006F65"></line>
            <line x1="17.3" y1="83" x2="17.3" y2="87" id="Path-2-Copy-50" stroke="#006F65"></line>
            <line x1="25.5" y1="38" x2="25.5" y2="41" id="Path-2-Copy-51" stroke="#006F65"></line>
        </g>
    </g>
</svg>
