<svg width="53" height="53" viewBox="0 0 53 53" fill="none" xmlns="http://www.w3.org/2000/svg">
<path fill-rule="evenodd" clip-rule="evenodd" d="M26.5 53C41.1355 53 53 41.1355 53 26.5C53 11.8645 41.1355 0 26.5 0C11.8645 0 0 11.8645 0 26.5C0 41.1355 11.8645 53 26.5 53Z" fill="#066840"/>
<path d="M16.856 26.5802L16.8093 26.6072L16.664 28.0836L16.4099 30.4335L14.8116 28.9972L13.9632 28.2296L13.9242 28.2521L15.2828 32.2793L14.2072 32.9003L12.1574 26.8299L13.3421 26.1459L15.6233 28.2791L15.6545 28.2611L15.9766 24.6249L17.2314 23.9004L19.2813 29.9708L18.2057 30.5918L16.856 26.5802ZM20.3664 29.3443L20.0224 28.3166L20.6927 27.9296L19.3386 23.9101L18.6683 24.2971L18.3166 23.2739L20.7951 21.8429L21.1391 22.8706L20.4688 23.2576L21.8229 27.2771L22.4932 26.8901L22.8449 27.9133L20.3664 29.3443ZM26.1918 26.1057C25.9008 26.2737 25.6088 26.3799 25.3158 26.4244C25.028 26.4659 24.7458 26.4452 24.4694 26.3623C24.1899 26.2742 23.9239 26.1195 23.6714 25.8981C23.4188 25.6767 23.1861 25.3815 22.9731 25.0126C22.6971 24.5346 22.5092 24.0472 22.4095 23.5505C22.315 23.0508 22.304 22.5757 22.3764 22.1251C22.4488 21.6745 22.6029 21.2634 22.8386 20.8918C23.0796 20.5171 23.3975 20.2157 23.7924 19.9877C24.2808 19.7057 24.7432 19.5947 25.1796 19.6545C25.6182 19.7061 26.0239 19.9049 26.3968 20.2508L25.6344 21.2522C25.5432 21.1662 25.4487 21.0926 25.351 21.0313C25.2502 20.9647 25.1454 20.9213 25.0367 20.9009C24.9301 20.8724 24.8144 20.8699 24.6895 20.8936C24.5668 20.909 24.4327 20.9587 24.2872 21.0427C23.9234 21.2527 23.6992 21.5484 23.6146 21.9298C23.5352 22.3082 23.5724 22.7267 23.7263 23.1852L24.0498 24.1416C24.0792 24.2285 24.1108 24.3072 24.1446 24.3778C24.1754 24.4431 24.2058 24.5018 24.2358 24.5538C24.6228 25.2241 25.1151 25.3867 25.7127 25.0417C26.0192 24.8647 26.2199 24.6484 26.3148 24.3927C26.4149 24.134 26.4557 23.8506 26.4372 23.5426L27.6278 23.4268C27.6565 24.0407 27.5421 24.5744 27.2844 25.028C27.0289 25.4735 26.6647 25.8327 26.1918 26.1057ZM30.1223 23.7117L28.9921 24.3642L26.9423 18.2939L29.0623 17.0699C29.5819 16.7699 30.0551 16.6595 30.4819 16.7387C30.9139 16.8149 31.2589 17.0764 31.5169 17.5233C31.6339 17.726 31.7208 17.9425 31.7777 18.173C31.8315 18.3982 31.8508 18.6296 31.8355 18.8671C31.8172 19.0993 31.7624 19.3284 31.6711 19.5543C31.582 19.772 31.4493 19.9803 31.2731 20.179L33.1698 21.9522L31.9617 22.6497L30.2584 20.9415L29.3621 21.459L30.1223 23.7117ZM30.1603 19.7095C30.3369 19.6075 30.4606 19.4738 30.5313 19.3082C30.6072 19.1397 30.6105 18.9473 30.541 18.7311C30.498 18.5965 30.4633 18.4884 30.4369 18.4067C30.4075 18.3197 30.3808 18.2555 30.3568 18.2139C30.2878 18.0944 30.1892 18.0197 30.0611 17.9897C29.9351 17.9516 29.7864 17.982 29.6149 18.081L28.4458 18.756L28.9989 20.38L30.1603 19.7095ZM36.4649 20.1745C36.2051 20.3245 35.9317 20.427 35.6446 20.4818C35.3598 20.5285 35.0755 20.516 34.7916 20.4443C34.5099 20.3644 34.235 20.2183 33.9669 20.0059C33.701 19.7853 33.457 19.4828 33.235 19.0983C32.965 18.6306 32.7802 18.1484 32.6805 17.6517C32.5808 17.155 32.5656 16.6788 32.635 16.223C32.7045 15.7673 32.8596 15.3521 33.1006 14.9774C33.3385 14.5975 33.6602 14.2906 34.0655 14.0566C34.3253 13.9066 34.5976 13.8083 34.8824 13.7616C35.1694 13.7067 35.4538 13.7192 35.7354 13.7991C36.0193 13.8708 36.2942 14.0169 36.5601 14.2375C36.8282 14.4499 37.0733 14.7483 37.2953 15.1329C37.5653 15.6005 37.7502 16.0827 37.8499 16.5794C37.9496 17.0761 37.9647 17.5523 37.8953 18.0081C37.8259 18.4638 37.6722 18.8817 37.4343 19.2615C37.1933 19.6362 36.8702 19.9405 36.4649 20.1745ZM35.9623 19.1241C36.3261 18.9141 36.5543 18.6195 36.6472 18.2402C36.74 17.861 36.7031 17.4251 36.5364 16.9324L36.2276 16.0195C36.1952 15.9274 36.1636 15.8486 36.1328 15.7833C36.099 15.7127 36.0656 15.6489 36.0326 15.5917C35.6486 14.9266 35.1604 14.765 34.568 15.107C34.2043 15.317 33.976 15.6117 33.8832 15.9909C33.7904 16.3701 33.8273 16.806 33.9939 17.2987L34.3028 18.2116C34.3322 18.2986 34.3638 18.3773 34.3976 18.4478C34.4314 18.5184 34.4648 18.5823 34.4978 18.6394C34.8818 19.3045 35.37 19.4661 35.9623 19.1241ZM18.4446 36.0553L18.3978 36.0823L18.2526 37.5587L17.9985 39.9086L16.4002 38.4723L15.5517 37.7047L15.5128 37.7272L16.8714 41.7544L15.7958 42.3754L13.746 36.3051L14.9307 35.6211L17.2119 37.7542L17.2431 37.7362L17.5652 34.1001L18.82 33.3756L20.8698 39.4459L19.7942 40.0669L18.4446 36.0553ZM24.4407 37.509C24.1809 37.659 23.9075 37.7614 23.6205 37.8163C23.3357 37.8629 23.0513 37.8504 22.7675 37.7788C22.4858 37.6989 22.2109 37.5528 21.9428 37.3404C21.6769 37.1198 21.4329 36.8172 21.2109 36.4327C20.9409 35.965 20.756 35.4829 20.6563 34.9862C20.5566 34.4895 20.5415 34.0133 20.6109 33.5575C20.6803 33.1017 20.8355 32.6865 21.0765 32.3118C21.3144 31.932 21.636 31.625 22.0413 31.391C22.3011 31.241 22.5734 31.1427 22.8583 31.096C23.1453 31.0412 23.4296 31.0537 23.7113 31.1335C23.9952 31.2052 24.2701 31.3513 24.536 31.5719C24.8041 31.7843 25.0492 32.0828 25.2712 32.4673C25.5412 32.935 25.726 33.4171 25.8257 33.9138C25.9254 34.4105 25.9406 34.8867 25.8712 35.3425C25.8017 35.7983 25.6481 36.2161 25.4101 36.596C25.1692 36.9706 24.846 37.275 24.4407 37.509ZM23.9382 36.4585C24.3019 36.2485 24.5302 35.9539 24.623 35.5747C24.7159 35.1955 24.6789 34.7595 24.5123 34.2668L24.2034 33.354C24.171 33.2618 24.1394 33.1831 24.1086 33.1177C24.0748 33.0472 24.0414 32.9833 24.0084 32.9262C23.6244 32.261 23.1362 32.0995 22.5439 32.4415C22.1801 32.6515 21.9519 32.9461 21.859 33.3253C21.7662 33.7045 21.8031 34.1405 21.9698 34.6332L22.2786 35.5461C22.308 35.633 22.3396 35.7117 22.3734 35.7823C22.4072 35.8528 22.4407 35.9167 22.4737 35.9739C22.8577 36.639 23.3458 36.8005 23.9382 36.4585ZM25.6476 29.4337L27.3935 28.4257C28.043 28.0507 28.6512 27.9282 29.2181 28.0581C29.7903 28.185 30.2698 28.5837 30.6568 29.254C30.9358 29.7372 31.133 30.2227 31.2483 30.7104C31.3635 31.1981 31.3876 31.6657 31.3204 32.1133C31.2553 32.5527 31.0946 32.9642 30.838 33.3478C30.5837 33.7233 30.2279 34.0431 29.7706 34.3071L27.6974 35.5041L25.6476 29.4337ZM29.2882 33.2554C29.6415 33.0514 29.8814 32.7709 30.0078 32.4138C30.1342 32.0568 30.1126 31.6293 29.9429 31.1315L29.668 30.3133C29.6318 30.2026 29.5908 30.1015 29.545 30.0102C29.5044 29.9159 29.4706 29.8453 29.4436 29.7986C29.2546 29.4712 29.039 29.2839 28.7969 29.2366C28.5571 29.1811 28.3046 29.2298 28.0396 29.3828L27.1589 29.8913L28.4542 33.7369L29.2882 33.2554ZM32.1797 25.6623L33.406 29.2983C33.4324 29.3801 33.4674 29.4707 33.5111 29.5702C33.5517 29.6646 33.593 29.7481 33.635 29.8208C33.935 30.3405 34.35 30.4473 34.88 30.1413C35.1917 29.9613 35.3846 29.7252 35.4584 29.4332C35.5323 29.1411 35.4938 28.7684 35.3429 28.3151L34.0815 24.5643L35.1961 23.9208L36.4371 27.6003C36.5812 28.0298 36.6718 28.4209 36.7091 28.7734C36.7516 29.123 36.7318 29.4428 36.6498 29.7326C36.5677 30.0225 36.4264 30.2877 36.2257 30.5282C36.0221 30.7636 35.7515 30.9787 35.4137 31.1737C34.8162 31.5187 34.2734 31.6346 33.7854 31.5215C33.3027 31.4053 32.8933 31.0562 32.5573 30.4742C32.4973 30.3703 32.441 30.2608 32.3884 30.1457C32.3328 30.0254 32.2789 29.8901 32.2269 29.74L31.0652 26.3058L32.1797 25.6623ZM38.5333 29.2479L36.4835 23.1775L37.6137 22.525L39.2901 27.4808L41.2854 26.3288L41.6588 27.4434L38.5333 29.2479ZM42.6269 26.8845L40.5771 20.8141L44.0767 18.7936L44.45 19.9083L42.0884 21.2718L42.5353 22.6038L44.6241 21.3978L44.9975 22.5125L42.9086 23.7185L43.3837 25.1173L45.8311 23.7043L46.2044 24.819L42.6269 26.8845Z" fill="white"/>
</svg>
