<?xml version="1.0" encoding="UTF-8"?>
<svg width="111px" height="275px" viewBox="0 0 111 275" version="1.1" xmlns="http://www.w3.org/2000/svg" xmlns:xlink="http://www.w3.org/1999/xlink">
    <defs>
        <linearGradient x1="-6.68178571%" y1="1.06476639%" x2="-6.68178571%" y2="100%" id="linearGradient-1">
            <stop stop-color="#5263FF" offset="0%"></stop>
            <stop stop-color="#0BBFB0" offset="24.3744721%"></stop>
            <stop stop-color="#0BBFB0" offset="89.9997368%"></stop>
            <stop stop-color="#7A0BBF" offset="100%"></stop>
        </linearGradient>
        <linearGradient x1="37.4969512%" y1="81.252%" x2="100%" y2="81.252%" id="linearGradient-2">
            <stop stop-color="#FFFFFF" offset="0%"></stop>
            <stop stop-color="#0BBFB0" offset="100%"></stop>
        </linearGradient>
        <linearGradient x1="76.2592208%" y1="52.5186441%" x2="76.2592208%" y2="0%" id="linearGradient-3">
            <stop stop-color="#FFFFFF" offset="0%"></stop>
            <stop stop-color="#0BBFB0" offset="100%"></stop>
        </linearGradient>
    </defs>
    <g id="Page-1" stroke="none" stroke-width="1" fill="none" fill-rule="evenodd">
        <g id="navigation">
            <path d="M64,5 L64,20.784 C64,28.516 70.268,34.784 78,34.784 C84.8380296,34.784 90.5310227,39.6863832 91.7560554,46.1682257 C91.9162101,47.0156299 92,47.8900296 92,48.784 L92,214 L92,236 L92,270" id="Path" stroke="url(#linearGradient-1)" stroke-width="0.5"></path>
            <path d="M92,56 L92,83.4818 C92,87.566 88.637,90.8769 84.5528,90.8769 C80.4107,90.8769 77,94.2347 77,98.3769 L77,111.427 C77,115.569 80.3579,118.927 84.5,118.927 C88.6421,118.927 92,122.285 92,126.427 L92,136.162 C92,140.304 88.6421,143.662 84.5,143.662 C80.3579,143.662 77,147.02 77,151.162 L77,198.893 C77,203.035 80.3579,206.393 84.5,206.393 C88.6421,206.393 92,209.751 92,213.893 L92,214" id="Path" stroke="#0BBFB0" stroke-width="0.5"></path>
            <path d="M77,160 L74,160 C68.4772,160 64,164.477 64,170 L64,170" id="Path" stroke="#0BBFB0" stroke-dasharray="2"></path>
            <path d="M92,129 L70.5775,129 C60.0841,129 51.5775,120.493 51.5775,110 L51.5775,73 C51.5775,62.5066 43.0709,54 32.5775,54 L10,54" id="Path" stroke="url(#linearGradient-2)" stroke-dasharray="2"></path>
            <path d="M77,186 L58.2074,186 C49.3708,186 42.2074,193.163 42.2074,202 L42.2074,229 C42.2074,237.837 35.044,245 26.2074,245 L0,245" id="Path" stroke="url(#linearGradient-3)" stroke-dasharray="2"></path>
            <g id="Group" transform="translate(99.618107, 226.500000) rotate(-90.000000) translate(-99.618107, -226.500000) translate(84.118107, 219.000000)" stroke="#0BBFB0" stroke-dasharray="2">
                <path d="M31,1.42108547e-14 L31,1.42108547e-14 C23.8203,1.42108547e-14 18,5.82 18,13 L18,15" id="Path"></path>
                <path d="M13,1.42108547e-14 L13,1.42108547e-14 C5.8203,1.42108547e-14 0,5.82 0,13 L0,15" id="Path-Copy"></path>
                <path d="M20.5,1.42108547e-14 L20.5,1.42108547e-14 C13.8726,1.42108547e-14 8.5,5.373 8.5,12 L8.5,15" id="Path"></path>
            </g>
            <path d="M60.5,4 C60.5,5.933 62.067,7.5 64,7.5 C65.933,7.5 67.5,5.933 67.5,4 C67.5,2.067 65.933,0.5 64,0.5 C62.067,0.5 60.5,2.067 60.5,4 Z" id="Path" stroke="#524DFF" fill="#FFFFFF" fill-rule="nonzero"></path>
            <path d="M89,270.5 C89,272.433 90.567,274 92.5,274 C94.433,274 96,272.433 96,270.5 C96,268.567 94.433,267 92.5,267 C90.567,267 89,268.567 89,270.5 Z" id="Path-Copy-4" stroke="#A818FF" fill="#FFFFFF" fill-rule="nonzero"></path>
            <path d="M88.5,83 C88.5,84.933 90.067,86.5 92,86.5 C93.933,86.5 95.5,84.933 95.5,83 C95.5,81.067 93.933,79.5 92,79.5 C90.067,79.5 88.5,81.067 88.5,83 Z" id="Path" stroke="#0BBFB0" fill="#FFFFFF" fill-rule="nonzero"></path>
            <path d="M73.5,103 C73.5,104.933 75.067,106.5 77,106.5 C78.933,106.5 80.5,104.933 80.5,103 C80.5,101.067 78.933,99.5 77,99.5 C75.067,99.5 73.5,101.067 73.5,103 Z" id="Path" stroke="#0BBFB0" fill="#FFFFFF" fill-rule="nonzero"></path>
            <path d="M88.5,129 C88.5,130.933 90.067,132.5 92,132.5 C93.933,132.5 95.5,130.933 95.5,129 C95.5,127.067 93.933,125.5 92,125.5 C90.067,125.5 88.5,127.067 88.5,129 Z" id="Path" stroke="#0BBFB0" fill="#FFFFFF" fill-rule="nonzero"></path>
            <path d="M73.5,160 C73.5,161.933 75.067,163.5 77,163.5 C78.933,163.5 80.5,161.933 80.5,160 C80.5,158.067 78.933,156.5 77,156.5 C75.067,156.5 73.5,158.067 73.5,160 Z" id="Path" stroke="#0BBFB0" fill="#FFFFFF" fill-rule="nonzero"></path>
            <path d="M73.5,186 C73.5,187.933 75.067,189.5 77,189.5 C78.933,189.5 80.5,187.933 80.5,186 C80.5,184.067 78.933,182.5 77,182.5 C75.067,182.5 73.5,184.067 73.5,186 Z" id="Path" stroke="#0BBFB0" fill="#FFFFFF" fill-rule="nonzero"></path>
            <path d="M62.5,171 C62.5,172.381 63.6193,173.5 65,173.5 C66.3807,173.5 67.5,172.381 67.5,171 C67.5,169.619 66.3807,168.5 65,168.5 C63.6193,168.5 62.5,169.619 62.5,171 Z" id="Path" stroke="#0BBFB0" fill="#FFFFFF" fill-rule="nonzero"></path>
            <path d="M88.5,212.5 C88.5,214.433 90.067,216 92,216 C93.933,216 95.5,214.433 95.5,212.5 C95.5,210.567 93.933,209 92,209 C90.067,209 88.5,210.567 88.5,212.5 Z" id="Path" stroke="#0BBFB0" fill="#FFFFFF" fill-rule="nonzero"></path>
            <path d="M105,224.595358 C105,225.976358 106.1193,227.095358 107.5,227.095358 C108.8807,227.095358 110,225.976358 110,224.595358 C110,223.214358 108.8807,222.095358 107.5,222.095358 C106.1193,222.095358 105,223.214358 105,224.595358 Z" id="Path" stroke="#0BBFB0" fill="#FFFFFF" fill-rule="nonzero"></path>
            <path d="M105,233.5 C105,234.881 106.1193,236 107.5,236 C108.8807,236 110,234.881 110,233.5 C110,232.119 108.8807,231 107.5,231 C106.1193,231 105,232.119 105,233.5 Z" id="Path-Copy-2" stroke="#0BBFB0" fill="#FFFFFF" fill-rule="nonzero"></path>
            <path d="M105,241.5 C105,242.881 106.1193,244 107.5,244 C108.8807,244 110,242.881 110,241.5 C110,240.119 108.8807,239 107.5,239 C106.1193,239 105,240.119 105,241.5 Z" id="Path-Copy-3" stroke="#0BBFB0" fill="#FFFFFF" fill-rule="nonzero"></path>
        </g>
    </g>
</svg>
