<?xml version="1.0" encoding="UTF-8"?>
<svg width="100px" height="310px" viewBox="0 0 54 275" version="1.1" xmlns="http://www.w3.org/2000/svg" xmlns:xlink="http://www.w3.org/1999/xlink">
    <title>Group</title>
    <defs>
        <linearGradient x1="-6.68178571%" y1="1.06476639%" x2="-6.68178571%" y2="100%" id="linearGradient-1">
            <stop stop-color="#5263FF" offset="0%"></stop>
            <stop stop-color="#0BBFB0" offset="24.3744721%"></stop>
            <stop stop-color="#0BBFB0" offset="72.965588%"></stop>
            <stop stop-color="#7A0BBF" offset="100%"></stop>
        </linearGradient>
        <linearGradient x1="50%" y1="0%" x2="50%" y2="100%" id="linearGradient-2">
            <stop stop-color="#524DFF" offset="0%"></stop>
            <stop stop-color="#0BBFB0" offset="100%"></stop>
        </linearGradient>
        <linearGradient x1="-22.4865217%" y1="0%" x2="100%" y2="0%" id="linearGradient-3">
            <stop stop-color="#D335FF" offset="0%"></stop>
            <stop stop-color="#A818FF" stop-opacity="0" offset="100%"></stop>
        </linearGradient>
    </defs>
    <g id="Page-1" stroke="none" stroke-width="1" fill="none" fill-rule="evenodd">
        <g id="Group" transform="translate(1.635350, 1.500000)">
            <path d="M12.3646498,4.5 L12.3646498,83.5 C12.3646498,87.918278 15.9463718,91.5 20.3646498,91.5 L21.3646498,91.5 C25.7829278,91.5 29.3646498,95.081722 29.3646498,99.5 L29.3646498,118.5 C29.3646498,122.918278 25.7829278,126.5 21.3646498,126.5 L20.3646498,126.5 C15.9463718,126.5 12.3646498,130.081722 12.3646498,134.5 L12.3646498,148.5 C12.3646498,151.261424 14.6032261,153.5 17.3646498,153.5 C20.1260736,153.5 22.3646498,155.738576 22.3646498,158.5 L22.3646498,189.5 C22.3646498,192.261424 20.1260736,194.5 17.3646498,194.5 C14.6032261,194.5 12.3646498,196.738576 12.3646498,199.5 L12.3646498,213.5 L12.3646498,213.5 L12.3646498,235.5 L12.3646498,253.5 C12.3646498,262.336556 19.5280939,269.5 28.3646498,269.5 L28.3646498,269.5 L28.3646498,269.5" id="Path" stroke="url(#linearGradient-1)" stroke-width="0.5"></path>
            <path d="M12.3646498,27.5 L7.36464985,27.5 C4.6032261,27.5 2.36464985,29.7385763 2.36464985,32.5 L2.36464985,60.5 C2.36464985,63.2614237 4.6032261,65.5 7.36464985,65.5 L12.3646498,65.5 L12.3646498,65.5" id="Path-2" stroke="url(#linearGradient-2)" stroke-width="0.5"></path>
            <line x1="30.3646498" y1="269.5" x2="51.3646498" y2="269.5" id="Path-3" stroke="url(#linearGradient-3)" stroke-width="1" stroke-dasharray="2"></line>
            <line x1="30.2386025" y1="109.286876" x2="51.2386025" y2="109.286876" id="Path-3-Copy" stroke="url(#linearGradient-3)" stroke-width="1" stroke-dasharray="2"></line>
            <line x1="12.3275055" y1="45.9099522" x2="33.3275055" y2="45.9099522" id="Path-3-Copy-2" stroke="url(#linearGradient-3)" stroke-width="1" stroke-dasharray="2"></line>
            <path d="M9.36464985,3.5 C9.36464985,5.433 10.9316498,7 12.8646498,7 C14.7976498,7 16.3646498,5.433 16.3646498,3.5 C16.3646498,1.567 14.7976498,0 12.8646498,0 C10.9316498,0 9.36464985,1.567 9.36464985,3.5 Z" id="Path" stroke="#524DFF" fill="#FFFFFF" fill-rule="nonzero"></path>
            <path d="M26.3646498,269 C26.3646498,270.933 27.9316498,272.5 29.8646498,272.5 C31.7976498,272.5 33.3646498,270.933 33.3646498,269 C33.3646498,267.067 31.7976498,265.5 29.8646498,265.5 C27.9316498,265.5 26.3646498,267.067 26.3646498,269 Z" id="Path-Copy-4" stroke="#A818FF" fill="#FFFFFF" fill-rule="nonzero"></path>
            <path d="M9.36464985,208 C9.36464985,209.933 10.9316498,211.5 12.8646498,211.5 C14.7976498,211.5 16.3646498,209.933 16.3646498,208 C16.3646498,206.067 14.7976498,204.5 12.8646498,204.5 C10.9316498,204.5 9.36464985,206.067 9.36464985,208 Z" id="Path" stroke="#0BBFB0" fill="#FFFFFF" fill-rule="nonzero"></path>
            <path d="M8.81310076,142.803183 C8.81310076,144.736183 10.3801008,146.303183 12.3131008,146.303183 C14.2461008,146.303183 15.8131008,144.736183 15.8131008,142.803183 C15.8131008,140.870183 14.2461008,139.303183 12.3131008,139.303183 C10.3801008,139.303183 8.81310076,140.870183 8.81310076,142.803183 Z" id="Path-Copy" stroke="#0BBFB0" fill="#FFFFFF" fill-rule="nonzero"></path>
            <path d="M18.9383622,163 C18.9383622,164.933 20.5053622,166.5 22.4383622,166.5 C24.3713622,166.5 25.9383622,164.933 25.9383622,163 C25.9383622,161.067 24.3713622,159.5 22.4383622,159.5 C20.5053622,159.5 18.9383622,161.067 18.9383622,163 Z" id="Path-Copy-4" stroke="#0BBFB0" fill="#FFFFFF" fill-rule="nonzero"></path>
            <path d="M25.9516225,109 C25.9516225,110.933 27.5186225,112.5 29.4516225,112.5 C31.3846225,112.5 32.9516225,110.933 32.9516225,109 C32.9516225,107.067 31.3846225,105.5 29.4516225,105.5 C27.5186225,105.5 25.9516225,107.067 25.9516225,109 Z" id="Path-Copy-3" stroke="#0BBFB0" fill="#FFFFFF" fill-rule="nonzero"></path>
            <path d="M9.36464985,79 C9.36464985,80.933 10.9316498,82.5 12.8646498,82.5 C14.7976498,82.5 16.3646498,80.933 16.3646498,79 C16.3646498,77.067 14.7976498,75.5 12.8646498,75.5 C10.9316498,75.5 9.36464985,77.067 9.36464985,79 Z" id="Path-Copy-2" stroke="#0BBFB0" fill="#FFFFFF" fill-rule="nonzero"></path>
            <path d="M0,36 C0,37.381 1.1193,38.5 2.5,38.5 C3.8807,38.5 5,37.381 5,36 C5,34.619 3.8807,33.5 2.5,33.5 C1.1193,33.5 0,34.619 0,36 Z" id="Path" stroke="#524DFF" fill="#FFFFFF" fill-rule="nonzero"></path>
            <path d="M0,46 C0,47.381 1.1193,48.5 2.5,48.5 C3.8807,48.5 5,47.381 5,46 C5,44.619 3.8807,43.5 2.5,43.5 C1.1193,43.5 0,44.619 0,46 Z" id="Path-Copy-2" stroke="#524DFF" fill="#FFFFFF" fill-rule="nonzero"></path>
            <path d="M0,56 C0,57.381 1.1193,58.5 2.5,58.5 C3.8807,58.5 5,57.381 5,56 C5,54.619 3.8807,53.5 2.5,53.5 C1.1193,53.5 0,54.619 0,56 Z" id="Path-Copy-3" stroke="#524DFF" fill="#FFFFFF" fill-rule="nonzero"></path>
            <circle id="Oval" fill="#0BBFB0" cx="15.3646498" cy="46" r="1"></circle>
            <circle id="Oval-Copy" fill="#0BBFB0" cx="14.3646498" cy="136.5" r="1"></circle>
            <circle id="Oval-Copy-3" fill="#0BBFB0" cx="18.3646498" cy="190.5" r="1"></circle>
            <circle id="Oval-Copy-2" fill="#0BBFB0" cx="27.3646498" cy="102.5" r="1"></circle>
        </g>
    </g>
</svg>
