<?xml version="1.0" encoding="UTF-8" standalone="no"?>
<!DOCTYPE svg PUBLIC "-//W3C//DTD SVG 1.1//EN" "http://www.w3.org/Graphics/SVG/1.1/DTD/svg11.dtd">
<svg width="100px" height="310px" viewBox="0 0 100 310" version="1.1" xmlns="http://www.w3.org/2000/svg" xmlns:xlink="http://www.w3.org/1999/xlink" xml:space="preserve" xmlns:serif="http://www.serif.com/" style="fill-rule:evenodd;clip-rule:evenodd;">
    <g transform="matrix(1,0,0,1,1.84349,1.69091)">
        <g id="Page-1">
            <g id="Group">
                <path id="Path" d="M33.502,5.073L33.502,94.127C33.502,99.108 37.54,103.145 42.52,103.145L43.647,103.145C48.628,103.145 52.666,107.183 52.666,112.164L52.666,133.582C52.666,138.562 48.628,142.6 43.647,142.6L42.52,142.6C37.54,142.6 33.502,146.638 33.502,151.618L33.502,167.4C33.502,170.513 36.025,173.036 39.138,173.036C42.251,173.036 44.775,175.56 44.775,178.673L44.775,213.618C44.775,216.731 42.251,219.255 39.138,219.255C36.025,219.255 33.502,221.778 33.502,224.891L33.502,285.764C33.502,295.725 41.577,303.8 51.538,303.8" style="fill:none;stroke:url(#_Linear1);stroke-width:0.56px;"/>
                <path id="Path-2" d="M33.502,31L27.866,31C24.753,31 22.229,33.523 22.229,36.636L22.229,68.2C22.229,71.313 24.753,73.836 27.866,73.836L33.502,73.836" style="fill:none;stroke:url(#_Linear2);stroke-width:0.56px;"/>
                <path id="Path-3" d="M53.793,303.8L77.466,303.8" style="fill:none;stroke:url(#_Linear3);stroke-width:1.13px;stroke-dasharray:2,2;"/>
                <path id="Path-3-Copy" d="M53.651,123.196L77.324,123.196" style="fill:none;stroke:url(#_Linear4);stroke-width:1.13px;stroke-dasharray:2,2;"/>
                <path id="Path-3-Copy-2" d="M33.46,51.753L57.133,51.753" style="fill:none;stroke:url(#_Linear5);stroke-width:1.13px;stroke-dasharray:2,2;"/>
                <path id="Path1" serif:id="Path" d="M30.12,3.945C30.12,6.124 31.887,7.891 34.066,7.891C36.245,7.891 38.011,6.124 38.011,3.945C38.011,1.766 36.245,0 34.066,0C31.887,0 30.12,1.766 30.12,3.945Z" style="fill:white;fill-rule:nonzero;stroke:rgb(82,77,255);stroke-width:1.13px;"/>
                <path id="Path-Copy-4" d="M49.284,303.236C49.284,305.415 51.05,307.182 53.229,307.182C55.408,307.182 57.175,305.415 57.175,303.236C57.175,301.057 55.408,299.291 53.229,299.291C51.05,299.291 49.284,301.057 49.284,303.236Z" style="fill:white;fill-rule:nonzero;stroke:rgb(168,24,255);stroke-width:1.13px;"/>
                <path id="Path2" serif:id="Path" d="M30.12,234.473C30.12,236.652 31.887,238.418 34.066,238.418C36.245,238.418 38.011,236.652 38.011,234.473C38.011,232.294 36.245,230.527 34.066,230.527C31.887,230.527 30.12,232.294 30.12,234.473Z" style="fill:white;fill-rule:nonzero;stroke:rgb(11,191,176);stroke-width:1.13px;"/>
                <path id="Path-Copy" d="M29.498,160.978C29.498,163.157 31.265,164.924 33.444,164.924C35.623,164.924 37.389,163.157 37.389,160.978C37.389,158.799 35.623,157.033 33.444,157.033C31.265,157.033 29.498,158.799 29.498,160.978Z" style="fill:white;fill-rule:nonzero;stroke:rgb(11,191,176);stroke-width:1.13px;"/>
                <path id="Path-Copy-41" serif:id="Path-Copy-4" d="M40.912,183.745C40.912,185.924 42.679,187.691 44.858,187.691C47.037,187.691 48.803,185.924 48.803,183.745C48.803,181.566 47.037,179.8 44.858,179.8C42.679,179.8 40.912,181.566 40.912,183.745Z" style="fill:white;fill-rule:nonzero;stroke:rgb(11,191,176);stroke-width:1.13px;"/>
                <path id="Path-Copy-3" d="M48.818,122.873C48.818,125.052 50.585,126.818 52.764,126.818C54.943,126.818 56.709,125.052 56.709,122.873C56.709,120.694 54.943,118.927 52.764,118.927C50.585,118.927 48.818,120.694 48.818,122.873Z" style="fill:white;fill-rule:nonzero;stroke:rgb(11,191,176);stroke-width:1.13px;"/>
                <g id="Path-Copy-2" transform="matrix(1,0,0,1,2.45228,11.782)">
                    <path d="M30.12,89.055C30.12,91.234 31.887,93 34.066,93C36.245,93 38.011,91.234 38.011,89.055C38.011,86.876 36.245,85.109 34.066,85.109C31.887,85.109 30.12,86.876 30.12,89.055Z" style="fill:white;fill-rule:nonzero;stroke:rgb(11,191,176);stroke-width:1.13px;"/>
                </g>
                <g id="Path-Copy-21" serif:id="Path-Copy-2" transform="matrix(1,0,0,1,-0.636313,-5.50174)">
                    <path d="M30.12,89.055C30.12,91.234 31.887,93 34.066,93C36.245,93 38.011,91.234 38.011,89.055C38.011,86.876 36.245,85.109 34.066,85.109C31.887,85.109 30.12,86.876 30.12,89.055Z" style="fill:white;fill-rule:nonzero;stroke:rgb(11,191,176);stroke-width:1.13px;"/>
                </g>
                <path id="Path3" serif:id="Path" d="M19.564,40.582C19.564,42.139 20.825,43.4 22.382,43.4C23.938,43.4 25.2,42.139 25.2,40.582C25.2,39.025 23.938,37.764 22.382,37.764C20.825,37.764 19.564,39.025 19.564,40.582Z" style="fill:white;fill-rule:nonzero;stroke:rgb(82,77,255);stroke-width:1.13px;"/>
                <path id="Path-Copy-22" serif:id="Path-Copy-2" d="M19.564,51.855C19.564,53.411 20.825,54.673 22.382,54.673C23.938,54.673 25.2,53.411 25.2,51.855C25.2,50.298 23.938,49.036 22.382,49.036C20.825,49.036 19.564,50.298 19.564,51.855Z" style="fill:white;fill-rule:nonzero;stroke:rgb(82,77,255);stroke-width:1.13px;"/>
                <path id="Path-Copy-31" serif:id="Path-Copy-3" d="M19.564,63.127C19.564,64.684 20.825,65.945 22.382,65.945C23.938,65.945 25.2,64.684 25.2,63.127C25.2,61.571 23.938,60.309 22.382,60.309C20.825,60.309 19.564,61.571 19.564,63.127Z" style="fill:white;fill-rule:nonzero;stroke:rgb(82,77,255);stroke-width:1.13px;"/>
                <circle id="Oval" cx="36.884" cy="51.855" r="1.127" style="fill:rgb(11,191,176);"/>
                <circle id="Oval-Copy" cx="35.757" cy="153.873" r="1.127" style="fill:rgb(11,191,176);"/>
                <circle id="Oval-Copy-3" cx="40.266" cy="214.745" r="1.127" style="fill:rgb(11,191,176);"/>
                <circle id="Oval-Copy-2" cx="50.411" cy="115.545" r="1.127" style="fill:rgb(11,191,176);"/>
            </g>
        </g>
    </g>
    <defs>
        <linearGradient id="_Linear1" x1="0" y1="0" x2="1" y2="0" gradientUnits="userSpaceOnUse" gradientTransform="matrix(1.8097e-14,295.547,-295.547,1.8097e-14,32.2215,8.25347)"><stop offset="0" style="stop-color:rgb(82,99,255);stop-opacity:1"/><stop offset="0.24" style="stop-color:rgb(11,191,176);stop-opacity:1"/><stop offset="0.73" style="stop-color:rgb(11,191,176);stop-opacity:1"/><stop offset="1" style="stop-color:rgb(122,11,191);stop-opacity:1"/></linearGradient>
        <linearGradient id="_Linear2" x1="0" y1="0" x2="1" y2="0" gradientUnits="userSpaceOnUse" gradientTransform="matrix(2.62297e-15,42.8364,-42.8364,2.62297e-15,27.8656,31)"><stop offset="0" style="stop-color:rgb(82,77,255);stop-opacity:1"/><stop offset="1" style="stop-color:rgb(11,191,176);stop-opacity:1"/></linearGradient>
        <linearGradient id="_Linear3" x1="0" y1="0" x2="1" y2="0" gradientUnits="userSpaceOnUse" gradientTransform="matrix(2e-06,0,0,2e-06,-1219.63,303.8)"><stop offset="0" style="stop-color:rgb(211,53,255);stop-opacity:1"/><stop offset="1" style="stop-color:rgb(168,24,255);stop-opacity:0"/></linearGradient>
        <linearGradient id="_Linear4" x1="0" y1="0" x2="1" y2="0" gradientUnits="userSpaceOnUse" gradientTransform="matrix(2e-06,0,0,2e-06,-1216.41,123.196)"><stop offset="0" style="stop-color:rgb(211,53,255);stop-opacity:1"/><stop offset="1" style="stop-color:rgb(168,24,255);stop-opacity:0"/></linearGradient>
        <linearGradient id="_Linear5" x1="0" y1="0" x2="1" y2="0" gradientUnits="userSpaceOnUse" gradientTransform="matrix(2e-06,0,0,2e-06,-758.632,51.753)"><stop offset="0" style="stop-color:rgb(211,53,255);stop-opacity:1"/><stop offset="1" style="stop-color:rgb(168,24,255);stop-opacity:0"/></linearGradient>
    </defs>
</svg>
