<svg width="706" height="146" viewBox="0 0 706 146" fill="none" xmlns="http://www.w3.org/2000/svg">
<path fill-rule="evenodd" clip-rule="evenodd" d="M89 145C128.765 145 161 112.765 161 73C161 33.2355 128.765 1 89 1C49.2355 1 17 33.2355 17 73C17 112.765 49.2355 145 89 145Z" stroke="#5263FF"/>
<path d="M45.2915 105.452L38.7653 99.5482L40.3657 98.6242L43.4565 101.482L45.342 103.428L45.3732 103.41L44.61 100.816L43.6808 96.7102L45.2293 95.8162L47.0582 104.432L45.2915 105.452ZM50.499 102.445L49.773 101.188L50.7083 100.648L47.9723 95.9091L47.037 96.4491L46.311 95.1917L49.7613 93.1997L50.4873 94.4571L49.5519 94.9971L52.2879 99.736L53.2233 99.196L53.9493 100.453L50.499 102.445ZM58.0986 98.2241C57.4612 98.5921 56.8588 98.7968 56.2914 98.838C55.72 98.8723 55.1784 98.8062 54.6666 98.6398L55.0998 96.9902C55.9118 97.2604 56.678 97.1876 57.3985 96.7716C57.7865 96.5476 58.028 96.3019 58.1231 96.0346C58.2181 95.7672 58.1897 95.5019 58.0377 95.2386C57.9217 95.0377 57.7702 94.9034 57.5834 94.8358C57.3925 94.7612 57.1134 94.7977 56.7459 94.9452L55.9748 95.2657C55.1498 95.6127 54.4511 95.7066 53.8789 95.5474C53.3135 95.3842 52.8549 94.9978 52.5029 94.3881C52.3149 94.0624 52.2052 93.7285 52.1739 93.3863C52.1426 93.0441 52.1853 92.71 52.3019 92.384C52.4255 92.0541 52.6235 91.7411 52.8961 91.4452C53.1716 91.1383 53.5241 90.8609 53.9536 90.6129C54.501 90.2969 55.0325 90.1055 55.5482 90.0387C56.0639 89.9719 56.5667 90.0188 57.0566 90.1793L56.619 91.8454C56.3298 91.7444 56.0244 91.7036 55.703 91.7229C55.3845 91.7313 55.0382 91.8435 54.6641 92.0595C54.3108 92.2635 54.0835 92.4778 53.9823 92.7025C53.8811 92.9272 53.8945 93.1504 54.0225 93.3721C54.1665 93.6216 54.3363 93.7637 54.5319 93.7985C54.7345 93.8294 55.0022 93.7811 55.335 93.6536L56.1181 93.3539C56.9344 93.0397 57.6226 92.9518 58.1829 93.0902C58.7392 93.2217 59.1993 93.6026 59.5633 94.2331C59.7633 94.5795 59.8849 94.9342 59.9282 95.2972C59.9715 95.6602 59.9319 96.0156 59.8094 96.3634C59.6939 96.7073 59.4934 97.0401 59.2081 97.3619C58.9187 97.6767 58.5489 97.9641 58.0986 98.2241ZM62.2949 95.6351L61.5689 94.3776L62.5043 93.8376L59.7683 89.0987L58.8329 89.6387L58.1069 88.3813L61.5572 86.3893L62.2832 87.6467L61.3479 88.1867L64.0839 92.9256L65.0192 92.3856L65.7452 93.6431L62.2949 95.6351ZM67.0794 85.0716L70.4574 90.9225L68.8778 91.8345L65.4998 85.9836L63.5356 87.1176L62.7256 85.7147L68.2336 82.5347L69.0436 83.9376L67.0794 85.0716ZM76.4295 79.6733L79.8075 85.5242L78.2279 86.4362L74.8499 80.5853L72.8857 81.7193L72.0757 80.3164L77.5837 77.1364L78.3937 78.5393L76.4295 79.6733ZM85.8929 78.0479L83.1285 79.6439L84.8445 82.6161L83.2649 83.5281L79.0769 76.2743L80.6565 75.3623L82.3245 78.2513L85.0889 76.6553L83.4209 73.7663L85.0005 72.8543L89.1885 80.1081L87.6089 81.0201L85.8929 78.0479ZM91.1977 78.9481L87.0097 71.6943L91.946 68.8443L92.756 70.2472L89.3993 72.1852L90.2573 73.6713L93.136 72.0093L93.94 73.4019L91.0613 75.0639L91.9673 76.6331L95.324 74.6951L96.134 76.0981L91.1977 78.9481ZM100.791 73.4092L96.6033 66.1554L100.033 64.1754C100.372 63.9794 100.711 63.8623 101.049 63.824C101.384 63.7789 101.702 63.8028 102.005 63.8957C102.315 63.9846 102.606 64.1446 102.878 64.3755C103.146 64.5996 103.378 64.8814 103.574 65.2209C103.774 65.5673 103.904 65.9125 103.964 66.2566C104.024 66.6006 104.015 66.9291 103.937 67.242C103.866 67.5509 103.73 67.8423 103.527 68.1161C103.321 68.3829 103.048 68.6143 102.709 68.8103L100.859 69.8783L102.371 72.4972L100.791 73.4092ZM100.067 68.5066L101.73 67.5466C101.965 67.4106 102.115 67.2457 102.179 67.0519C102.245 66.8472 102.21 66.627 102.074 66.3915L101.81 65.9342C101.674 65.6987 101.503 65.562 101.297 65.5242C101.093 65.4755 100.873 65.5192 100.638 65.6552L98.975 66.6152L100.067 68.5066ZM109.603 68.3215L108.024 69.2335L103.836 61.9797L107.276 59.9937C107.608 59.8017 107.942 59.6831 108.276 59.6379C108.61 59.5928 108.931 59.6201 109.238 59.72C109.548 59.8089 109.837 59.9654 110.105 60.1895C110.373 60.4135 110.606 60.6987 110.806 61.0452C111.09 61.5371 111.228 62.0306 111.218 62.5258C111.215 63.017 111.04 63.4737 110.693 63.896L113.76 65.9215L112.004 66.9355L109.2 65.0071L108.067 65.6611L109.603 68.3215ZM108.962 63.3709C109.198 63.2349 109.347 63.07 109.411 62.8762C109.478 62.6715 109.443 62.4513 109.307 62.2158L109.043 61.7585C108.907 61.523 108.736 61.3863 108.529 61.3485C108.325 61.2998 108.106 61.3435 107.87 61.4795L106.207 62.4395L107.299 64.3309L108.962 63.3709ZM115.158 65.1143L114.432 63.8569L115.368 63.3169L112.632 58.578L111.696 59.118L110.97 57.8605L114.421 55.8685L115.147 57.126L114.211 57.666L116.947 62.4049L117.883 61.8649L118.609 63.1223L115.158 65.1143ZM123.014 54.2326L122.983 54.2506L123.065 55.6166L123.134 58.9995L120.275 57.241L119.065 56.4159L119.033 56.4339L121.823 61.2663L120.337 62.1243L116.149 54.8705L117.823 53.9045L121.562 56.2767L121.582 56.2647L121.377 51.8525L123.06 50.8805L127.248 58.1343L125.762 58.9923L123.014 54.2326ZM129.265 56.9701L125.077 49.7162L130.013 46.8662L130.823 48.2692L127.466 50.2072L128.324 51.6933L131.203 50.0313L132.007 51.4239L129.128 53.0859L130.034 54.6551L133.391 52.7171L134.201 54.1201L129.265 56.9701ZM137.569 52.1753L135.99 53.0873L131.802 45.8335L135.242 43.8475C135.574 43.6555 135.908 43.5369 136.242 43.4918C136.576 43.4466 136.897 43.474 137.204 43.5738C137.514 43.6627 137.803 43.8192 138.071 44.0433C138.339 44.2673 138.572 44.5526 138.772 44.899C139.056 45.3909 139.194 45.8844 139.184 46.3796C139.181 46.8708 139.006 47.3276 138.659 47.7498L141.726 49.7753L139.97 50.7893L137.166 48.8609L136.033 49.5149L137.569 52.1753ZM136.928 47.2247C137.164 47.0887 137.313 46.9238 137.377 46.73C137.444 46.5253 137.409 46.3052 137.273 46.0696L137.009 45.6124C136.873 45.3768 136.702 45.2401 136.495 45.2023C136.291 45.1536 136.072 45.1973 135.836 45.3333L134.173 46.2933L135.265 48.1847L136.928 47.2247Z" fill="#5263FF"/>
<path d="M199.677 10.228H203.695C204.507 10.228 205.141 10.4567 205.599 10.914C206.065 11.3713 206.299 11.9827 206.299 12.748C206.299 13.112 206.247 13.42 206.145 13.672C206.042 13.924 205.911 14.134 205.753 14.302C205.594 14.4607 205.421 14.582 205.235 14.666C205.048 14.7407 204.875 14.792 204.717 14.82V14.904C204.894 14.9133 205.09 14.96 205.305 15.044C205.529 15.128 205.739 15.2633 205.935 15.45C206.131 15.6273 206.294 15.8607 206.425 16.15C206.565 16.43 206.635 16.7707 206.635 17.172C206.635 17.5733 206.569 17.9467 206.439 18.292C206.317 18.6373 206.145 18.936 205.921 19.188C205.697 19.44 205.431 19.6407 205.123 19.79C204.815 19.93 204.479 20 204.115 20H199.677V10.228ZM200.853 18.964H203.751C204.255 18.964 204.651 18.838 204.941 18.586C205.23 18.3247 205.375 17.9467 205.375 17.452V16.976C205.375 16.4813 205.23 16.108 204.941 15.856C204.651 15.5947 204.255 15.464 203.751 15.464H200.853V18.964ZM200.853 14.456H203.555C204.021 14.456 204.385 14.3393 204.647 14.106C204.908 13.8727 205.039 13.5367 205.039 13.098V12.622C205.039 12.1833 204.908 11.8473 204.647 11.614C204.385 11.3807 204.021 11.264 203.555 11.264H200.853V14.456ZM209.379 20V10.228H215.343V11.264H210.555V14.54H215.063V15.576H210.555V18.964H215.343V20H209.379ZM218.097 20V10.228H223.921V11.264H219.273V14.54H223.515V15.576H219.273V20H218.097ZM229.894 20.168C229.26 20.168 228.686 20.0607 228.172 19.846C227.668 19.622 227.234 19.3 226.87 18.88C226.516 18.4507 226.24 17.9233 226.044 17.298C225.848 16.6633 225.75 15.9353 225.75 15.114C225.75 14.2927 225.848 13.5693 226.044 12.944C226.24 12.3187 226.516 11.7913 226.87 11.362C227.234 10.9327 227.668 10.6107 228.172 10.396C228.686 10.172 229.26 10.06 229.894 10.06C230.52 10.06 231.089 10.172 231.602 10.396C232.116 10.6107 232.55 10.9327 232.904 11.362C233.268 11.7913 233.548 12.3187 233.744 12.944C233.94 13.5693 234.038 14.2927 234.038 15.114C234.038 15.9353 233.94 16.6633 233.744 17.298C233.548 17.9233 233.268 18.4507 232.904 18.88C232.55 19.3 232.116 19.622 231.602 19.846C231.089 20.0607 230.52 20.168 229.894 20.168ZM229.894 19.118C230.314 19.118 230.702 19.0433 231.056 18.894C231.411 18.7447 231.714 18.53 231.966 18.25C232.228 17.97 232.428 17.634 232.568 17.242C232.708 16.85 232.778 16.4113 232.778 15.926V14.302C232.778 13.8167 232.708 13.378 232.568 12.986C232.428 12.594 232.228 12.258 231.966 11.978C231.714 11.698 231.411 11.4833 231.056 11.334C230.702 11.1847 230.314 11.11 229.894 11.11C229.474 11.11 229.087 11.1847 228.732 11.334C228.378 11.4833 228.07 11.698 227.808 11.978C227.556 12.258 227.36 12.594 227.22 12.986C227.08 13.378 227.01 13.8167 227.01 14.302V15.926C227.01 16.4113 227.08 16.85 227.22 17.242C227.36 17.634 227.556 17.97 227.808 18.25C228.07 18.53 228.378 18.7447 228.732 18.894C229.087 19.0433 229.474 19.118 229.894 19.118ZM237.884 20H236.708V10.228H240.6C241.459 10.228 242.126 10.466 242.602 10.942C243.088 11.418 243.33 12.104 243.33 13C243.33 13.7187 243.162 14.3113 242.826 14.778C242.5 15.2353 242.014 15.5387 241.37 15.688L243.61 20H242.28L240.166 15.8H237.884V20ZM240.6 14.792C241.067 14.792 241.426 14.6707 241.678 14.428C241.94 14.1853 242.07 13.84 242.07 13.392V12.664C242.07 12.216 241.94 11.8707 241.678 11.628C241.426 11.3853 241.067 11.264 240.6 11.264H237.884V14.792H240.6ZM246.219 20V10.228H252.183V11.264H247.395V14.54H251.903V15.576H247.395V18.964H252.183V20H246.219ZM261.042 20V16.136L257.682 10.228H259.026L261.63 14.932H261.672L264.276 10.228H265.62L262.218 16.094V20H261.042ZM270.886 20.168C270.252 20.168 269.678 20.0607 269.164 19.846C268.66 19.622 268.226 19.3 267.862 18.88C267.508 18.4507 267.232 17.9233 267.036 17.298C266.84 16.6633 266.742 15.9353 266.742 15.114C266.742 14.2927 266.84 13.5693 267.036 12.944C267.232 12.3187 267.508 11.7913 267.862 11.362C268.226 10.9327 268.66 10.6107 269.164 10.396C269.678 10.172 270.252 10.06 270.886 10.06C271.512 10.06 272.081 10.172 272.594 10.396C273.108 10.6107 273.542 10.9327 273.896 11.362C274.26 11.7913 274.54 12.3187 274.736 12.944C274.932 13.5693 275.03 14.2927 275.03 15.114C275.03 15.9353 274.932 16.6633 274.736 17.298C274.54 17.9233 274.26 18.4507 273.896 18.88C273.542 19.3 273.108 19.622 272.594 19.846C272.081 20.0607 271.512 20.168 270.886 20.168ZM270.886 19.118C271.306 19.118 271.694 19.0433 272.048 18.894C272.403 18.7447 272.706 18.53 272.958 18.25C273.22 17.97 273.42 17.634 273.56 17.242C273.7 16.85 273.77 16.4113 273.77 15.926V14.302C273.77 13.8167 273.7 13.378 273.56 12.986C273.42 12.594 273.22 12.258 272.958 11.978C272.706 11.698 272.403 11.4833 272.048 11.334C271.694 11.1847 271.306 11.11 270.886 11.11C270.466 11.11 270.079 11.1847 269.724 11.334C269.37 11.4833 269.062 11.698 268.8 11.978C268.548 12.258 268.352 12.594 268.212 12.986C268.072 13.378 268.002 13.8167 268.002 14.302V15.926C268.002 16.4113 268.072 16.85 268.212 17.242C268.352 17.634 268.548 17.97 268.8 18.25C269.062 18.53 269.37 18.7447 269.724 18.894C270.079 19.0433 270.466 19.118 270.886 19.118ZM278.806 10.228V16.276C278.806 17.2093 278.979 17.9187 279.324 18.404C279.67 18.88 280.276 19.118 281.144 19.118C282.012 19.118 282.619 18.88 282.964 18.404C283.31 17.9187 283.482 17.2093 283.482 16.276V10.228H284.658V15.996C284.658 16.7053 284.593 17.3213 284.462 17.844C284.341 18.3667 284.14 18.8007 283.86 19.146C283.58 19.4913 283.212 19.748 282.754 19.916C282.306 20.084 281.756 20.168 281.102 20.168C280.449 20.168 279.898 20.084 279.45 19.916C279.012 19.748 278.657 19.4913 278.386 19.146C278.116 18.8007 277.92 18.3667 277.798 17.844C277.686 17.3213 277.63 16.7053 277.63 15.996V10.228H278.806ZM297.937 18.572H297.895C297.773 19.0293 297.475 19.412 296.999 19.72C296.532 20.0187 295.925 20.168 295.179 20.168C294.581 20.168 294.031 20.0607 293.527 19.846C293.032 19.622 292.607 19.3 292.253 18.88C291.898 18.4507 291.618 17.9233 291.413 17.298C291.217 16.6633 291.119 15.9353 291.119 15.114C291.119 14.302 291.217 13.5833 291.413 12.958C291.609 12.3233 291.889 11.796 292.253 11.376C292.617 10.9467 293.055 10.62 293.569 10.396C294.082 10.172 294.651 10.06 295.277 10.06C296.154 10.06 296.887 10.256 297.475 10.648C298.063 11.04 298.515 11.558 298.833 12.202L297.867 12.79C297.643 12.2673 297.307 11.8567 296.859 11.558C296.42 11.2593 295.893 11.11 295.277 11.11C294.847 11.11 294.455 11.1893 294.101 11.348C293.746 11.4973 293.438 11.712 293.177 11.992C292.925 12.272 292.729 12.608 292.589 13C292.449 13.392 292.379 13.8307 292.379 14.316V15.898C292.379 16.3833 292.449 16.8267 292.589 17.228C292.729 17.62 292.925 17.956 293.177 18.236C293.438 18.516 293.755 18.7353 294.129 18.894C294.502 19.0433 294.922 19.118 295.389 19.118C295.725 19.118 296.042 19.076 296.341 18.992C296.649 18.8987 296.915 18.7633 297.139 18.586C297.372 18.4087 297.554 18.1893 297.685 17.928C297.815 17.6573 297.881 17.34 297.881 16.976V16.01H295.725V14.974H299.029V20H297.937V18.572ZM301.899 20V10.228H307.863V11.264H303.075V14.54H307.583V15.576H303.075V18.964H307.863V20H301.899ZM313.907 11.264V20H312.731V11.264H309.623V10.228H317.015V11.264H313.907ZM325.793 20.168C324.999 20.168 324.323 20.0187 323.763 19.72C323.203 19.412 322.727 18.992 322.335 18.46L323.203 17.732C323.548 18.1893 323.931 18.5393 324.351 18.782C324.771 19.0153 325.265 19.132 325.835 19.132C326.535 19.132 327.067 18.964 327.431 18.628C327.804 18.292 327.991 17.844 327.991 17.284C327.991 16.8173 327.851 16.458 327.571 16.206C327.291 15.954 326.829 15.7533 326.185 15.604L325.387 15.422C324.491 15.2167 323.805 14.9087 323.329 14.498C322.862 14.078 322.629 13.49 322.629 12.734C322.629 12.3047 322.708 11.922 322.867 11.586C323.025 11.25 323.245 10.97 323.525 10.746C323.814 10.522 324.155 10.354 324.547 10.242C324.948 10.1207 325.387 10.06 325.863 10.06C326.6 10.06 327.23 10.1953 327.753 10.466C328.285 10.7367 328.733 11.1333 329.097 11.656L328.215 12.3C327.944 11.9267 327.617 11.6327 327.235 11.418C326.852 11.2033 326.376 11.096 325.807 11.096C325.181 11.096 324.687 11.2313 324.323 11.502C323.968 11.7633 323.791 12.16 323.791 12.692C323.791 13.1587 323.94 13.5133 324.239 13.756C324.547 13.9893 325.009 14.176 325.625 14.316L326.423 14.498C327.384 14.7127 328.079 15.0393 328.509 15.478C328.938 15.9167 329.153 16.5 329.153 17.228C329.153 17.676 329.073 18.082 328.915 18.446C328.765 18.81 328.546 19.118 328.257 19.37C327.967 19.622 327.613 19.818 327.193 19.958C326.782 20.098 326.315 20.168 325.793 20.168ZM334.852 11.264V20H333.676V11.264H330.568V10.228H337.96V11.264H334.852ZM345.331 20L344.351 17.116H340.403L339.423 20H338.233L341.649 10.228H343.147L346.563 20H345.331ZM342.405 11.32H342.335L340.683 16.08H344.057L342.405 11.32ZM349.914 20H348.738V10.228H352.63C353.488 10.228 354.156 10.466 354.632 10.942C355.117 11.418 355.36 12.104 355.36 13C355.36 13.7187 355.192 14.3113 354.856 14.778C354.529 15.2353 354.044 15.5387 353.4 15.688L355.64 20H354.31L352.196 15.8H349.914V20ZM352.63 14.792C353.096 14.792 353.456 14.6707 353.708 14.428C353.969 14.1853 354.1 13.84 354.1 13.392V12.664C354.1 12.216 353.969 11.8707 353.708 11.628C353.456 11.3853 353.096 11.264 352.63 11.264H349.914V14.792H352.63ZM361.197 11.264V20H360.021V11.264H356.913V10.228H364.305V11.264H361.197ZM366.474 20V10.228H372.438V11.264H367.65V14.54H372.158V15.576H367.65V18.964H372.438V20H366.474ZM375.192 10.228H378.468C379.075 10.228 379.626 10.3307 380.12 10.536C380.615 10.7413 381.035 11.0493 381.38 11.46C381.735 11.8613 382.006 12.37 382.192 12.986C382.379 13.5927 382.472 14.302 382.472 15.114C382.472 15.926 382.379 16.64 382.192 17.256C382.006 17.8627 381.735 18.3713 381.38 18.782C381.035 19.1833 380.615 19.4867 380.12 19.692C379.626 19.8973 379.075 20 378.468 20H375.192V10.228ZM378.468 18.964C378.87 18.964 379.238 18.8987 379.574 18.768C379.91 18.628 380.2 18.4273 380.442 18.166C380.685 17.9047 380.872 17.5873 381.002 17.214C381.142 16.8313 381.212 16.3973 381.212 15.912V14.316C381.212 13.8307 381.142 13.4013 381.002 13.028C380.872 12.6453 380.685 12.3233 380.442 12.062C380.2 11.8007 379.91 11.6047 379.574 11.474C379.238 11.334 378.87 11.264 378.468 11.264H376.368V18.964H378.468ZM390.363 20L387.983 10.228H389.229L390.279 14.932L391.091 18.586H391.119L392.029 14.932L393.261 10.228H394.605L395.795 14.932L396.705 18.572H396.747L397.587 14.932L398.693 10.228H399.897L397.391 20H396.089L394.815 15.128L393.919 11.544H393.891L392.967 15.128L391.665 20H390.363ZM401.568 20V19.02H402.94V11.208H401.568V10.228H405.488V11.208H404.116V19.02H405.488V20H401.568ZM411.385 11.264V20H410.209V11.264H407.101V10.228H414.493V11.264H411.385ZM422.781 15.576H417.839V20H416.663V10.228H417.839V14.54H422.781V10.228H423.957V20H422.781V15.576ZM430.981 20V10.228H434.873C435.751 10.228 436.423 10.48 436.889 10.984C437.365 11.4787 437.603 12.16 437.603 13.028C437.603 13.896 437.365 14.582 436.889 15.086C436.423 15.5807 435.751 15.828 434.873 15.828H432.157V20H430.981ZM432.157 14.792H434.873C435.34 14.792 435.699 14.6707 435.951 14.428C436.213 14.1853 436.343 13.84 436.343 13.392V12.664C436.343 12.216 436.213 11.8707 435.951 11.628C435.699 11.3853 435.34 11.264 434.873 11.264H432.157V14.792ZM443.681 20.168C443.047 20.168 442.473 20.0607 441.959 19.846C441.455 19.622 441.021 19.3 440.657 18.88C440.303 18.4507 440.027 17.9233 439.831 17.298C439.635 16.6633 439.537 15.9353 439.537 15.114C439.537 14.2927 439.635 13.5693 439.831 12.944C440.027 12.3187 440.303 11.7913 440.657 11.362C441.021 10.9327 441.455 10.6107 441.959 10.396C442.473 10.172 443.047 10.06 443.681 10.06C444.307 10.06 444.876 10.172 445.389 10.396C445.903 10.6107 446.337 10.9327 446.691 11.362C447.055 11.7913 447.335 12.3187 447.531 12.944C447.727 13.5693 447.825 14.2927 447.825 15.114C447.825 15.9353 447.727 16.6633 447.531 17.298C447.335 17.9233 447.055 18.4507 446.691 18.88C446.337 19.3 445.903 19.622 445.389 19.846C444.876 20.0607 444.307 20.168 443.681 20.168ZM443.681 19.118C444.101 19.118 444.489 19.0433 444.843 18.894C445.198 18.7447 445.501 18.53 445.753 18.25C446.015 17.97 446.215 17.634 446.355 17.242C446.495 16.85 446.565 16.4113 446.565 15.926V14.302C446.565 13.8167 446.495 13.378 446.355 12.986C446.215 12.594 446.015 12.258 445.753 11.978C445.501 11.698 445.198 11.4833 444.843 11.334C444.489 11.1847 444.101 11.11 443.681 11.11C443.261 11.11 442.874 11.1847 442.519 11.334C442.165 11.4833 441.857 11.698 441.595 11.978C441.343 12.258 441.147 12.594 441.007 12.986C440.867 13.378 440.797 13.8167 440.797 14.302V15.926C440.797 16.4113 440.867 16.85 441.007 17.242C441.147 17.634 441.343 17.97 441.595 18.25C441.857 18.53 442.165 18.7447 442.519 18.894C442.874 19.0433 443.261 19.118 443.681 19.118ZM450.495 20V10.228H451.671V18.964H455.829V20H450.495ZM457.603 20V19.02H458.975V11.208H457.603V10.228H461.523V11.208H460.151V19.02H461.523V20H457.603ZM467.67 20.168C466.429 20.168 465.463 19.748 464.772 18.908C464.081 18.0587 463.736 16.8127 463.736 15.17C463.736 13.5273 464.081 12.2673 464.772 11.39C465.463 10.5033 466.429 10.06 467.67 10.06C468.491 10.06 469.177 10.2467 469.728 10.62C470.288 10.9933 470.722 11.5207 471.03 12.202L470.078 12.776C469.882 12.272 469.583 11.8707 469.182 11.572C468.781 11.264 468.277 11.11 467.67 11.11C467.25 11.11 466.872 11.1893 466.536 11.348C466.209 11.5067 465.929 11.7353 465.696 12.034C465.472 12.3233 465.299 12.6733 465.178 13.084C465.057 13.4853 464.996 13.938 464.996 14.442V15.898C464.996 16.906 465.229 17.6947 465.696 18.264C466.163 18.8333 466.821 19.118 467.67 19.118C468.295 19.118 468.818 18.9593 469.238 18.642C469.658 18.3153 469.966 17.886 470.162 17.354L471.1 17.942C470.792 18.6327 470.349 19.1787 469.77 19.58C469.191 19.972 468.491 20.168 467.67 20.168ZM475.649 20V16.136L472.289 10.228H473.633L476.237 14.932H476.279L478.883 10.228H480.227L476.825 16.094V20H475.649ZM493.744 11.768H493.674L492.848 13.406L490.51 17.662L488.172 13.406L487.346 11.768H487.276V20H486.128V10.228H487.696L490.496 15.492H490.566L493.38 10.228H494.892V20H493.744V11.768ZM501.699 20.168C501.064 20.168 500.49 20.0607 499.977 19.846C499.473 19.622 499.039 19.3 498.675 18.88C498.32 18.4507 498.045 17.9233 497.849 17.298C497.653 16.6633 497.555 15.9353 497.555 15.114C497.555 14.2927 497.653 13.5693 497.849 12.944C498.045 12.3187 498.32 11.7913 498.675 11.362C499.039 10.9327 499.473 10.6107 499.977 10.396C500.49 10.172 501.064 10.06 501.699 10.06C502.324 10.06 502.894 10.172 503.407 10.396C503.92 10.6107 504.354 10.9327 504.709 11.362C505.073 11.7913 505.353 12.3187 505.549 12.944C505.745 13.5693 505.843 14.2927 505.843 15.114C505.843 15.9353 505.745 16.6633 505.549 17.298C505.353 17.9233 505.073 18.4507 504.709 18.88C504.354 19.3 503.92 19.622 503.407 19.846C502.894 20.0607 502.324 20.168 501.699 20.168ZM501.699 19.118C502.119 19.118 502.506 19.0433 502.861 18.894C503.216 18.7447 503.519 18.53 503.771 18.25C504.032 17.97 504.233 17.634 504.373 17.242C504.513 16.85 504.583 16.4113 504.583 15.926V14.302C504.583 13.8167 504.513 13.378 504.373 12.986C504.233 12.594 504.032 12.258 503.771 11.978C503.519 11.698 503.216 11.4833 502.861 11.334C502.506 11.1847 502.119 11.11 501.699 11.11C501.279 11.11 500.892 11.1847 500.537 11.334C500.182 11.4833 499.874 11.698 499.613 11.978C499.361 12.258 499.165 12.594 499.025 12.986C498.885 13.378 498.815 13.8167 498.815 14.302V15.926C498.815 16.4113 498.885 16.85 499.025 17.242C499.165 17.634 499.361 17.97 499.613 18.25C499.874 18.53 500.182 18.7447 500.537 18.894C500.892 19.0433 501.279 19.118 501.699 19.118ZM508.513 10.228H511.789C512.395 10.228 512.946 10.3307 513.441 10.536C513.935 10.7413 514.355 11.0493 514.701 11.46C515.055 11.8613 515.326 12.37 515.513 12.986C515.699 13.5927 515.793 14.302 515.793 15.114C515.793 15.926 515.699 16.64 515.513 17.256C515.326 17.8627 515.055 18.3713 514.701 18.782C514.355 19.1833 513.935 19.4867 513.441 19.692C512.946 19.8973 512.395 20 511.789 20H508.513V10.228ZM511.789 18.964C512.19 18.964 512.559 18.8987 512.895 18.768C513.231 18.628 513.52 18.4273 513.763 18.166C514.005 17.9047 514.192 17.5873 514.323 17.214C514.463 16.8313 514.533 16.3973 514.533 15.912V14.316C514.533 13.8307 514.463 13.4013 514.323 13.028C514.192 12.6453 514.005 12.3233 513.763 12.062C513.52 11.8007 513.231 11.6047 512.895 11.474C512.559 11.334 512.19 11.264 511.789 11.264H509.689V18.964H511.789ZM519.567 10.228V16.276C519.567 17.2093 519.74 17.9187 520.085 18.404C520.431 18.88 521.037 19.118 521.905 19.118C522.773 19.118 523.38 18.88 523.725 18.404C524.071 17.9187 524.243 17.2093 524.243 16.276V10.228H525.419V15.996C525.419 16.7053 525.354 17.3213 525.223 17.844C525.102 18.3667 524.901 18.8007 524.621 19.146C524.341 19.4913 523.973 19.748 523.515 19.916C523.067 20.084 522.517 20.168 521.863 20.168C521.21 20.168 520.659 20.084 520.211 19.916C519.773 19.748 519.418 19.4913 519.147 19.146C518.877 18.8007 518.681 18.3667 518.559 17.844C518.447 17.3213 518.391 16.7053 518.391 15.996V10.228H519.567ZM528.505 20V10.228H529.681V18.964H533.839V20H528.505ZM536.075 20V10.228H542.039V11.264H537.251V14.54H541.759V15.576H537.251V18.964H542.039V20H536.075ZM547.537 20.168C546.743 20.168 546.067 20.0187 545.507 19.72C544.947 19.412 544.471 18.992 544.079 18.46L544.947 17.732C545.292 18.1893 545.675 18.5393 546.095 18.782C546.515 19.0153 547.009 19.132 547.579 19.132C548.279 19.132 548.811 18.964 549.175 18.628C549.548 18.292 549.735 17.844 549.735 17.284C549.735 16.8173 549.595 16.458 549.315 16.206C549.035 15.954 548.573 15.7533 547.929 15.604L547.131 15.422C546.235 15.2167 545.549 14.9087 545.073 14.498C544.606 14.078 544.373 13.49 544.373 12.734C544.373 12.3047 544.452 11.922 544.611 11.586C544.769 11.25 544.989 10.97 545.269 10.746C545.558 10.522 545.899 10.354 546.291 10.242C546.692 10.1207 547.131 10.06 547.607 10.06C548.344 10.06 548.974 10.1953 549.497 10.466C550.029 10.7367 550.477 11.1333 550.841 11.656L549.959 12.3C549.688 11.9267 549.361 11.6327 548.979 11.418C548.596 11.2033 548.12 11.096 547.551 11.096C546.925 11.096 546.431 11.2313 546.067 11.502C545.712 11.7633 545.535 12.16 545.535 12.692C545.535 13.1587 545.684 13.5133 545.983 13.756C546.291 13.9893 546.753 14.176 547.369 14.316L548.167 14.498C549.128 14.7127 549.823 15.0393 550.253 15.478C550.682 15.9167 550.897 16.5 550.897 17.228C550.897 17.676 550.817 18.082 550.659 18.446C550.509 18.81 550.29 19.118 550.001 19.37C549.711 19.622 549.357 19.818 548.937 19.958C548.526 20.098 548.059 20.168 547.537 20.168Z" fill="#5263FF"/>
<path d="M211.776 86.576C208.288 86.576 205.744 85.536 204.144 83.456C202.544 81.376 201.744 78.384 201.744 74.48C201.744 73.2 201.824 71.76 201.984 70.16C202.176 68.528 202.496 66.88 202.944 65.216C203.392 63.52 203.984 61.888 204.72 60.32C205.456 58.72 206.368 57.296 207.456 56.048C208.576 54.8 209.904 53.808 211.44 53.072C212.976 52.304 214.752 51.92 216.768 51.92C218.304 51.92 219.616 52.144 220.704 52.592C221.792 53.04 222.688 53.632 223.392 54.368C224.128 55.072 224.688 55.872 225.072 56.768C225.456 57.664 225.744 58.576 225.936 59.504L222.384 60.656C222.224 59.952 222 59.28 221.712 58.64C221.456 58 221.104 57.44 220.656 56.96C220.208 56.48 219.648 56.096 218.976 55.808C218.304 55.52 217.472 55.376 216.48 55.376C213.792 55.376 211.648 56.4 210.048 58.448C208.48 60.464 207.408 63.2 206.832 66.656L206.064 71.264C205.936 72 205.84 72.72 205.776 73.424C205.712 74.128 205.68 74.816 205.68 75.488C205.68 77.792 206.192 79.648 207.216 81.056C208.24 82.432 209.904 83.12 212.208 83.12C213.168 83.12 214.016 82.992 214.752 82.736C215.488 82.448 216.16 82.032 216.768 81.488C217.408 80.944 218.016 80.256 218.592 79.424C219.168 78.592 219.776 77.616 220.416 76.496L223.536 78.08C222.896 79.392 222.208 80.576 221.472 81.632C220.736 82.688 219.888 83.584 218.928 84.32C218 85.056 216.944 85.616 215.76 86C214.608 86.384 213.28 86.576 211.776 86.576ZM239.289 86.576C237.977 86.576 237.049 86.256 236.505 85.616C235.961 84.976 235.689 84.16 235.689 83.168C235.689 82.944 235.689 82.688 235.689 82.4C235.721 82.112 235.769 81.856 235.833 81.632L241.209 53.696H232.473L233.001 50.48H245.625L239.385 82.88L240.585 83.264L250.425 74.912L252.585 77.024L247.593 81.536C246.441 82.592 245.449 83.456 244.617 84.128C243.785 84.768 243.049 85.28 242.409 85.664C241.801 86.016 241.241 86.256 240.729 86.384C240.249 86.512 239.769 86.576 239.289 86.576ZM272.994 55.712C271.97 55.712 271.25 55.52 270.834 55.136C270.418 54.752 270.21 54.304 270.21 53.792C270.21 53.6 270.226 53.392 270.258 53.168C270.29 52.944 270.338 52.688 270.402 52.4C270.53 51.664 270.85 51.104 271.362 50.72C271.874 50.304 272.61 50.096 273.57 50.096C274.594 50.096 275.314 50.288 275.73 50.672C276.146 51.056 276.354 51.504 276.354 52.016C276.354 52.208 276.338 52.416 276.306 52.64C276.274 52.864 276.226 53.12 276.162 53.408C276.034 54.144 275.714 54.72 275.202 55.136C274.69 55.52 273.954 55.712 272.994 55.712ZM269.73 86.576C268.514 86.576 267.586 86.272 266.946 85.664C266.338 85.024 266.034 84.224 266.034 83.264C266.034 82.944 266.05 82.624 266.082 82.304C266.146 81.952 266.21 81.632 266.274 81.344L269.538 64.448H260.61L261.138 61.232H273.906L269.73 82.832L270.834 83.264L280.29 75.104L282.546 77.216L278.178 81.248C277.058 82.304 276.082 83.168 275.25 83.84C274.45 84.512 273.73 85.056 273.09 85.472C272.45 85.888 271.858 86.176 271.314 86.336C270.802 86.496 270.274 86.576 269.73 86.576ZM286.587 86L290.715 61.232H294.171L293.547 65.12H293.739C294.315 63.872 295.003 62.816 295.803 61.952C296.635 61.088 297.739 60.656 299.115 60.656C300.523 60.656 301.531 61.104 302.139 62C302.747 62.896 303.003 64.016 302.907 65.36H303.051C303.691 63.92 304.491 62.784 305.451 61.952C306.411 61.088 307.611 60.656 309.051 60.656C310.427 60.656 311.467 61.072 312.171 61.904C312.907 62.704 313.275 63.872 313.275 65.408C313.275 65.856 313.243 66.384 313.179 66.992C313.115 67.6 313.035 68.192 312.939 68.768L310.059 86H306.603L309.387 69.392C309.483 68.816 309.563 68.272 309.627 67.76C309.691 67.216 309.723 66.768 309.723 66.416C309.723 64.624 309.019 63.728 307.611 63.728C306.939 63.728 306.347 63.92 305.835 64.304C305.355 64.656 304.907 65.104 304.491 65.648C304.043 66.288 303.675 66.992 303.387 67.76C303.099 68.496 302.891 69.232 302.763 69.968L300.075 86H296.619L299.403 69.392C299.595 68.24 299.691 67.296 299.691 66.56C299.691 65.536 299.515 64.816 299.163 64.4C298.843 63.952 298.347 63.728 297.675 63.728C297.003 63.728 296.395 63.92 295.851 64.304C295.307 64.656 294.843 65.104 294.459 65.648C294.011 66.288 293.643 66.992 293.355 67.76C293.067 68.496 292.859 69.232 292.731 69.968L290.043 86H286.587ZM333.732 86L334.692 80.144H334.548C333.588 82.096 332.42 83.664 331.044 84.848C329.7 86 327.94 86.576 325.764 86.576C323.268 86.576 321.348 85.776 320.004 84.176C318.692 82.576 318.036 80.176 318.036 76.976C318.036 75.312 318.228 73.536 318.612 71.648C319.028 69.728 319.684 67.952 320.58 66.32C321.508 64.688 322.724 63.344 324.228 62.288C325.732 61.2 327.572 60.656 329.748 60.656C331.572 60.656 333.092 61.072 334.308 61.904C335.556 62.704 336.452 63.92 336.996 65.552H337.14L337.86 61.232H341.604L337.476 86H333.732ZM327.06 83.264C328.084 83.264 329.092 83.056 330.084 82.64C331.076 82.192 332.004 81.488 332.868 80.528C333.508 79.824 334.068 78.992 334.548 78.032C335.06 77.072 335.412 76.016 335.604 74.864L336.516 69.392C336.804 67.664 336.388 66.336 335.268 65.408C334.18 64.448 332.708 63.968 330.852 63.968C328.452 63.968 326.564 64.688 325.188 66.128C323.844 67.568 322.98 69.44 322.596 71.744L322.02 75.2C321.956 75.648 321.908 76.048 321.876 76.4C321.844 76.72 321.828 77.04 321.828 77.36C321.828 79.216 322.26 80.672 323.124 81.728C324.02 82.752 325.332 83.264 327.06 83.264ZM356.157 86.576C355.037 86.576 354.157 86.272 353.517 85.664C352.909 85.056 352.605 84.176 352.605 83.024C352.605 82.8 352.605 82.496 352.605 82.112C352.637 81.728 352.685 81.408 352.749 81.152L355.629 64.448H348.477L349.005 61.232H354.045C354.877 61.232 355.485 61.072 355.869 60.752C356.285 60.4 356.573 59.808 356.733 58.976L357.837 52.496H361.389L359.901 61.232H370.125L369.597 64.448H359.373L356.301 82.784L357.261 83.36L368.061 76.16L369.933 78.56L364.509 82.4C363.389 83.2 362.413 83.872 361.581 84.416C360.781 84.928 360.045 85.344 359.373 85.664C358.733 85.984 358.157 86.208 357.645 86.336C357.133 86.496 356.637 86.576 356.157 86.576ZM387.318 86.576C384.182 86.576 381.766 85.712 380.07 83.984C378.374 82.224 377.526 79.552 377.526 75.968C377.526 73.728 377.862 71.68 378.534 69.824C379.206 67.936 380.134 66.32 381.318 64.976C382.534 63.6 383.974 62.544 385.638 61.808C387.334 61.04 389.174 60.656 391.158 60.656C392.374 60.656 393.494 60.8 394.518 61.088C395.542 61.376 396.422 61.808 397.158 62.384C397.926 62.928 398.518 63.616 398.934 64.448C399.35 65.28 399.558 66.24 399.558 67.328C399.558 68.192 399.35 69.088 398.934 70.016C398.55 70.944 397.718 71.808 396.438 72.608C395.19 73.408 393.366 74.08 390.966 74.624C388.598 75.168 385.446 75.488 381.51 75.584C381.478 75.84 381.462 76.08 381.462 76.304C381.462 76.496 381.462 76.624 381.462 76.688C381.462 77.552 381.542 78.384 381.702 79.184C381.862 79.984 382.166 80.704 382.614 81.344C383.062 81.952 383.686 82.448 384.486 82.832C385.286 83.184 386.342 83.36 387.654 83.36C388.55 83.36 389.35 83.264 390.054 83.072C390.79 82.848 391.478 82.528 392.118 82.112C392.79 81.664 393.43 81.104 394.038 80.432C394.678 79.728 395.35 78.88 396.054 77.888L398.694 79.52C397.286 81.824 395.686 83.584 393.894 84.8C392.134 85.984 389.942 86.576 387.318 86.576ZM390.822 63.776C388.326 63.776 386.294 64.528 384.726 66.032C383.158 67.536 382.198 69.696 381.846 72.512L381.798 72.992C384.806 72.896 387.222 72.672 389.046 72.32C390.902 71.936 392.31 71.488 393.27 70.976C394.262 70.464 394.918 69.904 395.238 69.296C395.558 68.688 395.718 68.08 395.718 67.472C395.718 66.96 395.622 66.48 395.43 66.032C395.27 65.584 394.998 65.2 394.614 64.88C394.23 64.528 393.718 64.256 393.078 64.064C392.47 63.872 391.718 63.776 390.822 63.776ZM446.472 86.576C442.984 86.576 440.44 85.536 438.84 83.456C437.24 81.376 436.44 78.384 436.44 74.48C436.44 73.2 436.52 71.76 436.68 70.16C436.872 68.528 437.192 66.88 437.64 65.216C438.088 63.52 438.68 61.888 439.416 60.32C440.152 58.72 441.064 57.296 442.152 56.048C443.272 54.8 444.6 53.808 446.136 53.072C447.672 52.304 449.448 51.92 451.464 51.92C453 51.92 454.312 52.144 455.4 52.592C456.488 53.04 457.384 53.632 458.088 54.368C458.824 55.072 459.384 55.872 459.768 56.768C460.152 57.664 460.44 58.576 460.632 59.504L457.08 60.656C456.92 59.952 456.696 59.28 456.408 58.64C456.152 58 455.8 57.44 455.352 56.96C454.904 56.48 454.344 56.096 453.672 55.808C453 55.52 452.168 55.376 451.176 55.376C448.488 55.376 446.344 56.4 444.744 58.448C443.176 60.464 442.104 63.2 441.528 66.656L440.76 71.264C440.632 72 440.536 72.72 440.472 73.424C440.408 74.128 440.376 74.816 440.376 75.488C440.376 77.792 440.888 79.648 441.912 81.056C442.936 82.432 444.6 83.12 446.904 83.12C447.864 83.12 448.712 82.992 449.448 82.736C450.184 82.448 450.856 82.032 451.464 81.488C452.104 80.944 452.712 80.256 453.288 79.424C453.864 78.592 454.472 77.616 455.112 76.496L458.232 78.08C457.592 79.392 456.904 80.576 456.168 81.632C455.432 82.688 454.584 83.584 453.624 84.32C452.696 85.056 451.64 85.616 450.456 86C449.304 86.384 447.976 86.576 446.472 86.576ZM470.817 50.48H474.561L471.777 67.088H471.969C472.897 65.104 474.001 63.536 475.281 62.384C476.561 61.232 478.209 60.656 480.225 60.656C482.305 60.656 483.937 61.28 485.121 62.528C486.337 63.776 486.945 65.536 486.945 67.808C486.945 68.288 486.913 68.816 486.849 69.392C486.817 69.936 486.753 70.48 486.657 71.024L484.161 86H480.417L482.865 71.36C482.961 70.784 483.025 70.272 483.057 69.824C483.089 69.344 483.105 68.976 483.105 68.72C483.105 67.248 482.769 66.096 482.097 65.264C481.425 64.4 480.385 63.968 478.977 63.968C477.889 63.968 476.913 64.208 476.049 64.688C475.217 65.168 474.449 65.824 473.745 66.656C473.617 66.816 473.409 67.072 473.121 67.424C472.865 67.744 472.593 68.16 472.305 68.672C472.017 69.152 471.745 69.712 471.489 70.352C471.233 70.96 471.041 71.616 470.913 72.32L468.609 86H464.865L470.817 50.48ZM509.755 86L510.715 80.144H510.571C509.611 82.096 508.443 83.664 507.067 84.848C505.723 86 503.963 86.576 501.787 86.576C499.291 86.576 497.371 85.776 496.027 84.176C494.715 82.576 494.059 80.176 494.059 76.976C494.059 75.312 494.251 73.536 494.635 71.648C495.051 69.728 495.707 67.952 496.603 66.32C497.531 64.688 498.747 63.344 500.251 62.288C501.755 61.2 503.595 60.656 505.771 60.656C507.595 60.656 509.115 61.072 510.331 61.904C511.579 62.704 512.475 63.92 513.019 65.552H513.163L513.883 61.232H517.627L513.499 86H509.755ZM503.083 83.264C504.107 83.264 505.115 83.056 506.107 82.64C507.099 82.192 508.027 81.488 508.891 80.528C509.531 79.824 510.091 78.992 510.571 78.032C511.083 77.072 511.435 76.016 511.627 74.864L512.539 69.392C512.827 67.664 512.411 66.336 511.291 65.408C510.203 64.448 508.731 63.968 506.875 63.968C504.475 63.968 502.587 64.688 501.211 66.128C499.867 67.568 499.003 69.44 498.619 71.744L498.043 75.2C497.979 75.648 497.931 76.048 497.899 76.4C497.867 76.72 497.851 77.04 497.851 77.36C497.851 79.216 498.283 80.672 499.147 81.728C500.043 82.752 501.355 83.264 503.083 83.264ZM523.54 86L527.668 61.232H531.412L530.452 67.088H530.644C531.572 65.104 532.676 63.536 533.956 62.384C535.236 61.232 536.884 60.656 538.9 60.656C540.98 60.656 542.612 61.28 543.796 62.528C545.012 63.776 545.62 65.536 545.62 67.808C545.62 68.288 545.588 68.816 545.524 69.392C545.492 69.936 545.428 70.48 545.332 71.024L542.836 86H539.092L541.54 71.36C541.636 70.784 541.7 70.272 541.732 69.824C541.764 69.344 541.78 68.976 541.78 68.72C541.78 67.248 541.444 66.096 540.772 65.264C540.1 64.4 539.06 63.968 537.652 63.968C536.564 63.968 535.588 64.208 534.724 64.688C533.892 65.168 533.124 65.824 532.42 66.656C532.292 66.816 532.084 67.072 531.796 67.424C531.54 67.744 531.268 68.16 530.98 68.672C530.692 69.152 530.42 69.712 530.164 70.352C529.908 70.96 529.716 71.616 529.588 72.32L527.284 86H523.54ZM560.221 96.176C556.253 96.176 553.357 95.04 551.533 92.768L554.125 90.272C554.765 91.104 555.597 91.744 556.621 92.192C557.645 92.64 558.925 92.864 560.461 92.864C562.733 92.864 564.541 92.288 565.885 91.136C567.229 89.984 568.125 88.032 568.573 85.28L569.581 79.328H569.389C568.461 81.312 567.293 82.88 565.885 84.032C564.509 85.184 562.733 85.76 560.557 85.76C557.997 85.76 556.061 84.96 554.749 83.36C553.437 81.728 552.781 79.392 552.781 76.352C552.781 74.752 552.989 73.04 553.405 71.216C553.821 69.36 554.493 67.664 555.421 66.128C556.349 64.56 557.549 63.264 559.021 62.24C560.493 61.184 562.301 60.656 564.445 60.656C566.269 60.656 567.789 61.072 569.005 61.904C570.253 62.704 571.149 63.92 571.693 65.552H571.837L572.557 61.232H576.301L572.173 86C571.533 89.648 570.157 92.256 568.045 93.824C565.933 95.392 563.325 96.176 560.221 96.176ZM561.853 82.448C562.877 82.448 563.885 82.24 564.877 81.824C565.869 81.408 566.813 80.704 567.709 79.712C568.157 79.2 568.669 78.48 569.245 77.552C569.821 76.592 570.221 75.44 570.445 74.096L571.213 69.392C571.501 67.664 571.085 66.336 569.965 65.408C568.877 64.448 567.405 63.968 565.549 63.968C563.213 63.968 561.341 64.672 559.933 66.08C558.557 67.488 557.677 69.344 557.293 71.648L556.861 74.24C556.797 74.688 556.733 75.072 556.669 75.392C556.637 75.68 556.621 76 556.621 76.352C556.621 78.336 557.053 79.856 557.917 80.912C558.813 81.936 560.125 82.448 561.853 82.448ZM592.678 86.576C589.542 86.576 587.126 85.712 585.43 83.984C583.734 82.224 582.886 79.552 582.886 75.968C582.886 73.728 583.222 71.68 583.894 69.824C584.566 67.936 585.494 66.32 586.678 64.976C587.894 63.6 589.334 62.544 590.998 61.808C592.694 61.04 594.534 60.656 596.518 60.656C597.734 60.656 598.854 60.8 599.878 61.088C600.902 61.376 601.782 61.808 602.518 62.384C603.286 62.928 603.878 63.616 604.294 64.448C604.71 65.28 604.918 66.24 604.918 67.328C604.918 68.192 604.71 69.088 604.294 70.016C603.91 70.944 603.078 71.808 601.798 72.608C600.55 73.408 598.726 74.08 596.326 74.624C593.958 75.168 590.806 75.488 586.87 75.584C586.838 75.84 586.822 76.08 586.822 76.304C586.822 76.496 586.822 76.624 586.822 76.688C586.822 77.552 586.902 78.384 587.062 79.184C587.222 79.984 587.526 80.704 587.974 81.344C588.422 81.952 589.046 82.448 589.846 82.832C590.646 83.184 591.702 83.36 593.014 83.36C593.91 83.36 594.71 83.264 595.414 83.072C596.15 82.848 596.838 82.528 597.478 82.112C598.15 81.664 598.79 81.104 599.398 80.432C600.038 79.728 600.71 78.88 601.414 77.888L604.054 79.52C602.646 81.824 601.046 83.584 599.254 84.8C597.494 85.984 595.302 86.576 592.678 86.576ZM596.182 63.776C593.686 63.776 591.654 64.528 590.086 66.032C588.518 67.536 587.558 69.696 587.206 72.512L587.158 72.992C590.166 72.896 592.582 72.672 594.406 72.32C596.262 71.936 597.67 71.488 598.63 70.976C599.622 70.464 600.278 69.904 600.598 69.296C600.918 68.688 601.078 68.08 601.078 67.472C601.078 66.96 600.982 66.48 600.79 66.032C600.63 65.584 600.358 65.2 599.974 64.88C599.59 64.528 599.078 64.256 598.438 64.064C597.83 63.872 597.078 63.776 596.182 63.776ZM210.768 134.576C207.856 134.576 205.44 134.032 203.52 132.944C201.632 131.824 200.192 130.4 199.2 128.672L202.176 126.32C203.2 127.952 204.416 129.168 205.824 129.968C207.232 130.768 208.944 131.168 210.96 131.168C213.584 131.168 215.664 130.544 217.2 129.296C218.736 128.016 219.504 126.304 219.504 124.16C219.504 122.784 219.104 121.68 218.304 120.848C217.536 120.016 216.176 119.376 214.224 118.928L210.624 118.112C207.968 117.504 206.032 116.528 204.816 115.184C203.6 113.84 202.992 112.08 202.992 109.904C202.992 108.368 203.28 106.992 203.856 105.776C204.464 104.528 205.296 103.472 206.352 102.608C207.408 101.744 208.672 101.088 210.144 100.64C211.616 100.16 213.248 99.92 215.04 99.92C216.48 99.92 217.776 100.064 218.928 100.352C220.112 100.64 221.152 101.04 222.048 101.552C222.944 102.064 223.712 102.656 224.352 103.328C224.992 103.968 225.536 104.672 225.984 105.44L223.104 107.552C222.176 106.144 221.04 105.088 219.696 104.384C218.384 103.648 216.768 103.28 214.848 103.28C212.416 103.28 210.496 103.856 209.088 105.008C207.712 106.128 207.024 107.664 207.024 109.616C207.024 111.152 207.472 112.304 208.368 113.072C209.296 113.84 210.656 114.432 212.448 114.848L215.952 115.664C218.736 116.304 220.688 117.312 221.808 118.688C222.96 120.064 223.536 121.776 223.536 123.824C223.536 125.424 223.232 126.88 222.624 128.192C222.048 129.504 221.2 130.64 220.08 131.6C218.992 132.528 217.648 133.264 216.048 133.808C214.48 134.32 212.72 134.576 210.768 134.576ZM240.297 134.576C238.761 134.576 237.401 134.32 236.217 133.808C235.065 133.296 234.089 132.592 233.289 131.696C232.521 130.768 231.929 129.664 231.513 128.384C231.129 127.072 230.937 125.648 230.937 124.112C230.937 121.744 231.273 119.616 231.945 117.728C232.617 115.808 233.529 114.176 234.681 112.832C235.833 111.488 237.177 110.464 238.713 109.76C240.281 109.024 241.945 108.656 243.705 108.656C245.017 108.656 246.153 108.816 247.113 109.136C248.105 109.456 248.953 109.888 249.657 110.432C250.361 110.944 250.921 111.568 251.337 112.304C251.785 113.04 252.121 113.808 252.345 114.608L249.129 115.856C248.649 114.32 247.929 113.28 246.969 112.736C246.041 112.192 244.809 111.92 243.273 111.92C241.161 111.92 239.433 112.608 238.089 113.984C236.777 115.36 235.897 117.344 235.449 119.936L234.969 122.816C234.873 123.392 234.809 123.84 234.777 124.16C234.745 124.48 234.729 124.8 234.729 125.12C234.729 127.232 235.273 128.8 236.361 129.824C237.481 130.816 238.953 131.312 240.777 131.312C241.321 131.312 241.865 131.248 242.409 131.12C242.985 130.992 243.593 130.72 244.233 130.304C244.905 129.888 245.625 129.28 246.393 128.48C247.161 127.68 248.041 126.608 249.033 125.264L251.721 126.848C250.953 128.096 250.169 129.216 249.369 130.208C248.569 131.168 247.705 131.968 246.777 132.608C245.881 133.248 244.889 133.728 243.801 134.048C242.745 134.4 241.577 134.576 240.297 134.576ZM269.97 134.576C266.834 134.576 264.418 133.712 262.722 131.984C261.026 130.224 260.178 127.552 260.178 123.968C260.178 121.728 260.514 119.68 261.186 117.824C261.858 115.936 262.786 114.32 263.97 112.976C265.186 111.6 266.626 110.544 268.29 109.808C269.986 109.04 271.826 108.656 273.81 108.656C275.026 108.656 276.146 108.8 277.17 109.088C278.194 109.376 279.074 109.808 279.81 110.384C280.578 110.928 281.17 111.616 281.586 112.448C282.002 113.28 282.21 114.24 282.21 115.328C282.21 116.192 282.002 117.088 281.586 118.016C281.202 118.944 280.37 119.808 279.09 120.608C277.842 121.408 276.018 122.08 273.618 122.624C271.25 123.168 268.098 123.488 264.162 123.584C264.13 123.84 264.114 124.08 264.114 124.304C264.114 124.496 264.114 124.624 264.114 124.688C264.114 125.552 264.194 126.384 264.354 127.184C264.514 127.984 264.818 128.704 265.266 129.344C265.714 129.952 266.338 130.448 267.138 130.832C267.938 131.184 268.994 131.36 270.306 131.36C271.202 131.36 272.002 131.264 272.706 131.072C273.442 130.848 274.13 130.528 274.77 130.112C275.442 129.664 276.082 129.104 276.69 128.432C277.33 127.728 278.002 126.88 278.706 125.888L281.346 127.52C279.938 129.824 278.338 131.584 276.546 132.8C274.786 133.984 272.594 134.576 269.97 134.576ZM273.474 111.776C270.978 111.776 268.946 112.528 267.378 114.032C265.81 115.536 264.85 117.696 264.498 120.512L264.45 120.992C267.458 120.896 269.874 120.672 271.698 120.32C273.554 119.936 274.962 119.488 275.922 118.976C276.914 118.464 277.57 117.904 277.89 117.296C278.21 116.688 278.37 116.08 278.37 115.472C278.37 114.96 278.274 114.48 278.082 114.032C277.922 113.584 277.65 113.2 277.266 112.88C276.882 112.528 276.37 112.256 275.73 112.064C275.122 111.872 274.37 111.776 273.474 111.776ZM288.843 134L292.971 109.232H296.715L295.755 115.088H295.947C296.875 113.104 297.979 111.536 299.259 110.384C300.539 109.232 302.187 108.656 304.203 108.656C306.283 108.656 307.915 109.28 309.099 110.528C310.315 111.776 310.923 113.536 310.923 115.808C310.923 116.288 310.891 116.816 310.827 117.392C310.795 117.936 310.731 118.48 310.635 119.024L308.139 134H304.395L306.843 119.36C306.939 118.784 307.003 118.272 307.035 117.824C307.067 117.344 307.083 116.976 307.083 116.72C307.083 115.248 306.747 114.096 306.075 113.264C305.403 112.4 304.363 111.968 302.955 111.968C301.867 111.968 300.891 112.208 300.027 112.688C299.195 113.168 298.427 113.824 297.723 114.656C297.595 114.816 297.387 115.072 297.099 115.424C296.843 115.744 296.571 116.16 296.283 116.672C295.995 117.152 295.723 117.712 295.467 118.352C295.211 118.96 295.019 119.616 294.891 120.32L292.587 134H288.843ZM333.732 134L334.692 128.144H334.548C333.588 130.096 332.42 131.664 331.044 132.848C329.7 134 327.94 134.576 325.764 134.576C323.268 134.576 321.348 133.776 320.004 132.176C318.692 130.576 318.036 128.176 318.036 124.976C318.036 123.312 318.228 121.536 318.612 119.648C319.028 117.728 319.684 115.952 320.58 114.32C321.508 112.688 322.724 111.344 324.228 110.288C325.732 109.2 327.572 108.656 329.748 108.656C331.572 108.656 333.092 109.072 334.308 109.904C335.556 110.704 336.452 111.92 336.996 113.552H337.14L337.86 109.232H341.604L337.476 134H333.732ZM327.06 131.264C328.084 131.264 329.092 131.056 330.084 130.64C331.076 130.192 332.004 129.488 332.868 128.528C333.508 127.824 334.068 126.992 334.548 126.032C335.06 125.072 335.412 124.016 335.604 122.864L336.516 117.392C336.804 115.664 336.388 114.336 335.268 113.408C334.18 112.448 332.708 111.968 330.852 111.968C328.452 111.968 326.564 112.688 325.188 114.128C323.844 115.568 322.98 117.44 322.596 119.744L322.02 123.2C321.956 123.648 321.908 124.048 321.876 124.4C321.844 124.72 321.828 125.04 321.828 125.36C321.828 127.216 322.26 128.672 323.124 129.728C324.02 130.752 325.332 131.264 327.06 131.264ZM353.229 134L356.829 112.448H349.869L350.397 109.232H361.101L359.997 115.856H360.237C360.653 114.864 361.133 113.968 361.677 113.168C362.221 112.336 362.845 111.632 363.549 111.056C364.285 110.48 365.117 110.032 366.045 109.712C366.973 109.392 368.029 109.232 369.213 109.232H372.957L372.333 112.976H368.109C366.669 112.976 365.469 113.184 364.509 113.6C363.549 113.984 362.701 114.608 361.965 115.472C361.805 115.664 361.581 115.936 361.293 116.288C361.037 116.608 360.765 117.008 360.477 117.488C360.189 117.968 359.917 118.512 359.661 119.12C359.437 119.728 359.261 120.384 359.133 121.088L356.973 134H353.229ZM390.342 103.712C389.318 103.712 388.598 103.52 388.182 103.136C387.766 102.752 387.558 102.304 387.558 101.792C387.558 101.6 387.574 101.392 387.606 101.168C387.638 100.944 387.686 100.688 387.75 100.4C387.878 99.664 388.198 99.104 388.71 98.72C389.222 98.304 389.958 98.096 390.918 98.096C391.942 98.096 392.662 98.288 393.078 98.672C393.494 99.056 393.702 99.504 393.702 100.016C393.702 100.208 393.686 100.416 393.654 100.64C393.622 100.864 393.574 101.12 393.51 101.408C393.382 102.144 393.062 102.72 392.55 103.136C392.038 103.52 391.302 103.712 390.342 103.712ZM387.078 134.576C385.862 134.576 384.934 134.272 384.294 133.664C383.686 133.024 383.382 132.224 383.382 131.264C383.382 130.944 383.398 130.624 383.43 130.304C383.494 129.952 383.558 129.632 383.622 129.344L386.886 112.448H377.958L378.486 109.232H391.254L387.078 130.832L388.182 131.264L397.638 123.104L399.894 125.216L395.526 129.248C394.406 130.304 393.43 131.168 392.598 131.84C391.798 132.512 391.078 133.056 390.438 133.472C389.798 133.888 389.206 134.176 388.662 134.336C388.15 134.496 387.622 134.576 387.078 134.576ZM416.079 134.576C414.479 134.576 413.071 134.32 411.855 133.808C410.671 133.296 409.679 132.592 408.879 131.696C408.079 130.768 407.471 129.664 407.055 128.384C406.639 127.072 406.431 125.648 406.431 124.112C406.431 121.744 406.767 119.616 407.439 117.728C408.111 115.808 409.023 114.176 410.175 112.832C411.359 111.488 412.735 110.464 414.303 109.76C415.871 109.024 417.567 108.656 419.391 108.656C420.991 108.656 422.399 108.912 423.615 109.424C424.831 109.936 425.839 110.656 426.639 111.584C427.471 112.48 428.079 113.584 428.463 114.896C428.879 116.176 429.087 117.584 429.087 119.12C429.087 121.488 428.751 123.632 428.079 125.552C427.407 127.44 426.479 129.056 425.295 130.4C424.143 131.744 422.767 132.784 421.167 133.52C419.599 134.224 417.903 134.576 416.079 134.576ZM416.271 131.312C418.607 131.312 420.463 130.608 421.839 129.2C423.247 127.76 424.159 125.808 424.575 123.344L425.055 120.464C425.151 119.888 425.215 119.408 425.247 119.024C425.279 118.64 425.295 118.304 425.295 118.016C425.295 115.904 424.751 114.368 423.663 113.408C422.575 112.416 421.103 111.92 419.247 111.92C416.911 111.92 415.039 112.64 413.631 114.08C412.255 115.488 411.359 117.424 410.943 119.888L410.463 122.768C410.367 123.344 410.303 123.824 410.271 124.208C410.239 124.592 410.223 124.928 410.223 125.216C410.223 127.328 410.767 128.88 411.855 129.872C412.943 130.832 414.415 131.312 416.271 131.312ZM464.289 134L469.905 100.496H481.857C484.673 100.496 486.737 101.232 488.049 102.704C489.393 104.144 490.065 106.032 490.065 108.368C490.065 111.952 489.105 114.752 487.185 116.768C485.297 118.752 482.593 119.744 479.073 119.744H470.625L468.225 134H464.289ZM471.201 116.288H479.457C481.281 116.288 482.689 115.856 483.681 114.992C484.705 114.128 485.345 112.976 485.601 111.536L485.889 109.808C485.985 109.232 486.033 108.608 486.033 107.936C486.033 106.592 485.617 105.6 484.785 104.96C483.985 104.288 482.849 103.952 481.377 103.952H473.265L471.201 116.288ZM499.915 134L503.515 112.448H496.555L497.083 109.232H507.787L506.683 115.856H506.923C507.339 114.864 507.819 113.968 508.363 113.168C508.907 112.336 509.531 111.632 510.235 111.056C510.971 110.48 511.803 110.032 512.731 109.712C513.659 109.392 514.715 109.232 515.899 109.232H519.643L519.019 112.976H514.795C513.355 112.976 512.155 113.184 511.195 113.6C510.235 113.984 509.387 114.608 508.651 115.472C508.491 115.664 508.267 115.936 507.979 116.288C507.723 116.608 507.451 117.008 507.163 117.488C506.875 117.968 506.603 118.512 506.347 119.12C506.123 119.728 505.947 120.384 505.819 121.088L503.659 134H499.915ZM537.028 103.712C536.004 103.712 535.284 103.52 534.868 103.136C534.452 102.752 534.244 102.304 534.244 101.792C534.244 101.6 534.26 101.392 534.292 101.168C534.324 100.944 534.372 100.688 534.436 100.4C534.564 99.664 534.884 99.104 535.396 98.72C535.908 98.304 536.644 98.096 537.604 98.096C538.628 98.096 539.348 98.288 539.764 98.672C540.18 99.056 540.388 99.504 540.388 100.016C540.388 100.208 540.372 100.416 540.34 100.64C540.308 100.864 540.26 101.12 540.196 101.408C540.068 102.144 539.748 102.72 539.236 103.136C538.724 103.52 537.988 103.712 537.028 103.712ZM533.764 134.576C532.548 134.576 531.62 134.272 530.98 133.664C530.372 133.024 530.068 132.224 530.068 131.264C530.068 130.944 530.084 130.624 530.116 130.304C530.18 129.952 530.244 129.632 530.308 129.344L533.572 112.448H524.644L525.172 109.232H537.94L533.764 130.832L534.868 131.264L544.324 123.104L546.58 125.216L542.212 129.248C541.092 130.304 540.116 131.168 539.284 131.84C538.484 132.512 537.764 133.056 537.124 133.472C536.484 133.888 535.892 134.176 535.348 134.336C534.836 134.496 534.308 134.576 533.764 134.576ZM550.621 134L554.749 109.232H558.205L557.581 113.12H557.773C558.349 111.872 559.037 110.816 559.837 109.952C560.669 109.088 561.773 108.656 563.149 108.656C564.557 108.656 565.565 109.104 566.173 110C566.781 110.896 567.037 112.016 566.941 113.36H567.085C567.725 111.92 568.525 110.784 569.485 109.952C570.445 109.088 571.645 108.656 573.085 108.656C574.461 108.656 575.501 109.072 576.205 109.904C576.941 110.704 577.309 111.872 577.309 113.408C577.309 113.856 577.277 114.384 577.213 114.992C577.149 115.6 577.069 116.192 576.973 116.768L574.093 134H570.637L573.421 117.392C573.517 116.816 573.597 116.272 573.661 115.76C573.725 115.216 573.757 114.768 573.757 114.416C573.757 112.624 573.053 111.728 571.645 111.728C570.973 111.728 570.381 111.92 569.869 112.304C569.389 112.656 568.941 113.104 568.525 113.648C568.077 114.288 567.709 114.992 567.421 115.76C567.133 116.496 566.925 117.232 566.797 117.968L564.109 134H560.653L563.437 117.392C563.629 116.24 563.725 115.296 563.725 114.56C563.725 113.536 563.549 112.816 563.197 112.4C562.877 111.952 562.381 111.728 561.709 111.728C561.037 111.728 560.429 111.92 559.885 112.304C559.341 112.656 558.877 113.104 558.493 113.648C558.045 114.288 557.677 114.992 557.389 115.76C557.101 116.496 556.893 117.232 556.765 117.968L554.077 134H550.621ZM592.678 134.576C589.542 134.576 587.126 133.712 585.43 131.984C583.734 130.224 582.886 127.552 582.886 123.968C582.886 121.728 583.222 119.68 583.894 117.824C584.566 115.936 585.494 114.32 586.678 112.976C587.894 111.6 589.334 110.544 590.998 109.808C592.694 109.04 594.534 108.656 596.518 108.656C597.734 108.656 598.854 108.8 599.878 109.088C600.902 109.376 601.782 109.808 602.518 110.384C603.286 110.928 603.878 111.616 604.294 112.448C604.71 113.28 604.918 114.24 604.918 115.328C604.918 116.192 604.71 117.088 604.294 118.016C603.91 118.944 603.078 119.808 601.798 120.608C600.55 121.408 598.726 122.08 596.326 122.624C593.958 123.168 590.806 123.488 586.87 123.584C586.838 123.84 586.822 124.08 586.822 124.304C586.822 124.496 586.822 124.624 586.822 124.688C586.822 125.552 586.902 126.384 587.062 127.184C587.222 127.984 587.526 128.704 587.974 129.344C588.422 129.952 589.046 130.448 589.846 130.832C590.646 131.184 591.702 131.36 593.014 131.36C593.91 131.36 594.71 131.264 595.414 131.072C596.15 130.848 596.838 130.528 597.478 130.112C598.15 129.664 598.79 129.104 599.398 128.432C600.038 127.728 600.71 126.88 601.414 125.888L604.054 127.52C602.646 129.824 601.046 131.584 599.254 132.8C597.494 133.984 595.302 134.576 592.678 134.576ZM596.182 111.776C593.686 111.776 591.654 112.528 590.086 114.032C588.518 115.536 587.558 117.696 587.206 120.512L587.158 120.992C590.166 120.896 592.582 120.672 594.406 120.32C596.262 119.936 597.67 119.488 598.63 118.976C599.622 118.464 600.278 117.904 600.598 117.296C600.918 116.688 601.078 116.08 601.078 115.472C601.078 114.96 600.982 114.48 600.79 114.032C600.63 113.584 600.358 113.2 599.974 112.88C599.59 112.528 599.078 112.256 598.438 112.064C597.83 111.872 597.078 111.776 596.182 111.776ZM617.263 134L620.863 112.448H613.903L614.431 109.232H625.135L624.031 115.856H624.271C624.687 114.864 625.167 113.968 625.711 113.168C626.255 112.336 626.879 111.632 627.583 111.056C628.319 110.48 629.151 110.032 630.079 109.712C631.007 109.392 632.063 109.232 633.247 109.232H636.991L636.367 112.976H632.143C630.703 112.976 629.503 113.184 628.543 113.6C627.583 113.984 626.735 114.608 625.999 115.472C625.839 115.664 625.615 115.936 625.327 116.288C625.071 116.608 624.799 117.008 624.511 117.488C624.223 117.968 623.951 118.512 623.695 119.12C623.471 119.728 623.295 120.384 623.167 121.088L621.007 134H617.263Z" fill="#5263FF"/>
</svg>
