<?xml version="1.0" encoding="UTF-8"?>
<svg width="1024px" height="507px" viewBox="0 0 1024 507" version="1.1" xmlns="http://www.w3.org/2000/svg" xmlns:xlink="http://www.w3.org/1999/xlink">
    <!-- Generator: Sketch 61 (89581) - https://sketch.com -->
    <title>transition-path-1</title>
    <desc>Created with Sketch.</desc>
    <g id="transition-path-1" stroke="none" stroke-width="1" fill="none" fill-rule="evenodd">
        <g id="Group" transform="translate(303.000000, 299.000000)">
            <path d="M0,80.4212289 L584.265807,80.4212289 L528.991147,70.2957162 C517.136654,68.1241456 505.890194,63.4205996 496.019316,56.5060854 C486.438626,49.7948464 474.558285,47.226113 463.060825,49.3798944 L391.920173,62.7064392 C376.842316,65.5309246 361.316771,64.848696 346.544781,60.7125388 L298.537235,47.2704257 C295.514089,46.4239448 292.532481,45.4355697 289.602319,44.3085844 L239.966566,25.2179101 C224.243893,19.1707282 207.248367,17.1934045 190.557338,19.4694539 L128,28 L128,28 L107.504525,22.3737911 C61.9123788,9.85830007 14.5439262,35.435059 0,80.4212289 L0,80.4212289 L0,80.4212289 Z" id="Path-43" stroke="#427660"></path>
            <path d="M0,80.4212289 L584.265807,80.4212289 L548.666361,35.1684872 C532.058015,14.0565527 504.013102,5.59568391 478.5,14 L439.782546,26.753985 C437.261848,27.5843325 434.709093,28.3140043 432.130346,28.9412672 L377.264755,42.2869514 C367.150278,44.7472298 356.71368,45.6131961 346.332034,44.8535634 L303.423418,41.7139086 C288.017401,40.5866391 272.559681,43.0437669 258.262569,48.8925853 L231.058022,60.0217184 C219.78097,64.6350576 207.755765,67.1486723 195.575015,67.4386901 L173.18997,67.9716674 C172.396685,67.9905551 171.603203,68 170.809692,68 L118.906195,68 C115.637364,68 112.370499,68.1602787 109.117368,68.4802589 L54.1207569,73.8897616 C53.3736093,73.9632515 52.627313,74.045153 51.88201,74.1354504 L0,80.4212289 L0,80.4212289 Z" id="Path-43" stroke="#0BBFB0"></path>
        </g>
        <g id="Group-2" transform="translate(164.000000, 419.000000)">
            <path d="M0,72.2916688 L584.265807,72.2916688 L510.33301,62.8120176 C506.115298,62.2712231 501.867385,62 497.615143,62 L443,62 L382,62 L321.926847,62 C302.509683,62 283.625136,55.6505835 268.152156,43.9197202 C253.236134,32.6111143 233.68581,29.4283663 215.953051,35.4218251 L208.690938,37.8763317 C186.324265,45.4359972 161.688313,41.8011525 142.457897,28.1041572 L127.2241,17.2537811 C111.937784,6.36599769 92.4845696,3.13618099 74.5,8.5 C55.9151622,14.0428464 39.3826608,24.953994 26.9792152,39.8628464 L0,72.2916688 L0,72.2916688 Z" id="Path-43-Copy" stroke="#427660"></path>
            <path d="M0,72.2916688 L584.265807,72.2916688 L569.875178,47.1769118 C556.345637,23.5649391 531.213485,9 504,9 L468.819744,9 C462.951305,9 457.094256,9.51657674 451.316411,10.5437492 L388.846344,21.6495389 C376.395145,23.8630854 363.637071,23.6947839 351.248596,21.1535582 L320.880641,14.9242341 C302.482059,11.150166 283.344565,15.2912817 268.152156,26.3340226 L261.680417,31.0380654 C250.226986,39.3630963 237.136192,45.160924 223.274279,48.047895 L191.742281,54.6149516 C179.410198,57.1833106 166.703886,57.398576 154.29188,55.2494216 L130.544786,51.1375826 C119.297888,49.1901684 107.800599,49.1826498 96.5511639,51.1153528 L62.4919303,56.9668808 C57.0840258,57.8959828 51.6088241,58.3784014 46.1217748,58.4092508 L41.9790509,58.432542 C33.8172532,58.4784294 25.7616936,60.2869731 18.3635765,63.7344229 L0,72.2916688 L0,72.2916688 Z" id="Path-43-Copy" stroke="#0BBFB0"></path>
        </g>
        <g id="Group-3" transform="translate(70.000000, 61.000000)">
            <path d="M0,69.6535593 L584.265807,69.6535593 C550.002327,68.5315315 525.913725,66.3136784 512,63 C498.535402,59.7932852 472.815728,59.6897743 434.840977,62.6894675 C432.221194,62.8964087 429.594272,63 426.966329,63 L367.17808,63 C363.063283,63 358.952408,62.7460269 354.868903,62.2395292 L297.834121,55.1652187 C294.03644,54.6941733 290.268929,54.005523 286.550178,53.1026657 L250.069151,44.2456167 C246.229301,43.3133584 242.33757,42.6095111 238.414431,42.1377772 L187.99755,36.0754516 C178.106421,34.8861031 168.448541,32.225389 159.343843,28.1814499 L143.10388,20.9683145 C124.281195,12.6080384 102.804863,12.5770139 83.9581018,20.882873 L65.7027894,28.928078 C58.2214802,32.2251273 50.1538062,33.9848709 41.9790509,34.102766 C34.1144275,34.2161884 26.6895157,37.7506075 21.642617,43.7833497 L0,69.6535593 L0,69.6535593 Z" id="Path-43-Copy-2" stroke="#427660"></path>
            <path d="M0,69.6535593 L584.265807,69.6535593 C550.668994,25.9809425 526.913725,3.09642276 513,1 C502.126415,-0.638355708 485.296287,2.46454294 462.509616,10.3086959 C448.126749,15.2598977 432.803901,16.8646791 417.707292,15.0009003 L401.213878,12.9646764 C375.423004,9.78061773 349.405566,16.7614348 328.672673,32.4284258 L311.43615,45.4533551 C299.095467,54.7786994 283.507163,58.7151095 268.218608,56.3667914 L248.08591,53.2744141 C245.565767,52.8873207 243.031741,52.5967531 240.489389,52.4033481 L181.467512,47.913364 C175.884077,47.4886141 170.274831,47.5335856 164.698925,48.0478041 L113.083942,52.8078158 C111.694799,52.9359246 110.30849,53.0930879 108.925923,53.2792026 L67.3981394,58.8694812 C61.8093946,59.6218123 56.2943019,60.8455306 50.9118413,62.5275496 L42.1936102,65.2519968 C32.1279014,68.3975308 21.6279865,69.931071 11.0831029,69.7957681 L0,69.6535593 L0,69.6535593 Z" id="Path-43-Copy-2" stroke="#0BBFB0"></path>
        </g>
        <line x1="239" y1="427.5" x2="162" y2="361.5" id="line1" stroke="#524DFF" stroke-width="0.5"></line>
        <line x1="748.75" y1="326.5" x2="849.75" y2="226.5" id="line3" stroke="#524DFF" stroke-width="0.5"></line>
        <text id="Gross-Emissions-%" font-family="IBMPlexMono, IBM Plex Mono" font-size="10" font-weight="normal" letter-spacing="0.5558032" fill="#5144FF">
            <tspan x="64.2756728" y="343">Gross Emissions %</tspan>
        </text>
        <text id="Electrification-Rate" font-family="IBMPlexMono, IBM Plex Mono" font-size="10" font-weight="normal" letter-spacing="0.5558032" fill="#524DFF">
            <tspan x="849.25" y="200">Electrification </tspan>
            <tspan x="849.25" y="213">Rate</tspan>
        </text>
    </g>
</svg>