<?xml version="1.0" encoding="UTF-8"?>
<svg width="1024px" height="507px" viewBox="0 0 1024 507" version="1.1" xmlns="http://www.w3.org/2000/svg" xmlns:xlink="http://www.w3.org/1999/xlink">
    <!-- Generator: Sketch 61 (89581) - https://sketch.com -->
    <title>transition-path-1</title>
    <desc>Created with Sketch.</desc>
    <g id="transition-path-1" stroke="none" stroke-width="1" fill="none" fill-rule="evenodd">
        <g id="Group" transform="translate(303.000000, 299.000000)" stroke="#0BBFB0">
            <path d="M0,80.4212289 L584.265807,80.4212289 L548.666361,35.1684872 C532.058015,14.0565527 504.013102,5.59568391 478.5,14 L439.782546,26.753985 C437.261848,27.5843325 434.709093,28.3140043 432.130346,28.9412672 L377.264755,42.2869514 C367.150278,44.7472298 356.71368,45.6131961 346.332034,44.8535634 L303.423418,41.7139086 C288.017401,40.5866391 272.559681,43.0437669 258.262569,48.8925853 L231.058022,60.0217184 C219.78097,64.6350576 207.755765,67.1486723 195.575015,67.4386901 L173.18997,67.9716674 C172.396685,67.9905551 171.603203,68 170.809692,68 L118.906195,68 C115.637364,68 112.370499,68.1602787 109.117368,68.4802589 L54.1207569,73.8897616 C53.3736093,73.9632515 52.627313,74.045153 51.88201,74.1354504 L0,80.4212289 L0,80.4212289 Z" id="Path-43"></path>
        </g>
        <g id="Group-2" transform="translate(164.000000, 424.000000)">
            <path d="M0,67.2916688 L584.265807,67.2916688 L510.33301,57.8120176 C506.115298,57.2712231 501.867385,57 497.615143,57 L443,57 L382,57 L321.926847,57 C302.509683,57 283.625136,50.6505835 268.152156,38.9197202 C253.236134,27.6111143 233.68581,24.4283663 215.953051,30.4218251 L208.690938,32.8763317 C186.18068,40.4845273 161.432648,37.4499123 141.427484,24.6284559 L133.153283,19.32546 C113.657418,6.83041745 90.4294321,1.48861989 67.4337978,4.21178711 L65,4.5 C41.385131,7.29649765 20.9118037,22.1441157 10.9173198,43.7217136 L0,67.2916688 L0,67.2916688 Z" id="Path-43-Copy" stroke="#427660"></path>
            <path d="M0,67.2916688 L584.265807,67.2916688 L569.875178,42.1769118 C556.345637,18.5649391 531.213485,4 504,4 L468.819744,4 C462.951305,4 457.094256,4.51657674 451.316411,5.54374922 L388.846344,16.6495389 C376.395145,18.8630854 363.637071,18.6947839 351.248596,16.1535582 L320.880641,9.92423409 C302.482059,6.15016597 283.344565,10.2912817 268.152156,21.3340226 L261.680417,26.0380654 C250.226986,34.3630963 237.136192,40.160924 223.274279,43.047895 L191.742281,49.6149516 C179.410198,52.1833106 166.703886,52.398576 154.29188,50.2494216 L130.544786,46.1375826 C119.297888,44.1901684 107.800599,44.1826498 96.5511639,46.1153528 L62.4919303,51.9668808 C57.0840258,52.8959828 51.6088241,53.3784014 46.1217748,53.4092508 L41.9790509,53.432542 C33.8172532,53.4784294 25.7616936,55.2869731 18.3635765,58.7344229 L0,67.2916688 L0,67.2916688 Z" id="Path-43-Copy" stroke="#0BBFB0"></path>
        </g>
        <g id="Group-3" transform="translate(70.000000, 61.000000)">
            <path d="M0,69.6535593 L584.265807,69.6535593 C550.002327,68.5315315 525.913725,66.3136784 512,63 C498.535402,59.7932852 472.815728,59.6897743 434.840977,62.6894675 C432.221194,62.8964087 429.594272,63 426.966329,63 L367.17808,63 C363.063283,63 358.952408,62.7460269 354.868903,62.2395292 L297.834121,55.1652187 C294.03644,54.6941733 290.268929,54.005523 286.550178,53.1026657 L250.069151,44.2456167 C246.229301,43.3133584 242.33757,42.6095111 238.414431,42.1377772 L187.99755,36.0754516 C178.106421,34.8861031 168.448541,32.225389 159.343843,28.1814499 L143.10388,20.9683145 C124.281195,12.6080384 102.804863,12.5770139 83.9581018,20.882873 L65.7027894,28.928078 C58.2214802,32.2251273 50.1538062,33.9848709 41.9790509,34.102766 C34.1144275,34.2161884 26.6895157,37.7506075 21.642617,43.7833497 L0,69.6535593 L0,69.6535593 Z" id="Path-43-Copy-2" stroke="#427660"></path>
            <path d="M0,69.6535593 L584.265807,69.6535593 C550.668994,25.9809425 526.913725,3.09642276 513,1 C502.126415,-0.638355708 485.296287,2.46454294 462.509616,10.3086959 C448.126749,15.2598977 432.803901,16.8646791 417.707292,15.0009003 L401.213878,12.9646764 C375.423004,9.78061773 349.405566,16.7614348 328.672673,32.4284258 L311.43615,45.4533551 C299.095467,54.7786994 283.507163,58.7151095 268.218608,56.3667914 L248.08591,53.2744141 C245.565767,52.8873207 243.031741,52.5967531 240.489389,52.4033481 L181.467512,47.913364 C175.884077,47.4886141 170.274831,47.5335856 164.698925,48.0478041 L113.083942,52.8078158 C111.694799,52.9359246 110.30849,53.0930879 108.925923,53.2792026 L67.3981394,58.8694812 C61.8093946,59.6218123 56.2943019,60.8455306 50.9118413,62.5275496 L42.1936102,65.2519968 C32.1279014,68.3975308 21.6279865,69.931071 11.0831029,69.7957681 L0,69.6535593 L0,69.6535593 Z" id="Path-43-Copy-2" stroke="#0BBFB0"></path>
        </g>
        <line x1="239" y1="427.5" x2="162" y2="361.5" id="line1" stroke="#8d88ff" stroke-width="0.5"></line>
        <line x1="748.75" y1="326.5" x2="849.75" y2="226.5" id="line3" stroke="#8d88ff" stroke-width="0.5"></line>
        <text id="Gross-Emissions-%" font-family="IBMPlexMono, IBM Plex Mono" font-size="10" font-weight="normal" letter-spacing="0.5558032" fill="#8d88ff">
            <tspan x="64.2756728" y="343">% Gross Emissions</tspan>
        </text>
        <text id="Electrification-Rate" font-family="IBMPlexMono, IBM Plex Mono" font-size="10" font-weight="normal" letter-spacing="0.5558032" fill="#8d88ff">
            <tspan x="849.25" y="200">Electrification </tspan>
            <tspan x="849.25" y="213">Rate</tspan>
        </text>
        <path d="M303,379 L309.733053,360.33108 C318.894016,334.930228 342.997657,318 370,318 L397.281601,318 C409.002585,318 420.632309,320.060601 431.639754,324.087715 L439.360246,326.912285 C450.367691,330.939399 461.997415,333 473.718399,333 L512.578418,333 C517.519345,333 522.453478,333.366191 527.340274,334.095563 L651.931198,352.691224 C653.310248,352.897052 654.684843,353.131701 656.054081,353.395016 L728.670061,367.359627 C730.889382,367.78642 733.122535,368.137855 735.36567,368.413328 L785.438567,374.562631 C787.812092,374.854117 790.195309,375.060369 792.583621,375.180991 L888,380 L888,380 L303,379 Z" id="Path-19" stroke="#447761"></path>
    </g>
</svg>
