<?xml version="1.0" encoding="UTF-8"?>
<svg width="1024px" height="507px" viewBox="0 0 1024 507" version="1.1" xmlns="http://www.w3.org/2000/svg" xmlns:xlink="http://www.w3.org/1999/xlink">
    <!-- Generator: Sketch 61 (89581) - https://sketch.com -->
    <title>transition-path-2</title>
    <desc>Created with Sketch.</desc>
    <g id="transition-path-2" stroke="none" stroke-width="1" fill="none" fill-rule="evenodd">
        <g id="Group-28" transform="translate(222.000000, 84.000000)" stroke="#025F58">
            <circle id="Oval-5" fill="#9BE8C7" cx="5.5" cy="9.5" r="5.5"></circle>
            <circle id="Oval-5-Copy-21" cx="5.5" cy="204.5" r="5.5"></circle>
            <circle id="Oval-5-Copy-7" cx="5.5" cy="74.5" r="5.5"></circle>
            <circle id="Oval-5-Copy-22" cx="5.5" cy="269.5" r="5.5"></circle>
            <circle id="Oval-5-Copy-14" cx="5.5" cy="139.5" r="5.5"></circle>
            <circle id="Oval-5-Copy-23" cx="5.5" cy="334.5" r="5.5"></circle>
            <circle id="Oval-5-Copy" cx="71.5" cy="9.5" r="5.5"></circle>
            <circle id="Oval-5-Copy-24" cx="71.5" cy="204.5" r="5.5"></circle>
            <circle id="Oval-5-Copy-8" cx="71.5" cy="74.5" r="10.5"></circle>
            <circle id="Oval-5-Copy-25" cx="71.5" cy="269.5" r="5.5"></circle>
            <circle id="Oval-5-Copy-15" cx="71.5" cy="139.5" r="5.5"></circle>
            <circle id="Oval-5-Copy-26" cx="71.5" cy="334.5" r="5.5"></circle>
            <circle id="Oval-5-Copy-2" fill="#9BE8C7" cx="137.5" cy="9.5" r="5.5"></circle>
            <circle id="Oval-5-Copy-27" cx="137.5" cy="204.5" r="5.5"></circle>
            <circle id="Oval-5-Copy-9" cx="138" cy="75" r="11"></circle>
            <circle id="Oval-5-Copy-28" cx="137.5" cy="269.5" r="5.5"></circle>
            <circle id="Oval-5-Copy-16" cx="137.5" cy="139.5" r="5.5"></circle>
            <circle id="Oval-5-Copy-29" cx="137.5" cy="334.5" r="5.5"></circle>
            <circle id="Oval-5-Copy-3" cx="203.5" cy="9.5" r="5.5"></circle>
            <circle id="Oval-5-Copy-30" cx="203.5" cy="204.5" r="5.5"></circle>
            <circle id="Oval-5-Copy-10" cx="203.5" cy="74.5" r="5.5"></circle>
            <circle id="Oval-5-Copy-31" cx="203.5" cy="269.5" r="5.5"></circle>
            <circle id="Oval-5-Copy-17" cx="203.5" cy="139.5" r="5.5"></circle>
            <circle id="Oval-5-Copy-32" cx="203.5" cy="334.5" r="5.5"></circle>
            <circle id="Oval-5-Copy-4" cx="271" cy="10" r="10"></circle>
            <circle id="Oval-5-Copy-33" cx="269.5" cy="204.5" r="5.5"></circle>
            <circle id="Oval-5-Copy-11" fill="#9BE8C7" cx="269.5" cy="74.5" r="5.5"></circle>
            <circle id="Oval-5-Copy-34" cx="269.5" cy="269.5" r="5.5"></circle>
            <circle id="Oval-5-Copy-18" cx="269.5" cy="139.5" r="5.5"></circle>
            <circle id="Oval-5-Copy-35" fill="#9BE8C7" cx="269.5" cy="334.5" r="5.5"></circle>
            <circle id="Oval-5-Copy-5" cx="335.5" cy="9.5" r="5.5"></circle>
            <circle id="Oval-5-Copy-36" cx="335.5" cy="204.5" r="5.5"></circle>
            <circle id="Oval-5-Copy-12" cx="335.5" cy="74.5" r="5.5"></circle>
            <circle id="Oval-5-Copy-37" cx="336" cy="270" r="15"></circle>
            <circle id="Oval-5-Copy-19" fill="#9BE8C7" cx="336" cy="140" r="12"></circle>
            <circle id="Oval-5-Copy-38" cx="335.5" cy="334.5" r="5.5"></circle>
            <circle id="Oval-5-Copy-6" fill="#9BE8C7" cx="401.5" cy="9.5" r="5.5"></circle>
            <circle id="Oval-5-Copy-39" cx="401.5" cy="204.5" r="5.5"></circle>
            <circle id="Oval-5-Copy-13" cx="401.5" cy="74.5" r="5.5"></circle>
            <circle id="Oval-5-Copy-40" cx="401.5" cy="269.5" r="5.5"></circle>
            <circle id="Oval-5-Copy-20" cx="401.5" cy="139.5" r="5.5"></circle>
            <circle id="Oval-5-Copy-41" cx="401.5" cy="334.5" r="5.5"></circle>
        </g>
        <line x1="625.75" y1="92.75" x2="757.5" y2="60.5" id="line1" stroke="#8d88ff" stroke-width="0.5"></line>
        <line x1="119.5" y1="382.5" x2="228.5" y2="285.5" id="line2" stroke="#8d88ff" stroke-width="0.5"></line>
        <line x1="629.5" y1="351.5" x2="705.5" y2="388.5" id="line3" stroke="#8d88ff" stroke-width="0.5"></line>
        <text id="Yearly-energy-demand" font-family="IBMPlexMono, IBM Plex Mono" font-size="10" font-weight="normal" letter-spacing="0.5558032" fill="#8d88ff">
            <tspan x="53.441968" y="399">Yearly energy demand</tspan>
        </text>
        <text id="Energy-produced-in-o" font-family="IBMPlexMono, IBM Plex Mono" font-size="10" font-weight="normal" letter-spacing="0.5558032" fill="#8d88ff">
            <tspan x="692.274558" y="46">Energy produced in one day</tspan>
        </text>
        <text id="Exceeding-Demand" font-family="IBMPlexMono, IBM Plex Mono" font-size="10" font-weight="normal" letter-spacing="0.5558032" fill="#8d88ff">
            <tspan x="672.053574" y="409">Exceeding Demand</tspan>
        </text>
    </g>
</svg>
