<?xml version="1.0" encoding="UTF-8"?>
<svg width="1024px" height="507px" viewBox="0 0 1024 507" version="1.1" xmlns="http://www.w3.org/2000/svg" xmlns:xlink="http://www.w3.org/1999/xlink">
    <g id="transition-path-1" stroke="none" stroke-width="1" fill="none" fill-rule="evenodd">
        <path d="M127,461.291669 L711.265807,461.291669 L637.33301,451.812018 C633.115298,451.271223 628.867385,451 624.615143,451 L570,451 L509,451 L448.926847,451 C429.509683,451 410.625136,444.650583 395.152156,432.91972 C380.236134,421.611114 360.68581,418.428366 342.953051,424.421825 L335.690938,426.876332 C313.18068,434.484527 288.432648,431.449912 268.427484,418.628456 L260.153283,413.32546 C240.657418,400.830417 217.429432,395.48862 194.433798,398.211787 L192,398.5 C168.385131,401.296498 147.911804,416.144116 137.91732,437.721714 L127,461.291669 L127,461.291669 Z" id="Path-43-Copy" fill="#9BE8C7"></path>
        <path d="M74,107.811932 L658.265807,107.811932 C624.002327,106.689904 599.913725,104.472051 586,101.158373 C572.535402,97.951658 546.815728,97.8481471 508.840977,100.84784 C506.221194,101.054782 503.594272,101.158373 500.966329,101.158373 L441.17808,101.158373 C437.063283,101.158373 432.952408,100.9044 428.868903,100.397902 L371.834121,93.3235915 C368.03644,92.8525461 364.268929,92.1638958 360.550178,91.2610385 L324.069151,82.4039895 C320.229301,81.4717311 316.33757,80.7678838 312.414431,80.29615 L261.99755,74.2338244 C252.106421,73.0444759 242.448541,70.3837618 233.343843,66.3398227 L217.10388,59.1266873 C198.281195,50.7664112 176.804863,50.7353866 157.958102,59.0412458 L139.702789,67.0864508 C132.22148,70.3835001 124.153806,72.1432437 115.979051,72.2611388 C108.114428,72.3745612 100.689516,75.9089803 95.642617,81.9417225 L74,107.811932 L74,107.811932 Z" id="Path-43-Copy-2" fill="#9BE8C7"></path>
        <path d="M266,349 L272.733053,330.33108 C281.894016,304.930228 305.997657,288 333,288 L360.281601,288 C372.002585,288 383.632309,290.060601 394.639754,294.087715 L402.360246,296.912285 C413.367691,300.939399 424.997415,303 436.718399,303 L475.578418,303 C480.519345,303 485.453478,303.366191 490.340274,304.095563 L614.931198,322.691224 C616.310248,322.897052 617.684843,323.131701 619.054081,323.395016 L691.670061,337.359627 C693.889382,337.78642 696.122535,338.137855 698.36567,338.413328 L748.438567,344.562631 C750.812092,344.854117 753.195309,345.060369 755.583621,345.180991 L851,350 L851,350 L266,349 Z" id="Path-19" fill="#9BE8C7"></path>
        <path d="M366,243 L367.108843,220.453524 C368.167999,198.917351 385.937798,182 407.5,182 L446,182 L503.963237,182 C513.931713,182 523.844162,183.490512 533.371822,186.422099 L572.487735,198.457765 C580.134942,200.810751 588.036904,202.237465 596.024118,202.707301 L702.167649,208.951038 C702.72254,208.983679 703.277694,209.011692 703.833052,209.035076 L780.569441,212.266082 C792.102714,212.751693 803.464826,215.230541 814.152341,219.592792 L833.851431,227.633237 C842.573385,231.193219 851.754627,233.502893 861.122878,234.493766 L951,244 L951,244 L366,243 Z" id="Path-19-Copy" fill="#9BE8C7"></path>
        <path d="M74,107.811932 L658.265807,107.811932 C624.002327,106.689904 599.913725,104.472051 586,101.158373 C574.548858,98.4311805 554.233774,97.9484963 525.054749,99.7103201 C511.453867,100.531539 497.828634,98.5645779 485.015336,93.9301654 L460.496599,85.0620393 C453.035913,82.3636011 445.280611,80.5626004 437.394282,79.6970277 L370.845926,72.3929399 C368.459953,72.1310649 366.084183,71.783369 363.723232,71.3505279 L316.207685,62.6393443 C310.258699,61.5486969 304.223034,61 298.174898,61 L261.243907,61 C253.286946,61 245.358423,60.0503136 237.626557,58.1710903 L199.189142,48.8289097 C191.457276,46.9496864 183.528753,46 175.571792,46 L150.402901,46 C138.120026,46 126.309888,50.7348904 117.428799,59.219893 L107.628708,68.5829101 C104.939523,71.15216 102.395768,73.8694351 100.009298,76.7220693 L74,107.811932 L74,107.811932 Z" id="Path-43-Copy-2" stroke="#21978D" transform="translate(366.132904, 76.905966) scale(-1, 1) translate(-366.132904, -76.905966) "></path>
        <path d="M366,243 L376.842937,212.639777 C382.187788,197.674195 397.240474,188.457099 413,190.5 L429.578123,192.649016 C436.506963,193.547199 443.322594,195.169061 449.913341,197.488028 L470.461652,204.717989 C485.916938,210.15596 502.471631,211.71317 518.669882,209.252676 L543.497175,205.481442 C562.556383,202.586372 582.026669,206.486799 598.5,216.5 C614.983797,226.519563 634.442074,230.486656 653.532706,227.719898 L680.935503,223.748478 C688.948839,222.587125 697.073567,222.403323 705.131224,223.201111 L790.026181,231.606553 C792.674338,231.868746 795.331906,232.02513 797.992539,232.075331 L842.672483,232.918349 C845.556144,232.972757 848.436102,233.151895 851.304278,233.45526 L951,244 L951,244 L366,243 Z" id="Path-19-Copy" stroke="#21978D" transform="translate(658.500000, 215.500000) scale(-1, 1) translate(-658.500000, -215.500000) "></path>
        <path d="M266,349 C266,327.447861 283.47146,309.976401 305.023599,309.976401 C307.154675,309.976401 309.28217,310.150967 311.384742,310.498349 L378.632681,321.608878 C380.210667,321.869588 381.79468,322.092405 383.383353,322.277134 L422.516427,326.827491 C423.50542,326.942491 424.492641,327.072254 425.47776,327.216738 L494.651617,337.362237 C497.54914,337.787207 500.463934,338.08469 503.387568,338.253826 L619.647728,344.979621 C619.882575,344.993207 620.117374,345.007622 620.35212,345.022865 L693.763478,349.789836 C695.920592,349.929909 698.081681,350 700.243338,350 L752,350 L851,350 L851,350 L266,349 Z" id="Path-19" stroke="#21978D" transform="translate(558.500000, 326.500000) scale(-1, 1) translate(-558.500000, -326.500000) "></path>
        <path d="M127,461.291669 L711.265807,461.291669 L637.33301,451.812018 C633.115298,451.271223 628.867385,451 624.615143,451 L597.410571,451 C579.467782,451 561.855498,446.172373 546.420513,437.023334 L539.632904,433 C520.704589,421.780301 497.372339,420.946734 477.691633,430.787087 L463.388594,437.938607 C447.434366,445.915721 428.312825,443.993318 414.265807,433 C399.362945,421.336891 380.983792,415 362.059643,415 L305.265807,415 L238.984938,415 C233.846494,415 228.715692,414.603947 223.63812,413.815359 L192.632904,409 C169.758947,405.447491 147.297242,417.470925 137.568254,438.475329 L127,461.291669 L127,461.291669 Z" id="Path-43-Copy" stroke="#21978D" transform="translate(419.132904, 432.145834) scale(-1, 1) translate(-419.132904, -432.145834) "></path>
    </g>
</svg>
