<?xml version="1.0" encoding="UTF-8"?>
<svg width="1024px" height="507px" viewBox="0 0 1024 507" version="1.1" xmlns="http://www.w3.org/2000/svg" xmlns:xlink="http://www.w3.org/1999/xlink">
    <!-- Generator: Sketch 61 (89581) - https://sketch.com -->
    <title>land-transitions</title>
    <desc>Created with Sketch.</desc>
    <g id="land-transitions" stroke="none" stroke-width="1" fill="none" fill-rule="evenodd">
        <g id="bar1" transform="translate(324.000000, 295.000000)">
            <rect id="Rectangle-12-Copy" stroke="#0BBFB0" x="0.5" y="0.5" width="552" height="98"></rect>
            <line x1="377" y1="1" x2="377" y2="98" id="Path-45" stroke="#9BE8C7"></line>
            <line x1="395" y1="1" x2="395" y2="98" id="Path-45-Copy" stroke="#9BE8C7"></line>
            <line x1="386" y1="1" x2="386" y2="98" id="Path-45-Copy-2" stroke="#9BE8C7"></line>
            <line x1="406" y1="1" x2="406" y2="98" id="Path-45-Copy-3" stroke="#9BE8C7"></line>
            <line x1="437" y1="1" x2="437" y2="98" id="Path-45-Copy-4" stroke="#9BE8C7"></line>
        </g>
        <g id="bar2" transform="translate(324.000000, 171.000000)">
            <rect id="Rectangle-12" stroke="#0BBFB0" x="0.5" y="0.5" width="552" height="98"></rect>
            <line x1="400" y1="2" x2="400" y2="99" id="Path-44" stroke="#9BE8C7"></line>
            <line x1="427.25" y1="2" x2="427.25" y2="99" id="Path-44-Copy" stroke="#9BE8C7"></line>
            <line x1="365.25" y1="2" x2="365.25" y2="99" id="Path-44-Copy-2" stroke="#9BE8C7"></line>
            <line x1="264.25" y1="2" x2="264.25" y2="99" id="Path-44-Copy-3" stroke="#9BE8C7"></line>
            <line x1="41.25" y1="2" x2="41.25" y2="99" id="Path-44-Copy-4" stroke="#9BE8C7"></line>
            <line x1="50.25" y1="2" x2="50.25" y2="99" id="Path-44-Copy-5" stroke="#9BE8C7"></line>
            <line x1="73.25" y1="2" x2="73.25" y2="99" id="Path-44-Copy-6" stroke="#9BE8C7"></line>
            <line x1="112.25" y1="2" x2="112.25" y2="99" id="Path-44-Copy-7" stroke="#9BE8C7"></line>
            <line x1="145.25" y1="2" x2="145.25" y2="99" id="Path-44-Copy-8" stroke="#9BE8C7"></line>
            <line x1="171.25" y1="2" x2="171.25" y2="99" id="Path-44-Copy-9" stroke="#9BE8C7"></line>
            <line x1="166.25" y1="2" x2="166.25" y2="99" id="Path-44-Copy-10" stroke="#9BE8C7"></line>
            <line x1="176.25" y1="2" x2="176.25" y2="99" id="Path-44-Copy-12" stroke="#9BE8C7"></line>
            <line x1="181.25" y1="2" x2="181.25" y2="99" id="Path-44-Copy-13" stroke="#9BE8C7"></line>
            <line x1="157.25" y1="2" x2="157.25" y2="99" id="Path-44-Copy-11" stroke="#9BE8C7"></line>
        </g>
        <line x1="228.5" y1="74.5" x2="323.5" y2="171.5" id="line1" stroke="#524DFF" stroke-width="0.5"></line>
        <line x1="762" y1="345" x2="806" y2="440" id="line2" stroke="#524DFF" stroke-width="0.5"></line>
        <text id="Change-in-agricultur" font-family="IBMPlexMono, IBM Plex Mono" font-size="10" font-weight="normal" letter-spacing="0.5558032" fill="#524DFF">
            <tspan x="135.496657" y="61">Change in agricultural land</tspan>
        </text>
        <text id="Regional-crop-failur" font-family="IBMPlexMono, IBM Plex Mono" font-size="10" font-weight="normal" letter-spacing="0.5558032" fill="#524DFF">
            <tspan x="717.774558" y="454">Regional crop failure rate</tspan>
        </text>
    </g>
</svg>